<?xml version="1.0" encoding="UTF-8" standalone="no"?>
<!-- Created with Inkscape (http://www.inkscape.org/) -->

<svg
   xmlns:dc="http://purl.org/dc/elements/1.1/"
   xmlns:cc="http://creativecommons.org/ns#"
   xmlns:rdf="http://www.w3.org/1999/02/22-rdf-syntax-ns#"
   xmlns:svg="http://www.w3.org/2000/svg"
   xmlns="http://www.w3.org/2000/svg"
   xmlns:sodipodi="http://sodipodi.sourceforge.net/DTD/sodipodi-0.dtd"
   xmlns:inkscape="http://www.inkscape.org/namespaces/inkscape"
   width="210mm"
   height="297mm"
   viewBox="0 0 744.09448819 1052.3622047"
   id="svg4480"
   version="1.1"
   inkscape:version="0.91 r13725"
   sodipodi:docname="dir-abs-spec-setup.svg">
  <defs
     id="defs4482">
    <inkscape:path-effect
       effect="spiro"
       id="path-effect4699"
       is_visible="true" />
    <inkscape:path-effect
       effect="spiro"
       id="path-effect6481"
       is_visible="true" />
    <marker
       inkscape:isstock="true"
       style="overflow:visible"
       id="marker6400"
       refX="0.0"
       refY="0.0"
       orient="auto"
       inkscape:stockid="Arrow1Mstart">
      <path
         transform="scale(0.4) translate(10,0)"
         style="fill-rule:evenodd;stroke:#000000;stroke-width:1pt;stroke-opacity:1;fill:#000000;fill-opacity:1"
         d="M 0.0,0.0 L 5.0,-5.0 L -12.5,0.0 L 5.0,5.0 L 0.0,0.0 z "
         id="path6402" />
    </marker>
    <marker
       inkscape:stockid="Arrow1Mend"
       orient="auto"
       refY="0.0"
       refX="0.0"
       id="Arrow1Mend"
       style="overflow:visible;"
       inkscape:isstock="true">
      <path
         id="path5961"
         d="M 0.0,0.0 L 5.0,-5.0 L -12.5,0.0 L 5.0,5.0 L 0.0,0.0 z "
         style="fill-rule:evenodd;stroke:#000000;stroke-width:1pt;stroke-opacity:1;fill:#000000;fill-opacity:1"
         transform="scale(0.4) rotate(180) translate(10,0)" />
    </marker>
    <marker
       inkscape:isstock="true"
       style="overflow:visible"
       id="marker6278"
       refX="0.0"
       refY="0.0"
       orient="auto"
       inkscape:stockid="Arrow1Mstart">
      <path
         transform="scale(0.4) translate(10,0)"
         style="fill-rule:evenodd;stroke:#000000;stroke-width:1pt;stroke-opacity:1;fill:#000000;fill-opacity:1"
         d="M 0.0,0.0 L 5.0,-5.0 L -12.5,0.0 L 5.0,5.0 L 0.0,0.0 z "
         id="path6280" />
    </marker>
    <marker
       inkscape:stockid="Arrow1Mstart"
       orient="auto"
       refY="0.0"
       refX="0.0"
       id="Arrow1Mstart"
       style="overflow:visible"
       inkscape:isstock="true"
       inkscape:collect="always">
      <path
         id="path5958"
         d="M 0.0,0.0 L 5.0,-5.0 L -12.5,0.0 L 5.0,5.0 L 0.0,0.0 z "
         style="fill-rule:evenodd;stroke:#000000;stroke-width:1pt;stroke-opacity:1;fill:#000000;fill-opacity:1"
         transform="scale(0.4) translate(10,0)" />
    </marker>
    <inkscape:path-effect
       is_visible="true"
       id="path-effect5425"
       effect="spiro" />
    <inkscape:path-effect
       is_visible="true"
       id="path-effect5174"
       effect="spiro" />
    <inkscape:path-effect
       is_visible="true"
       id="path-effect5176"
       effect="spiro" />
    <inkscape:path-effect
       is_visible="true"
       id="path-effect5425-6"
       effect="spiro" />
    <inkscape:path-effect
       is_visible="true"
       id="path-effect5356"
       effect="spiro" />
    <inkscape:path-effect
       is_visible="true"
       id="path-effect5358"
       effect="spiro" />
    <inkscape:path-effect
       effect="spiro"
       id="path-effect4374"
       is_visible="true" />
    <inkscape:path-effect
       effect="spiro"
       id="path-effect4398"
       is_visible="true" />
  </defs>
  <sodipodi:namedview
     id="base"
     pagecolor="#ffffff"
     bordercolor="#666666"
     borderopacity="1.0"
     inkscape:pageopacity="0.0"
     inkscape:pageshadow="2"
     inkscape:zoom="1.979899"
     inkscape:cx="276.10725"
     inkscape:cy="546.92997"
     inkscape:document-units="px"
     inkscape:current-layer="layer1"
     showgrid="false"
     inkscape:window-width="1855"
     inkscape:window-height="1056"
     inkscape:window-x="1985"
     inkscape:window-y="24"
     inkscape:window-maximized="1"
     showguides="true" />
  <metadata
     id="metadata4485">
    <rdf:RDF>
      <cc:Work
         rdf:about="">
        <dc:format>image/svg+xml</dc:format>
        <dc:type
           rdf:resource="http://purl.org/dc/dcmitype/StillImage" />
        <dc:title></dc:title>
      </cc:Work>
    </rdf:RDF>
  </metadata>
  <g
     inkscape:label="Layer 1"
     inkscape:groupmode="layer"
     id="layer1">
    <rect
       style="opacity:1;fill:#7d5fff;fill-opacity:0.26627221;stroke:#498c00;stroke-width:2.76099992;stroke-linecap:round;stroke-linejoin:miter;stroke-miterlimit:4;stroke-dasharray:none;stroke-dashoffset:0;stroke-opacity:1"
       id="rect4197"
       width="21.619307"
       height="73.800606"
       x="228.18701"
       y="244.62619" />
    <path
       style="fill:#002100;fill-opacity:0.52662725;fill-rule:evenodd;stroke:#00b400;stroke-width:0.5;stroke-linecap:butt;stroke-linejoin:miter;stroke-miterlimit:4;stroke-dasharray:none;stroke-opacity:1"
       d="m 239.1792,283.62152 0,-65.53571"
       id="path4755"
       inkscape:connector-curvature="0" />
    <flowRoot
       xml:space="preserve"
       id="flowRoot3527"
       style="font-style:normal;font-weight:normal;font-size:15px;line-height:125%;font-family:sans-serif;text-align:start;letter-spacing:0px;word-spacing:0px;writing-mode:lr-tb;text-anchor:start;fill:#000000;fill-opacity:1;stroke:none;stroke-width:1px;stroke-linecap:butt;stroke-linejoin:miter;stroke-opacity:1"
       transform="translate(-261.04695,-345.49027)"><flowRegion
         id="flowRegion3529"><rect
           id="rect3531"
           width="233.39645"
           height="95.938599"
           x="285.94376"
           y="346.69983"
           style="font-size:15px" /></flowRegion><flowPara
         id="flowPara3533"
         style="font-size:12.5px">Here is the laser source. For simplicity, it is a non-tuneable HeNe laser at a 632nm wavelength for simplicity </flowPara></flowRoot>    <g
       id="g5941"
       transform="translate(-37.375644,-409.99067)">
      <rect
         y="496.04755"
         x="60.853951"
         height="56.0434"
         width="131.4364"
         id="rect4136"
         style="opacity:1;fill:none;fill-opacity:1;stroke:#000000;stroke-width:1.51499295;stroke-linecap:round;stroke-linejoin:miter;stroke-miterlimit:4;stroke-dasharray:none;stroke-dashoffset:0;stroke-opacity:1" />
      <flowRoot
         transform="translate(408.7331,271.84724)"
         style="font-style:normal;font-weight:normal;font-size:12.5px;line-height:125%;font-family:sans-serif;letter-spacing:0px;word-spacing:0px;fill:#000000;fill-opacity:1;stroke:none;stroke-width:1px;stroke-linecap:butt;stroke-linejoin:miter;stroke-opacity:1"
         id="flowRoot6853"
         xml:space="preserve"><flowRegion
           id="flowRegion6855"><rect
             y="238.07649"
             x="-303.57144"
             height="48.21426"
             width="48.214294"
             id="rect6857" /></flowRegion><flowPara
           id="flowPara6971">Laser source</flowPara></flowRoot>    </g>
    <path
       inkscape:transform-center-x="-1.6282429"
       d="m 260.32492,115.83624 -4.88753,2.81535 -4.88192,2.82505 0.006,-5.6404 -0.006,-5.64039 4.88192,2.82505 z"
       inkscape:randomized="0"
       inkscape:rounded="-7.97973e-17"
       inkscape:flatsided="false"
       sodipodi:arg2="1.0471976"
       sodipodi:arg1="0"
       sodipodi:r2="3.2508829"
       sodipodi:r1="6.5129676"
       sodipodi:cy="115.83624"
       sodipodi:cx="253.81195"
       sodipodi:sides="3"
       id="path6759"
       style="opacity:1;fill:#960000;fill-opacity:1;stroke:#960000;stroke-width:3.03938508;stroke-linecap:round;stroke-linejoin:miter;stroke-miterlimit:4;stroke-dasharray:none;stroke-dashoffset:0;stroke-opacity:1"
       sodipodi:type="star"
       inkscape:transform-center-y="-4.768297e-05" />
    <path
       inkscape:transform-center-y="1.0714192"
       transform="matrix(0,1,-1,0,824.90112,-299.56586)"
       d="m 449.66142,230.54733 -3.21613,1.85258 -3.21245,1.85896 0.004,-3.71154 -0.004,-3.71153 3.21245,1.85896 z"
       inkscape:randomized="0"
       inkscape:rounded="-7.97973e-17"
       inkscape:flatsided="false"
       sodipodi:arg2="1.0471976"
       sodipodi:arg1="0"
       sodipodi:r2="2.1391714"
       sodipodi:r1="4.2857141"
       sodipodi:cy="230.54733"
       sodipodi:cx="445.3757"
       sodipodi:sides="3"
       id="path6765"
       style="opacity:1;fill:#00b400;fill-opacity:1;stroke:#00b400;stroke-width:2;stroke-linecap:round;stroke-linejoin:miter;stroke-miterlimit:4;stroke-dasharray:none;stroke-dashoffset:0;stroke-opacity:1"
       sodipodi:type="star" />
    <path
       sodipodi:type="star"
       style="opacity:1;fill:#00b400;fill-opacity:1;stroke:#00b400;stroke-width:2.09273291;stroke-linecap:round;stroke-linejoin:miter;stroke-miterlimit:4;stroke-dasharray:none;stroke-dashoffset:0;stroke-opacity:1"
       id="path3606"
       sodipodi:sides="3"
       sodipodi:cx="539.29055"
       sodipodi:cy="116.15612"
       sodipodi:r1="4.4844275"
       sodipodi:r2="2.2383571"
       sodipodi:arg1="0"
       sodipodi:arg2="1.0471976"
       inkscape:flatsided="false"
       inkscape:rounded="-7.97973e-17"
       inkscape:randomized="0"
       d="m 543.77495,116.15612 -3.36524,1.93847 -3.3614,1.94516 0.004,-3.88363 -0.004,-3.88363 3.3614,1.94516 z"
       inkscape:transform-center-x="-1.121117"
       inkscape:transform-center-y="2.5340359e-05" />
    <path
       style="fill:none;fill-rule:evenodd;stroke:#00b400;stroke-width:1.5;stroke-linecap:butt;stroke-linejoin:miter;stroke-miterlimit:4;stroke-dasharray:none;stroke-opacity:1"
       d="m 594.31443,116.31137 0,303.6632 -355.03734,0 0,-132.30299"
       id="path3467"
       inkscape:connector-curvature="0"
       sodipodi:nodetypes="cccc" />
    <g
       id="g5157"
       transform="translate(27.157725,-467.56937)">
      <g
         id="g5154">
        <ellipse
           style="fill:#ffffff;fill-opacity:1;stroke:#000000;stroke-width:1;stroke-miterlimit:4;stroke-dasharray:none;stroke-opacity:1"
           id="path3608"
           cx="391.57538"
           cy="583.01709"
           rx="53.60276"
           ry="26.80138" />
      </g>
      <flowRoot
         transform="translate(39.981134,43.054033)"
         style="font-style:normal;font-weight:normal;font-size:12.5px;line-height:125%;font-family:sans-serif;text-align:start;letter-spacing:0px;word-spacing:0px;writing-mode:lr-tb;text-anchor:start;fill:#000000;fill-opacity:1;stroke:none;stroke-width:1px;stroke-linecap:butt;stroke-linejoin:miter;stroke-opacity:1"
         id="flowRoot3610"
         xml:space="preserve"><flowRegion
           id="flowRegion3612"><rect
             style="font-size:12.5px"
             y="523.67279"
             x="329.28125"
             height="36.927418"
             width="69.11702"
             id="rect3614" /></flowRegion><flowPara
           id="flowPara3616">Optical system</flowPara></flowRoot>    </g>
    <rect
       style="opacity:1;fill:#002100;fill-opacity:0.52662725;stroke:#612c00;stroke-width:2.76100016;stroke-linecap:round;stroke-linejoin:miter;stroke-miterlimit:4;stroke-dasharray:none;stroke-dashoffset:0;stroke-opacity:1"
       id="rect4201"
       width="27.007988"
       height="48.466301"
       x="224.7124"
       y="169.00723" />
    <g
       id="g4189"
       inkscape:label="Layer 1"
       transform="matrix(0.20425916,-0.20425916,0.20425916,0.20425916,55.537729,330.65513)">
      <g
         id="g4191">
        <rect
           style="opacity:1;fill:#6dacfa;fill-opacity:1;stroke:none;stroke-width:2;stroke-linecap:round;stroke-linejoin:miter;stroke-miterlimit:4;stroke-dasharray:none;stroke-dashoffset:0;stroke-opacity:1"
           id="rect4193"
           width="13.637059"
           height="190.91884"
           x="213.658"
           y="578.08496" />
        <rect
           y="578.08496"
           x="227.15289"
           height="190.91884"
           width="1.5152286"
           id="rect4195"
           style="opacity:1;fill:#e0aa41;fill-opacity:1;stroke:none;stroke-width:2;stroke-linecap:round;stroke-linejoin:miter;stroke-miterlimit:4;stroke-dasharray:none;stroke-dashoffset:0;stroke-opacity:1" />
      </g>
    </g>
    <path
       sodipodi:type="star"
       style="opacity:1;fill:#00b400;fill-opacity:1;stroke:#00b400;stroke-width:2;stroke-linecap:round;stroke-linejoin:miter;stroke-miterlimit:4;stroke-dasharray:none;stroke-dashoffset:0;stroke-opacity:1"
       id="path6763"
       sodipodi:sides="3"
       sodipodi:cx="445.3757"
       sodipodi:cy="230.54733"
       sodipodi:r1="4.2857141"
       sodipodi:r2="2.1391714"
       sodipodi:arg1="0"
       sodipodi:arg2="1.0471976"
       inkscape:flatsided="false"
       inkscape:rounded="-7.97973e-17"
       inkscape:randomized="0"
       d="m 449.66142,230.54733 -3.21613,1.85258 -3.21245,1.85896 0.004,-3.71154 -0.004,-3.71153 3.21245,1.85896 z"
       transform="matrix(0,1,-1,0,825.10656,-102.68375)"
       inkscape:transform-center-y="1.0714192" />
    <path
       transform="matrix(0.50000001,0.8660254,-0.8660254,0.50000001,285.43635,-81.032256)"
       d="m 449.66142,230.54733 -3.21613,1.85258 -3.21245,1.85896 0.004,-3.71154 -0.004,-3.71153 3.21245,1.85896 z"
       inkscape:randomized="0"
       inkscape:rounded="-7.97973e-17"
       inkscape:flatsided="false"
       sodipodi:arg2="1.0471976"
       sodipodi:arg1="0"
       sodipodi:r2="2.1391714"
       sodipodi:r1="4.2857141"
       sodipodi:cy="230.54733"
       sodipodi:cx="445.3757"
       sodipodi:sides="3"
       id="path6767"
       style="opacity:1;fill:#00b400;fill-opacity:1;stroke:#00b400;stroke-width:2;stroke-linecap:round;stroke-linejoin:miter;stroke-miterlimit:4;stroke-dasharray:none;stroke-dashoffset:0;stroke-opacity:1"
       sodipodi:type="star"
       inkscape:transform-center-x="1.0714277" />
    <path
       sodipodi:type="star"
       style="opacity:1;fill:#00b400;fill-opacity:1;stroke:#00b400;stroke-width:2;stroke-linecap:round;stroke-linejoin:miter;stroke-miterlimit:4;stroke-dasharray:none;stroke-dashoffset:0;stroke-opacity:1"
       id="path6769"
       sodipodi:sides="3"
       sodipodi:cx="445.3757"
       sodipodi:cy="230.54733"
       sodipodi:r1="4.2857141"
       sodipodi:r2="2.1391714"
       sodipodi:arg1="0"
       sodipodi:arg2="1.0471976"
       inkscape:flatsided="false"
       inkscape:rounded="-7.97973e-17"
       inkscape:randomized="0"
       d="m 449.66142,230.54733 -3.21613,1.85258 -3.21245,1.85896 0.004,-3.71154 -0.004,-3.71153 3.21245,1.85896 z"
       transform="matrix(-0.8660254,0.50000001,-0.50000001,-0.8660254,740.21361,264.98694)"
       inkscape:transform-center-y="-1.07143" />
    <g
       id="g4438"
       inkscape:label="Layer 1"
       transform="matrix(-0.20425916,-0.20425916,0.20425916,-0.20425916,548.21851,604.21392)">
      <g
         id="g4440">
        <rect
           style="opacity:1;fill:#6dacfa;fill-opacity:1;stroke:none;stroke-width:2;stroke-linecap:round;stroke-linejoin:miter;stroke-miterlimit:4;stroke-dasharray:none;stroke-dashoffset:0;stroke-opacity:1"
           id="rect4442"
           width="13.637059"
           height="190.91884"
           x="322.23865"
           y="469.50418" />
        <rect
           y="469.50418"
           x="335.73358"
           height="190.91884"
           width="1.5152286"
           id="rect4444"
           style="opacity:1;fill:#e0aa41;fill-opacity:1;stroke:none;stroke-width:2;stroke-linecap:round;stroke-linejoin:miter;stroke-miterlimit:4;stroke-dasharray:none;stroke-dashoffset:0;stroke-opacity:1" />
      </g>
    </g>
    <flowRoot
       transform="translate(-110.86943,-96.234626)"
       xml:space="preserve"
       id="flowRoot4498"
       style="font-style:normal;font-weight:normal;font-size:12.5px;line-height:125%;font-family:sans-serif;letter-spacing:0px;word-spacing:0px;fill:#000000;fill-opacity:1;stroke:none;stroke-width:1px;stroke-linecap:butt;stroke-linejoin:miter;stroke-opacity:1"><flowRegion
         id="flowRegion4500"><rect
           id="rect4502"
           width="94.449257"
           height="31.819811"
           x="312.64221"
           y="229.08789" /></flowRegion><flowPara
         id="flowPara4504">detector for the sample</flowPara></flowRoot>    <g
       id="g6054"
       transform="translate(323.9209,-221.30177)">
      <path
         style="fill:none;fill-rule:evenodd;stroke:#960000;stroke-width:1px;stroke-linecap:butt;stroke-linejoin:miter;stroke-opacity:1"
         d="m 76.311596,477.47173 34.639924,0"
         id="path5423"
         inkscape:path-effect="#path-effect5425"
         inkscape:original-d="m 76.311596,477.47173 c 35.024814,0 34.639924,0 34.639924,0"
         inkscape:connector-curvature="0" />
      <path
         inkscape:transform-center-x="-1.0714286"
         d="m 97.693246,477.52518 -3.216129,1.85257 -3.212442,1.85896 0.0037,-3.71153 -0.0037,-3.71154 3.212443,1.85896 z"
         inkscape:randomized="0"
         inkscape:rounded="-7.97973e-17"
         inkscape:flatsided="false"
         sodipodi:arg2="1.0471976"
         sodipodi:arg1="0"
         sodipodi:r2="2.1391714"
         sodipodi:r1="4.2857141"
         sodipodi:cy="477.52518"
         sodipodi:cx="93.407532"
         sodipodi:sides="3"
         id="path5427"
         style="opacity:1;fill:#960000;fill-opacity:1;stroke:#960000;stroke-width:2;stroke-linecap:round;stroke-linejoin:miter;stroke-miterlimit:4;stroke-dasharray:none;stroke-dashoffset:0;stroke-opacity:1"
         sodipodi:type="star" />
    </g>
    <flowRoot
       transform="translate(400.23249,-796.76367)"
       xml:space="preserve"
       id="flowRoot5473"
       style="font-style:normal;font-weight:normal;font-size:12.5px;line-height:125%;font-family:sans-serif;letter-spacing:0px;word-spacing:0px;fill:#000000;fill-opacity:1;stroke:none;stroke-width:1px;stroke-linecap:butt;stroke-linejoin:miter;stroke-opacity:1"><flowRegion
         id="flowRegion5475"><rect
           id="rect5477"
           width="154.90794"
           height="17.006731"
           x="39.39595"
           y="1044.786" /></flowRegion><flowPara
         id="flowPara5479">HeNe Laser Radiation</flowPara></flowRoot>    <flowRoot
       xml:space="preserve"
       id="flowRoot5505"
       style="font-style:normal;font-weight:normal;font-size:12.5px;line-height:125%;font-family:sans-serif;letter-spacing:0px;word-spacing:0px;fill:#000000;fill-opacity:1;stroke:none;stroke-width:1px;stroke-linecap:butt;stroke-linejoin:miter;stroke-opacity:1"
       transform="translate(210.36268,-789.65585)"><flowRegion
         id="flowRegion5507"><rect
           id="rect5509"
           width="230.31477"
           height="20.203051"
           x="230.31477"
           y="1020.0374" /></flowRegion><flowPara
         id="flowPara5511">Analog Signal</flowPara></flowRoot>    <g
       style="fill:#000000;fill-opacity:1;stroke:#000000;stroke-opacity:1"
       transform="translate(323.9209,-238.81636)"
       id="g6058">
      <path
         inkscape:connector-curvature="0"
         inkscape:original-d="m 76.311596,477.47173 c 35.024814,0 34.639924,0 34.639924,0"
         inkscape:path-effect="#path-effect5425"
         id="path6060"
         d="m 76.311596,477.47173 34.639924,0"
         style="fill:#000000;fill-opacity:1;fill-rule:evenodd;stroke:#000000;stroke-width:1px;stroke-linecap:butt;stroke-linejoin:miter;stroke-opacity:1" />
      <path
         sodipodi:type="star"
         style="opacity:1;fill:#000000;fill-opacity:1;stroke:#000000;stroke-width:2;stroke-linecap:round;stroke-linejoin:miter;stroke-miterlimit:4;stroke-dasharray:none;stroke-dashoffset:0;stroke-opacity:1"
         id="path6062"
         sodipodi:sides="3"
         sodipodi:cx="93.407532"
         sodipodi:cy="477.52518"
         sodipodi:r1="4.2857141"
         sodipodi:r2="2.1391714"
         sodipodi:arg1="0"
         sodipodi:arg2="1.0471976"
         inkscape:flatsided="false"
         inkscape:rounded="-7.97973e-17"
         inkscape:randomized="0"
         d="m 97.693246,477.52518 -3.216129,1.85257 -3.212442,1.85896 0.0037,-3.71153 -0.0037,-3.71154 3.212443,1.85896 z"
         inkscape:transform-center-x="-1.0714286" />
    </g>
    <g
       id="g6064"
       transform="translate(323.9209,-256.55257)"
       style="fill:#0000ff;fill-opacity:1;stroke:#0000ff;stroke-opacity:1">
      <path
         style="fill:#0000ff;fill-opacity:1;fill-rule:evenodd;stroke:#0000ff;stroke-width:1px;stroke-linecap:butt;stroke-linejoin:miter;stroke-opacity:1"
         d="m 76.311596,477.47173 34.639924,0"
         id="path6066"
         inkscape:path-effect="#path-effect5425"
         inkscape:original-d="m 76.311596,477.47173 c 35.024814,0 34.639924,0 34.639924,0"
         inkscape:connector-curvature="0" />
      <path
         inkscape:transform-center-x="-1.0714286"
         d="m 97.693246,477.52518 -3.216129,1.85257 -3.212442,1.85896 0.0037,-3.71153 -0.0037,-3.71154 3.212443,1.85896 z"
         inkscape:randomized="0"
         inkscape:rounded="-7.97973e-17"
         inkscape:flatsided="false"
         sodipodi:arg2="1.0471976"
         sodipodi:arg1="0"
         sodipodi:r2="2.1391714"
         sodipodi:r1="4.2857141"
         sodipodi:cy="477.52518"
         sodipodi:cx="93.407532"
         sodipodi:sides="3"
         id="path6068"
         style="opacity:1;fill:#0000ff;fill-opacity:1;stroke:#0000ff;stroke-width:2;stroke-linecap:round;stroke-linejoin:miter;stroke-miterlimit:4;stroke-dasharray:none;stroke-dashoffset:0;stroke-opacity:1"
         sodipodi:type="star" />
    </g>
    <flowRoot
       transform="translate(210.36268,-807.46604)"
       style="font-style:normal;font-weight:normal;font-size:12.5px;line-height:125%;font-family:sans-serif;letter-spacing:0px;word-spacing:0px;fill:#000000;fill-opacity:1;stroke:none;stroke-width:1px;stroke-linecap:butt;stroke-linejoin:miter;stroke-opacity:1"
       id="flowRoot6070"
       xml:space="preserve"><flowRegion
         id="flowRegion6072"><rect
           y="1020.0374"
           x="230.31477"
           height="20.203051"
           width="230.31477"
           id="rect6074" /></flowRegion><flowPara
         id="flowPara6076">Digital Signal</flowPara></flowRoot>    <flowRoot
       xml:space="preserve"
       id="flowRoot3508"
       style="font-style:normal;font-weight:normal;font-size:15px;line-height:125%;font-family:sans-serif;text-align:start;letter-spacing:0px;word-spacing:0px;writing-mode:lr-tb;text-anchor:start;fill:#000000;fill-opacity:1;stroke:none;stroke-width:1px;stroke-linecap:butt;stroke-linejoin:miter;stroke-opacity:1"
       transform="translate(84.382046,-292.15571)"><flowRegion
         id="flowRegion3510"><rect
           id="rect3512"
           width="157.65518"
           height="130.85381"
           x="275.10828"
           y="624.32837" /></flowRegion><flowPara
         id="flowPara3514"
         style="font-size:12.5px">{\bfseries (B)}</flowPara><flowPara
         id="flowPara3516"
         style="font-size:12.5px">mirrors to redirect the beam towards the sample and detector</flowPara></flowRoot>    <flowRoot
       xml:space="preserve"
       id="flowRoot3518"
       style="font-style:normal;font-weight:normal;font-size:15px;line-height:125%;font-family:sans-serif;text-align:start;letter-spacing:0px;word-spacing:0px;writing-mode:lr-tb;text-anchor:start;fill:#000000;fill-opacity:1;stroke:none;stroke-width:1px;stroke-linecap:butt;stroke-linejoin:miter;stroke-opacity:1"
       transform="translate(-68.896179,-341.62152)"><flowRegion
         id="flowRegion3520"><rect
           id="rect3522"
           width="101.54535"
           height="120.31024"
           x="335.80554"
           y="561.2663" /></flowRegion><flowPara
         id="flowPara3524"
         style="font-size:12.5px">{\bfseries (C)}</flowPara><flowPara
         id="flowPara3526"
         style="font-size:12.5px">attenuation of beam power</flowPara><flowPara
         id="flowPara3528"
         style="font-size:12.5px">(if the beam is resonant with a transition)</flowPara></flowRoot>    <text
       xml:space="preserve"
       style="font-style:normal;font-weight:normal;font-size:15px;line-height:125%;font-family:sans-serif;text-align:start;letter-spacing:0px;word-spacing:0px;writing-mode:lr-tb;text-anchor:start;fill:#000000;fill-opacity:1;stroke:none;stroke-width:1px;stroke-linecap:butt;stroke-linejoin:miter;stroke-opacity:1"
       x="-314.76474"
       y="215.56516"
       id="text3530"
       sodipodi:linespacing="125%"
       transform="matrix(0,-1,1,0,0,0)"><tspan
         sodipodi:role="line"
         id="tspan3532"
         x="-314.76474"
         y="215.56516"
         style="font-size:15px">\Large Sample</tspan></text>
    <path
       inkscape:transform-center-x="1.0714277"
       sodipodi:type="star"
       style="opacity:1;fill:#00b400;fill-opacity:1;stroke:#00b400;stroke-width:2;stroke-linecap:round;stroke-linejoin:miter;stroke-miterlimit:4;stroke-dasharray:none;stroke-dashoffset:0;stroke-opacity:1"
       id="path3604"
       sodipodi:sides="3"
       sodipodi:cx="445.3757"
       sodipodi:cy="230.54733"
       sodipodi:r1="4.2857141"
       sodipodi:r2="2.1391714"
       sodipodi:arg1="0"
       sodipodi:arg2="1.0471976"
       inkscape:flatsided="false"
       inkscape:rounded="-7.97973e-17"
       inkscape:randomized="0"
       d="m 449.66142,230.54733 -3.21613,1.85258 -3.21245,1.85896 0.004,-3.71154 -0.004,-3.71153 3.21245,1.85896 z"
       transform="matrix(0.50000001,0.8660254,-0.8660254,0.50000001,460.03946,-81.032256)" />
    <g
       id="g4400"
       transform="matrix(0.86299644,0,0,0.66092419,-80.661712,37.030464)"
       style="stroke:#000000;stroke-width:1.41415834;stroke-miterlimit:4;stroke-dasharray:none;stroke-opacity:1">
      <path
         inkscape:connector-curvature="0"
         inkscape:original-d="m 355.0164,232.38871 -230.70674,0 0,477.14287"
         inkscape:path-effect="#path-effect4374"
         id="path4372"
         d="m 355.0164,232.38871 -230.70674,0 0,477.14287"
         style="fill:none;fill-rule:evenodd;stroke:#000000;stroke-width:1.41415834;stroke-linecap:butt;stroke-linejoin:miter;stroke-miterlimit:4;stroke-dasharray:none;stroke-opacity:1"
         sodipodi:nodetypes="ccc" />
      <path
         inkscape:connector-curvature="0"
         inkscape:original-d="m 124.64286,709.3622 159.77821,0"
         inkscape:path-effect="#path-effect4398"
         id="path4396"
         d="m 124.64286,709.3622 159.77821,0"
         style="fill:none;fill-rule:evenodd;stroke:#000000;stroke-width:1.41415834;stroke-linecap:butt;stroke-linejoin:miter;stroke-miterlimit:4;stroke-dasharray:none;stroke-opacity:1"
         sodipodi:nodetypes="cc" />
    </g>
    <path
       transform="matrix(0.86602541,-0.5,0.5,0.86602541,404.75031,663.21898)"
       d="m -201.94643,-399.28085 -3.21613,1.85257 -3.21244,1.85896 0.004,-3.71153 -0.004,-3.71154 3.21244,1.85896 z"
       inkscape:randomized="0"
       inkscape:rounded="-7.97973e-17"
       inkscape:flatsided="false"
       sodipodi:arg2="1.0471976"
       sodipodi:arg1="0"
       sodipodi:r2="2.1391714"
       sodipodi:r1="4.2857141"
       sodipodi:cy="-399.28085"
       sodipodi:cx="-206.23215"
       sodipodi:sides="3"
       id="path4477"
       style="opacity:1;fill:#000000;fill-opacity:1;stroke:#000000;stroke-width:2;stroke-linecap:round;stroke-linejoin:miter;stroke-miterlimit:4;stroke-dasharray:none;stroke-dashoffset:0;stroke-opacity:1"
       sodipodi:type="star"
       inkscape:transform-center-y="1.0714513" />
    <path
       inkscape:transform-center-y="3.5887712e-05"
       sodipodi:type="star"
       style="opacity:1;fill:#000000;fill-opacity:1;stroke:#000000;stroke-width:2;stroke-linecap:round;stroke-linejoin:miter;stroke-miterlimit:4;stroke-dasharray:none;stroke-dashoffset:0;stroke-opacity:1"
       id="path6881"
       sodipodi:sides="3"
       sodipodi:cx="85.964276"
       sodipodi:cy="505.70809"
       sodipodi:r1="4.2857141"
       sodipodi:r2="2.1391714"
       sodipodi:arg1="0"
       sodipodi:arg2="1.0471976"
       inkscape:flatsided="false"
       inkscape:rounded="-7.97973e-17"
       inkscape:randomized="0"
       d="m 90.249993,505.7081 -3.216128,1.85258 -3.212443,1.85896 0.0037,-3.71154 -0.0037,-3.71154 3.212443,1.85896 z"
       inkscape:transform-center-x="-1.0714215" />
    <path
       transform="matrix(0.86602541,-0.5,0.5,0.86602541,404.92888,484.25439)"
       d="m -201.94643,-399.28085 -3.21613,1.85257 -3.21244,1.85896 0.004,-3.71153 -0.004,-3.71154 3.21244,1.85896 z"
       inkscape:randomized="0"
       inkscape:rounded="-7.97973e-17"
       inkscape:flatsided="false"
       sodipodi:arg2="1.0471976"
       sodipodi:arg1="0"
       sodipodi:r2="2.1391714"
       sodipodi:r1="4.2857141"
       sodipodi:cy="-399.28085"
       sodipodi:cx="-206.23215"
       sodipodi:sides="3"
       id="path4546"
       style="opacity:1;fill:#000000;fill-opacity:1;stroke:#000000;stroke-width:2;stroke-linecap:round;stroke-linejoin:miter;stroke-miterlimit:4;stroke-dasharray:none;stroke-dashoffset:0;stroke-opacity:1"
       sodipodi:type="star"
       inkscape:transform-center-y="1.0714513" />
    <rect
       style="opacity:1;fill:none;fill-opacity:1;stroke:#000000;stroke-width:0.73392296;stroke-linecap:round;stroke-linejoin:miter;stroke-miterlimit:4;stroke-dasharray:none;stroke-dashoffset:0;stroke-opacity:1"
       id="rect4439"
       width="110.22738"
       height="93.277657"
       x="165.10182"
       y="489.88974" />
    <flowRoot
       xml:space="preserve"
       id="flowRoot4441"
       style="font-style:normal;font-weight:normal;font-size:12.5px;line-height:125%;font-family:sans-serif;letter-spacing:0px;word-spacing:0px;fill:#000000;fill-opacity:1;stroke:none;stroke-width:1px;stroke-linecap:butt;stroke-linejoin:miter;stroke-opacity:1"
       transform="translate(-329.35875,-74.317186)"><flowRegion
         id="flowRegion4443"><rect
           id="rect4445"
           width="176.42857"
           height="125"
           x="522.14288"
           y="632.36218" /></flowRegion><flowPara
         id="flowPara4447">USB Daq</flowPara></flowRoot>    <flowRoot
       xml:space="preserve"
       id="flowRoot4461"
       style="font-style:normal;font-weight:normal;font-size:12.5px;line-height:125%;font-family:sans-serif;letter-spacing:0px;word-spacing:0px;fill:#000000;fill-opacity:1;stroke:none;stroke-width:1px;stroke-linecap:butt;stroke-linejoin:miter;stroke-opacity:1"
       transform="translate(-347.93604,-205.59165)"><flowRegion
         id="flowRegion4463"><rect
           id="rect4465"
           width="72.854774"
           height="68.464996"
           x="523.7641"
           y="700.8291" /></flowRegion><flowPara
         id="flowPara4467">Data</flowPara><flowPara
         id="flowPara3493">Signal Inputs</flowPara></flowRoot>    <flowRoot
       transform="translate(-297.27946,-205.33067)"
       style="font-style:normal;font-weight:normal;font-size:12.5px;line-height:125%;font-family:sans-serif;letter-spacing:0px;word-spacing:0px;fill:#000000;fill-opacity:1;stroke:none;stroke-width:1px;stroke-linecap:butt;stroke-linejoin:miter;stroke-opacity:1"
       id="flowRoot3485"
       xml:space="preserve"><flowRegion
         id="flowRegion3487"><rect
           y="700.8291"
           x="523.7641"
           height="60.104076"
           width="58.083771"
           id="rect3489" /></flowRegion><flowPara
         id="flowPara3491">Signal Inputs</flowPara></flowRoot>    <flowRoot
       xml:space="preserve"
       id="flowRoot3534"
       style="font-style:normal;font-weight:normal;font-size:15px;line-height:125%;font-family:sans-serif;text-align:start;letter-spacing:0px;word-spacing:0px;writing-mode:lr-tb;text-anchor:start;fill:#000000;fill-opacity:1;stroke:none;stroke-width:1px;stroke-linecap:butt;stroke-linejoin:miter;stroke-opacity:1"
       transform="translate(-423.04812,-349.35473)"><flowRegion
         id="flowRegion3536"><rect
           id="rect3538"
           width="138.12193"
           height="150.66603"
           x="466.65933"
           y="574.66699" /></flowRegion><flowPara
         id="flowPara3540"
         style="font-size:12.5px">{\bfseries (D)}</flowPara><flowPara
         id="flowPara3542"
         style="font-size:12.5px">The detector measures the beams power and sends out a continuous analog signal, typically in Volts.</flowPara><flowPara
         id="flowPara3544"
         style="font-size:12.5px" /></flowRoot>    <flowRoot
       xml:space="preserve"
       id="flowRoot3553"
       style="font-style:normal;font-weight:normal;font-size:15px;line-height:125%;font-family:sans-serif;text-align:start;letter-spacing:0px;word-spacing:0px;writing-mode:lr-tb;text-anchor:start;fill:#000000;fill-opacity:1;stroke:none;stroke-width:1px;stroke-linecap:butt;stroke-linejoin:miter;stroke-opacity:1"
       transform="translate(-418.60529,-318.42661)"><flowRegion
         id="flowRegion3555"><rect
           id="rect3557"
           width="143.29425"
           height="157.09126"
           x="435.1283"
           y="835.5863" /></flowRegion><flowPara
         id="flowPara3559"
         style="font-size:12.5px">{\bfseries (F)}</flowPara><flowPara
         id="flowPara3561"
         style="font-size:12.5px">The computer then collects the raw data into a file for processing. </flowPara></flowRoot>    <flowRoot
       xml:space="preserve"
       id="flowRoot3563"
       style="font-style:normal;font-weight:normal;font-size:15px;line-height:125%;font-family:sans-serif;text-align:start;letter-spacing:0px;word-spacing:0px;writing-mode:lr-tb;text-anchor:start;fill:#241f1c;fill-opacity:1;stroke:none;stroke-width:1px;stroke-linecap:butt;stroke-linejoin:miter;stroke-opacity:1"
       transform="translate(-221.65003,-453.87256)"><flowRegion
         id="flowRegion3565"><rect
           id="rect3567"
           width="121.98763"
           height="133.28896"
           x="506.86142"
           y="970.38153"
           style="fill:#241f1c" /></flowRegion><flowPara
         id="flowPara3569"
         style="font-size:12.5px;fill:#241f1c">{\bfseries (E)}</flowPara><flowPara
         style="font-size:12.5px;fill:#241f1c"
         id="flowPara3571">The analog signals is converted into a digital signal so that it maybe be passed on to a computer.</flowPara></flowRoot>    <flowRoot
       xml:space="preserve"
       id="flowRoot3557"
       style="font-style:normal;font-weight:normal;font-size:12.5px;line-height:125%;font-family:sans-serif;text-align:start;letter-spacing:0px;word-spacing:0px;writing-mode:lr-tb;text-anchor:start;fill:#000000;fill-opacity:1;stroke:none;stroke-width:1px;stroke-linecap:butt;stroke-linejoin:miter;stroke-opacity:1"
       transform="translate(85.852754,-464.69042)"><flowRegion
         id="flowRegion3559"><rect
           id="rect3561"
           width="160.8544"
           height="84.124596"
           x="286.93243"
           y="465.88492"
           style="font-size:12.5px" /></flowRegion><flowPara
         id="flowPara3563">This is a beam splitter. It splits the beam so that a part of the laser beam can be measured</flowPara></flowRoot>    <flowRoot
       xml:space="preserve"
       id="flowRoot3573"
       style="font-style:normal;font-weight:normal;font-size:15px;line-height:125%;font-family:sans-serif;text-align:start;letter-spacing:0px;word-spacing:0px;writing-mode:lr-tb;text-anchor:start;fill:#000000;fill-opacity:1;stroke:none;stroke-width:1px;stroke-linecap:butt;stroke-linejoin:miter;stroke-opacity:1"
       transform="translate(46.246005,-296.78632)"><flowRegion
         id="flowRegion3575"><rect
           id="rect3577"
           width="161.05359"
           height="68.493073"
           x="272.74347"
           y="426.47113" /></flowRegion><flowPara
         id="flowPara3579"
         style="font-size:12.5px">{\bfseries (A)} </flowPara><flowPara
         style="font-size:12.5px"
         id="flowPara3581">attenuation and or filtering of the beam for desirable properties</flowPara></flowRoot>    <path
       style="fill:none;fill-rule:evenodd;stroke:#000000;stroke-width:1;stroke-linecap:butt;stroke-linejoin:miter;stroke-miterlimit:4;stroke-dasharray:none;stroke-opacity:1;marker-start:url(#Arrow1Mstart)"
       d="M 564.43457,89.958384 C 526.73874,65.367704 527.12571,65.264014 527.12571,65.264014"
       id="path3583"
       inkscape:connector-curvature="0" />
    <path
       style="fill:none;fill-rule:evenodd;stroke:#000000;stroke-width:0.85255879px;stroke-linecap:butt;stroke-linejoin:miter;stroke-opacity:1;marker-start:url(#marker6400)"
       d="M 251.61989,414.23768 C 335.49106,375.5328 336.069,376.20349 336.069,376.20349"
       id="path6240"
       inkscape:connector-curvature="0" />
    <path
       style="fill:none;fill-rule:evenodd;stroke:#000000;stroke-width:1;stroke-linecap:butt;stroke-linejoin:miter;stroke-miterlimit:4;stroke-dasharray:none;stroke-opacity:1;marker-end:url(#Arrow1Mend)"
       d="m 509.67479,379.36009 c 10.04494,2.58636 62.87696,29.31037 62.87696,29.31037"
       id="path6242"
       inkscape:connector-curvature="0" />
    <path
       style="fill:#0000ff;fill-opacity:1;fill-rule:evenodd;stroke:#0000ff;stroke-width:1;stroke-linecap:butt;stroke-linejoin:miter;stroke-miterlimit:4;stroke-dasharray:none;stroke-opacity:1"
       d="m 275.19549,503.76187 150.57165,0"
       id="path6475"
       inkscape:path-effect="#path-effect6481"
       inkscape:original-d="m 275.19549,503.76187 150.57165,0"
       inkscape:connector-curvature="0"
       sodipodi:nodetypes="cc" />
    <path
       inkscape:transform-center-x="-1.0714286"
       d="m 335.49882,503.81528 -3.21613,1.85257 -3.21244,1.85896 0.004,-3.71153 -0.004,-3.71154 3.21244,1.85896 z"
       inkscape:randomized="0"
       inkscape:rounded="-7.97973e-17"
       inkscape:flatsided="false"
       sodipodi:arg2="1.0471976"
       sodipodi:arg1="0"
       sodipodi:r2="2.1391714"
       sodipodi:r1="4.2857141"
       sodipodi:cy="503.81527"
       sodipodi:cx="331.2131"
       sodipodi:sides="3"
       id="path6477"
       style="opacity:1;fill:#0000ff;fill-opacity:1;stroke:#0000ff;stroke-width:2;stroke-linecap:round;stroke-linejoin:miter;stroke-miterlimit:4;stroke-dasharray:none;stroke-dashoffset:0;stroke-opacity:1"
       sodipodi:type="star" />
    <text
       xml:space="preserve"
       style="font-style:normal;font-weight:normal;font-size:40px;line-height:125%;font-family:sans-serif;letter-spacing:0px;word-spacing:0px;fill:#000000;fill-opacity:1;stroke:none;stroke-width:1px;stroke-linecap:butt;stroke-linejoin:miter;stroke-opacity:1"
       x="565.24689"
       y="647.28558"
       id="text6504"
       sodipodi:linespacing="125%"><tspan
         sodipodi:role="line"
         x="565.24689"
         y="647.28558"
         id="tspan6508"
         style="font-size:15px">AIO</tspan></text>
    <text
       xml:space="preserve"
       style="font-style:normal;font-weight:normal;font-size:12.5px;line-height:125%;font-family:sans-serif;letter-spacing:0px;word-spacing:0px;fill:#000000;fill-opacity:1;stroke:none;stroke-width:1px;stroke-linecap:butt;stroke-linejoin:miter;stroke-opacity:1"
       x="161.19579"
       y="103.45348"
       id="text6534"
       sodipodi:linespacing="125%"><tspan
         sodipodi:role="line"
         id="tspan6536"
         x="161.19579"
         y="103.45348">{\bfseries Start}</tspan></text>
    <g
       id="g4357"
       transform="translate(-9.5185013,-330.18862)">
      <rect
         y="817.22253"
         x="435.7305"
         height="140.78554"
         width="194.76761"
         id="rect6911"
         style="opacity:1;fill:none;fill-opacity:1;stroke:#000000;stroke-width:1;stroke-linecap:round;stroke-linejoin:miter;stroke-miterlimit:4;stroke-dasharray:none;stroke-dashoffset:0;stroke-opacity:1" />
      <rect
         y="958.203"
         x="521.76758"
         height="22.146954"
         width="19.85589"
         id="rect6913"
         style="opacity:1;fill:none;fill-opacity:1;stroke:#000000;stroke-width:1;stroke-linecap:round;stroke-linejoin:miter;stroke-miterlimit:4;stroke-dasharray:none;stroke-dashoffset:0;stroke-opacity:1" />
      <rect
         y="980.53345"
         x="498.96954"
         height="6.427711"
         width="65.303741"
         id="rect6915"
         style="opacity:1;fill:none;fill-opacity:1;stroke:#000000;stroke-width:1;stroke-linecap:round;stroke-linejoin:miter;stroke-miterlimit:4;stroke-dasharray:none;stroke-dashoffset:0;stroke-opacity:1" />
      <rect
         y="830.73798"
         x="447.78293"
         height="113.75471"
         width="170.18063"
         id="rect6917"
         style="opacity:1;fill:none;fill-opacity:1;stroke:#000000;stroke-width:1;stroke-linecap:round;stroke-linejoin:miter;stroke-miterlimit:4;stroke-dasharray:none;stroke-dashoffset:0;stroke-opacity:1" />
      <rect
         y="850.07916"
         x="466.18539"
         height="77.276672"
         width="133.59268"
         id="rect6514"
         style="fill:none;stroke:#000000;stroke-width:1;stroke-miterlimit:4;stroke-dasharray:none;stroke-opacity:1" />
      <path
         inkscape:connector-curvature="0"
         id="path6516"
         d="m 466.25,865.93363 c 0.44806,0.19525 0.80225,0.17857 1.25,0.17857 0.0595,0 0.12533,-0.0266 0.17857,0 0.0753,0.0376 0.0969,0.15816 0.17857,0.17858 0.18794,0.047 0.81511,0 1.07143,0 0.0595,0 0.1221,-0.0188 0.17857,0 0.12627,0.0421 0.22802,0.14629 0.35715,0.17857 0.11549,0.0289 0.23809,0 0.35714,0 0.11905,0 0.23809,0 0.35714,0 0.35715,0 0.71429,0 1.07143,0 1.01191,0 2.02381,0 3.03572,0 0.47619,0 0.95238,0 1.42857,0 0.0595,0 0.11904,0 0.17857,0 0.0595,0 0.13648,0.0421 0.17857,0 0.0421,-0.0421 -0.0421,-0.13648 0,-0.17857 0.0421,-0.0421 0.11905,0 0.17857,0 0.0595,0 0.11905,0 0.17857,0 0.41667,0 0.83334,0 1.25,0 0.0595,0 0.13648,-0.0421 0.17857,0 0.0421,0.0421 -0.0421,0.13648 0,0.17857 0.0893,0.0893 0.44643,-0.0893 0.53572,0 0.0421,0.0421 -0.0421,0.13648 0,0.17857 0.0893,0.0893 0.44643,-0.0893 0.53571,0 0.0421,0.0421 -0.0532,0.15195 0,0.17857 0.10648,0.0532 0.2381,0 0.35715,0 0.0595,0 0.13648,-0.0421 0.17857,0 0.0421,0.0421 -0.0421,0.13648 0,0.17857 0.0421,0.0421 0.12533,-0.0266 0.17857,0 0.15058,0.0753 0.20656,0.28185 0.35714,0.35714 0.0532,0.0266 0.12533,-0.0266 0.17857,0 0.0753,0.0376 0.0987,0.15196 0.17857,0.17858 0.11294,0.0376 0.25067,-0.0532 0.35715,0 0.0532,0.0266 -0.0421,0.13648 0,0.17857 0.0421,0.0421 0.12533,-0.0266 0.17857,0 0.0753,0.0376 0.10328,0.14092 0.17857,0.17857 0.0532,0.0266 0.12533,-0.0266 0.17857,0 0.74317,0.37158 -0.1909,-0.0123 0.17857,0.35714 0.0421,0.0421 0.12533,-0.0266 0.17857,0 0.0753,0.0377 0.0987,0.15195 0.17858,0.17857 0.11293,0.0376 0.25066,-0.0532 0.35714,0 0.0532,0.0266 -0.0421,0.13648 0,0.17857 0.47619,0 -0.0595,-0.0595 0.17857,0.17858 0.0421,0.0421 0.11905,0 0.17857,0 0,0.0595 -0.0421,0.13648 0,0.17857 0.0842,0.0842 0.27296,-0.0842 0.35714,0 0.0421,0.0421 -0.0421,0.13648 0,0.17857 0.0421,0.0421 0.13649,-0.0421 0.17858,0 0.0421,0.0421 -0.0421,0.13648 0,0.17857 0.0421,0.0421 0.13648,-0.0421 0.17857,0 0.0421,0.0421 -0.0421,0.13648 0,0.17857 0.0842,0.0842 0.27296,-0.0842 0.35714,0 0.0421,0.0421 -0.0421,0.13648 0,0.17857 0.0421,0.0421 0.13648,-0.0421 0.17857,0 0.0421,0.0421 -0.0421,0.13648 0,0.17857 0.0421,0.0421 0.13648,-0.0421 0.17857,0 0.0421,0.0421 -0.0266,0.12534 0,0.17858 0.0377,0.0753 0.11905,0.11904 0.17857,0.17857 0.0595,0.0595 0.10328,0.14092 0.17858,0.17857 0.24631,0.12316 0.15972,-0.21626 0.35714,0.17857 0.0266,0.0532 -0.0421,0.13648 0,0.17857 0.0421,0.0421 0.13648,-0.0421 0.17857,0 0.0421,0.0421 -0.0421,0.13648 0,0.17857 0.0842,0.0842 0.27296,-0.0842 0.35714,0 0.0421,0.0421 -0.0421,0.13648 0,0.17857 0.0421,0.0421 0.13648,-0.0421 0.17857,0 0.0421,0.0421 -0.0421,0.13649 0,0.17858 0.0421,0.0421 0.13649,-0.0421 0.17858,0 0.0421,0.0421 -0.0421,0.13648 0,0.17857 0.0421,0.0421 0.13648,-0.0421 0.17857,0 0.0421,0.0421 -0.0421,0.13648 0,0.17857 0.0421,0.0421 0.11904,0 0.17857,0 0,0.0595 -0.0421,0.13648 0,0.17857 0.0421,0.0421 0.13648,-0.0421 0.17857,0 0.0421,0.0421 -0.0421,0.13648 0,0.17857 0.0421,0.0421 0.13648,-0.0421 0.17857,0 0.0842,0.0842 -0.0842,0.27296 0,0.35714 0.0421,0.0421 0.13648,-0.0421 0.17857,0 0.0421,0.0421 -0.0421,0.13649 0,0.17858 0.0842,0.0842 0.27297,-0.0842 0.35715,0 0.0842,0.0842 -0.0842,0.27296 0,0.35714 0.0421,0.0421 0.13648,-0.0421 0.17857,0 0.0421,0.0421 -0.0421,0.13648 0,0.17857 0.0421,0.0421 0.13648,-0.0421 0.17857,0 0.0421,0.0421 -0.0421,0.13648 0,0.17857 0.0421,0.0421 0.13648,-0.0421 0.17857,0 0.0421,0.0421 -0.0421,0.13648 0,0.17857 0.0421,0.0421 0.13648,-0.0421 0.17857,0 0.0421,0.0421 -0.0421,0.13648 0,0.17857 0.36947,0.36947 -0.0144,-0.5646 0.35714,0.17858 0.0532,0.10648 -0.0842,0.27296 0,0.35714 0.0421,0.0421 0.13649,-0.0421 0.17858,0 0.0421,0.0421 -0.0421,0.13648 0,0.17857 0.0421,0.0421 0.13648,-0.0421 0.17857,0 0.0421,0.0421 0,0.11905 0,0.17857 0.0595,0 0.13648,-0.0421 0.17857,0 0.0421,0.0421 -0.0421,0.13648 0,0.17857 0.0421,0.0421 0.13648,-0.0421 0.17857,0 0.0421,0.0421 -0.0421,0.13648 0,0.17857 0.0421,0.0421 0.13648,-0.0421 0.17857,0 0.0842,0.0842 -0.0842,0.27297 0,0.35715 0.0421,0.0421 0.13648,-0.0421 0.17857,0 0.36947,0.36947 -0.5646,-0.0145 0.17857,0.35714 0.0532,0.0266 0.13649,-0.0421 0.17858,0 0.11925,0.11925 -0.11926,0.23789 0,0.35714 0.0421,0.0421 0.11904,0 0.17857,0 0,0.0595 -0.0421,0.13648 0,0.17857 0.0421,0.0421 0.13648,-0.0421 0.17857,0 0.0842,0.0842 -0.0842,0.27297 0,0.35715 0.0421,0.0421 0.13648,-0.0421 0.17857,0 0.0421,0.0421 -0.0266,0.12533 0,0.17857 0.10714,0.21428 0.42857,0.32143 0.53571,0.53571 0.0266,0.0532 -0.0266,0.12533 0,0.17857 0.0753,0.15059 0.26376,0.21706 0.35715,0.35715 0.0738,0.11074 0.10474,0.24639 0.17857,0.35714 0.0934,0.14008 0.28185,0.20656 0.35714,0.35714 0.0266,0.0532 -0.0266,0.12533 0,0.17857 0.0753,0.15059 0.28185,0.20656 0.35714,0.35715 0.0532,0.10648 -0.0842,0.27296 0,0.35714 0.0421,0.0421 0.13649,-0.0421 0.17858,0 0.0421,0.0421 -0.0421,0.13648 0,0.17857 0.0421,0.0421 0.12533,-0.0266 0.17857,0 0.0753,0.0377 0.10328,0.14093 0.17857,0.17857 0.0532,0.0266 0.13648,-0.0421 0.17857,0 0.0842,0.0842 -0.0842,0.27297 0,0.35715 0.0421,0.0421 0.13648,-0.0421 0.17857,0 0.0421,0.0421 -0.0421,0.13648 0,0.17857 0.0421,0.0421 0.13648,-0.0421 0.17857,0 0.0421,0.0421 -0.0421,0.13648 0,0.17857 0.0842,0.0842 0.27297,-0.0842 0.35715,0 0.0421,0.0421 -0.0421,0.13648 0,0.17857 0.0421,0.0421 0.13648,-0.0421 0.17857,0 0.0421,0.0421 -0.0266,0.12533 0,0.17857 0.0376,0.0753 0.14092,0.10328 0.17857,0.17857 0.0266,0.0532 -0.0421,0.13648 0,0.17857 0.0421,0.0421 0.12533,-0.0266 0.17857,0 0.0753,0.0376 0.11905,0.11905 0.17857,0.17858 0.0595,0.0595 0.14093,0.10327 0.17857,0.17857 0.0266,0.0532 -0.0421,0.13648 0,0.17857 0.0421,0.0421 0.13648,-0.0421 0.17857,0 0.0842,0.0842 -0.0842,0.27296 0,0.35714 0.0842,0.0842 0.27297,-0.0842 0.35715,0 0.36947,0.36947 -0.5646,-0.0144 0.17857,0.35714 0.0532,0.0266 0.13648,-0.0421 0.17857,0 0.0842,0.0842 -0.0532,0.25067 0,0.35715 0.37159,0.74317 -0.0123,-0.1909 0.35714,0.17857 0.0421,0.0421 -0.0421,0.13648 0,0.17857 0.0421,0.0421 0.13648,-0.0421 0.17857,0 0.0842,0.0842 -0.0842,0.27296 0,0.35714 0.0421,0.0421 0.13649,-0.0421 0.17858,0 0.0421,0.0421 -0.0421,0.13648 0,0.17857 0.0421,0.0421 0.13648,-0.0421 0.17857,0 0.0553,0.0553 -0.0553,0.83757 0,0.89286 0.0421,0.0421 0.13648,-0.0421 0.17857,0 0.0421,0.0421 -0.0266,0.12533 0,0.17857 0.0376,0.0753 0.14092,0.10328 0.17857,0.17857 0.0266,0.0532 -0.0421,0.13649 0,0.17858 0.36947,0.36947 -0.0144,-0.5646 0.35714,0.17857 0.0484,0.0969 -0.0489,0.66542 0,0.71428 0.2381,0.2381 0.17135,-0.3788 0.35715,0.17857 0.0376,0.11294 0,0.2381 0,0.35715 0,0.0595 -0.0266,0.12533 0,0.17857 0.40862,0.81725 -0.074,-0.75775 0.35714,0.53571 0.0376,0.11294 -0.0376,0.24421 0,0.35715 0.21579,0.64737 0.0847,0.12708 0.35714,0.53571 0.0738,0.11075 0.10474,0.2464 0.17857,0.35714 0.0467,0.07 0.15195,0.0987 0.17857,0.17857 0.0465,0.13961 -0.0491,0.97316 0,1.07143 0.10715,0.21429 0.42858,0.32143 0.53572,0.53572 0.0532,0.10648 -0.0532,0.25066 0,0.35714 0.0376,0.0753 0.14092,0.10328 0.17857,0.17857 0.0617,0.12335 -0.0627,0.83018 0,0.89286 0.23809,0.23809 0.17857,-0.29762 0.17857,0.17857 0,0.0595 0,0.11905 0,0.17857 0,0.0595 -0.0532,0.15195 0,0.17857 0.10648,0.0532 0.25066,-0.0532 0.35714,0 0.0532,0.0266 -0.0266,0.12533 0,0.17857 0.0376,0.0753 0.14093,0.10328 0.17858,0.17858 0.0266,0.0532 -0.0266,0.12533 0,0.17857 0.0376,0.0753 0.14092,0.10328 0.17857,0.17857 0.0532,0.10648 -0.0532,0.25066 0,0.35714 0.0376,0.0753 0.14092,0.10328 0.17857,0.17857 0.0354,0.0708 -0.0365,0.49921 0,0.53572 0.0421,0.0421 0.13648,-0.0421 0.17857,0 0.0489,0.0489 -0.0484,0.61741 0,0.71428 0.0753,0.15059 0.26375,0.21706 0.35714,0.35715 0.39342,0.0899 0.0944,0.36735 0.17857,0.53571 0.0376,0.0753 0.14093,0.10328 0.17858,0.17857 0.0266,0.0532 0,0.11905 0,0.17857 0,0.0595 0,0.11905 0,0.17857 0,0.35715 0,0.71429 0,1.07143 0,0.0656 -0.007,0.7071 0,0.71429 0.0421,0.0421 0.13648,-0.0421 0.17857,0 0.0421,0.0421 -0.0421,0.13648 0,0.17857 0.0421,0.0421 0.13648,-0.0421 0.17857,0 0.0421,0.0421 0,0.11905 0,0.17857 0,0.0842 -0.008,0.88477 0,0.89286 0.0421,0.0421 0.13648,-0.0421 0.17857,0 0.0893,0.0893 -0.0893,0.44643 0,0.53571 0.0421,0.0421 0.13648,-0.0421 0.17857,0 0.0893,0.0893 -0.0893,0.44643 0,0.53572 0.0421,0.0421 0.13648,-0.0421 0.17857,0 0.0421,0.0421 -0.0421,0.13648 0,0.17857 0.0421,0.0421 0.13648,-0.0421 0.17857,0 0.0842,0.0842 -0.0842,0.27296 0,0.35714 0.0421,0.0421 0.13649,-0.0421 0.17858,0 0.0842,0.0842 -0.0532,0.25066 0,0.35714 0.0376,0.0753 0.14092,0.10328 0.17857,0.17858 0.0532,0.10648 -0.0842,0.27296 0,0.35714 0.0421,0.0421 0.13648,-0.0421 0.17857,0 0.0842,0.0842 -0.0842,0.27296 0,0.35714 0.36947,0.36947 -0.0144,-0.5646 0.35714,0.17857 0.0354,0.0708 -0.0365,0.49921 0,0.53572 0.0421,0.0421 0.13648,-0.0421 0.17857,0 0.0421,0.0421 -0.0266,0.12533 0,0.17857 0.0377,0.0753 0.15195,0.0987 0.17857,0.17857 0.0405,0.12148 -0.0473,0.79817 0,0.89286 0.0376,0.0753 0.13188,0.10853 0.17858,0.17857 0.0738,0.11074 0.0987,0.25066 0.17857,0.35714 0.10101,0.13469 0.28185,0.20656 0.35714,0.35714 0.0532,0.10648 -0.0377,0.24421 0,0.35715 0.0266,0.0799 0.13188,0.10853 0.17857,0.17857 0.0738,0.11074 0.0987,0.25066 0.17857,0.35714 0.10102,0.13469 0.27053,0.21278 0.35715,0.35714 0.36013,0.60023 -0.004,0.41103 0.35714,0.89286 0.10101,0.13469 0.25197,0.22568 0.35714,0.35714 0.13407,0.16759 0.27744,0.33645 0.35714,0.53572 0.0442,0.11053 0,0.23809 0,0.35714 0,0.0595 -0.0421,0.13648 0,0.17857 0.0941,0.0941 0.26303,0.0845 0.35715,0.17857 0.0941,0.0941 0.10474,0.2464 0.17857,0.35715 0.27242,0.40862 0.14135,-0.11166 0.35714,0.53571 0.0739,0.22168 -0.14659,0.19456 0.17857,0.35714 0.0532,0.0266 0.12533,-0.0266 0.17857,0 0.0753,0.0376 0.11905,0.11905 0.17858,0.17858 0.0595,0.0595 0.15195,0.0987 0.17857,0.17857 0.0431,0.12922 -0.0589,0.65542 0,0.71428 0.0842,0.0842 0.27296,-0.0842 0.35714,0 0.0421,0.0421 -0.0266,0.12533 0,0.17857 0.0753,0.15059 0.28185,0.20656 0.35714,0.35715 0.0532,0.10648 -0.0842,0.27296 0,0.35714 0.0421,0.0421 0.13648,-0.0421 0.17857,0 0,0.47619 -0.0595,-0.0595 0.17858,0.17857 0.0421,0.0421 -0.0421,0.13648 0,0.17857 0.008,0.008 0.80866,0 0.89285,0 0.0656,0 0.7071,0.007 0.71429,0 0.0421,-0.0421 -0.0421,-0.13648 0,-0.17857 0.0842,-0.0842 0.27296,0.0842 0.35714,0 0.0421,-0.0421 -0.0421,-0.13648 0,-0.17857 0.0421,-0.0421 0.12533,0.0266 0.17857,0 0.0753,-0.0376 0.11905,-0.11905 0.17857,-0.17857 0.11905,0 0.24421,0.0376 0.35715,0 0.0799,-0.0266 0.10853,-0.13188 0.17857,-0.17857 0.22149,-0.14766 0.50133,-0.19743 0.71428,-0.35715 1.09349,-1.09348 -0.30117,0.22588 0.71429,-0.53571 0.13469,-0.10102 0.23809,-0.2381 0.35714,-0.35714 0.0595,-0.0595 0.0987,-0.15195 0.17857,-0.17857 0.11294,-0.0376 0.24421,0.0376 0.35715,0 0.15972,-0.0532 0.21706,-0.26376 0.35714,-0.35715 0.11074,-0.0738 0.26303,-0.0844 0.35714,-0.17857 0.0421,-0.0421 0,-0.11905 0,-0.17857 0.0595,0 0.13648,0.0421 0.17857,0 0.0421,-0.0421 -0.0421,-0.13648 0,-0.17857 0.0421,-0.0421 0.12534,0.0266 0.17858,0 0.0306,-0.0153 0.52832,-0.51353 0.53571,-0.53572 0.0376,-0.11293 -0.0376,-0.2442 0,-0.35714 0.0607,-0.18206 0.43848,-0.28422 0.53571,-0.35714 0.13469,-0.10102 0.26376,-0.21706 0.35715,-0.35714 0.033,-0.0495 -0.0266,-0.12534 0,-0.17858 0.0879,-0.17571 0.62642,-0.53856 0.71428,-0.71428 0.0266,-0.0532 -0.0421,-0.13648 0,-0.17857 0.0421,-0.0421 0.13648,0.0421 0.17857,0 0.0421,-0.0421 0,-0.11905 0,-0.17857 0.0595,-0.0595 0.10853,-0.13188 0.17858,-0.17858 0.16312,-0.10874 0.43335,-0.15242 0.53571,-0.35714 0.0532,-0.10648 -0.0842,-0.27296 0,-0.35714 0.0421,-0.0421 0.12533,0.0266 0.17857,0 0.0753,-0.0376 0.10853,-0.13188 0.17857,-0.17857 0.11075,-0.0738 0.26303,-0.0845 0.35715,-0.17857 0.0842,-0.0842 -0.0842,-0.27297 0,-0.35715 0.0421,-0.0421 0.11904,0 0.17857,0 0.0595,-0.0595 0.13187,-0.10853 0.17857,-0.17857 0.0738,-0.11074 0.0844,-0.26303 0.17857,-0.35714 0.0941,-0.0941 0.28331,-0.0678 0.35714,-0.17857 0.066,-0.0991 -0.0376,-0.24421 0,-0.35715 0.0266,-0.0799 0.13188,-0.10853 0.17857,-0.17857 0.0738,-0.11074 0.0987,-0.25066 0.17858,-0.35714 0.26682,-0.35577 0.42765,-0.28205 0.53571,-0.71429 0.0289,-0.11549 0,-0.23809 0,-0.35714 0,-0.0595 -0.0532,-0.15195 0,-0.17857 0.10648,-0.0532 0.25066,0.0532 0.35714,0 0.0532,-0.0266 -0.0266,-0.12533 0,-0.17857 0.0753,-0.15059 0.26376,-0.21706 0.35715,-0.35714 0.0738,-0.11075 0.11904,-0.2381 0.17857,-0.35715 0.0595,-0.11904 0.14629,-0.22801 0.17857,-0.35714 0.0289,-0.11549 -0.0376,-0.2442 0,-0.35714 0.0266,-0.0799 0.13188,-0.10853 0.17857,-0.17857 0.0738,-0.11075 0.10474,-0.2464 0.17857,-0.35715 0.21783,-0.32674 0.22767,-0.0178 0.35714,-0.53571 0,-0.81291 -0.0842,-0.0102 0.17858,-0.53572 0.0266,-0.0532 -0.0266,-0.12533 0,-0.17857 0.27228,-0.54456 0.14156,0.3266 0.35714,-0.53571 0,-1.1845 -0.0842,0.25254 0.17857,-0.53572 0.0376,-0.11293 -0.0376,-0.2442 0,-0.35714 0.0266,-0.0799 0.15195,-0.0987 0.17857,-0.17857 0.0376,-0.11294 -0.0532,-0.25066 0,-0.35714 0.0266,-0.0532 0.13648,0.0421 0.17857,0 0.0528,-0.0528 -0.0553,-0.60368 0,-0.71429 0.0376,-0.0753 0.14093,-0.10328 0.17857,-0.17857 0.0714,-0.14286 -0.0714,-0.39286 0,-0.53571 0.0753,-0.15059 0.30391,-0.19743 0.35715,-0.35715 0.0376,-0.11294 -0.0376,-0.2442 0,-0.35714 0.0532,-0.15972 0.3039,-0.19742 0.35714,-0.35714 0.0376,-0.11294 0,-0.2381 0,-0.35715 0,-0.0595 -0.0266,-0.12533 0,-0.17857 0.0376,-0.0753 0.14092,-0.10328 0.17857,-0.17857 0.0617,-0.12334 -0.0627,-0.83017 0,-0.89286 0.0421,-0.0421 0.13648,0.0421 0.17857,0 0.0627,-0.0627 -0.0617,-0.76951 0,-0.89285 0.0376,-0.0753 0.14093,-0.10328 0.17857,-0.17857 0.0266,-0.0532 -0.0266,-0.12534 0,-0.17858 0.0376,-0.0753 0.14093,-0.10327 0.17858,-0.17857 0.058,-0.116 -0.0566,-0.77958 0,-0.89285 0.0376,-0.0753 0.15195,-0.0987 0.17857,-0.17858 0,-0.8129 -0.0842,-0.0102 0.17857,-0.53571 0.0231,-0.0462 0,-0.94486 0,-1.07143 0,-0.0595 0,-0.11905 0,-0.17857 0,-0.0595 -0.0266,-0.12533 0,-0.17857 0.0376,-0.0753 0.15195,-0.0987 0.17857,-0.17857 0.0565,-0.16941 0,-0.35715 0,-0.53572 0,-0.41666 0,-0.83333 0,-1.25 0,-0.17857 -0.0565,-0.3663 0,-0.53571 0.0266,-0.0799 0.15195,-0.0987 0.17857,-0.17857 0.032,-0.096 0,-0.5631 0,-0.71429 0,-0.47619 0,-0.95238 0,-1.42857 0,-0.1242 -0.0323,-0.82828 0,-0.89286 0.0376,-0.0753 0.15195,-0.0987 0.17857,-0.17857 0.0329,-0.0987 0,-0.8916 0,-1.07143 0,-0.0595 -0.0266,-0.12533 0,-0.17857 0.0376,-0.0753 0.15195,-0.0987 0.17857,-0.17857 0.0565,-0.16941 0,-0.35714 0,-0.53571 0,-0.35715 0,-0.71429 0,-1.07143 0,-0.11905 0,-0.2381 0,-0.35715 0,-0.0595 -0.0421,-0.13648 0,-0.17857 0.0421,-0.0421 0.15196,0.0532 0.17858,0 0.0532,-0.10648 0,-0.23809 0,-0.35714 0,-0.29762 0,-0.59524 0,-0.89286 0,-0.0595 0,-0.11904 0,-0.17857 0,-0.0595 -0.0421,-0.13648 0,-0.17857 0.0421,-0.0421 0.13648,0.0421 0.17857,0 0.0421,-0.0421 -0.0266,-0.12533 0,-0.17857 0.0376,-0.0753 0.14092,-0.10328 0.17857,-0.17857 0.0354,-0.0708 -0.0365,-0.49921 0,-0.53572 0.0421,-0.0421 0.13648,0.0421 0.17857,0 0.0842,-0.0842 -0.0532,-0.25066 0,-0.35714 0.0753,-0.15058 0.26375,-0.21706 0.35714,-0.35714 0.64738,-1.29475 -0.18823,0.28234 0.35715,-0.53572 0.0738,-0.11074 0.0845,-0.26302 0.17857,-0.35714 0.0941,-0.0941 0.26302,-0.0845 0.35714,-0.17857 0.0941,-0.0941 0.0987,-0.25066 0.17857,-0.35714 0.10102,-0.13469 0.25613,-0.22246 0.35714,-0.35715 0.0799,-0.10648 0.0721,-0.27728 0.17858,-0.35714 0.15058,-0.11294 0.36735,-0.0944 0.53571,-0.17857 0.2735,-0.13675 0.13965,-0.31822 0.35714,-0.53572 0.15176,-0.15175 0.38396,-0.20538 0.53572,-0.35714 0.0421,-0.0421 -0.0421,-0.13648 0,-0.17857 0.0421,-0.0421 0.12533,0.0266 0.17857,0 0.0753,-0.0376 0.11905,-0.11905 0.17857,-0.17857 0.11905,-0.11905 0.22246,-0.25613 0.35714,-0.35714 0.10648,-0.0799 0.26303,-0.0845 0.35715,-0.17858 0.0941,-0.0941 0.0845,-0.26302 0.17857,-0.35714 0.18823,-0.18823 0.50132,-0.19742 0.71428,-0.35714 0.13469,-0.10102 0.21706,-0.26376 0.35715,-0.35714 0.0495,-0.033 0.13648,0.0421 0.17857,0 0.36947,-0.36947 -0.5646,0.0144 0.17857,-0.35715 0.16836,-0.0842 0.3791,-0.0742 0.53571,-0.17857 0.47619,-0.31746 -0.71552,-0.0591 0.17857,-0.35714 0.11294,-0.0376 0.24421,0.0376 0.35715,0 0.15972,-0.0532 0.19742,-0.3039 0.35714,-0.35714 0.11294,-0.0376 0.2442,0.0376 0.35714,0 0.12092,-0.0403 0.39931,-0.46751 0.53572,-0.53572 0.16836,-0.0842 0.3531,-0.13292 0.53571,-0.17857 0.0578,-0.0144 0.12533,0.0266 0.17857,0 0.0753,-0.0376 0.10853,-0.13188 0.17857,-0.17857 0.11075,-0.0738 0.2464,-0.10474 0.35715,-0.17857 0.07,-0.0467 0.10328,-0.14093 0.17857,-0.17857 0.0532,-0.0266 0.12533,0.0266 0.17857,0 0.0753,-0.0376 0.0987,-0.15196 0.17857,-0.17858 0.81291,0 0.0102,0.0842 0.53572,-0.17857 0.10647,-0.0532 0.25066,0.0532 0.35714,0 0.15058,-0.0753 0.19742,-0.3039 0.35714,-0.35714 0.1062,-0.0354 0.85304,0.0398 0.89286,0 0.0421,-0.0421 -0.0532,-0.15195 0,-0.17857 0.0759,-0.038 0.74321,0 0.89286,0 0.11198,0 0.69222,0.0221 0.71428,0 0.0421,-0.0421 -0.0532,-0.15195 0,-0.17857 0.15972,-0.0799 0.35714,0 0.53572,0 0.47619,0 0.95238,0 1.42857,0 0.0608,0 0.61764,0.0322 0.71428,0 0.12627,-0.0421 0.23088,-0.13648 0.35715,-0.17857 0.10344,-0.0345 0.55953,0 0.71428,0 0.47619,0 0.95238,0 1.42857,0 0.53572,0 1.07143,0 1.60715,0 0.0595,0 0.11904,0 0.17857,0 0.0595,0 0.13648,-0.0421 0.17857,0 0.0421,0.0421 -0.0421,0.13648 0,0.17857 0.0365,0.0365 0.46491,-0.0354 0.53571,0 0.0753,0.0376 0.10328,0.14092 0.17857,0.17857 0.10648,0.0532 0.25067,-0.0532 0.35715,0 0.0753,0.0376 0.10328,0.14092 0.17857,0.17857 0.10648,0.0532 0.27296,-0.0842 0.35714,0 0.0421,0.0421 -0.0421,0.13648 0,0.17857 0.0842,0.0842 0.27296,-0.0842 0.35714,0 0.0842,0.0842 -0.0842,0.27296 0,0.35714 0.0421,0.0421 0.13649,-0.0421 0.17858,0 0.0421,0.0421 -0.0421,0.13649 0,0.17858 0.0842,0.0842 0.27296,-0.0842 0.35714,0 0.0421,0.0421 -0.0421,0.13648 0,0.17857 0.0421,0.0421 0.13648,-0.0421 0.17857,0 0.0842,0.0842 -0.0842,0.27296 0,0.35714 0.0421,0.0421 0.13648,-0.0421 0.17857,0 0.0842,0.0842 -0.0842,0.27296 0,0.35714 0.0842,0.0842 0.27296,-0.0842 0.35714,0 0.0421,0.0421 -0.0421,0.13648 0,0.17857 0.0421,0.0421 0.13649,-0.0421 0.17858,0 0.11925,0.11926 -0.11926,0.23789 0,0.35715 0.0421,0.0421 0.11904,0 0.17857,0 0,0.0595 -0.0421,0.13648 0,0.17857 0.0421,0.0421 0.13648,-0.0421 0.17857,0 0.0421,0.0421 -0.0421,0.13648 0,0.17857 0.0421,0.0421 0.13648,-0.0421 0.17857,0 0.0421,0.0421 -0.0421,0.13648 0,0.17857 0.0842,0.0842 0.27296,-0.0842 0.35714,0 0.0842,0.0842 -0.0842,0.27296 0,0.35714 0.0421,0.0421 0.13648,-0.0421 0.17857,0 0.0421,0.0421 -0.0421,0.13649 0,0.17858 0.0421,0.0421 0.12534,-0.0266 0.17858,0 0.74317,0.37158 -0.1909,-0.0123 0.17857,0.35714 0.0421,0.0421 0.13648,-0.0421 0.17857,0 0.0421,0.0421 -0.0421,0.13648 0,0.17857 0.0421,0.0421 0.13648,-0.0421 0.17857,0 0.0842,0.0842 -0.0842,0.27296 0,0.35714 0.0421,0.0421 0.13648,-0.0421 0.17857,0 0.0842,0.0842 -0.0842,0.27297 0,0.35715 0.0421,0.0421 0.13648,-0.0421 0.17857,0 0.0421,0.0421 -0.0421,0.13648 0,0.17857 0.0421,0.0421 0.13648,-0.0421 0.17857,0 0.0421,0.0421 -0.0421,0.13648 0,0.17857 0.0421,0.0421 0.13649,-0.0421 0.17858,0 0.0365,0.0365 -0.0354,0.46491 0,0.53571 0.0376,0.0753 0.11904,0.11905 0.17857,0.17857 0.0595,0.0595 0.10328,0.14093 0.17857,0.17858 0.0532,0.0266 0.13648,-0.0421 0.17857,0 0.0842,0.0842 -0.0842,0.27296 0,0.35714 0.0842,0.0842 0.27296,-0.0842 0.35714,0 0.0842,0.0842 -0.0842,0.27296 0,0.35714 0.0842,0.0842 0.27297,-0.0842 0.35715,0 0.0421,0.0421 -0.0421,0.13648 0,0.17857 0.0842,0.0842 0.27296,-0.0842 0.35714,0 0.0421,0.0421 -0.0421,0.13648 0,0.17857 0.043,0.043 0.67131,-0.043 0.71428,0 0.0421,0.0421 -0.0421,0.13649 0,0.17858 0.0421,0.0421 0.11905,0 0.17858,0 0.0433,0 0.52997,0.006 0.53571,0 0.0421,-0.0421 -0.0421,-0.13649 0,-0.17858 0.0842,-0.0842 0.27296,0.0842 0.35714,0 0.0421,-0.0421 -0.0421,-0.13648 0,-0.17857 0.0421,-0.0421 0.13648,0.0421 0.17857,0 0.0421,-0.0421 -0.0421,-0.13648 0,-0.17857 0.0421,-0.0421 0.13649,0.0421 0.17858,0 0.0421,-0.0421 -0.0421,-0.13648 0,-0.17857 0.0421,-0.0421 0.13648,0.0421 0.17857,0 0.0421,-0.0421 -0.0266,-0.12533 0,-0.17857 0.043,-0.0861 0.70938,-0.71061 0.71428,-0.71429 0.10648,-0.0799 0.26303,-0.0844 0.35715,-0.17857 0.0941,-0.0941 0.10474,-0.2464 0.17857,-0.35714 0.14008,-0.21013 0.38419,-0.33369 0.53571,-0.53572 0.15972,-0.21295 0.20948,-0.49279 0.35714,-0.71428 0.21367,-0.3205 0.32205,-0.0366 0.53572,-0.35714 0.066,-0.0991 0,-0.2381 0,-0.35715 0,-0.0595 -0.0421,-0.13648 0,-0.17857 0.0421,-0.0421 0.13648,0.0421 0.17857,0 0.0421,-0.0421 -0.0421,-0.13648 0,-0.17857 0.0421,-0.0421 0.13648,0.0421 0.17857,0 0.0421,-0.0421 -0.0421,-0.13648 0,-0.17857 0.0421,-0.0421 0.13648,0.0421 0.17857,0 0.0842,-0.0842 -0.0842,-0.27296 0,-0.35714 0.0421,-0.0421 0.13648,0.0421 0.17857,0 0.0421,-0.0421 -0.0266,-0.12534 0,-0.17858 0.0376,-0.0753 0.14093,-0.10327 0.17858,-0.17857 0.0354,-0.0708 -0.0365,-0.4992 0,-0.53571 0.0421,-0.0421 0.13648,0.0421 0.17857,0 0.0421,-0.0421 -0.0421,-0.13648 0,-0.17857 0.0421,-0.0421 0.13648,0.0421 0.17857,0 0.0421,-0.0421 -0.0421,-0.13648 0,-0.17857 0.0421,-0.0421 0.13648,0.0421 0.17857,0 0.36947,-0.36947 -0.5646,0.0144 0.17857,-0.35715 0.0532,-0.0266 0.13648,0.0421 0.17857,0 0.0421,-0.0421 -0.0421,-0.13648 0,-0.17857 0.0365,-0.0365 0.46491,0.0354 0.53572,0 0.0753,-0.0376 0.10328,-0.14092 0.17857,-0.17857 0.0969,-0.0484 0.66542,0.0489 0.71428,0 0.0421,-0.0421 -0.0532,-0.15195 0,-0.17857 0.11224,-0.0561 0.60205,0.0561 0.71429,0 0.0753,-0.0376 0.14093,-0.10328 0.17857,-0.17857 0.0266,-0.0532 -0.0532,-0.15195 0,-0.17857 0.0652,-0.0326 0.8581,0.0347 0.89286,0 0.23809,-0.2381 -0.29762,-0.17858 0.17857,-0.17858 0.0433,0 0.52997,0.006 0.53571,0 0.0421,-0.0421 -0.0421,-0.13648 0,-0.17857 0.0553,-0.0553 0.83757,0.0553 0.89286,0 0.0421,-0.0421 -0.0421,-0.13648 0,-0.17857 0.006,-0.006 0.49241,0 0.53572,0 0.0656,0 0.7071,0.007 0.71428,0 0.0421,-0.0421 -0.0421,-0.13648 0,-0.17857 0.006,-0.006 0.49241,0 0.53572,0 0.65476,0 1.30952,0 1.96428,0 0.0595,0 0.11905,0 0.17857,0 0.0595,0 0.13648,-0.0421 0.17857,0 0.0421,0.0421 -0.0421,0.13648 0,0.17857 0.006,0.006 0.49241,0 0.53572,0 0.95238,0 1.90476,0 2.85714,0 0.77381,0 1.54762,0 2.32143,0 0.14616,0 1.01918,0.0261 1.07143,0 0.47619,-0.23809 -0.53572,-0.17857 0.17857,-0.17857 0.77381,0 1.54762,0 2.32143,0 0.0595,0 0.11905,0 0.17857,0 0.0595,0 0.13648,0.0421 0.17857,0 0.0421,-0.0421 -0.0421,-0.13648 0,-0.17857 0.0421,-0.0421 0.11905,0 0.17857,0 0.0595,0 0.11905,0 0.17857,0 0.35715,0 0.71429,0 1.07143,0 0.0804,0 0.48137,0.0272 0.53572,0 0.0753,-0.0376 0.0987,-0.15195 0.17857,-0.17857 0.11294,-0.0376 0.23809,0 0.35714,0 0.29762,0 0.59524,0 0.89286,0 0.14598,0 1.15949,0.0302 1.25,0 0.0799,-0.0266 0.0987,-0.15195 0.17857,-0.17857 0.11294,-0.0376 0.2381,0 0.35714,0 0.41667,0 0.83334,0 1.25,0 0.0595,0 0.11905,0 0.17857,0 0.0595,0 0.12534,0.0266 0.17858,0 0.0753,-0.0376 0.10327,-0.14093 0.17857,-0.17858 0.0646,-0.0323 0.76865,0 0.89285,0 0.77381,0 1.54762,0 2.32143,0 0.0934,0 0.66733,0.0235 0.71429,0 0.0753,-0.0376 0.10328,-0.14092 0.17857,-0.17857 0.0646,-0.0323 0.76865,0 0.89286,0 0.77381,0 1.54762,0 2.32143,0 0.0595,0 0.11904,0 0.17857,0 0.0595,0 0.13648,0.0421 0.17857,0 0.23809,-0.23809 -0.29762,-0.17857 0.17857,-0.17857 0.41667,0 0.83333,0 1.25,0 0.0804,0 0.48137,0.0272 0.53571,0 0.0753,-0.0376 0.10328,-0.14092 0.17858,-0.17857 0.0569,-0.0285 0.73326,0 0.89285,0 0.4945,0 -0.13735,-0.17857 0.35715,-0.17857 0.0595,0 0.11904,0 0.17857,0 0.0595,0 0.17857,-0.0595 0.17857,0 0,0.0595 -0.17857,0.0595 -0.17857,0 0,-0.0842 0.14092,-0.10328 0.17857,-0.17857 0.0532,-0.10648 -0.0842,-0.27297 0,-0.35715 0.23809,-0.23809 0.17857,0.29762 0.17857,-0.17857"
         style="fill:none;fill-rule:evenodd;stroke:#000000;stroke-width:1px;stroke-linecap:butt;stroke-linejoin:miter;stroke-opacity:1" />
      <g
         transform="translate(-1.2626907,-1.0101525)"
         id="g6528">
        <path
           style="fill:none;fill-rule:evenodd;stroke:#000000;stroke-width:1;stroke-linecap:butt;stroke-linejoin:miter;stroke-miterlimit:4;stroke-dasharray:none;stroke-opacity:1"
           d="m 606.76064,925.37542 c 0,0.0933 0,0.18666 0,0.27999 0,0.0155 -0.0104,0.0356 0,0.0467 0.0104,0.0104 0.0398,-0.0133 0.0467,0 0.0148,0.0287 -0.0148,0.2044 0,0.23333 0.0103,0.0197 0.0398,0.0257 0.0467,0.0467 0.009,0.0259 0,0.233 0,0.28 0,0.0244 -0.006,0.17439 0,0.18666 0.0103,0.0197 0.0368,0.027 0.0467,0.0467 0.007,0.0133 0,0.0312 0,0.0467 0,0.0312 0,0.0622 0,0.0933 0,0.10895 0,0.21776 0,0.32665 0,0.0244 -0.006,0.1744 0,0.18667 0.0103,0.0197 0.0398,0.0257 0.0467,0.0467 0.0148,0.0442 0,0.0933 0,0.13999 0,0.12448 0,0.24887 0,0.37332 0,0.0331 -0.006,0.26793 0,0.28 0.0104,0.0197 0.0398,0.0257 0.0467,0.0467 0.0104,0.0309 0,0.26343 0,0.32667 0,0.0155 0,0.031 0,0.0467 0,0.0155 -0.007,0.0328 0,0.0467 0.0104,0.0197 0.0398,0.0259 0.0467,0.0467 0.009,0.0251 0,0.14709 0,0.18666 0,0.14 0,0.27999 0,0.41998 0,0.0171 -10e-4,0.18479 0,0.18667 0.0622,0.0622 0.0467,-0.0778 0.0467,0.0467 0,0.0933 0,0.18666 0,0.27999 0,0.0155 -0.0104,0.0356 0,0.0467 0.0103,0.0104 0.0356,-0.0104 0.0467,0 0.0103,0.0104 0,0.031 0,0.0467 0,0.10894 0,0.21776 0,0.32665 0,0.0155 0,0.031 0,0.0467 0,0.0155 -0.0104,0.0356 0,0.0467 0.0103,0.0103 0.0356,-0.0104 0.0467,0 0.0148,0.0148 -0.0148,0.21887 0,0.23333 0.0104,0.0104 0.0356,-0.0104 0.0467,0 0.001,10e-4 0,0.12861 0,0.13999 0,0.0244 -0.006,0.1744 0,0.18667 0.0103,0.0197 0.031,0.031 0.0467,0.0467 0,0.031 -0.0104,0.0639 0,0.0933 0.007,0.0208 0.0398,0.0259 0.0467,0.0467 0.0104,0.0296 0,0.0622 0,0.0933 0,0.0933 0,0.18667 0,0.28 0,0.0306 -0.009,0.11368 0,0.14 0.0104,0.033 0.0311,0.0622 0.0467,0.0933 0,0.0467 -0.0118,0.0948 0,0.13999 0.006,0.0213 0.031,0.0312 0.0467,0.0467 0.0155,0.0467 0.0386,0.0915 0.0467,0.14 0.007,0.046 -0.0118,0.0948 0,0.13999 0.006,0.0213 0.0344,0.0284 0.0467,0.0467 0.0194,0.029 0.0383,0.0596 0.0467,0.0933 0.007,0.0302 -0.0104,0.0639 0,0.0933 0.009,0.0272 0.15862,0.14458 0.18667,0.18667 0.0194,0.029 0.022,0.0687 0.0467,0.0933 0.0245,0.0245 0.0645,0.0274 0.0933,0.0467 0.0183,0.0118 0.0271,0.0368 0.0467,0.0467 0.0133,0.007 0.0356,-0.0103 0.0467,0 0.0103,0.0104 -0.0104,0.0356 0,0.0467 0.009,0.009 0.12151,-0.009 0.13999,0 0.0197,0.0103 0.027,0.0368 0.0467,0.0467 0.0374,0.0186 0.1026,-0.0186 0.14,0 0.0197,0.0104 0.0259,0.0398 0.0467,0.0467 0.0442,0.0148 0.0958,-0.0148 0.13999,0 0.033,0.0103 0.0603,0.0356 0.0933,0.0467 0.0414,0.0133 0.20278,-0.0152 0.23334,0 0.0197,0.0104 0.0253,0.0414 0.0467,0.0467 0.0399,0.0104 0.26708,0 0.32666,0 0.0933,0 0.18666,0 0.27998,0 0.0467,0 0.0983,0.0208 0.13999,0 0.0133,-0.007 -0.0133,-0.0398 0,-0.0467 0.0278,-0.0133 0.0655,0.0133 0.0933,0 0.0133,-0.007 -0.0103,-0.0356 0,-0.0467 0.0104,-0.0103 0.0316,0.004 0.0467,0 0.0478,-0.0118 0.0959,-0.0247 0.13999,-0.0467 0.0197,-0.0104 0.0278,-0.0353 0.0467,-0.0467 0.0597,-0.0358 0.1323,-0.0498 0.18666,-0.0933 0.0272,-0.0217 0.022,-0.0687 0.0467,-0.0933 0.0792,-0.0794 0.20068,-0.10732 0.27999,-0.18666 0.0396,-0.0396 0.0537,-0.10038 0.0933,-0.14 0.0245,-0.0245 0.0655,-0.0259 0.0933,-0.0467 0.0352,-0.0265 0.059,-0.0658 0.0933,-0.0933 0.28921,-0.23137 0.0152,0.006 0.23331,-0.13999 0.0924,0.004 0.022,-0.0687 0.0467,-0.0933 0.0104,-0.0104 0.0356,0.0103 0.0467,0 0.0622,-0.0622 -0.0778,-0.0467 0.0467,-0.0467"
           id="path6520"
           inkscape:connector-curvature="0" />
        <path
           style="fill:none;fill-rule:evenodd;stroke:#000000;stroke-width:1;stroke-linecap:butt;stroke-linejoin:miter;stroke-miterlimit:4;stroke-dasharray:none;stroke-opacity:1"
           d="m 604.47403,928.78199 c 0.0622,0 0.12536,-0.0103 0.18667,0 0.0343,0.006 0.0599,0.0371 0.0933,0.0467 0.0763,0.0217 0.15555,0.031 0.23332,0.0467 0.41076,0.0822 0.0584,0.0161 0.55999,0.0933 0.99509,0.15309 -0.51395,-0.0553 0.60666,0.0467 0.0639,0.006 0.1227,0.0417 0.18665,0.0467 0.13955,0.0103 0.28,0 0.41999,0 0.13999,0 0.27999,0 0.42,0 0.55997,0 1.11996,0 1.67994,0 0.12448,0 0.24889,0 0.37332,0 0.031,0 0.0639,0.0103 0.0933,0 0.0208,-0.007 0.0251,-0.0423 0.0467,-0.0467 0.054,-0.0104 0.29218,0 0.37331,0 0.0933,0 0.18666,0 0.28,0 0.0155,0 0.0356,0.0104 0.0467,0 0.0104,-0.0104 -0.0103,-0.0356 0,-0.0467 0.0104,-0.0104 0.0311,0 0.0467,0 0.0155,0 0.031,0 0.0467,0 0.0155,0 0.0467,-0.0155 0.0467,0 0,0.0155 -0.0312,0 -0.0467,0"
           id="path6522"
           inkscape:connector-curvature="0" />
      </g>
      <path
         inkscape:connector-curvature="0"
         id="path6524"
         d="m 462.45536,841.29078 c 0.0354,0.079 -0.0181,0.22219 0,0.3125 0.009,0.0461 0.0298,0.0893 0.0446,0.13392 0.0149,0.0744 0.0311,0.14856 0.0446,0.22322 0.1008,0.55438 -0.0259,-0.0497 0.13393,0.66964 0.0298,0.13393 0.048,0.27096 0.0893,0.40179 0.0483,0.15283 0.12789,0.29438 0.17857,0.44643 0.0917,0.27497 0.10781,0.5205 0.17857,0.80357 0.0761,0.30446 0.16976,0.50067 0.22322,0.80357 0.0234,0.1327 0.0225,0.26886 0.0446,0.40178 0.0226,0.13533 0.0595,0.26786 0.0893,0.40179 0.0298,0.13393 0.0579,0.26824 0.0893,0.40179 0.0281,0.11944 0.0731,0.2355 0.0893,0.35714 0.0138,0.10325 -0.009,0.20876 0,0.3125 0.006,0.0611 0.0385,0.11752 0.0446,0.17857 0.0148,0.14807 0,0.29762 0,0.44643 0,0.0446 -0.006,0.0897 0,0.13393 0.009,0.0607 0.0298,0.11904 0.0446,0.17857 0,0.0744 -0.009,0.14938 0,0.22321 0.0588,0.47008 0.0446,-0.19185 0.0446,0.26786 0,0.008 -0.005,0.25149 0,0.26786 0.007,0.02 0.038,0.0247 0.0446,0.0446 0.009,0.0282 0,0.0595 0,0.0893 0,0.0149 0.0149,0.0446 0,0.0446 -0.0211,0 -0.0298,-0.0298 -0.0446,-0.0446"
         style="fill:none;fill-rule:evenodd;stroke:#000000;stroke-width:1px;stroke-linecap:butt;stroke-linejoin:miter;stroke-opacity:1" />
      <path
         inkscape:connector-curvature="0"
         id="path6526"
         d="m 462.41072,840.75506 c 0.30323,-0.40431 5.9e-4,-0.0562 0.22321,-0.22321 0.0337,-0.0253 0.0532,-0.0676 0.0893,-0.0893 0.0403,-0.0242 0.0972,-0.0152 0.13392,-0.0446 0.29762,-0.2381 -0.13392,-0.0446 0.22322,-0.22322 0.21167,-0.10583 0.21244,-0.0602 0.40178,-0.17857 0.0631,-0.0394 0.11353,-0.0978 0.17858,-0.13393 0.07,-0.0389 0.14881,-0.0595 0.22321,-0.0893 0.0744,-0.0298 0.14881,-0.0595 0.22321,-0.0893 0.0893,-0.0298 0.18002,-0.0555 0.26786,-0.0893 0.10578,-0.0407 0.20353,-0.1028 0.3125,-0.13393 0.003,-9.2e-4 0.6186,-0.0879 0.625,-0.0893 0.10593,-0.0227 0.20896,-0.0574 0.3125,-0.0893 0.09,-0.0277 0.17557,-0.0708 0.26786,-0.0893 0.13213,-0.0264 0.26934,-0.0198 0.40178,-0.0446 0.52342,-0.0981 0.0987,-0.0934 0.625,-0.13393 0.089,-0.007 0.17912,0.01 0.26786,0 0.0468,-0.005 0.0893,-0.0298 0.13393,-0.0446 0.0893,-0.0149 0.17765,-0.0371 0.26786,-0.0446 0.089,-0.007 0.17911,0.01 0.26785,0 0.0468,-0.005 0.0872,-0.0388 0.13393,-0.0446 0.0738,-0.009 0.14881,0 0.22322,0 0.14881,0 0.29762,0 0.44643,0 0.0744,0 0.14881,0 0.22321,0 0.0298,0 0.061,-0.009 0.0893,0 0.02,0.007 0.0247,0.038 0.0446,0.0446 0.0282,0.009 0.0627,-0.0133 0.0893,0 0.0133,0.007 -0.0124,0.0364 0,0.0446 0.0392,0.0261 0.0902,0.0272 0.13393,0.0446 0.0309,0.0124 0.0577,0.0341 0.0893,0.0446 0.0582,0.0194 0.12596,0.0131 0.17857,0.0447 0.0285,0.0171 0.0211,0.0657 0.0446,0.0893 0.0759,0.0759 0.18407,0.11154 0.26786,0.17857 0.0329,0.0263 0.0564,0.063 0.0893,0.0893 0.0419,0.0335 0.0927,0.0549 0.13392,0.0893 0.17849,0.14874 0.10833,0.11146 0.22322,0.3125 0.29212,0.51121 -0.14612,-0.28614 0.22321,0.26786 0.0261,0.0392 0.0261,0.0907 0.0447,0.13393 0.0262,0.0612 0.0659,0.11626 0.0893,0.17857 0.0215,0.0575 0.0278,0.11958 0.0446,0.17857 0.12809,0.44832 -0.0503,-0.24574 0.0893,0.3125 0.0149,0.0595 0.036,0.11783 0.0446,0.17857 0.0105,0.0737 0,0.14881 0,0.22322 0,0.0298 0,0.0595 0,0.0893 0,0.0149 0.005,0.0305 0,0.0446 -0.0105,0.0316 -0.0381,0.0566 -0.0446,0.0893 0,0.25389 0.02,0.0294 -0.0446,0.22322 -0.0194,0.0582 -0.036,0.11783 -0.0446,0.17857 -0.006,0.0442 0.0166,0.0925 0,0.13393 -0.0156,0.0391 -0.0659,0.0543 -0.0893,0.0893 -0.0369,0.0554 -0.0631,0.11741 -0.0893,0.17857 -0.0185,0.0433 -0.0185,0.0948 -0.0446,0.13393 -0.035,0.0525 -0.0989,0.0814 -0.13393,0.13393 -0.0261,0.0392 -0.0236,0.0918 -0.0446,0.13393 -0.0551,0.11011 -0.13865,0.18329 -0.22322,0.26786 -0.0298,0.0298 -0.063,0.0564 -0.0893,0.0893 -0.0335,0.0419 -0.0513,0.096 -0.0893,0.13393 -0.0235,0.0235 -0.0627,0.0247 -0.0893,0.0446 -0.0337,0.0253 -0.0564,0.063 -0.0893,0.0893 -0.0993,0.0794 -0.20627,0.11483 -0.3125,0.17857 -0.046,0.0276 -0.0841,0.0694 -0.13393,0.0893 -0.0276,0.0111 -0.061,-0.009 -0.0893,0 -0.02,0.007 -0.0258,0.0352 -0.0446,0.0446 -0.086,0.043 -0.22667,0.0607 -0.3125,0.0893 -0.0316,0.0105 -0.0584,0.0323 -0.0893,0.0446 -0.10644,0.0426 -0.33983,0.1206 -0.44643,0.13393 -0.0591,0.007 -0.11905,0 -0.17857,0 -0.0298,0 -0.061,-0.009 -0.0893,0 -0.02,0.007 -0.0298,0.0298 -0.0446,0.0446 -0.0595,0 -0.11986,-0.01 -0.17857,0 -0.0328,0.005 -0.057,0.0366 -0.0893,0.0446 -0.0289,0.007 -0.0604,-0.007 -0.0893,0 -0.22988,0.0575 0.0816,0.0457 -0.22322,0.0893 -0.0589,0.008 -0.11985,-0.01 -0.17857,0 -0.0328,0.005 -0.0584,0.0323 -0.0893,0.0446 -0.0437,0.0175 -0.0875,0.0369 -0.13393,0.0446 -0.044,0.007 -0.0906,-0.0108 -0.13393,0 -0.0204,0.005 -0.0242,0.0395 -0.0446,0.0446 -0.0433,0.0108 -0.0893,0 -0.13393,0 -0.0298,0 -0.0611,-0.009 -0.0893,0 -0.02,0.007 -0.0247,0.038 -0.0446,0.0446 -0.0282,0.009 -0.0604,-0.007 -0.0893,0 -0.0323,0.008 -0.0566,0.0381 -0.0893,0.0446 -0.0447,0.009 -0.20973,0 -0.26786,0 -0.0149,0 -0.0341,-0.0105 -0.0446,0 -0.0105,0.0105 0.0105,0.0341 0,0.0447 -0.0105,0.0105 -0.0298,0 -0.0446,0 -0.0298,0 -0.0595,0 -0.0893,0 -0.14881,0 -0.29762,0 -0.44643,0 -0.0446,0 -0.0916,-0.0141 -0.13393,0 -0.02,0.007 -0.0242,0.0395 -0.0446,0.0446 -0.0433,0.0108 -0.0893,0 -0.13393,0 -0.10417,0 -0.20833,0 -0.3125,0 -0.17857,0 -0.35714,0 -0.53571,0 -0.0328,0 -0.2523,0.008 -0.26786,0 -0.0188,-0.009 -0.0247,-0.038 -0.0446,-0.0446 -0.0424,-0.0141 -0.0893,0 -0.13393,0 -0.10417,0 -0.20834,0 -0.3125,0"
         style="fill:none;fill-rule:evenodd;stroke:#000000;stroke-width:1px;stroke-linecap:butt;stroke-linejoin:miter;stroke-opacity:1" />
      <path
         inkscape:connector-curvature="0"
         id="path6532"
         d="m 463.03572,930.75506 c -0.2381,0.0595 -0.49478,0.0688 -0.71429,0.17857 -0.0532,0.0266 0.0421,0.13648 0,0.17857 -0.0365,0.0365 -0.46491,-0.0354 -0.53571,0 -0.0753,0.0376 -0.10328,0.14093 -0.17858,0.17858 -0.0532,0.0266 -0.13648,-0.0421 -0.17857,0 -0.0421,0.0421 0.0421,0.13648 0,0.17857 -0.0842,0.0842 -0.27296,-0.0842 -0.35714,0 -0.0421,0.0421 0.0421,0.13648 0,0.17857 -0.0421,0.0421 -0.13648,-0.0421 -0.17857,0 -0.0421,0.0421 0.0421,0.13648 0,0.17857 -0.0421,0.0421 -0.13648,-0.0421 -0.17857,0 -0.0421,0.0421 0,0.11905 0,0.17857 0,0.0595 0.0421,0.13648 0,0.17857 -0.0421,0.0421 -0.12534,-0.0266 -0.17857,0 -0.0753,0.0376 -0.11905,0.11905 -0.17858,0.17857 -0.39923,0.39924 -0.35714,0.18879 -0.35714,0.53572 0,0.0595 0.0266,0.12533 0,0.17857 -0.0376,0.0753 -0.13188,0.10853 -0.17857,0.17857 -0.0738,0.11075 -0.10474,0.2464 -0.17857,0.35714 -0.28204,0.42306 -0.25499,-0.12788 -0.53572,0.71429 -0.0565,0.16941 0.035,0.36061 0,0.53571 -0.002,0.008 -0.34726,0.6896 -0.35714,0.71429 -0.0699,0.17477 -0.13292,0.3531 -0.17857,0.53571 -0.0162,0.0648 0.0219,0.51384 0,0.53572 -0.0421,0.0421 -0.13648,-0.0421 -0.17857,0 -0.0421,0.0421 0,0.11905 0,0.17857 0,0.0595 -0.0421,0.13648 0,0.17857 0.0421,0.0421 0.13648,-0.0421 0.17857,0 0.0421,0.0421 -0.0421,0.13648 0,0.17857 0.0421,0.0421 0.13648,-0.0421 0.17857,0 0.0421,0.0421 -0.0421,0.13648 0,0.17857 0.0842,0.0842 0.25066,-0.0532 0.35714,0 0.15059,0.0753 0.20656,0.28186 0.35715,0.35715 0.0532,0.0266 0.12533,-0.0266 0.17857,0 0.15058,0.0753 0.19742,0.3039 0.35714,0.35714 8.1e-4,2.7e-4 0.53554,-1.7e-4 0.53572,0 0.0421,0.0421 -0.0421,0.13648 0,0.17857 0.0553,0.0553 0.83756,-0.0553 0.89285,0 0.0421,0.0421 -0.0532,0.15195 0,0.17857 0.15972,0.0799 0.35715,0 0.53572,0 0.35714,0 0.71428,0 1.07143,0 0.29761,0 0.59523,0 0.89285,0 0.0595,0 0.13648,0.0421 0.17857,0 0.0421,-0.0421 -0.0421,-0.13648 0,-0.17857 0.0893,-0.0893 0.44643,0.0893 0.53572,0 0.0421,-0.0421 -0.0421,-0.13648 0,-0.17857 0.0842,-0.0842 0.27296,0.0842 0.35714,0 0.0421,-0.0421 -0.0421,-0.13648 0,-0.17857 0.0842,-0.0842 0.27296,0.0842 0.35714,0 0.0421,-0.0421 -0.0421,-0.13648 0,-0.17857 0.0421,-0.0421 0.13649,0.0421 0.17858,0 0.0421,-0.0421 -0.0421,-0.13648 0,-0.17857 0.36947,-0.36947 -0.0145,0.5646 0.35714,-0.17858 0.12316,-0.24631 -0.21626,-0.15972 0.17857,-0.35714 0.0532,-0.0266 0.13648,0.0421 0.17857,0 0.0842,-0.0842 -0.0842,-0.27296 0,-0.35714 0.0421,-0.0421 0.13648,0.0421 0.17857,0 0.0421,-0.0421 -0.0421,-0.13648 0,-0.17857 0.0421,-0.0421 0.13648,0.0421 0.17857,0 0.0421,-0.0421 -0.0266,-0.12533 0,-0.17857 0.0753,-0.15059 0.28185,-0.20656 0.35715,-0.35715 0.0266,-0.0532 -0.0421,-0.13648 0,-0.17857 0.0421,-0.0421 0.13648,0.0421 0.17857,0 0.0893,-0.0893 -0.0893,-0.44643 0,-0.53571 0.0421,-0.0421 0.13648,0.0421 0.17857,0 0.006,-0.006 0,-0.49241 0,-0.53572 0,-0.0595 0,-0.11904 0,-0.17857 0,-0.0595 -0.0421,-0.13648 0,-0.17857 0.0421,-0.0421 0.13648,0.0421 0.17857,0 0.0421,-0.0421 0,-0.11905 0,-0.17857 0,-0.0842 0.008,-0.88477 0,-0.89286 -0.0421,-0.0421 -0.13648,0.0421 -0.17857,0 -0.0842,-0.0842 0.0842,-0.27296 0,-0.35714 -0.0421,-0.0421 -0.13648,0.0421 -0.17857,0 -0.0421,-0.0421 0.0421,-0.13648 0,-0.17857 -0.0421,-0.0421 -0.13648,0.0421 -0.17857,0 -0.0421,-0.0421 0,-0.11905 0,-0.17857 0,-0.21798 0.0693,-0.41179 -0.17857,-0.53572 -0.16836,-0.0842 -0.3791,-0.0742 -0.53572,-0.17857 -0.0495,-0.033 0.0266,-0.12533 0,-0.17857 -0.0376,-0.0753 -0.11905,-0.11905 -0.17857,-0.17857 -0.0595,-0.0595 -0.10328,-0.14093 -0.17857,-0.17857 -0.16836,-0.0842 -0.36736,-0.0944 -0.53572,-0.17858 -0.15058,-0.0753 -0.21706,-0.26375 -0.35714,-0.35714 -0.11074,-0.0738 -0.2464,-0.10474 -0.35714,-0.17857 -0.14008,-0.0934 -0.20656,-0.28185 -0.35714,-0.35714 -0.10648,-0.0532 -0.27297,0.0842 -0.35715,0 -0.0421,-0.0421 0.0421,-0.13648 0,-0.17857 -0.0842,-0.0842 -0.27296,0.0842 -0.35714,0 -0.0421,-0.0421 0.0421,-0.13649 0,-0.17858 -0.0893,-0.0893 -0.44643,0.0893 -0.53571,0 -0.0421,-0.0421 0.0421,-0.13648 0,-0.17857 -0.0893,-0.0893 -0.44643,0.0893 -0.53572,0 -0.0421,-0.0421 0.0421,-0.13648 0,-0.17857 -0.0421,-0.0421 -0.11905,0 -0.17857,0 -0.0595,0 -0.11905,0 -0.17857,0"
         style="fill:none;fill-rule:evenodd;stroke:#000000;stroke-width:1px;stroke-linecap:butt;stroke-linejoin:miter;stroke-opacity:1" />
      <text
         xml:space="preserve"
         style="font-style:normal;font-weight:normal;font-size:12.5px;line-height:125%;font-family:sans-serif;letter-spacing:0px;word-spacing:0px;fill:#000000;fill-opacity:1;stroke:none;stroke-width:1px;stroke-linecap:butt;stroke-linejoin:miter;stroke-opacity:1"
         x="535"
         y="901.64789"
         id="text6538"
         sodipodi:linespacing="125%"><tspan
           sodipodi:role="line"
           id="tspan6540"
           x="535"
           y="901.64789">Spectrum</tspan></text>
    </g>
    <text
       xml:space="preserve"
       style="font-style:normal;font-weight:normal;font-size:12.5px;line-height:125%;font-family:sans-serif;letter-spacing:0px;word-spacing:0px;fill:#000000;fill-opacity:1;stroke:none;stroke-width:1px;stroke-linecap:butt;stroke-linejoin:miter;stroke-opacity:1"
       x="383.33862"
       y="497.17355"
       id="text6542"
       sodipodi:linespacing="125%"><tspan
         sodipodi:role="line"
         id="tspan6544"
         x="383.33862"
         y="497.17355">{\bfseries End}</tspan></text>
    <flowRoot
       xml:space="preserve"
       id="flowRoot6548"
       style="fill:black;stroke:none;stroke-opacity:1;stroke-width:1px;stroke-linejoin:miter;stroke-linecap:butt;fill-opacity:1;font-family:sans-serif;font-style:normal;font-weight:normal;font-size:12.5px;line-height:125%;letter-spacing:0px;word-spacing:0px"><flowRegion
         id="flowRegion6550"><rect
           id="rect6552"
           width="30.714285"
           height="17.857143"
           x="396.42856"
           y="964.50507" /></flowRegion><flowPara
         id="flowPara6554" /></flowRoot>    <path
       inkscape:transform-center-x="1.071425"
       d="m -131.5427,190.44431 -3.21613,1.85257 -3.21244,1.85896 0.004,-3.71153 -0.004,-3.71154 3.21244,1.85896 z"
       inkscape:randomized="0"
       inkscape:rounded="-7.97973e-17"
       inkscape:flatsided="false"
       sodipodi:arg2="1.0471976"
       sodipodi:arg1="0"
       sodipodi:r2="2.1391714"
       sodipodi:r1="4.2857141"
       sodipodi:cy="190.4443"
       sodipodi:cx="-135.82841"
       sodipodi:sides="3"
       id="path4355"
       style="opacity:1;fill:#000000;fill-opacity:1;stroke:#000000;stroke-width:2;stroke-linecap:round;stroke-linejoin:miter;stroke-miterlimit:4;stroke-dasharray:none;stroke-dashoffset:0;stroke-opacity:1"
       sodipodi:type="star"
       inkscape:transform-center-y="3.5887712e-05"
       transform="scale(-1,1)" />
    <g
       id="g4738"
       transform="translate(-40.911178,-402.16199)">
      <g
         id="g4735">
        <path
           style="fill:#00b400;fill-opacity:1;fill-rule:evenodd;stroke:#00b400;stroke-width:1px;stroke-linecap:butt;stroke-linejoin:miter;stroke-opacity:1"
           d="m 441.14367,681.51778 34.63992,0"
           id="path4693"
           inkscape:path-effect="#path-effect4699"
           inkscape:original-d="m 441.14367,681.51778 c 35.02481,0 34.63992,0 34.63992,0"
           inkscape:connector-curvature="0" />
      </g>
      <path
         sodipodi:type="star"
         style="opacity:1;fill:#00b400;fill-opacity:1;stroke:#00b400;stroke-width:2;stroke-linecap:round;stroke-linejoin:miter;stroke-miterlimit:4;stroke-dasharray:none;stroke-dashoffset:0;stroke-opacity:1"
         id="path4695"
         sodipodi:sides="3"
         sodipodi:cx="458.23962"
         sodipodi:cy="681.57123"
         sodipodi:r1="4.2857141"
         sodipodi:r2="2.1391714"
         sodipodi:arg1="0"
         sodipodi:arg2="1.0471976"
         inkscape:flatsided="false"
         inkscape:rounded="-7.97973e-17"
         inkscape:randomized="0"
         d="m 462.52534,681.57123 -3.21613,1.85257 -3.21244,1.85897 0.004,-3.71154 -0.004,-3.71154 3.21244,1.85896 z"
         inkscape:transform-center-x="-1.0714286" />
    </g>
    <flowRoot
       style="font-style:normal;font-weight:normal;font-size:12.5px;line-height:125%;font-family:sans-serif;letter-spacing:0px;word-spacing:0px;fill:#000000;fill-opacity:1;stroke:none;stroke-width:1px;stroke-linecap:butt;stroke-linejoin:miter;stroke-opacity:1"
       id="flowRoot4725"
       xml:space="preserve"
       transform="translate(400.23249,-780.71019)"><flowRegion
         id="flowRegion4727"><rect
           y="1044.786"
           x="39.39595"
           height="40.745277"
           width="144.30135"
           id="rect4729" /></flowRegion><flowPara
         id="flowPara4731">Some modification to the input HeNe Laser</flowPara></flowRoot>    <path
       style="fill:none;fill-rule:evenodd;stroke:#960000;stroke-width:5;stroke-linecap:butt;stroke-linejoin:miter;stroke-miterlimit:4;stroke-dasharray:none;stroke-opacity:1"
       d="m 155.57079,115.9047 209.19643,0"
       id="path4733"
       inkscape:connector-curvature="0"
       sodipodi:nodetypes="cc" />
    <path
       style="fill:none;fill-rule:evenodd;stroke:#00b400;stroke-width:3;stroke-linecap:butt;stroke-linejoin:miter;stroke-miterlimit:4;stroke-dasharray:none;stroke-opacity:1"
       d="m 472.62436,116.28215 122.37092,0"
       id="path4757"
       inkscape:connector-curvature="0"
       sodipodi:nodetypes="cc" />
    <rect
       y="-529.12256"
       x="-341.71375"
       height="55.149975"
       width="3.9392838"
       id="rect4008"
       style="opacity:1;fill:#6dacfa;fill-opacity:1;stroke:none;stroke-width:2;stroke-linecap:round;stroke-linejoin:miter;stroke-miterlimit:4;stroke-dasharray:none;stroke-dashoffset:0;stroke-opacity:1"
       transform="matrix(-0.70710678,0.70710678,-0.70710678,-0.70710678,0,0)" />
    <path
       style="fill:none;fill-rule:evenodd;stroke:#00b400;stroke-width:0.5;stroke-linecap:butt;stroke-linejoin:miter;stroke-miterlimit:4;stroke-dasharray:none;stroke-opacity:1"
       d="m 594.0644,116.30302 c 2.90419,-2.49382 2.87262,-2.49382 2.87262,-2.49382"
       id="path4764"
       inkscape:connector-curvature="0" />
    <path
       style="fill:none;fill-rule:evenodd;stroke:#00b400;stroke-width:0.5;stroke-linecap:butt;stroke-linejoin:miter;stroke-miterlimit:4;stroke-dasharray:none;stroke-opacity:1"
       d="m 596.62135,113.87234 33.33503,0"
       id="path4766"
       inkscape:connector-curvature="0" />
    <rect
       y="87.184898"
       x="631.80383"
       height="48.466301"
       width="27.007988"
       id="rect4876"
       style="opacity:1;fill:#002100;fill-opacity:0.52662725;stroke:#612c00;stroke-width:2.76100016;stroke-linecap:round;stroke-linejoin:miter;stroke-miterlimit:4;stroke-dasharray:none;stroke-dashoffset:0;stroke-opacity:1" />
    <flowRoot
       style="font-style:normal;font-weight:normal;font-size:12.5px;line-height:125%;font-family:sans-serif;letter-spacing:0px;word-spacing:0px;fill:#000000;fill-opacity:1;stroke:none;stroke-width:1px;stroke-linecap:butt;stroke-linejoin:miter;stroke-opacity:1"
       id="flowRoot4878"
       xml:space="preserve"
       transform="translate(306.3805,-198.18932)"><flowRegion
         id="flowRegion4880"><rect
           y="229.08789"
           x="312.64221"
           height="56.141438"
           width="87.790451"
           id="rect4882" /></flowRegion><flowPara
         id="flowPara4884">detector </flowPara><flowPara
         id="flowPara5574">for laser intensity </flowPara></flowRoot>    <path
       style="fill:none;fill-rule:evenodd;stroke:#000000;stroke-width:0.98931104px;stroke-linecap:butt;stroke-linejoin:miter;stroke-opacity:1"
       d="m 646.9207,135.94295 0,325.71429 -459.30697,0 0,28.65809"
       id="path5114"
       inkscape:connector-curvature="0"
       sodipodi:nodetypes="cccc" />
    <path
       inkscape:transform-center-y="1.0714513"
       sodipodi:type="star"
       style="opacity:1;fill:#000000;fill-opacity:1;stroke:#000000;stroke-width:2;stroke-linecap:round;stroke-linejoin:miter;stroke-miterlimit:4;stroke-dasharray:none;stroke-dashoffset:0;stroke-opacity:1"
       id="path5116"
       sodipodi:sides="3"
       sodipodi:cx="-206.23215"
       sodipodi:cy="-399.28085"
       sodipodi:r1="4.2857141"
       sodipodi:r2="2.1391714"
       sodipodi:arg1="0"
       sodipodi:arg2="1.0471976"
       inkscape:flatsided="false"
       inkscape:rounded="-7.97973e-17"
       inkscape:randomized="0"
       d="m -201.94643,-399.28085 -3.21613,1.85257 -3.21244,1.85896 0.004,-3.71153 -0.004,-3.71154 3.21244,1.85896 z"
       transform="matrix(0.86602541,-0.5,0.5,0.86602541,1024.7503,626.34838)" />
    <path
       inkscape:transform-center-y="1.0714513"
       sodipodi:type="star"
       style="opacity:1;fill:#000000;fill-opacity:1;stroke:#000000;stroke-width:2;stroke-linecap:round;stroke-linejoin:miter;stroke-miterlimit:4;stroke-dasharray:none;stroke-dashoffset:0;stroke-opacity:1"
       id="path5118"
       sodipodi:sides="3"
       sodipodi:cx="-206.23215"
       sodipodi:cy="-399.28085"
       sodipodi:r1="4.2857141"
       sodipodi:r2="2.1391714"
       sodipodi:arg1="0"
       sodipodi:arg2="1.0471976"
       inkscape:flatsided="false"
       inkscape:rounded="-7.97973e-17"
       inkscape:randomized="0"
       d="m -201.94643,-399.28085 -3.21613,1.85257 -3.21244,1.85896 0.004,-3.71153 -0.004,-3.71154 3.21244,1.85896 z"
       transform="matrix(0.86602541,-0.5,0.5,0.86602541,1024.9289,447.38382)" />
    <path
       transform="scale(-1,1)"
       inkscape:transform-center-y="3.5887712e-05"
       sodipodi:type="star"
       style="opacity:1;fill:#000000;fill-opacity:1;stroke:#000000;stroke-width:2;stroke-linecap:round;stroke-linejoin:miter;stroke-miterlimit:4;stroke-dasharray:none;stroke-dashoffset:0;stroke-opacity:1"
       id="path5120"
       sodipodi:sides="3"
       sodipodi:cx="-512.25699"
       sodipodi:cy="461.57699"
       sodipodi:r1="4.2857141"
       sodipodi:r2="2.1391714"
       sodipodi:arg1="0"
       sodipodi:arg2="1.0471976"
       inkscape:flatsided="false"
       inkscape:rounded="-7.97973e-17"
       inkscape:randomized="0"
       d="m -507.9713,461.577 -3.21613,1.85257 -3.21245,1.85896 0.004,-3.71153 -0.004,-3.71154 3.21245,1.85896 z"
       inkscape:transform-center-x="1.071425" />
    <path
       inkscape:transform-center-x="1.071425"
       d="m -300.82842,461.577 -3.21613,1.85257 -3.21244,1.85896 0.004,-3.71153 -0.004,-3.71154 3.21244,1.85896 z"
       inkscape:randomized="0"
       inkscape:rounded="-7.97973e-17"
       inkscape:flatsided="false"
       sodipodi:arg2="1.0471976"
       sodipodi:arg1="0"
       sodipodi:r2="2.1391714"
       sodipodi:r1="4.2857141"
       sodipodi:cy="461.57699"
       sodipodi:cx="-305.11413"
       sodipodi:sides="3"
       id="path5122"
       style="opacity:1;fill:#000000;fill-opacity:1;stroke:#000000;stroke-width:2;stroke-linecap:round;stroke-linejoin:miter;stroke-miterlimit:4;stroke-dasharray:none;stroke-dashoffset:0;stroke-opacity:1"
       sodipodi:type="star"
       inkscape:transform-center-y="3.5887712e-05"
       transform="scale(-1,1)" />
    <path
       transform="matrix(0.86602541,-0.5,0.5,0.86602541,565.69606,715.63408)"
       d="m -201.94643,-399.28085 -3.21613,1.85257 -3.21244,1.85896 0.004,-3.71153 -0.004,-3.71154 3.21244,1.85896 z"
       inkscape:randomized="0"
       inkscape:rounded="-7.97973e-17"
       inkscape:flatsided="false"
       sodipodi:arg2="1.0471976"
       sodipodi:arg1="0"
       sodipodi:r2="2.1391714"
       sodipodi:r1="4.2857141"
       sodipodi:cy="-399.28085"
       sodipodi:cx="-206.23215"
       sodipodi:sides="3"
       id="path5124"
       style="opacity:1;fill:#000000;fill-opacity:1;stroke:#000000;stroke-width:2;stroke-linecap:round;stroke-linejoin:miter;stroke-miterlimit:4;stroke-dasharray:none;stroke-dashoffset:0;stroke-opacity:1"
       sodipodi:type="star"
       inkscape:transform-center-y="1.0714513" />
    <path
       inkscape:transform-center-x="-0.54939564"
       d="m 616.81732,113.88537 -1.64912,0.94994 -1.64723,0.95321 0.002,-1.90315 -0.002,-1.90315 1.64723,0.95321 z"
       inkscape:randomized="0"
       inkscape:rounded="-7.97973e-17"
       inkscape:flatsided="false"
       sodipodi:arg2="1.0471976"
       sodipodi:arg1="0"
       sodipodi:r2="1.0968949"
       sodipodi:r1="2.1975698"
       sodipodi:cy="113.88537"
       sodipodi:cx="614.61978"
       sodipodi:sides="3"
       id="path5589"
       style="opacity:1;fill:#00b400;fill-opacity:1;stroke:#00b400;stroke-width:1.0255326;stroke-linecap:round;stroke-linejoin:miter;stroke-miterlimit:4;stroke-dasharray:none;stroke-dashoffset:0;stroke-opacity:1"
       sodipodi:type="star"
       inkscape:transform-center-y="2.4182588e-05" />
    <rect
       style="color:#000000;clip-rule:nonzero;display:inline;overflow:visible;visibility:visible;opacity:1;isolation:auto;mix-blend-mode:normal;color-interpolation:sRGB;color-interpolation-filters:linearRGB;solid-color:#000000;solid-opacity:1;fill:#ffffff;fill-opacity:1;fill-rule:nonzero;stroke:none;stroke-width:0.61038321;stroke-linecap:butt;stroke-linejoin:miter;stroke-miterlimit:4;stroke-dasharray:none;stroke-dashoffset:0;stroke-opacity:1;color-rendering:auto;image-rendering:auto;shape-rendering:auto;text-rendering:auto;enable-background:accumulate"
       id="rect3429"
       width="30.809652"
       height="8.586297"
       x="195.46452"
       y="671.49408" />
    <flowRoot
       xml:space="preserve"
       id="flowRoot3450"
       style="font-style:normal;font-weight:normal;font-size:15px;line-height:125%;font-family:sans-serif;text-align:start;letter-spacing:0px;word-spacing:0px;writing-mode:lr-tb;text-anchor:start;fill:#000000;fill-opacity:1;stroke:none;stroke-width:1px;stroke-linecap:butt;stroke-linejoin:miter;stroke-opacity:1"
       transform="translate(0,15.657364)"><flowRegion
         id="flowRegion3452"><rect
           id="rect3454"
           width="218.69801"
           height="49.497478"
           x="17.172594"
           y="602.33923"
           style="font-size:15px" /></flowRegion><flowPara
         id="flowPara3456"
         style="font-size:12.5px">If you really want to be fancy, you can process the data during collection</flowPara></flowRoot>  </g>
</svg>
