<?xml version="1.0" encoding="UTF-8" standalone="no"?>
<!-- Created with Inkscape (http://www.inkscape.org/) -->

<svg
   xmlns:dc="http://purl.org/dc/elements/1.1/"
   xmlns:cc="http://creativecommons.org/ns#"
   xmlns:rdf="http://www.w3.org/1999/02/22-rdf-syntax-ns#"
   xmlns:svg="http://www.w3.org/2000/svg"
   xmlns="http://www.w3.org/2000/svg"
   xmlns:sodipodi="http://sodipodi.sourceforge.net/DTD/sodipodi-0.dtd"
   xmlns:inkscape="http://www.inkscape.org/namespaces/inkscape"
   width="210mm"
   height="297mm"
   viewBox="0 0 744.09448819 1052.3622047"
   id="svg2"
   version="1.1"
   inkscape:version="0.91 r13725"
   sodipodi:docname="dop-broad.svg">
  <sodipodi:namedview
     id="base"
     pagecolor="#ffffff"
     bordercolor="#666666"
     borderopacity="1.0"
     inkscape:pageopacity="0.0"
     inkscape:pageshadow="2"
     inkscape:zoom="0.9899495"
     inkscape:cx="170.43742"
     inkscape:cy="397.94596"
     inkscape:document-units="px"
     inkscape:current-layer="layer1"
     showgrid="false"
     inkscape:window-width="1920"
     inkscape:window-height="1017"
     inkscape:window-x="1912"
     inkscape:window-y="-8"
     inkscape:window-maximized="1" />
  <defs
     id="defs4">
    <marker
       inkscape:isstock="true"
       style="overflow:visible;"
       id="marker5032"
       refX="0.0"
       refY="0.0"
       orient="auto"
       inkscape:stockid="Arrow2Mend">
      <path
         transform="scale(0.6) rotate(180) translate(0,0)"
         d="M 8.7185878,4.0337352 L -2.2072895,0.016013256 L 8.7185884,-4.0017078 C 6.9730900,-1.6296469 6.9831476,1.6157441 8.7185878,4.0337352 z "
         style="fill-rule:evenodd;stroke-width:0.625;stroke-linejoin:round;stroke:#000000;stroke-opacity:1;fill:#000000;fill-opacity:1"
         id="path5034" />
    </marker>
    <marker
       inkscape:stockid="Arrow1Mend"
       orient="auto"
       refY="0.0"
       refX="0.0"
       id="marker4619"
       style="overflow:visible;"
       inkscape:isstock="true">
      <path
         id="path4621"
         d="M 0.0,0.0 L 5.0,-5.0 L -12.5,0.0 L 5.0,5.0 L 0.0,0.0 z "
         style="fill-rule:evenodd;stroke:#000000;stroke-width:1pt;stroke-opacity:1;fill:#000000;fill-opacity:1"
         transform="scale(0.4) rotate(180) translate(10,0)" />
    </marker>
    <marker
       inkscape:stockid="Arrow2Mend"
       orient="auto"
       refY="0.0"
       refX="0.0"
       id="Arrow2Mend"
       style="overflow:visible;"
       inkscape:isstock="true"
       inkscape:collect="always">
      <path
         id="path4212"
         style="fill-rule:evenodd;stroke-width:0.625;stroke-linejoin:round;stroke:#000000;stroke-opacity:1;fill:#000000;fill-opacity:1"
         d="M 8.7185878,4.0337352 L -2.2072895,0.016013256 L 8.7185884,-4.0017078 C 6.9730900,-1.6296469 6.9831476,1.6157441 8.7185878,4.0337352 z "
         transform="scale(0.6) rotate(180) translate(0,0)" />
    </marker>
    <marker
       inkscape:stockid="Arrow1Mend"
       orient="auto"
       refY="0.0"
       refX="0.0"
       id="Arrow1Mend"
       style="overflow:visible;"
       inkscape:isstock="true">
      <path
         id="path4194"
         d="M 0.0,0.0 L 5.0,-5.0 L -12.5,0.0 L 5.0,5.0 L 0.0,0.0 z "
         style="fill-rule:evenodd;stroke:#000000;stroke-width:1pt;stroke-opacity:1;fill:#000000;fill-opacity:1"
         transform="scale(0.4) rotate(180) translate(10,0)" />
    </marker>
  </defs>
  <metadata
     id="metadata7">
    <rdf:RDF>
      <cc:Work
         rdf:about="">
        <dc:format>image/svg+xml</dc:format>
        <dc:type
           rdf:resource="http://purl.org/dc/dcmitype/StillImage" />
        <dc:title></dc:title>
      </cc:Work>
    </rdf:RDF>
  </metadata>
  <g
     id="layer1"
     inkscape:groupmode="layer"
     inkscape:label="Layer 1">
    <path
       id="path4171"
       title="sin(x)"
       d="m 479.8041,700.68906 c 0.37969,-1.84568 0.75937,-3.69121 1.13906,-5.47651 0.37969,-1.78531 0.75938,-3.51013 1.13906,-5.11829 0.37969,-1.60817 0.75938,-3.09945 1.13907,-4.42528 0.37968,-1.32584 0.75937,-2.48603 1.13905,-3.44281 0.3797,-0.95678 0.75938,-1.71001 1.13907,-2.23515 0.37969,-0.52514 0.75937,-0.82213 1.13906,-0.88129 0.37968,-0.0592 0.75938,0.11952 1.13906,0.53023 0.37969,0.41069 0.75938,1.05335 1.13906,1.90705 0.37969,0.85369 0.75938,1.91829 1.13906,3.15913 0.37969,1.24085 0.75938,2.65776 1.13907,4.20459 0.37968,1.54683 0.75937,3.22336 1.13906,4.97501 0.37969,1.75164 0.75937,3.57813 1.13906,5.42001 0.37969,1.84188 0.75937,3.69887 1.13906,5.5105 0.37969,1.81163 0.75938,3.57765 1.13906,5.24054 0.37969,1.66288 0.75938,3.22241 1.13907,4.62778 0.37968,1.40538 0.75937,2.65641 1.13906,3.71234 0.37968,1.05594 0.75937,1.91664 1.13906,2.55407 0.37969,0.63743 0.75937,1.05149 1.13906,1.22872 0.37969,0.17723 0.75937,0.11759 1.13906,-0.17698 0.37969,-0.29457 0.75938,-0.82402 1.13906,-1.57112 0.37969,-0.7471 0.75938,-1.71173 1.13907,-2.86248 0.37968,-1.15075 0.75936,-2.48747 1.13906,-3.96661 0.37969,-1.47914 0.75937,-3.1005 1.13906,-4.81128 0.37969,-1.71078 0.75937,-3.51074 1.13905,-5.34126 0.3797,-1.83051 0.75939,-3.69132 1.13907,-5.52184 0.37969,-1.83051 0.75938,-3.63047 1.13906,-5.34125 0.37968,-1.71078 0.75937,-3.33214 1.13906,-4.81128 0.37969,-1.47914 0.75937,-2.81586 1.13907,-3.96661 0.37968,-1.15076 0.75937,-2.11539 1.13905,-2.86249 0.37969,-0.74709 0.75939,-1.27654 1.13907,-1.57111 0.37969,-0.29457 0.75937,-0.35421 1.13906,-0.17699 0.37969,0.17723 0.75937,0.5913 1.13906,1.22873 0.37969,0.63743 0.75937,1.49813 1.13906,2.55406 0.37969,1.05594 0.75938,2.30697 1.13906,3.71235 0.37969,1.40537 0.75938,2.9649 1.13906,4.62778 0.37969,1.66289 0.75938,3.42891 1.13907,5.24054 0.37968,1.81163 0.75937,3.66862 1.13906,5.5105 0.37969,1.84187 0.75937,3.66837 1.13906,5.42001 0.37969,1.75164 0.75938,3.42818 1.13906,4.97501 0.37969,1.54683 0.75938,2.96374 1.13906,4.20458 0.37969,1.24085 0.75938,2.30545 1.13907,3.15914 0.37968,0.85369 0.75937,1.49635 1.13906,1.90705 0.37968,0.4107 0.75937,0.58938 1.13906,0.53023 0.37969,-0.0592 0.75937,-0.35615 1.13906,-0.88129 0.37968,-0.52514 0.75937,-1.27837 1.13906,-2.23515 0.37969,-0.95678 0.75938,-2.11698 1.13906,-3.44281 0.3797,-1.32584 0.75938,-2.81712 1.13906,-4.42528 0.3797,-1.60817 0.75938,-3.33298 1.13907,-5.11829 0.37968,-1.7853 0.75937,-3.63084 1.13906,-5.4765"
       style="opacity:1;fill:none;fill-opacity:1;stroke:#000000;stroke-width:3;stroke-linecap:round;stroke-linejoin:miter;stroke-miterlimit:4;stroke-dasharray:none;stroke-dashoffset:0;stroke-opacity:1"
       inkscape:connector-curvature="0" />
    <path
       style="fill:none;fill-rule:evenodd;stroke:#000000;stroke-width:2.99999976;stroke-linecap:butt;stroke-linejoin:miter;stroke-miterlimit:4;stroke-dasharray:none;stroke-opacity:1;marker-end:url(#marker5032)"
       d="m 465.13357,700.57375 c 207.92587,0 207.92587,0 207.92587,0"
       id="path4179"
       inkscape:connector-curvature="0" />
    <circle
       style="opacity:1;fill:#c8dd37;fill-opacity:1;stroke:none;stroke-width:3;stroke-linecap:round;stroke-linejoin:miter;stroke-miterlimit:4;stroke-dasharray:none;stroke-dashoffset:0;stroke-opacity:1;color:#000000;clip-rule:nonzero;display:inline;overflow:visible;visibility:visible;isolation:auto;mix-blend-mode:normal;color-interpolation:sRGB;color-interpolation-filters:linearRGB;solid-color:#000000;solid-opacity:1;fill-rule:nonzero;filter-blend-mode:normal;filter-gaussianBlur-deviation:0;color-rendering:auto;image-rendering:auto;shape-rendering:auto;text-rendering:auto;enable-background:accumulate"
       id="path4489"
       cx="286.48773"
       cy="582.42853"
       r="16.071428" />
    <path
       style="fill:none;fill-rule:evenodd;stroke:#000000;stroke-width:3;stroke-linecap:butt;stroke-linejoin:miter;stroke-miterlimit:4;stroke-dasharray:none;stroke-opacity:1"
       d="m 286.1306,583.14284 -39.28571,54.28572"
       id="path4491"
       inkscape:connector-curvature="0" />
    <path
       style="opacity:1;fill:#7acaff;fill-opacity:1;stroke:none;stroke-width:3;stroke-linecap:round;stroke-linejoin:miter;stroke-miterlimit:4;stroke-dasharray:none;stroke-dashoffset:0;stroke-opacity:1;color:#000000;clip-rule:nonzero;display:inline;overflow:visible;visibility:visible;isolation:auto;mix-blend-mode:normal;color-interpolation:sRGB;color-interpolation-filters:linearRGB;solid-color:#000000;solid-opacity:1;fill-rule:nonzero;filter-blend-mode:normal;filter-gaussianBlur-deviation:0;color-rendering:auto;image-rendering:auto;shape-rendering:auto;text-rendering:auto;enable-background:accumulate"
       id="path4487"
       sodipodi:type="arc"
       sodipodi:cx="247.20203"
       sodipodi:cy="637.42853"
       sodipodi:rx="31.785715"
       sodipodi:ry="31.785715"
       sodipodi:start="0"
       sodipodi:end="6.2751917"
       sodipodi:open="true"
       d="m 278.98774,637.42853 a 31.785715,31.785715 0 0 1 -31.72219,31.78565 31.785715,31.785715 0 0 1 -31.84898,-31.65861 31.785715,31.785715 0 0 1 31.5949,-31.91219 31.785715,31.785715 0 0 1 31.97526,31.53107" />
    <path
       style="fill:none;fill-rule:evenodd;stroke:#000000;stroke-width:1px;stroke-linecap:butt;stroke-linejoin:miter;stroke-opacity:1"
       d="m 600.41113,576.55074 c -79.94744,0 -79.94744,0 -79.94744,0"
       id="path4613"
       inkscape:connector-curvature="0" />
    <path
       style="fill:none;fill-rule:evenodd;stroke:#000000;stroke-width:1px;stroke-linecap:butt;stroke-linejoin:miter;stroke-opacity:1;marker-end:url(#marker4619)"
       d="m 627.47177,610.93361 c 69.64285,0 69.64285,0 69.64285,0"
       id="path4617"
       inkscape:connector-curvature="0" />
    <text
       xml:space="preserve"
       style="font-style:normal;font-weight:normal;font-size:12.5px;line-height:125%;font-family:sans-serif;letter-spacing:0px;word-spacing:0px;fill:#000000;fill-opacity:1;stroke:none;stroke-width:1px;stroke-linecap:butt;stroke-linejoin:miter;stroke-opacity:1"
       x="651.04321"
       y="632.71936"
       id="text4641"
       sodipodi:linespacing="125%"><tspan
         sodipodi:role="line"
         id="tspan4643"
         x="651.04321"
         y="632.71936">$v=+v_b$</tspan></text>
    <flowRoot
       xml:space="preserve"
       id="flowRoot4891"
       style="font-style:normal;font-weight:normal;font-size:12.5px;line-height:125%;font-family:sans-serif;letter-spacing:0px;word-spacing:0px;fill:#000000;fill-opacity:1;stroke:none;stroke-width:1px;stroke-linecap:butt;stroke-linejoin:miter;stroke-opacity:1"
       transform="translate(18.30169,-51.888741)"><flowRegion
         id="flowRegion4893"><rect
           id="rect4895"
           width="276.32239"
           height="113.31399"
           x="132.83505"
           y="528.59808" /></flowRegion><flowPara
         id="flowPara4897">a) All of the molecule rest frames, ie the frames where any of the molecules are at rest, including when the molecule is at rest. Refered to as Molecular rest frame</flowPara></flowRoot>    <path
       inkscape:connector-curvature="0"
       id="path4899"
       d="m 590.75073,593.09193 c -86.63597,0 -86.63597,0 -86.63597,0"
       style="fill:none;fill-rule:evenodd;stroke:#000000;stroke-width:0.99999994px;stroke-linecap:butt;stroke-linejoin:miter;stroke-opacity:1" />
    <path
       style="fill:none;fill-rule:evenodd;stroke:#000000;stroke-width:1px;stroke-linecap:butt;stroke-linejoin:miter;stroke-opacity:1"
       d="m 565.36915,609.12815 c -77.09029,0 -77.09029,0 -77.09029,0"
       id="path4901"
       inkscape:connector-curvature="0" />
    <path
       inkscape:connector-curvature="0"
       id="path4903"
       d="m 549.89562,625.41685 c -77.09029,0 -77.09029,0 -77.09029,0"
       style="fill:none;fill-rule:evenodd;stroke:#000000;stroke-width:1px;stroke-linecap:butt;stroke-linejoin:miter;stroke-opacity:1" />
    <path
       style="fill:none;fill-rule:evenodd;stroke:#000000;stroke-width:1px;stroke-linecap:butt;stroke-linejoin:miter;stroke-opacity:1"
       d="m 533.61062,641.70557 c -77.09029,0 -77.09029,0 -77.09029,0"
       id="path4905"
       inkscape:connector-curvature="0" />
    <path
       inkscape:connector-curvature="0"
       id="path4907"
       d="m 539.67154,641.70558 c -83.15121,0 -83.15121,0 -83.15121,0"
       style="fill:none;fill-rule:evenodd;stroke:#000000;stroke-width:1px;stroke-linecap:butt;stroke-linejoin:miter;stroke-opacity:1" />
    <flowRoot
       xml:space="preserve"
       id="flowRoot4973"
       style="font-style:normal;font-weight:normal;font-size:12.5px;line-height:125%;font-family:sans-serif;letter-spacing:0px;word-spacing:0px;fill:#000000;fill-opacity:1;stroke:none;stroke-width:1px;stroke-linecap:butt;stroke-linejoin:miter;stroke-opacity:1"
       transform="translate(381.0486,7.0710678)"><flowRegion
         id="flowRegion4975"><rect
           id="rect4977"
           width="172.231"
           height="31.819805"
           x="141.42136"
           y="721.53723" /></flowRegion><flowPara
         id="flowPara4979">Absorbed Photon</flowPara></flowRoot>    <ellipse
       cy="816.68713"
       cx="249.99919"
       id="circle4988"
       style="opacity:1;fill:#c8dd37;fill-opacity:1;stroke:none;stroke-width:3.00000001;stroke-linecap:round;stroke-linejoin:miter;stroke-miterlimit:4;stroke-dasharray:none;stroke-dashoffset:0;stroke-opacity:1;color:#000000;clip-rule:nonzero;display:inline;overflow:visible;visibility:visible;isolation:auto;mix-blend-mode:normal;color-interpolation:sRGB;color-interpolation-filters:linearRGB;solid-color:#000000;solid-opacity:1;fill-rule:nonzero;filter-blend-mode:normal;filter-gaussianBlur-deviation:0;color-rendering:auto;image-rendering:auto;shape-rendering:auto;text-rendering:auto;enable-background:accumulate"
       rx="19.285713"
       ry="16.071428"
       transform="matrix(0.8660254,-0.5,0.5,0.8660254,0,0)" />
    <path
       inkscape:connector-curvature="0"
       id="path4990"
       d="M 625.54368,582.11135 588.7976,638.14739"
       style="fill:none;fill-rule:evenodd;stroke:#000000;stroke-width:3;stroke-linecap:butt;stroke-linejoin:miter;stroke-miterlimit:4;stroke-dasharray:none;stroke-opacity:1" />
    <path
       d="m 231.80724,846.90784 a 39.464287,31.785715 0 0 1 -39.38542,31.78565 39.464287,31.785715 0 0 1 -39.54284,-31.65861 39.464287,31.785715 0 0 1 39.22738,-31.91219 39.464287,31.785715 0 0 1 39.69962,31.53107"
       sodipodi:open="true"
       sodipodi:end="6.2751917"
       sodipodi:start="0"
       sodipodi:ry="31.785715"
       sodipodi:rx="39.464287"
       sodipodi:cy="846.90784"
       sodipodi:cx="192.34296"
       sodipodi:type="arc"
       id="path4992"
       style="opacity:1;fill:#7acaff;fill-opacity:1;stroke:none;stroke-width:3.00000001;stroke-linecap:round;stroke-linejoin:miter;stroke-miterlimit:4;stroke-dasharray:none;stroke-dashoffset:0;stroke-opacity:1;color:#000000;clip-rule:nonzero;display:inline;overflow:visible;visibility:visible;isolation:auto;mix-blend-mode:normal;color-interpolation:sRGB;color-interpolation-filters:linearRGB;solid-color:#000000;solid-opacity:1;fill-rule:nonzero;filter-blend-mode:normal;filter-gaussianBlur-deviation:0;color-rendering:auto;image-rendering:auto;shape-rendering:auto;text-rendering:auto;enable-background:accumulate"
       transform="matrix(0.8660254,-0.5,0.5,0.8660254,0,0)" />
    <path
       inkscape:connector-curvature="0"
       id="path5004"
       d="m 182.23076,698.13682 c 186.07764,0 186.07764,0 186.07764,0"
       style="fill:none;fill-rule:evenodd;stroke:#000000;stroke-width:2.99999976;stroke-linecap:butt;stroke-linejoin:miter;stroke-miterlimit:4;stroke-dasharray:none;stroke-opacity:1;marker-end:url(#Arrow2Mend)" />
    <flowRoot
       transform="translate(75.778862,7.4945884)"
       style="font-style:normal;font-weight:normal;font-size:12.5px;line-height:125%;font-family:sans-serif;letter-spacing:0px;word-spacing:0px;fill:#000000;fill-opacity:1;stroke:none;stroke-width:1px;stroke-linecap:butt;stroke-linejoin:miter;stroke-opacity:1"
       id="flowRoot5006"
       xml:space="preserve"><flowRegion
         id="flowRegion5008"><rect
           y="721.53723"
           x="141.42136"
           height="31.819805"
           width="172.231"
           id="rect5010" /></flowRegion><flowPara
         id="flowPara5012">Absorbed Photon</flowPara></flowRoot>    <flowRoot
       xml:space="preserve"
       id="flowRoot5014"
       style="fill:black;stroke:none;stroke-opacity:1;stroke-width:1px;stroke-linejoin:miter;stroke-linecap:butt;fill-opacity:1;font-family:sans-serif;font-style:normal;font-weight:normal;font-size:12.5px;line-height:125%;letter-spacing:0px;word-spacing:0px"><flowRegion
         id="flowRegion5016"><rect
           id="rect5018"
           width="195"
           height="20.714285"
           x="462.85715"
           y="525.2193" /></flowRegion><flowPara
         id="flowPara5020" /></flowRoot>    <flowRoot
       xml:space="preserve"
       id="flowRoot5022"
       style="font-style:normal;font-weight:normal;font-size:12.5px;line-height:125%;font-family:sans-serif;letter-spacing:0px;word-spacing:0px;fill:#000000;fill-opacity:1;stroke:none;stroke-width:1px;stroke-linecap:butt;stroke-linejoin:miter;stroke-opacity:1"
       transform="translate(-16.428571,-44.285714)"><flowRegion
         id="flowRegion5024"><rect
           id="rect5026"
           width="288.57138"
           height="120.00001"
           x="459.28571"
           y="520.93359" /></flowRegion><flowPara
         id="flowPara5028">b)Molecule moving in the same direction as laser beam. Here the frequency of the photon required for absorption has to be shifted higher since in its rest frame, shown in a), the frequency of the photon is higher</flowPara></flowRoot>    <path
       inkscape:connector-curvature="0"
       style="opacity:1;fill:none;fill-opacity:1;stroke:#000000;stroke-width:3;stroke-linecap:round;stroke-linejoin:miter;stroke-miterlimit:4;stroke-dasharray:none;stroke-dashoffset:0;stroke-opacity:1"
       d="m 535.80689,700.68906 c 0.37969,-1.84568 0.75937,-3.69121 1.13906,-5.47651 0.37969,-1.78531 0.75938,-3.51013 1.13906,-5.11829 0.37969,-1.60817 0.75938,-3.09945 1.13907,-4.42528 0.37968,-1.32584 0.75937,-2.48603 1.13905,-3.44281 0.3797,-0.95678 0.75938,-1.71001 1.13907,-2.23515 0.37969,-0.52514 0.75937,-0.82213 1.13906,-0.88129 0.37969,-0.0592 0.75938,0.11952 1.13906,0.53023 0.37969,0.41069 0.75938,1.05335 1.13906,1.90705 0.37969,0.85369 0.75938,1.91829 1.13907,3.15913 0.37968,1.24085 0.75937,2.65776 1.13906,4.20459 0.37969,1.54683 0.75937,3.22336 1.13906,4.97501 0.37969,1.75164 0.75937,3.57813 1.13906,5.42001 0.37969,1.84188 0.75938,3.69887 1.13906,5.5105 0.37969,1.81163 0.75938,3.57765 1.13906,5.24054 0.37969,1.66288 0.75938,3.22241 1.13907,4.62778 0.37969,1.40538 0.75937,2.65641 1.13906,3.71234 0.37968,1.05594 0.75937,1.91664 1.13906,2.55407 0.37969,0.63743 0.75937,1.05149 1.13906,1.22872 0.37969,0.17723 0.75937,0.11759 1.13906,-0.17698 0.37969,-0.29457 0.75938,-0.82402 1.13906,-1.57112 0.37969,-0.7471 0.75938,-1.71173 1.13907,-2.86248 0.37968,-1.15075 0.75936,-2.48747 1.13907,-3.96661 0.37968,-1.47914 0.75936,-3.1005 1.13905,-4.81128 0.37969,-1.71078 0.75937,-3.51074 1.13905,-5.34126 0.3797,-1.83051 0.75939,-3.69132 1.13907,-5.52184 0.37969,-1.83051 0.75938,-3.63047 1.13906,-5.34125 0.37968,-1.71078 0.75937,-3.33214 1.13906,-4.81128 0.37969,-1.47914 0.75937,-2.81586 1.13907,-3.96661 0.37968,-1.15076 0.75937,-2.11539 1.13905,-2.86249 0.37969,-0.74709 0.75939,-1.27654 1.13907,-1.57111 0.37969,-0.29457 0.75937,-0.35421 1.13906,-0.17699 0.37969,0.17723 0.75937,0.5913 1.13906,1.22873 0.37969,0.63743 0.75937,1.49813 1.13906,2.55406 0.37969,1.05594 0.75938,2.30697 1.13906,3.71235 0.37969,1.40537 0.75938,2.9649 1.13907,4.62778 0.37968,1.66289 0.75937,3.42891 1.13906,5.24054 0.37969,1.81163 0.75937,3.66862 1.13906,5.5105 0.37969,1.84187 0.75938,3.66837 1.13906,5.42001 0.37969,1.75164 0.75938,3.42818 1.13906,4.97501 0.37969,1.54683 0.75938,2.96374 1.13907,4.20458 0.37968,1.24085 0.75937,2.30545 1.13906,3.15914 0.37969,0.85369 0.75937,1.49635 1.13906,1.90705 0.37968,0.4107 0.75937,0.58938 1.13906,0.53023 0.37969,-0.0592 0.75937,-0.35615 1.13907,-0.88129 0.37967,-0.52514 0.75936,-1.27837 1.13905,-2.23515 0.37969,-0.95678 0.75938,-2.11698 1.13906,-3.44281 0.3797,-1.32584 0.75938,-2.81712 1.13906,-4.42528 0.3797,-1.60817 0.75938,-3.33298 1.13907,-5.11829 0.37968,-1.7853 0.75937,-3.63084 1.13906,-5.4765"
       title="sin(x)"
       id="path5030" />
    <path
       inkscape:connector-curvature="0"
       id="path5160"
       d="m 366.75649,945.57375 c 207.92587,0 207.92587,0 207.92587,0"
       style="fill:none;fill-rule:evenodd;stroke:#000000;stroke-width:2.99999976;stroke-linecap:butt;stroke-linejoin:miter;stroke-miterlimit:4;stroke-dasharray:none;stroke-opacity:1;marker-end:url(#marker5032)" />
    <path
       inkscape:connector-curvature="0"
       id="path5162"
       d="m 456.75675,821.55074 c 79.94744,0 79.94744,0 79.94744,0"
       style="fill:none;fill-rule:evenodd;stroke:#000000;stroke-width:1px;stroke-linecap:butt;stroke-linejoin:miter;stroke-opacity:1" />
    <path
       inkscape:connector-curvature="0"
       id="path5164"
       d="m 429.69611,855.93361 c -69.64285,0 -69.64285,0 -69.64285,0"
       style="fill:none;fill-rule:evenodd;stroke:#000000;stroke-width:1px;stroke-linecap:butt;stroke-linejoin:miter;stroke-opacity:1;marker-end:url(#marker4619)" />
    <text
       sodipodi:linespacing="125%"
       id="text5166"
       y="881.29083"
       x="367.66614"
       style="font-style:normal;font-weight:normal;font-size:12.5px;line-height:125%;font-family:sans-serif;letter-spacing:0px;word-spacing:0px;fill:#000000;fill-opacity:1;stroke:none;stroke-width:1px;stroke-linecap:butt;stroke-linejoin:miter;stroke-opacity:1"
       xml:space="preserve"><tspan
         y="881.29083"
         x="367.66614"
         id="tspan5168"
         sodipodi:role="line">$v=-v_b$</tspan></text>
    <path
       style="fill:none;fill-rule:evenodd;stroke:#000000;stroke-width:0.99999994px;stroke-linecap:butt;stroke-linejoin:miter;stroke-opacity:1"
       d="m 466.41715,838.09193 c 86.63597,0 86.63597,0 86.63597,0"
       id="path5170"
       inkscape:connector-curvature="0" />
    <path
       inkscape:connector-curvature="0"
       id="path5172"
       d="m 491.79873,854.12815 c 77.09029,0 77.09029,0 77.09029,0"
       style="fill:none;fill-rule:evenodd;stroke:#000000;stroke-width:1px;stroke-linecap:butt;stroke-linejoin:miter;stroke-opacity:1" />
    <path
       style="fill:none;fill-rule:evenodd;stroke:#000000;stroke-width:1px;stroke-linecap:butt;stroke-linejoin:miter;stroke-opacity:1"
       d="m 507.27226,870.41685 c 77.09029,0 77.09029,0 77.09029,0"
       id="path5174"
       inkscape:connector-curvature="0" />
    <path
       inkscape:connector-curvature="0"
       id="path5176"
       d="m 523.55726,886.70557 c 77.09029,0 77.09029,0 77.09029,0"
       style="fill:none;fill-rule:evenodd;stroke:#000000;stroke-width:1px;stroke-linecap:butt;stroke-linejoin:miter;stroke-opacity:1" />
    <path
       style="fill:none;fill-rule:evenodd;stroke:#000000;stroke-width:1px;stroke-linecap:butt;stroke-linejoin:miter;stroke-opacity:1"
       d="m 517.49634,886.70558 c 83.15121,0 83.15121,0 83.15121,0"
       id="path5178"
       inkscape:connector-curvature="0" />
    <flowRoot
       transform="translate(282.67152,252.07107)"
       style="font-style:normal;font-weight:normal;font-size:12.5px;line-height:125%;font-family:sans-serif;letter-spacing:0px;word-spacing:0px;fill:#000000;fill-opacity:1;stroke:none;stroke-width:1px;stroke-linecap:butt;stroke-linejoin:miter;stroke-opacity:1"
       id="flowRoot5180"
       xml:space="preserve"><flowRegion
         id="flowRegion5182"><rect
           y="721.53723"
           x="141.42136"
           height="31.819805"
           width="172.231"
           id="rect5184" /></flowRegion><flowPara
         id="flowPara5186">Absorbed Photon</flowPara></flowRoot>    <ellipse
       transform="matrix(-0.8660254,-0.5,-0.5,0.8660254,0,0)"
       ry="16.071428"
       rx="19.285713"
       style="opacity:1;fill:#c8dd37;fill-opacity:1;stroke:none;stroke-width:3.00000001;stroke-linecap:round;stroke-linejoin:miter;stroke-miterlimit:4;stroke-dasharray:none;stroke-dashoffset:0;stroke-opacity:1;color:#000000;clip-rule:nonzero;display:inline;overflow:visible;visibility:visible;isolation:auto;mix-blend-mode:normal;color-interpolation:sRGB;color-interpolation-filters:linearRGB;solid-color:#000000;solid-opacity:1;fill-rule:nonzero;filter-blend-mode:normal;filter-gaussianBlur-deviation:0;color-rendering:auto;image-rendering:auto;shape-rendering:auto;text-rendering:auto;enable-background:accumulate"
       id="ellipse5190"
       cx="-788.03503"
       cy="500.27939" />
    <path
       style="fill:none;fill-rule:evenodd;stroke:#000000;stroke-width:3;stroke-linecap:butt;stroke-linejoin:miter;stroke-miterlimit:4;stroke-dasharray:none;stroke-opacity:1"
       d="m 431.6242,827.11135 36.74608,56.03604"
       id="path5192"
       inkscape:connector-curvature="0" />
    <path
       transform="matrix(-0.8660254,-0.5,-0.5,0.8660254,0,0)"
       style="opacity:1;fill:#7acaff;fill-opacity:1;stroke:none;stroke-width:3.00000001;stroke-linecap:round;stroke-linejoin:miter;stroke-miterlimit:4;stroke-dasharray:none;stroke-dashoffset:0;stroke-opacity:1;color:#000000;clip-rule:nonzero;display:inline;overflow:visible;visibility:visible;isolation:auto;mix-blend-mode:normal;color-interpolation:sRGB;color-interpolation-filters:linearRGB;solid-color:#000000;solid-opacity:1;fill-rule:nonzero;filter-blend-mode:normal;filter-gaussianBlur-deviation:0;color-rendering:auto;image-rendering:auto;shape-rendering:auto;text-rendering:auto;enable-background:accumulate"
       id="path5194"
       sodipodi:type="arc"
       sodipodi:cx="-845.69128"
       sodipodi:cy="530.50006"
       sodipodi:rx="39.464287"
       sodipodi:ry="31.785715"
       sodipodi:start="0"
       sodipodi:end="6.2751917"
       sodipodi:open="true"
       d="m -806.227,530.50006 a 39.464287,31.785715 0 0 1 -39.38542,31.78565 39.464287,31.785715 0 0 1 -39.54284,-31.65861 39.464287,31.785715 0 0 1 39.22738,-31.91218 39.464287,31.785715 0 0 1 39.69962,31.53106" />
    <flowRoot
       style="font-style:normal;font-weight:normal;font-size:12.5px;line-height:125%;font-family:sans-serif;letter-spacing:0px;word-spacing:0px;fill:#000000;fill-opacity:1;stroke:none;stroke-width:1px;stroke-linecap:butt;stroke-linejoin:miter;stroke-opacity:1"
       id="flowRoot5196"
       xml:space="preserve"
       transform="translate(-89.285714,245)"><flowRegion
         id="flowRegion5198"><rect
           y="520.93359"
           x="459.28571"
           height="36.42857"
           width="254.28572"
           id="rect5200" /></flowRegion><flowPara
         id="flowPara5202">c)Molecule moving in opposite direction of laser beam direction</flowPara></flowRoot>    <path
       id="path5210"
       title="sin(x)"
       d="m 591.61782,700.68906 c 0.37969,-1.84568 0.75937,-3.69121 1.13906,-5.47651 0.37969,-1.78531 0.75938,-3.51013 1.13906,-5.11829 0.37969,-1.60817 0.75938,-3.09945 1.13907,-4.42528 0.37968,-1.32584 0.75937,-2.48603 1.13905,-3.44281 0.3797,-0.95678 0.75938,-1.71001 1.13907,-2.23515 0.37969,-0.52514 0.75937,-0.82213 1.13906,-0.88129 0.37969,-0.0592 0.75938,0.11952 1.13906,0.53023 0.37969,0.41069 0.75938,1.05335 1.13906,1.90705 0.37969,0.85369 0.75938,1.91829 1.13907,3.15913 0.37968,1.24085 0.75937,2.65776 1.13906,4.20459 0.37969,1.54683 0.75937,3.22336 1.13906,4.97501 0.37969,1.75164 0.75937,3.57813 1.13906,5.42001 0.37969,1.84188 0.75938,3.69887 1.13906,5.5105 0.37969,1.81163 0.75938,3.57765 1.13906,5.24054 0.37969,1.66288 0.75938,3.22241 1.13907,4.62778 0.37969,1.40538 0.75937,2.65641 1.13906,3.71234 0.37968,1.05594 0.75937,1.91664 1.13906,2.55407 0.37969,0.63743 0.75937,1.05149 1.13906,1.22872 0.37969,0.17723 0.75937,0.11759 1.13906,-0.17698 0.37969,-0.29457 0.75938,-0.82402 1.13906,-1.57112 0.37969,-0.7471 0.75938,-1.71173 1.13907,-2.86248 0.37968,-1.15075 0.75936,-2.48747 1.13907,-3.96661 0.37968,-1.47914 0.75936,-3.1005 1.13905,-4.81128 0.37969,-1.71078 0.75937,-3.51074 1.13905,-5.34126 0.3797,-1.83051 0.75939,-3.69132 1.13907,-5.52184 0.37969,-1.83051 0.75938,-3.63047 1.13906,-5.34125 0.37968,-1.71078 0.75937,-3.33214 1.13906,-4.81128 0.37969,-1.47914 0.75937,-2.81586 1.13907,-3.96661 0.37968,-1.15076 0.75937,-2.11539 1.13905,-2.86249 0.37969,-0.74709 0.75939,-1.27654 1.13907,-1.57111 0.37969,-0.29457 0.75937,-0.35421 1.13906,-0.17699 0.37969,0.17723 0.75937,0.5913 1.13906,1.22873 0.37969,0.63743 0.75937,1.49813 1.13906,2.55406 0.37969,1.05594 0.75938,2.30697 1.13906,3.71235 0.37969,1.40537 0.75938,2.9649 1.13907,4.62778 0.37968,1.66289 0.75937,3.42891 1.13906,5.24054 0.37969,1.81163 0.75937,3.66862 1.13906,5.5105 0.37969,1.84187 0.75938,3.66837 1.13906,5.42001 0.37969,1.75164 0.75938,3.42818 1.13906,4.97501 0.37969,1.54683 0.75938,2.96374 1.13907,4.20458 0.37968,1.24085 0.75937,2.30545 1.13906,3.15914 0.37969,0.85369 0.75937,1.49635 1.13906,1.90705 0.37968,0.4107 0.75937,0.58938 1.13906,0.53023 0.37969,-0.0592 0.75937,-0.35615 1.13907,-0.88129 0.37967,-0.52514 0.75936,-1.27837 1.13905,-2.23515 0.37969,-0.95678 0.75938,-2.11698 1.13906,-3.44281 0.3797,-1.32584 0.75938,-2.81712 1.13906,-4.42528 0.3797,-1.60817 0.75938,-3.33298 1.13907,-5.11829 0.37968,-1.7853 0.75937,-3.63084 1.13906,-5.4765"
       style="opacity:1;fill:none;fill-opacity:1;stroke:#000000;stroke-width:3;stroke-linecap:round;stroke-linejoin:miter;stroke-miterlimit:4;stroke-dasharray:none;stroke-dashoffset:0;stroke-opacity:1"
       inkscape:connector-curvature="0" />
    <path
       id="path5212"
       title="sin(x)"
       d="m 387.36933,943.5462 c 1.06126,-1.84568 2.12252,-3.69121 3.18378,-5.47651 1.06126,-1.78531 2.12252,-3.51013 3.18379,-5.11829 1.06126,-1.60817 2.12252,-3.09945 3.18378,-4.42528 1.06126,-1.32584 2.12252,-2.48603 3.18378,-3.44281 1.06127,-0.95678 2.12253,-1.71001 3.18379,-2.23515 1.06126,-0.52514 2.12252,-0.82213 3.18378,-0.88129 1.06126,-0.0592 2.12253,0.11952 3.18379,0.53023 1.06126,0.41069 2.12252,1.05335 3.18378,1.90705 1.06126,0.85369 2.12252,1.91829 3.18378,3.15913 1.06126,1.24085 2.12253,2.65776 3.18379,4.20459 1.06126,1.54683 2.12252,3.22336 3.18378,4.97501 1.06126,1.75164 2.12252,3.57813 3.18379,5.42001 1.06126,1.84188 2.12252,3.69887 3.18378,5.5105 1.06126,1.81163 2.12252,3.57765 3.18378,5.24054 1.06127,1.66288 2.12253,3.22241 3.18379,4.62778 1.06126,1.40538 2.12252,2.65641 3.18378,3.71234 1.06126,1.05594 2.12252,1.91664 3.18379,2.55407 1.06126,0.63743 2.12252,1.05149 3.18378,1.22872 1.06126,0.17723 2.12252,0.11759 3.18378,-0.17698 1.06126,-0.29457 2.12252,-0.82402 3.18379,-1.57112 1.06126,-0.7471 2.12252,-1.71173 3.18378,-2.86248 1.06126,-1.15075 2.12252,-2.48747 3.18379,-3.96661 1.06126,-1.47914 2.12252,-3.1005 3.18378,-4.81128 1.06126,-1.71078 2.12252,-3.51074 3.18378,-5.34126 1.06126,-1.83051 2.12253,-3.69132 3.18379,-5.52184 1.06126,-1.83051 2.12252,-3.63047 3.18378,-5.34125 1.06126,-1.71078 2.12252,-3.33214 3.18378,-4.81128 1.06126,-1.47914 2.12253,-2.81586 3.18379,-3.96661 1.06126,-1.15076 2.12252,-2.11539 3.18378,-2.86249 1.06126,-0.74709 2.12253,-1.27654 3.18379,-1.57111 1.06126,-0.29457 2.12252,-0.35421 3.18378,-0.17699 1.06126,0.17723 2.12252,0.5913 3.18378,1.22873 1.06127,0.63743 2.12253,1.49813 3.18379,2.55406 1.06126,1.05594 2.12252,2.30697 3.18378,3.71235 1.06126,1.40537 2.12252,2.9649 3.18378,4.62778 1.06127,1.66289 2.12253,3.42891 3.18379,5.24054 1.06126,1.81163 2.12252,3.66862 3.18378,5.5105 1.06127,1.84187 2.12253,3.66837 3.18379,5.42001 1.06126,1.75164 2.12252,3.42818 3.18378,4.97501 1.06126,1.54683 2.12253,2.96374 3.18379,4.20458 1.06126,1.24085 2.12252,2.30545 3.18378,3.15914 1.06126,0.85369 2.12252,1.49635 3.18378,1.90705 1.06126,0.4107 2.12252,0.58938 3.18379,0.53023 1.06126,-0.0592 2.12252,-0.35615 3.18378,-0.88129 1.06126,-0.52514 2.12252,-1.27837 3.18378,-2.23515 1.06127,-0.95678 2.12253,-2.11698 3.18379,-3.44281 1.06126,-1.32584 2.12252,-2.81712 3.18378,-4.42528 1.06127,-1.60817 2.12253,-3.33298 3.18379,-5.11829 1.06126,-1.7853 2.12252,-3.63084 3.18378,-5.4765"
       style="opacity:1;fill:none;fill-opacity:1;stroke:#000000;stroke-width:3;stroke-linecap:round;stroke-linejoin:miter;stroke-miterlimit:4;stroke-dasharray:none;stroke-dashoffset:0;stroke-opacity:1"
       inkscape:connector-curvature="0" />
    <g
       id="g5218"
       transform="translate(65.444548,-2.4336216)">
      <path
         id="path5002"
         title="sin(x)"
         d="m 197.56112,700.68906 c 0.51443,-1.84568 1.02887,-3.69121 1.5433,-5.47651 0.51444,-1.78531 1.02887,-3.51013 1.54331,-5.11829 0.51444,-1.60817 1.02887,-3.09945 1.54331,-4.42528 0.51443,-1.32584 1.02887,-2.48603 1.5433,-3.44281 0.51445,-0.95678 1.02888,-1.71001 1.54332,-2.23515 0.51443,-0.52514 1.02887,-0.82213 1.5433,-0.88129 0.51444,-0.0592 1.02888,0.11952 1.54331,0.53023 0.51444,0.41069 1.02887,1.05335 1.54331,1.90705 0.51443,0.85369 1.02887,1.91829 1.5433,3.15913 0.51444,1.24085 1.02888,2.65776 1.54332,4.20459 0.51443,1.54683 1.02887,3.22336 1.5433,4.97501 0.51444,1.75164 1.02887,3.57813 1.54331,5.42001 0.51444,1.84188 1.02887,3.69887 1.54331,5.5105 0.51443,1.81163 1.02887,3.57765 1.5433,5.24054 0.51444,1.66288 1.02888,3.22241 1.54331,4.62778 0.51444,1.40538 1.02888,2.65641 1.54331,3.71234 0.51444,1.05594 1.02887,1.91664 1.54331,2.55407 0.51444,0.63743 1.02887,1.05149 1.54331,1.22872 0.51443,0.17723 1.02887,0.11759 1.5433,-0.17698 0.51444,-0.29457 1.02887,-0.82402 1.54331,-1.57112 0.51444,-0.7471 1.02887,-1.71173 1.54331,-2.86248 0.51444,-1.15075 1.02887,-2.48747 1.54331,-3.96661 0.51444,-1.47914 1.02887,-3.1005 1.54331,-4.81128 0.51443,-1.71078 1.02887,-3.51074 1.5433,-5.34126 0.51444,-1.83051 1.02888,-3.69132 1.54331,-5.52184 0.51444,-1.83051 1.02887,-3.63047 1.54331,-5.34125 0.51444,-1.71078 1.02887,-3.33214 1.54331,-4.81128 0.51443,-1.47914 1.02887,-2.81586 1.54331,-3.96661 0.51443,-1.15076 1.02887,-2.11539 1.5433,-2.86249 0.51444,-0.74709 1.02888,-1.27654 1.54331,-1.57111 0.51444,-0.29457 1.02887,-0.35421 1.54331,-0.17699 0.51443,0.17723 1.02887,0.5913 1.54331,1.22873 0.51444,0.63743 1.02887,1.49813 1.54331,2.55406 0.51443,1.05594 1.02887,2.30697 1.5433,3.71235 0.51444,1.40537 1.02887,2.9649 1.54331,4.62778 0.51444,1.66289 1.02887,3.42891 1.54331,5.24054 0.51443,1.81163 1.02887,3.66862 1.5433,5.5105 0.51444,1.84187 1.02888,3.66837 1.54332,5.42001 0.51443,1.75164 1.02887,3.42818 1.5433,4.97501 0.51444,1.54683 1.02888,2.96374 1.54331,4.20458 0.51444,1.24085 1.02887,2.30545 1.54331,3.15914 0.51443,0.85369 1.02887,1.49635 1.5433,1.90705 0.51444,0.4107 1.02887,0.58938 1.54332,0.53023 0.51443,-0.0592 1.02887,-0.35615 1.5433,-0.88129 0.51444,-0.52514 1.02887,-1.27837 1.54331,-2.23515 0.51444,-0.95678 1.02887,-2.11698 1.54331,-3.44281 0.51443,-1.32584 1.02887,-2.81712 1.5433,-4.42528 0.51444,-1.60817 1.02888,-3.33298 1.54331,-5.11829 0.51444,-1.7853 1.02888,-3.63084 1.54331,-5.4765"
         style="opacity:1;fill:none;fill-opacity:1;stroke:#000000;stroke-width:2.99999976;stroke-linecap:round;stroke-linejoin:miter;stroke-miterlimit:4;stroke-dasharray:none;stroke-dashoffset:0;stroke-opacity:1"
         inkscape:connector-curvature="0" />
      <path
         inkscape:connector-curvature="0"
         style="opacity:1;fill:none;fill-opacity:1;stroke:#000000;stroke-width:2.99999976;stroke-linecap:round;stroke-linejoin:miter;stroke-miterlimit:4;stroke-dasharray:none;stroke-dashoffset:0;stroke-opacity:1"
         d="m 121.99359,700.68906 c 0.51444,-1.84568 1.02887,-3.69121 1.54331,-5.47651 0.51443,-1.78531 1.02887,-3.51013 1.54331,-5.11829 0.51443,-1.60817 1.02887,-3.09945 1.5433,-4.42528 0.51444,-1.32584 1.02887,-2.48603 1.54331,-3.44281 0.51444,-0.95678 1.02887,-1.71001 1.54331,-2.23515 0.51444,-0.52514 1.02887,-0.82213 1.54331,-0.88129 0.51443,-0.0592 1.02887,0.11952 1.54331,0.53023 0.51443,0.41069 1.02887,1.05335 1.5433,1.90705 0.51444,0.85369 1.02887,1.91829 1.54331,3.15913 0.51443,1.24085 1.02887,2.65776 1.54331,4.20459 0.51444,1.54683 1.02887,3.22336 1.54331,4.97501 0.51443,1.75164 1.02887,3.57813 1.54331,5.42001 0.51443,1.84188 1.02887,3.69887 1.5433,5.5105 0.51444,1.81163 1.02887,3.57765 1.54331,5.24054 0.51444,1.66288 1.02887,3.22241 1.54331,4.62778 0.51443,1.40538 1.02887,2.65641 1.5433,3.71234 0.51444,1.05594 1.02888,1.91664 1.54332,2.55407 0.51443,0.63743 1.02887,1.05149 1.5433,1.22872 0.51444,0.17723 1.02887,0.11759 1.54331,-0.17698 0.51443,-0.29457 1.02887,-0.82402 1.54331,-1.57112 0.51443,-0.7471 1.02887,-1.71173 1.5433,-2.86248 0.51444,-1.15075 1.02888,-2.48747 1.54332,-3.96661 0.51443,-1.47914 1.02887,-3.1005 1.5433,-4.81128 0.51444,-1.71078 1.02887,-3.51074 1.54331,-5.34126 0.51443,-1.83051 1.02887,-3.69132 1.54331,-5.52184 0.51443,-1.83051 1.02887,-3.63047 1.5433,-5.34125 0.51444,-1.71078 1.02887,-3.33214 1.54331,-4.81128 0.51444,-1.47914 1.02888,-2.81586 1.54331,-3.96661 0.51444,-1.15076 1.02887,-2.11539 1.54331,-2.86249 0.51443,-0.74709 1.02887,-1.27654 1.54331,-1.57111 0.51443,-0.29457 1.02887,-0.35421 1.5433,-0.17699 0.51444,0.17723 1.02887,0.5913 1.54331,1.22873 0.51444,0.63743 1.02887,1.49813 1.54331,2.55406 0.51444,1.05594 1.02887,2.30697 1.54331,3.71235 0.51443,1.40537 1.02887,2.9649 1.5433,4.62778 0.51444,1.66289 1.02888,3.42891 1.54331,5.24054 0.51444,1.81163 1.02887,3.66862 1.54331,5.5105 0.51444,1.84187 1.02887,3.66837 1.54331,5.42001 0.51444,1.75164 1.02887,3.42818 1.54331,4.97501 0.51443,1.54683 1.02887,2.96374 1.54331,4.20458 0.51443,1.24085 1.02887,2.30545 1.5433,3.15914 0.51444,0.85369 1.02887,1.49635 1.54331,1.90705 0.51443,0.4107 1.02887,0.58938 1.54331,0.53023 0.51443,-0.0592 1.02887,-0.35615 1.5433,-0.88129 0.51444,-0.52514 1.02887,-1.27837 1.54331,-2.23515 0.51444,-0.95678 1.02888,-2.11698 1.54331,-3.44281 0.51444,-1.32584 1.02887,-2.81712 1.54331,-4.42528 0.51444,-1.60817 1.02887,-3.33298 1.54331,-5.11829 0.51443,-1.7853 1.02887,-3.63084 1.5433,-5.4765"
         title="sin(x)"
         id="path5216" />
    </g>
    <text
       xml:space="preserve"
       style="font-style:normal;font-weight:normal;font-size:12.5px;line-height:125%;font-family:sans-serif;letter-spacing:0px;word-spacing:0px;fill:#000000;fill-opacity:1;stroke:none;stroke-width:1px;stroke-linecap:butt;stroke-linejoin:miter;stroke-opacity:1"
       x="304.34561"
       y="626.58801"
       id="text5222"
       sodipodi:linespacing="125%"><tspan
         sodipodi:role="line"
         id="tspan5224"
         x="304.34561"
         y="626.58801">$v=0$</tspan></text>
    <flowRoot
       xml:space="preserve"
       id="flowRoot5226"
       style="fill:black;stroke:none;stroke-opacity:1;stroke-width:1px;stroke-linejoin:miter;stroke-linecap:butt;fill-opacity:1;font-family:sans-serif;font-style:normal;font-weight:normal;font-size:12.5px;line-height:125%;letter-spacing:0px;word-spacing:0px"><flowRegion
         id="flowRegion5228"><rect
           id="rect5230"
           width="277.28687"
           height="334.86557"
           x="121.21831"
           y="576.58032" /></flowRegion><flowPara
         id="flowPara5232" /></flowRoot>    <flowRoot
       xml:space="preserve"
       id="flowRoot5234"
       style="font-style:normal;font-weight:normal;font-size:12.5px;line-height:125%;font-family:sans-serif;letter-spacing:0px;word-spacing:0px;fill:#000000;fill-opacity:1;stroke:none;stroke-width:1px;stroke-linecap:butt;stroke-linejoin:miter;stroke-opacity:1"
       transform="translate(-134.28572,20.714286)"><flowRegion
         id="flowRegion5236"><rect
           id="rect5238"
           width="159.28572"
           height="174.28572"
           x="320.71429"
           y="818.79077" /></flowRegion><flowPara
         id="flowPara5240">Here, the opposite case for the shift occurs. The absorbing photon must be of lower frequency since in the molecular rest frame, the frequency will appear higher</flowPara></flowRoot>  </g>
</svg>
