<?xml version="1.0" encoding="UTF-8" standalone="no"?>
<!-- Created with matplotlib (http://matplotlib.org/) -->

<svg
   xmlns:dc="http://purl.org/dc/elements/1.1/"
   xmlns:cc="http://creativecommons.org/ns#"
   xmlns:rdf="http://www.w3.org/1999/02/22-rdf-syntax-ns#"
   xmlns:svg="http://www.w3.org/2000/svg"
   xmlns="http://www.w3.org/2000/svg"
   xmlns:xlink="http://www.w3.org/1999/xlink"
   xmlns:sodipodi="http://sodipodi.sourceforge.net/DTD/sodipodi-0.dtd"
   xmlns:inkscape="http://www.inkscape.org/namespaces/inkscape"
   height="252pt"
   version="1.1"
   viewBox="0 0 432 252"
   width="432pt"
   id="svg2"
   inkscape:version="0.91 r13725"
   sodipodi:docname="Gaussian-Distribution-plots.svg">
  <metadata
     id="metadata877">
    <rdf:RDF>
      <cc:Work
         rdf:about="">
        <dc:format>image/svg+xml</dc:format>
        <dc:type
           rdf:resource="http://purl.org/dc/dcmitype/StillImage" />
        <dc:title></dc:title>
      </cc:Work>
    </rdf:RDF>
  </metadata>
  <sodipodi:namedview
     pagecolor="#ffffff"
     bordercolor="#666666"
     borderopacity="1"
     objecttolerance="10"
     gridtolerance="10"
     guidetolerance="10"
     inkscape:pageopacity="0"
     inkscape:pageshadow="2"
     inkscape:window-width="1855"
     inkscape:window-height="1056"
     id="namedview875"
     showgrid="false"
     inkscape:zoom="1.5608727"
     inkscape:cx="155.24111"
     inkscape:cy="261.61415"
     inkscape:window-x="65"
     inkscape:window-y="24"
     inkscape:window-maximized="1"
     inkscape:current-layer="svg2" />
  <defs
     id="defs4">
    <style
       type="text/css"
       id="style6">
*{stroke-linecap:butt;stroke-linejoin:round;}
  </style>
  </defs>
  <g
     id="figure_1">
    <g
       id="patch_1">
      <path
         d="M 0 252  L 432 252  L 432 0  L 0 0  z "
         style="fill:none;opacity:0;"
         id="path10" />
    </g>
    <g
       id="axes_1">
      <g
         id="patch_2">
        <path
           d="M 54 224.28  L 388.8 224.28  L 388.8 30.24  L 54 30.24  z "
           style="fill:#ffffff;"
           id="path14" />
      </g>
      <g
         id="matplotlib.axis_1">
        <g
           id="xtick_1">
          <g
             id="line2d_1">
            <defs
               id="defs19">
              <path
                 d="M 0 0  L 0 3.5  "
                 id="m59207db898"
                 style="stroke:#000000;stroke-width:0.8;" />
            </defs>
            <g
               id="g22">
              <use
                 style="stroke:#000000;stroke-width:0.8;"
                 x="54"
                 xlink:href="#m59207db898"
                 y="224.28"
                 id="use24" />
            </g>
          </g>
          <g
             id="text_1">
            <!-- −10.0 -->
            <defs
               id="defs27">
              <path
                 d="M 10.59375 35.5  L 73.1875 35.5  L 73.1875 27.203125  L 10.59375 27.203125  z "
                 id="DejaVuSans-2212" />
              <path
                 d="M 12.40625 8.296875  L 28.515625 8.296875  L 28.515625 63.921875  L 10.984375 60.40625  L 10.984375 69.390625  L 28.421875 72.90625  L 38.28125 72.90625  L 38.28125 8.296875  L 54.390625 8.296875  L 54.390625 0  L 12.40625 0  z "
                 id="DejaVuSans-31" />
              <path
                 d="M 31.78125 66.40625  Q 24.171875 66.40625 20.328125 58.90625  Q 16.5 51.421875 16.5 36.375  Q 16.5 21.390625 20.328125 13.890625  Q 24.171875 6.390625 31.78125 6.390625  Q 39.453125 6.390625 43.28125 13.890625  Q 47.125 21.390625 47.125 36.375  Q 47.125 51.421875 43.28125 58.90625  Q 39.453125 66.40625 31.78125 66.40625  M 31.78125 74.21875  Q 44.046875 74.21875 50.515625 64.515625  Q 56.984375 54.828125 56.984375 36.375  Q 56.984375 17.96875 50.515625 8.265625  Q 44.046875 -1.421875 31.78125 -1.421875  Q 19.53125 -1.421875 13.0625 8.265625  Q 6.59375 17.96875 6.59375 36.375  Q 6.59375 54.828125 13.0625 64.515625  Q 19.53125 74.21875 31.78125 74.21875  "
                 id="DejaVuSans-30" />
              <path
                 d="M 10.6875 12.40625  L 21 12.40625  L 21 0  L 10.6875 0  z "
                 id="DejaVuSans-2e" />
            </defs>
            <g
               transform="translate(38.677344 238.878438)scale(0.1 -0.1)"
               id="g33">
              <use
                 xlink:href="#DejaVuSans-2212"
                 id="use35" />
              <use
                 x="83.789062"
                 xlink:href="#DejaVuSans-31"
                 id="use37" />
              <use
                 x="147.412109"
                 xlink:href="#DejaVuSans-30"
                 id="use39" />
              <use
                 x="211.035156"
                 xlink:href="#DejaVuSans-2e"
                 id="use41" />
              <use
                 x="242.822266"
                 xlink:href="#DejaVuSans-30"
                 id="use43" />
            </g>
          </g>
        </g>
        <g
           id="xtick_2">
          <g
             id="line2d_2">
            <g
               id="g47">
              <use
                 style="stroke:#000000;stroke-width:0.8;"
                 x="95.85"
                 xlink:href="#m59207db898"
                 y="224.28"
                 id="use49" />
            </g>
          </g>
          <g
             id="text_2">
            <!-- −7.5 -->
            <defs
               id="defs52">
              <path
                 d="M 8.203125 72.90625  L 55.078125 72.90625  L 55.078125 68.703125  L 28.609375 0  L 18.3125 0  L 43.21875 64.59375  L 8.203125 64.59375  z "
                 id="DejaVuSans-37" />
              <path
                 d="M 10.796875 72.90625  L 49.515625 72.90625  L 49.515625 64.59375  L 19.828125 64.59375  L 19.828125 46.734375  Q 21.96875 47.46875 24.109375 47.828125  Q 26.265625 48.1875 28.421875 48.1875  Q 40.625 48.1875 47.75 41.5  Q 54.890625 34.8125 54.890625 23.390625  Q 54.890625 11.625 47.5625 5.09375  Q 40.234375 -1.421875 26.90625 -1.421875  Q 22.3125 -1.421875 17.546875 -0.640625  Q 12.796875 0.140625 7.71875 1.703125  L 7.71875 11.625  Q 12.109375 9.234375 16.796875 8.0625  Q 21.484375 6.890625 26.703125 6.890625  Q 35.15625 6.890625 40.078125 11.328125  Q 45.015625 15.765625 45.015625 23.390625  Q 45.015625 31 40.078125 35.4375  Q 35.15625 39.890625 26.703125 39.890625  Q 22.75 39.890625 18.8125 39.015625  Q 14.890625 38.140625 10.796875 36.28125  z "
                 id="DejaVuSans-35" />
            </defs>
            <g
               transform="translate(83.708594 238.878438)scale(0.1 -0.1)"
               id="g56">
              <use
                 xlink:href="#DejaVuSans-2212"
                 id="use58" />
              <use
                 x="83.789062"
                 xlink:href="#DejaVuSans-37"
                 id="use60" />
              <use
                 x="147.412109"
                 xlink:href="#DejaVuSans-2e"
                 id="use62" />
              <use
                 x="179.199219"
                 xlink:href="#DejaVuSans-35"
                 id="use64" />
            </g>
          </g>
        </g>
        <g
           id="xtick_3">
          <g
             id="line2d_3">
            <g
               id="g68">
              <use
                 style="stroke:#000000;stroke-width:0.8;"
                 x="137.7"
                 xlink:href="#m59207db898"
                 y="224.28"
                 id="use70" />
            </g>
          </g>
          <g
             id="text_3">
            <!-- −5.0 -->
            <g
               transform="translate(125.558594 238.878438)scale(0.1 -0.1)"
               id="g73">
              <use
                 xlink:href="#DejaVuSans-2212"
                 id="use75" />
              <use
                 x="83.789062"
                 xlink:href="#DejaVuSans-35"
                 id="use77" />
              <use
                 x="147.412109"
                 xlink:href="#DejaVuSans-2e"
                 id="use79" />
              <use
                 x="179.199219"
                 xlink:href="#DejaVuSans-30"
                 id="use81" />
            </g>
          </g>
        </g>
        <g
           id="xtick_4">
          <g
             id="line2d_4">
            <g
               id="g85">
              <use
                 style="stroke:#000000;stroke-width:0.8;"
                 x="179.55"
                 xlink:href="#m59207db898"
                 y="224.28"
                 id="use87" />
            </g>
          </g>
          <g
             id="text_4">
            <!-- −2.5 -->
            <defs
               id="defs90">
              <path
                 d="M 19.1875 8.296875  L 53.609375 8.296875  L 53.609375 0  L 7.328125 0  L 7.328125 8.296875  Q 12.9375 14.109375 22.625 23.890625  Q 32.328125 33.6875 34.8125 36.53125  Q 39.546875 41.84375 41.421875 45.53125  Q 43.3125 49.21875 43.3125 52.78125  Q 43.3125 58.59375 39.234375 62.25  Q 35.15625 65.921875 28.609375 65.921875  Q 23.96875 65.921875 18.8125 64.3125  Q 13.671875 62.703125 7.8125 59.421875  L 7.8125 69.390625  Q 13.765625 71.78125 18.9375 73  Q 24.125 74.21875 28.421875 74.21875  Q 39.75 74.21875 46.484375 68.546875  Q 53.21875 62.890625 53.21875 53.421875  Q 53.21875 48.921875 51.53125 44.890625  Q 49.859375 40.875 45.40625 35.40625  Q 44.1875 33.984375 37.640625 27.21875  Q 31.109375 20.453125 19.1875 8.296875  "
                 id="DejaVuSans-32" />
            </defs>
            <g
               transform="translate(167.408594 238.878438)scale(0.1 -0.1)"
               id="g93">
              <use
                 xlink:href="#DejaVuSans-2212"
                 id="use95" />
              <use
                 x="83.789062"
                 xlink:href="#DejaVuSans-32"
                 id="use97" />
              <use
                 x="147.412109"
                 xlink:href="#DejaVuSans-2e"
                 id="use99" />
              <use
                 x="179.199219"
                 xlink:href="#DejaVuSans-35"
                 id="use101" />
            </g>
          </g>
        </g>
        <g
           id="xtick_5">
          <g
             id="line2d_5">
            <g
               id="g105">
              <use
                 style="stroke:#000000;stroke-width:0.8;"
                 x="221.4"
                 xlink:href="#m59207db898"
                 y="224.28"
                 id="use107" />
            </g>
          </g>
          <g
             id="text_5">
            <!-- 0.0 -->
            <g
               transform="translate(213.448438 238.878438)scale(0.1 -0.1)"
               id="g110">
              <use
                 xlink:href="#DejaVuSans-30"
                 id="use112" />
              <use
                 x="63.623047"
                 xlink:href="#DejaVuSans-2e"
                 id="use114" />
              <use
                 x="95.410156"
                 xlink:href="#DejaVuSans-30"
                 id="use116" />
            </g>
          </g>
        </g>
        <g
           id="xtick_6">
          <g
             id="line2d_6">
            <g
               id="g120">
              <use
                 style="stroke:#000000;stroke-width:0.8;"
                 x="263.25"
                 xlink:href="#m59207db898"
                 y="224.28"
                 id="use122" />
            </g>
          </g>
          <g
             id="text_6">
            <!-- 2.5 -->
            <g
               transform="translate(255.298438 238.878438)scale(0.1 -0.1)"
               id="g125">
              <use
                 xlink:href="#DejaVuSans-32"
                 id="use127" />
              <use
                 x="63.623047"
                 xlink:href="#DejaVuSans-2e"
                 id="use129" />
              <use
                 x="95.410156"
                 xlink:href="#DejaVuSans-35"
                 id="use131" />
            </g>
          </g>
        </g>
        <g
           id="xtick_7">
          <g
             id="line2d_7">
            <g
               id="g135">
              <use
                 style="stroke:#000000;stroke-width:0.8;"
                 x="305.1"
                 xlink:href="#m59207db898"
                 y="224.28"
                 id="use137" />
            </g>
          </g>
          <g
             id="text_7">
            <!-- 5.0 -->
            <g
               transform="translate(297.148438 238.878438)scale(0.1 -0.1)"
               id="g140">
              <use
                 xlink:href="#DejaVuSans-35"
                 id="use142" />
              <use
                 x="63.623047"
                 xlink:href="#DejaVuSans-2e"
                 id="use144" />
              <use
                 x="95.410156"
                 xlink:href="#DejaVuSans-30"
                 id="use146" />
            </g>
          </g>
        </g>
        <g
           id="xtick_8">
          <g
             id="line2d_8">
            <g
               id="g150">
              <use
                 style="stroke:#000000;stroke-width:0.8;"
                 x="346.95"
                 xlink:href="#m59207db898"
                 y="224.28"
                 id="use152" />
            </g>
          </g>
          <g
             id="text_8">
            <!-- 7.5 -->
            <g
               transform="translate(338.998438 238.878438)scale(0.1 -0.1)"
               id="g155">
              <use
                 xlink:href="#DejaVuSans-37"
                 id="use157" />
              <use
                 x="63.623047"
                 xlink:href="#DejaVuSans-2e"
                 id="use159" />
              <use
                 x="95.410156"
                 xlink:href="#DejaVuSans-35"
                 id="use161" />
            </g>
          </g>
        </g>
        <g
           id="xtick_9">
          <g
             id="line2d_9">
            <g
               id="g165">
              <use
                 style="stroke:#000000;stroke-width:0.8;"
                 x="388.8"
                 xlink:href="#m59207db898"
                 y="224.28"
                 id="use167" />
            </g>
          </g>
          <g
             id="text_9">
            <!-- 10.0 -->
            <g
               transform="translate(377.667188 238.878438)scale(0.1 -0.1)"
               id="g170">
              <use
                 xlink:href="#DejaVuSans-31"
                 id="use172" />
              <use
                 x="63.623047"
                 xlink:href="#DejaVuSans-30"
                 id="use174" />
              <use
                 x="127.246094"
                 xlink:href="#DejaVuSans-2e"
                 id="use176" />
              <use
                 x="159.033203"
                 xlink:href="#DejaVuSans-30"
                 id="use178" />
            </g>
          </g>
        </g>
        <g
           id="text_10">
          <!-- Some Variable -->
          <defs
             id="defs181">
            <path
               d="M 53.515625 70.515625  L 53.515625 60.890625  Q 47.90625 63.578125 42.921875 64.890625  Q 37.9375 66.21875 33.296875 66.21875  Q 25.25 66.21875 20.875 63.09375  Q 16.5 59.96875 16.5 54.203125  Q 16.5 49.359375 19.40625 46.890625  Q 22.3125 44.4375 30.421875 42.921875  L 36.375 41.703125  Q 47.40625 39.59375 52.65625 34.296875  Q 57.90625 29 57.90625 20.125  Q 57.90625 9.515625 50.796875 4.046875  Q 43.703125 -1.421875 29.984375 -1.421875  Q 24.8125 -1.421875 18.96875 -0.25  Q 13.140625 0.921875 6.890625 3.21875  L 6.890625 13.375  Q 12.890625 10.015625 18.65625 8.296875  Q 24.421875 6.59375 29.984375 6.59375  Q 38.421875 6.59375 43.015625 9.90625  Q 47.609375 13.234375 47.609375 19.390625  Q 47.609375 24.75 44.3125 27.78125  Q 41.015625 30.8125 33.5 32.328125  L 27.484375 33.5  Q 16.453125 35.6875 11.515625 40.375  Q 6.59375 45.0625 6.59375 53.421875  Q 6.59375 63.09375 13.40625 68.65625  Q 20.21875 74.21875 32.171875 74.21875  Q 37.3125 74.21875 42.625 73.28125  Q 47.953125 72.359375 53.515625 70.515625  "
               id="DejaVuSans-53" />
            <path
               d="M 30.609375 48.390625  Q 23.390625 48.390625 19.1875 42.75  Q 14.984375 37.109375 14.984375 27.296875  Q 14.984375 17.484375 19.15625 11.84375  Q 23.34375 6.203125 30.609375 6.203125  Q 37.796875 6.203125 41.984375 11.859375  Q 46.1875 17.53125 46.1875 27.296875  Q 46.1875 37.015625 41.984375 42.703125  Q 37.796875 48.390625 30.609375 48.390625  M 30.609375 56  Q 42.328125 56 49.015625 48.375  Q 55.71875 40.765625 55.71875 27.296875  Q 55.71875 13.875 49.015625 6.21875  Q 42.328125 -1.421875 30.609375 -1.421875  Q 18.84375 -1.421875 12.171875 6.21875  Q 5.515625 13.875 5.515625 27.296875  Q 5.515625 40.765625 12.171875 48.375  Q 18.84375 56 30.609375 56  "
               id="DejaVuSans-6f" />
            <path
               d="M 52 44.1875  Q 55.375 50.25 60.0625 53.125  Q 64.75 56 71.09375 56  Q 79.640625 56 84.28125 50.015625  Q 88.921875 44.046875 88.921875 33.015625  L 88.921875 0  L 79.890625 0  L 79.890625 32.71875  Q 79.890625 40.578125 77.09375 44.375  Q 74.3125 48.1875 68.609375 48.1875  Q 61.625 48.1875 57.5625 43.546875  Q 53.515625 38.921875 53.515625 30.90625  L 53.515625 0  L 44.484375 0  L 44.484375 32.71875  Q 44.484375 40.625 41.703125 44.40625  Q 38.921875 48.1875 33.109375 48.1875  Q 26.21875 48.1875 22.15625 43.53125  Q 18.109375 38.875 18.109375 30.90625  L 18.109375 0  L 9.078125 0  L 9.078125 54.6875  L 18.109375 54.6875  L 18.109375 46.1875  Q 21.1875 51.21875 25.484375 53.609375  Q 29.78125 56 35.6875 56  Q 41.65625 56 45.828125 52.96875  Q 50 49.953125 52 44.1875  "
               id="DejaVuSans-6d" />
            <path
               d="M 56.203125 29.59375  L 56.203125 25.203125  L 14.890625 25.203125  Q 15.484375 15.921875 20.484375 11.0625  Q 25.484375 6.203125 34.421875 6.203125  Q 39.59375 6.203125 44.453125 7.46875  Q 49.3125 8.734375 54.109375 11.28125  L 54.109375 2.78125  Q 49.265625 0.734375 44.1875 -0.34375  Q 39.109375 -1.421875 33.890625 -1.421875  Q 20.796875 -1.421875 13.15625 6.1875  Q 5.515625 13.8125 5.515625 26.8125  Q 5.515625 40.234375 12.765625 48.109375  Q 20.015625 56 32.328125 56  Q 43.359375 56 49.78125 48.890625  Q 56.203125 41.796875 56.203125 29.59375  M 47.21875 32.234375  Q 47.125 39.59375 43.09375 43.984375  Q 39.0625 48.390625 32.421875 48.390625  Q 24.90625 48.390625 20.390625 44.140625  Q 15.875 39.890625 15.1875 32.171875  z "
               id="DejaVuSans-65" />
            <path
               id="DejaVuSans-20" />
            <path
               d="M 28.609375 0  L 0.78125 72.90625  L 11.078125 72.90625  L 34.1875 11.53125  L 57.328125 72.90625  L 67.578125 72.90625  L 39.796875 0  z "
               id="DejaVuSans-56" />
            <path
               d="M 34.28125 27.484375  Q 23.390625 27.484375 19.1875 25  Q 14.984375 22.515625 14.984375 16.5  Q 14.984375 11.71875 18.140625 8.90625  Q 21.296875 6.109375 26.703125 6.109375  Q 34.1875 6.109375 38.703125 11.40625  Q 43.21875 16.703125 43.21875 25.484375  L 43.21875 27.484375  z M 52.203125 31.203125  L 52.203125 0  L 43.21875 0  L 43.21875 8.296875  Q 40.140625 3.328125 35.546875 0.953125  Q 30.953125 -1.421875 24.3125 -1.421875  Q 15.921875 -1.421875 10.953125 3.296875  Q 6 8.015625 6 15.921875  Q 6 25.140625 12.171875 29.828125  Q 18.359375 34.515625 30.609375 34.515625  L 43.21875 34.515625  L 43.21875 35.40625  Q 43.21875 41.609375 39.140625 45  Q 35.0625 48.390625 27.6875 48.390625  Q 23 48.390625 18.546875 47.265625  Q 14.109375 46.140625 10.015625 43.890625  L 10.015625 52.203125  Q 14.9375 54.109375 19.578125 55.046875  Q 24.21875 56 28.609375 56  Q 40.484375 56 46.34375 49.84375  Q 52.203125 43.703125 52.203125 31.203125  "
               id="DejaVuSans-61" />
            <path
               d="M 41.109375 46.296875  Q 39.59375 47.171875 37.8125 47.578125  Q 36.03125 48 33.890625 48  Q 26.265625 48 22.1875 43.046875  Q 18.109375 38.09375 18.109375 28.8125  L 18.109375 0  L 9.078125 0  L 9.078125 54.6875  L 18.109375 54.6875  L 18.109375 46.1875  Q 20.953125 51.171875 25.484375 53.578125  Q 30.03125 56 36.53125 56  Q 37.453125 56 38.578125 55.875  Q 39.703125 55.765625 41.0625 55.515625  z "
               id="DejaVuSans-72" />
            <path
               d="M 9.421875 54.6875  L 18.40625 54.6875  L 18.40625 0  L 9.421875 0  z M 9.421875 75.984375  L 18.40625 75.984375  L 18.40625 64.59375  L 9.421875 64.59375  z "
               id="DejaVuSans-69" />
            <path
               d="M 48.6875 27.296875  Q 48.6875 37.203125 44.609375 42.84375  Q 40.53125 48.484375 33.40625 48.484375  Q 26.265625 48.484375 22.1875 42.84375  Q 18.109375 37.203125 18.109375 27.296875  Q 18.109375 17.390625 22.1875 11.75  Q 26.265625 6.109375 33.40625 6.109375  Q 40.53125 6.109375 44.609375 11.75  Q 48.6875 17.390625 48.6875 27.296875  M 18.109375 46.390625  Q 20.953125 51.265625 25.265625 53.625  Q 29.59375 56 35.59375 56  Q 45.5625 56 51.78125 48.09375  Q 58.015625 40.1875 58.015625 27.296875  Q 58.015625 14.40625 51.78125 6.484375  Q 45.5625 -1.421875 35.59375 -1.421875  Q 29.59375 -1.421875 25.265625 0.953125  Q 20.953125 3.328125 18.109375 8.203125  L 18.109375 0  L 9.078125 0  L 9.078125 75.984375  L 18.109375 75.984375  z "
               id="DejaVuSans-62" />
            <path
               d="M 9.421875 75.984375  L 18.40625 75.984375  L 18.40625 0  L 9.421875 0  z "
               id="DejaVuSans-6c" />
          </defs>
          <g
             transform="translate(185.003125 252.556563)scale(0.1 -0.1)"
             id="g194">
            <use
               xlink:href="#DejaVuSans-53"
               id="use196" />
            <use
               x="63.476562"
               xlink:href="#DejaVuSans-6f"
               id="use198" />
            <use
               x="124.658203"
               xlink:href="#DejaVuSans-6d"
               id="use200" />
            <use
               x="222.070312"
               xlink:href="#DejaVuSans-65"
               id="use202" />
            <use
               x="283.59375"
               xlink:href="#DejaVuSans-20"
               id="use204" />
            <use
               x="315.380859"
               xlink:href="#DejaVuSans-56"
               id="use206" />
            <use
               x="383.679688"
               xlink:href="#DejaVuSans-61"
               id="use208" />
            <use
               x="444.958984"
               xlink:href="#DejaVuSans-72"
               id="use210" />
            <use
               x="486.072266"
               xlink:href="#DejaVuSans-69"
               id="use212" />
            <use
               x="513.855469"
               xlink:href="#DejaVuSans-61"
               id="use214" />
            <use
               x="575.134766"
               xlink:href="#DejaVuSans-62"
               id="use216" />
            <use
               x="638.611328"
               xlink:href="#DejaVuSans-6c"
               id="use218" />
            <use
               x="666.394531"
               xlink:href="#DejaVuSans-65"
               id="use220" />
          </g>
        </g>
      </g>
      <g
         id="matplotlib.axis_2">
        <g
           id="ytick_1">
          <g
             id="line2d_10">
            <defs
               id="defs225">
              <path
                 d="M 0 0  L -3.5 0  "
                 id="m7107344f41"
                 style="stroke:#000000;stroke-width:0.8;" />
            </defs>
            <g
               id="g228">
              <use
                 style="stroke:#000000;stroke-width:0.8;"
                 x="54"
                 xlink:href="#m7107344f41"
                 y="215.46"
                 id="use230" />
            </g>
          </g>
          <g
             id="text_11">
            <!-- 0.00 -->
            <g
               transform="translate(24.734375 219.259219)scale(0.1 -0.1)"
               id="g233">
              <use
                 xlink:href="#DejaVuSans-30"
                 id="use235" />
              <use
                 x="63.623047"
                 xlink:href="#DejaVuSans-2e"
                 id="use237" />
              <use
                 x="95.410156"
                 xlink:href="#DejaVuSans-30"
                 id="use239" />
              <use
                 x="159.033203"
                 xlink:href="#DejaVuSans-30"
                 id="use241" />
            </g>
          </g>
        </g>
        <g
           id="ytick_2">
          <g
             id="line2d_11">
            <g
               id="g245">
              <use
                 style="stroke:#000000;stroke-width:0.8;"
                 x="54"
                 xlink:href="#m7107344f41"
                 y="193.349041"
                 id="use247" />
            </g>
          </g>
          <g
             id="text_12">
            <!-- 0.05 -->
            <g
               transform="translate(24.734375 197.14826)scale(0.1 -0.1)"
               id="g250">
              <use
                 xlink:href="#DejaVuSans-30"
                 id="use252" />
              <use
                 x="63.623047"
                 xlink:href="#DejaVuSans-2e"
                 id="use254" />
              <use
                 x="95.410156"
                 xlink:href="#DejaVuSans-30"
                 id="use256" />
              <use
                 x="159.033203"
                 xlink:href="#DejaVuSans-35"
                 id="use258" />
            </g>
          </g>
        </g>
        <g
           id="ytick_3">
          <g
             id="line2d_12">
            <g
               id="g262">
              <use
                 style="stroke:#000000;stroke-width:0.8;"
                 x="54"
                 xlink:href="#m7107344f41"
                 y="171.238083"
                 id="use264" />
            </g>
          </g>
          <g
             id="text_13">
            <!-- 0.10 -->
            <g
               transform="translate(24.734375 175.037301)scale(0.1 -0.1)"
               id="g267">
              <use
                 xlink:href="#DejaVuSans-30"
                 id="use269" />
              <use
                 x="63.623047"
                 xlink:href="#DejaVuSans-2e"
                 id="use271" />
              <use
                 x="95.410156"
                 xlink:href="#DejaVuSans-31"
                 id="use273" />
              <use
                 x="159.033203"
                 xlink:href="#DejaVuSans-30"
                 id="use275" />
            </g>
          </g>
        </g>
        <g
           id="ytick_4">
          <g
             id="line2d_13">
            <g
               id="g279">
              <use
                 style="stroke:#000000;stroke-width:0.8;"
                 x="54"
                 xlink:href="#m7107344f41"
                 y="149.127124"
                 id="use281" />
            </g>
          </g>
          <g
             id="text_14">
            <!-- 0.15 -->
            <g
               transform="translate(24.734375 152.926343)scale(0.1 -0.1)"
               id="g284">
              <use
                 xlink:href="#DejaVuSans-30"
                 id="use286" />
              <use
                 x="63.623047"
                 xlink:href="#DejaVuSans-2e"
                 id="use288" />
              <use
                 x="95.410156"
                 xlink:href="#DejaVuSans-31"
                 id="use290" />
              <use
                 x="159.033203"
                 xlink:href="#DejaVuSans-35"
                 id="use292" />
            </g>
          </g>
        </g>
        <g
           id="ytick_5">
          <g
             id="line2d_14">
            <g
               id="g296">
              <use
                 style="stroke:#000000;stroke-width:0.8;"
                 x="54"
                 xlink:href="#m7107344f41"
                 y="127.016165"
                 id="use298" />
            </g>
          </g>
          <g
             id="text_15">
            <!-- 0.20 -->
            <g
               transform="translate(24.734375 130.815384)scale(0.1 -0.1)"
               id="g301">
              <use
                 xlink:href="#DejaVuSans-30"
                 id="use303" />
              <use
                 x="63.623047"
                 xlink:href="#DejaVuSans-2e"
                 id="use305" />
              <use
                 x="95.410156"
                 xlink:href="#DejaVuSans-32"
                 id="use307" />
              <use
                 x="159.033203"
                 xlink:href="#DejaVuSans-30"
                 id="use309" />
            </g>
          </g>
        </g>
        <g
           id="ytick_6">
          <g
             id="line2d_15">
            <g
               id="g313">
              <use
                 style="stroke:#000000;stroke-width:0.8;"
                 x="54"
                 xlink:href="#m7107344f41"
                 y="104.905206"
                 id="use315" />
            </g>
          </g>
          <g
             id="text_16">
            <!-- 0.25 -->
            <g
               transform="translate(24.734375 108.704425)scale(0.1 -0.1)"
               id="g318">
              <use
                 xlink:href="#DejaVuSans-30"
                 id="use320" />
              <use
                 x="63.623047"
                 xlink:href="#DejaVuSans-2e"
                 id="use322" />
              <use
                 x="95.410156"
                 xlink:href="#DejaVuSans-32"
                 id="use324" />
              <use
                 x="159.033203"
                 xlink:href="#DejaVuSans-35"
                 id="use326" />
            </g>
          </g>
        </g>
        <g
           id="ytick_7">
          <g
             id="line2d_16">
            <g
               id="g330">
              <use
                 style="stroke:#000000;stroke-width:0.8;"
                 x="54"
                 xlink:href="#m7107344f41"
                 y="82.794248"
                 id="use332" />
            </g>
          </g>
          <g
             id="text_17">
            <!-- 0.30 -->
            <defs
               id="defs335">
              <path
                 d="M 40.578125 39.3125  Q 47.65625 37.796875 51.625 33  Q 55.609375 28.21875 55.609375 21.1875  Q 55.609375 10.40625 48.1875 4.484375  Q 40.765625 -1.421875 27.09375 -1.421875  Q 22.515625 -1.421875 17.65625 -0.515625  Q 12.796875 0.390625 7.625 2.203125  L 7.625 11.71875  Q 11.71875 9.328125 16.59375 8.109375  Q 21.484375 6.890625 26.8125 6.890625  Q 36.078125 6.890625 40.9375 10.546875  Q 45.796875 14.203125 45.796875 21.1875  Q 45.796875 27.640625 41.28125 31.265625  Q 36.765625 34.90625 28.71875 34.90625  L 20.21875 34.90625  L 20.21875 43.015625  L 29.109375 43.015625  Q 36.375 43.015625 40.234375 45.921875  Q 44.09375 48.828125 44.09375 54.296875  Q 44.09375 59.90625 40.109375 62.90625  Q 36.140625 65.921875 28.71875 65.921875  Q 24.65625 65.921875 20.015625 65.03125  Q 15.375 64.15625 9.8125 62.3125  L 9.8125 71.09375  Q 15.4375 72.65625 20.34375 73.4375  Q 25.25 74.21875 29.59375 74.21875  Q 40.828125 74.21875 47.359375 69.109375  Q 53.90625 64.015625 53.90625 55.328125  Q 53.90625 49.265625 50.4375 45.09375  Q 46.96875 40.921875 40.578125 39.3125  "
                 id="DejaVuSans-33" />
            </defs>
            <g
               transform="translate(24.734375 86.593467)scale(0.1 -0.1)"
               id="g338">
              <use
                 xlink:href="#DejaVuSans-30"
                 id="use340" />
              <use
                 x="63.623047"
                 xlink:href="#DejaVuSans-2e"
                 id="use342" />
              <use
                 x="95.410156"
                 xlink:href="#DejaVuSans-33"
                 id="use344" />
              <use
                 x="159.033203"
                 xlink:href="#DejaVuSans-30"
                 id="use346" />
            </g>
          </g>
        </g>
        <g
           id="ytick_8">
          <g
             id="line2d_17">
            <g
               id="g350">
              <use
                 style="stroke:#000000;stroke-width:0.8;"
                 x="54"
                 xlink:href="#m7107344f41"
                 y="60.683289"
                 id="use352" />
            </g>
          </g>
          <g
             id="text_18">
            <!-- 0.35 -->
            <g
               transform="translate(24.734375 64.482508)scale(0.1 -0.1)"
               id="g355">
              <use
                 xlink:href="#DejaVuSans-30"
                 id="use357" />
              <use
                 x="63.623047"
                 xlink:href="#DejaVuSans-2e"
                 id="use359" />
              <use
                 x="95.410156"
                 xlink:href="#DejaVuSans-33"
                 id="use361" />
              <use
                 x="159.033203"
                 xlink:href="#DejaVuSans-35"
                 id="use363" />
            </g>
          </g>
        </g>
        <g
           id="ytick_9">
          <g
             id="line2d_18">
            <g
               id="g367">
              <use
                 style="stroke:#000000;stroke-width:0.8;"
                 x="54"
                 xlink:href="#m7107344f41"
                 y="38.57233"
                 id="use369" />
            </g>
          </g>
          <g
             id="text_19">
            <!-- 0.40 -->
            <defs
               id="defs372">
              <path
                 d="M 37.796875 64.3125  L 12.890625 25.390625  L 37.796875 25.390625  z M 35.203125 72.90625  L 47.609375 72.90625  L 47.609375 25.390625  L 58.015625 25.390625  L 58.015625 17.1875  L 47.609375 17.1875  L 47.609375 0  L 37.796875 0  L 37.796875 17.1875  L 4.890625 17.1875  L 4.890625 26.703125  z "
                 id="DejaVuSans-34" />
            </defs>
            <g
               transform="translate(24.734375 42.371549)scale(0.1 -0.1)"
               id="g375">
              <use
                 xlink:href="#DejaVuSans-30"
                 id="use377" />
              <use
                 x="63.623047"
                 xlink:href="#DejaVuSans-2e"
                 id="use379" />
              <use
                 x="95.410156"
                 xlink:href="#DejaVuSans-34"
                 id="use381" />
              <use
                 x="159.033203"
                 xlink:href="#DejaVuSans-30"
                 id="use383" />
            </g>
          </g>
        </g>
        <g
           id="text_20">
          <!-- Some Dependent Variable -->
          <defs
             id="defs386">
            <path
               d="M 19.671875 64.796875  L 19.671875 8.109375  L 31.59375 8.109375  Q 46.6875 8.109375 53.6875 14.9375  Q 60.6875 21.78125 60.6875 36.53125  Q 60.6875 51.171875 53.6875 57.984375  Q 46.6875 64.796875 31.59375 64.796875  z M 9.8125 72.90625  L 30.078125 72.90625  Q 51.265625 72.90625 61.171875 64.09375  Q 71.09375 55.28125 71.09375 36.53125  Q 71.09375 17.671875 61.125 8.828125  Q 51.171875 0 30.078125 0  L 9.8125 0  z "
               id="DejaVuSans-44" />
            <path
               d="M 18.109375 8.203125  L 18.109375 -20.796875  L 9.078125 -20.796875  L 9.078125 54.6875  L 18.109375 54.6875  L 18.109375 46.390625  Q 20.953125 51.265625 25.265625 53.625  Q 29.59375 56 35.59375 56  Q 45.5625 56 51.78125 48.09375  Q 58.015625 40.1875 58.015625 27.296875  Q 58.015625 14.40625 51.78125 6.484375  Q 45.5625 -1.421875 35.59375 -1.421875  Q 29.59375 -1.421875 25.265625 0.953125  Q 20.953125 3.328125 18.109375 8.203125  M 48.6875 27.296875  Q 48.6875 37.203125 44.609375 42.84375  Q 40.53125 48.484375 33.40625 48.484375  Q 26.265625 48.484375 22.1875 42.84375  Q 18.109375 37.203125 18.109375 27.296875  Q 18.109375 17.390625 22.1875 11.75  Q 26.265625 6.109375 33.40625 6.109375  Q 40.53125 6.109375 44.609375 11.75  Q 48.6875 17.390625 48.6875 27.296875  "
               id="DejaVuSans-70" />
            <path
               d="M 54.890625 33.015625  L 54.890625 0  L 45.90625 0  L 45.90625 32.71875  Q 45.90625 40.484375 42.875 44.328125  Q 39.84375 48.1875 33.796875 48.1875  Q 26.515625 48.1875 22.3125 43.546875  Q 18.109375 38.921875 18.109375 30.90625  L 18.109375 0  L 9.078125 0  L 9.078125 54.6875  L 18.109375 54.6875  L 18.109375 46.1875  Q 21.34375 51.125 25.703125 53.5625  Q 30.078125 56 35.796875 56  Q 45.21875 56 50.046875 50.171875  Q 54.890625 44.34375 54.890625 33.015625  "
               id="DejaVuSans-6e" />
            <path
               d="M 45.40625 46.390625  L 45.40625 75.984375  L 54.390625 75.984375  L 54.390625 0  L 45.40625 0  L 45.40625 8.203125  Q 42.578125 3.328125 38.25 0.953125  Q 33.9375 -1.421875 27.875 -1.421875  Q 17.96875 -1.421875 11.734375 6.484375  Q 5.515625 14.40625 5.515625 27.296875  Q 5.515625 40.1875 11.734375 48.09375  Q 17.96875 56 27.875 56  Q 33.9375 56 38.25 53.625  Q 42.578125 51.265625 45.40625 46.390625  M 14.796875 27.296875  Q 14.796875 17.390625 18.875 11.75  Q 22.953125 6.109375 30.078125 6.109375  Q 37.203125 6.109375 41.296875 11.75  Q 45.40625 17.390625 45.40625 27.296875  Q 45.40625 37.203125 41.296875 42.84375  Q 37.203125 48.484375 30.078125 48.484375  Q 22.953125 48.484375 18.875 42.84375  Q 14.796875 37.203125 14.796875 27.296875  "
               id="DejaVuSans-64" />
            <path
               d="M 18.3125 70.21875  L 18.3125 54.6875  L 36.8125 54.6875  L 36.8125 47.703125  L 18.3125 47.703125  L 18.3125 18.015625  Q 18.3125 11.328125 20.140625 9.421875  Q 21.96875 7.515625 27.59375 7.515625  L 36.8125 7.515625  L 36.8125 0  L 27.59375 0  Q 17.1875 0 13.234375 3.875  Q 9.28125 7.765625 9.28125 18.015625  L 9.28125 47.703125  L 2.6875 47.703125  L 2.6875 54.6875  L 9.28125 54.6875  L 9.28125 70.21875  z "
               id="DejaVuSans-74" />
          </defs>
          <g
             transform="translate(18.654687 192.971719)rotate(-90)scale(0.1 -0.1)"
             id="g393">
            <use
               xlink:href="#DejaVuSans-53"
               id="use395" />
            <use
               x="63.476562"
               xlink:href="#DejaVuSans-6f"
               id="use397" />
            <use
               x="124.658203"
               xlink:href="#DejaVuSans-6d"
               id="use399" />
            <use
               x="222.070312"
               xlink:href="#DejaVuSans-65"
               id="use401" />
            <use
               x="283.59375"
               xlink:href="#DejaVuSans-20"
               id="use403" />
            <use
               x="315.380859"
               xlink:href="#DejaVuSans-44"
               id="use405" />
            <use
               x="392.382812"
               xlink:href="#DejaVuSans-65"
               id="use407" />
            <use
               x="453.90625"
               xlink:href="#DejaVuSans-70"
               id="use409" />
            <use
               x="517.382812"
               xlink:href="#DejaVuSans-65"
               id="use411" />
            <use
               x="578.90625"
               xlink:href="#DejaVuSans-6e"
               id="use413" />
            <use
               x="642.285156"
               xlink:href="#DejaVuSans-64"
               id="use415" />
            <use
               x="705.761719"
               xlink:href="#DejaVuSans-65"
               id="use417" />
            <use
               x="767.285156"
               xlink:href="#DejaVuSans-6e"
               id="use419" />
            <use
               x="830.664062"
               xlink:href="#DejaVuSans-74"
               id="use421" />
            <use
               x="869.873047"
               xlink:href="#DejaVuSans-20"
               id="use423" />
            <use
               x="901.660156"
               xlink:href="#DejaVuSans-56"
               id="use425" />
            <use
               x="969.958984"
               xlink:href="#DejaVuSans-61"
               id="use427" />
            <use
               x="1031.238281"
               xlink:href="#DejaVuSans-72"
               id="use429" />
            <use
               x="1072.351562"
               xlink:href="#DejaVuSans-69"
               id="use431" />
            <use
               x="1100.134766"
               xlink:href="#DejaVuSans-61"
               id="use433" />
            <use
               x="1161.414062"
               xlink:href="#DejaVuSans-62"
               id="use435" />
            <use
               x="1224.890625"
               xlink:href="#DejaVuSans-6c"
               id="use437" />
            <use
               x="1252.673828"
               xlink:href="#DejaVuSans-65"
               id="use439" />
          </g>
        </g>
      </g>
      <g
         id="line2d_19">
        <path
           clip-path="url(#p0e205a6fac)"
           d="M -1 215.459978  L 58.595952 215.358476  L 69.666493 215.115228  L 76.711383 214.750922  L 81.743447 214.304931  L 86.775511 213.620453  L 90.801162 212.833789  L 93.820401 212.062394  L 96.839639 211.100019  L 99.858878 209.910366  L 102.878116 208.453323  L 105.897355 206.685388  L 108.916593 204.560366  L 110.929419 202.921689  L 112.942244 201.088687  L 114.95507 199.047145  L 116.967896 196.783216  L 118.980721 194.283689  L 120.993547 191.536276  L 123.006373 188.529927  L 126.025611 183.514668  L 129.04485 177.872332  L 132.064088 171.591634  L 135.083327 164.676148  L 138.102565 157.14666  L 141.121804 149.043147  L 145.147455 137.45339  L 149.173106 125.156292  L 157.224409 99.57769  L 162.256473 83.950299  L 165.275711 75.109817  L 168.29495 66.888238  L 171.314188 59.458898  L 173.327014 55.027225  L 175.33984 51.064929  L 177.352665 47.612547  L 179.365491 44.705961  L 181.378317 42.375777  L 182.384729 41.434824  L 183.391142 40.64679  L 184.397555 40.013794  L 185.403968 39.537543  L 186.410381 39.219325  L 187.416794 39.06  L 188.423206 39.06  L 189.429619 39.219325  L 190.436032 39.537543  L 191.442445 40.013794  L 192.448858 40.64679  L 193.455271 41.434824  L 195.468096 43.467127  L 197.480922 46.088986  L 199.493747 49.27264  L 201.506573 52.98477  L 203.519399 57.187086  L 205.532224 61.836979  L 208.551463 69.549143  L 211.570701 77.99662  L 215.596353 90.100044  L 221.63483 109.206423  L 228.679719 131.377937  L 232.705371 143.35096  L 235.724609 151.804793  L 238.743848 159.722658  L 241.763086 167.050937  L 244.782325 173.756241  L 247.801563 179.823764  L 250.820802 185.255159  L 253.84004 190.066102  L 256.859279 194.283689  L 258.872104 196.783216  L 260.88493 199.047145  L 263.904168 202.030372  L 266.923407 204.560366  L 269.942645 206.685388  L 272.961884 208.453323  L 275.981122 209.910366  L 279.000361 211.100019  L 282.019599 212.062394  L 286.045251 213.054177  L 290.070902 213.780905  L 295.102966 214.410434  L 301.141443 214.880329  L 308.186333 215.181692  L 318.250461 215.369646  L 337.372305 215.451691  L 433 215.46  L 433 215.46  "
           style="fill:none;stroke:#1f77b4;stroke-linecap:square;stroke-width:1.5;"
           id="path442" />
      </g>
      <g
         id="line2d_20">
        <path
           clip-path="url(#p0e205a6fac)"
           d="M 37.26 215.46  L 165.074429 215.35976  L 176.14497 215.139296  L 184.196273 214.762416  L 190.234749 214.257089  L 195.266814 213.612266  L 199.292465 212.897286  L 203.318116 211.956662  L 207.343768 210.739532  L 210.363006 209.612211  L 213.382244 208.274343  L 216.401483 206.701911  L 219.420721 204.871845  L 222.43996 202.763051  L 225.459198 200.35758  L 228.478437 197.641882  L 231.497675 194.608121  L 234.516914 191.255469  L 237.536152 187.591329  L 240.555391 183.632396  L 244.581042 177.943114  L 248.606693 171.871624  L 255.651583 160.725159  L 261.69006 151.23198  L 265.715711 145.284909  L 268.73495 141.174119  L 271.754188 137.459449  L 273.767014 135.243613  L 275.77984 133.262465  L 277.792665 131.536274  L 279.805491 130.08298  L 281.818317 128.917888  L 283.831142 128.053395  L 285.843968 127.498772  L 287.856794 127.26  L 289.869619 127.339662  L 291.882445 127.736897  L 293.895271 128.447412  L 295.908096 129.463563  L 297.920922 130.774493  L 299.933747 132.36632  L 301.946573 134.222385  L 303.959399 136.323543  L 306.978637 139.887723  L 309.997876 143.875909  L 313.017114 148.202824  L 317.042766 154.346  L 332.138958 177.943114  L 336.164609 183.632396  L 339.183848 187.591329  L 342.203086 191.255469  L 345.222325 194.608121  L 348.241563 197.641882  L 351.260802 200.35758  L 354.28004 202.763051  L 357.299279 204.871845  L 360.318517 206.701911  L 363.337756 208.274343  L 366.356994 209.612211  L 369.376232 210.739532  L 373.401884 211.956662  L 377.427535 212.897286  L 381.453186 213.612266  L 386.485251 214.257089  L 392.523727 214.762416  L 399.568617 215.105461  L 409.632745 215.335146  L 425.735351 215.440521  L 433 215.452179  L 433 215.452179  "
           style="fill:none;stroke:#ff7f0e;stroke-linecap:square;stroke-width:1.5;"
           id="path445" />
      </g>
      <g
         id="line2d_21">
        <path
           clip-path="url(#p0e205a6fac)"
           d="M -1 215.45984  L 48.900842 215.348077  L 59.971383 215.105461  L 67.016273 214.762416  L 73.054749 214.257089  L 78.086814 213.612266  L 82.112465 212.897286  L 86.138116 211.956662  L 90.163768 210.739532  L 93.183006 209.612211  L 96.202244 208.274343  L 99.221483 206.701911  L 102.240721 204.871845  L 105.25996 202.763051  L 108.279198 200.35758  L 111.298437 197.641882  L 114.317675 194.608121  L 117.336914 191.255469  L 120.356152 187.591329  L 123.375391 183.632396  L 127.401042 177.943114  L 131.426693 171.871624  L 138.471583 160.725159  L 144.51006 151.23198  L 148.535711 145.284909  L 151.55495 141.174119  L 154.574188 137.459449  L 156.587014 135.243613  L 158.59984 133.262465  L 160.612665 131.536274  L 162.625491 130.08298  L 164.638317 128.917888  L 166.651142 128.053395  L 168.663968 127.498772  L 170.676794 127.26  L 172.689619 127.339662  L 174.702445 127.736897  L 176.715271 128.447412  L 178.728096 129.463563  L 180.740922 130.774493  L 182.753747 132.36632  L 184.766573 134.222385  L 186.779399 136.323543  L 189.798637 139.887723  L 192.817876 143.875909  L 195.837114 148.202824  L 199.862766 154.346  L 214.958958 177.943114  L 218.984609 183.632396  L 222.003848 187.591329  L 225.023086 191.255469  L 228.042325 194.608121  L 231.061563 197.641882  L 234.080802 200.35758  L 237.10004 202.763051  L 240.119279 204.871845  L 243.138517 206.701911  L 246.157756 208.274343  L 249.176994 209.612211  L 252.196232 210.739532  L 256.221884 211.956662  L 260.247535 212.897286  L 264.273186 213.612266  L 269.305251 214.257089  L 275.343727 214.762416  L 282.388617 215.105461  L 292.452745 215.335146  L 308.555351 215.440521  L 365.920882 215.459996  L 422.28 215.46  L 422.28 215.46  "
           style="fill:none;stroke:#2ca02c;stroke-linecap:square;stroke-width:1.5;"
           id="path448" />
      </g>
      <g
         id="line2d_22">
        <path
           clip-path="url(#p0e205a6fac)"
           d="M 54 215.06803  L 74.128257 214.676546  L 90.230862 214.152208  L 104.320641 213.473619  L 116.397595 212.681187  L 127.468136 211.74838  L 138.538677 210.588416  L 148.602806 209.316059  L 158.666934 207.822611  L 168.731062 206.102412  L 178.79519 204.159336  L 189.865731 201.783158  L 201.942685 198.950363  L 218.045291 194.916475  L 242.199198 188.856287  L 253.269739 186.331967  L 262.327455 184.495004  L 270.378758 183.084973  L 277.423647 182.053158  L 284.468537 181.231803  L 291.513427 180.63782  L 298.558317 180.283615  L 305.603206 180.176653  L 312.648096 180.319197  L 319.692986 180.708232  L 326.737876 181.335566  L 333.782766 182.188121  L 340.827655 183.248384  L 348.878958 184.686911  L 357.936673 186.550132  L 368.000802 188.856287  L 382.090581 192.347429  L 412.282966 199.918548  L 424.35992 202.674255  L 433 204.481446  L 433 204.481446  "
           style="fill:none;stroke:#d62728;stroke-linecap:square;stroke-width:1.5;"
           id="path451" />
      </g>
      <g
         id="line2d_23">
        <path
           clip-path="url(#p0e205a6fac)"
           d="M 171.18 215.459908  L 195.669379 215.354707  L 200.701443 215.127893  L 204.056152 214.784946  L 206.73992 214.307452  L 209.088216 213.662628  L 211.101042 212.875383  L 212.778397 212.004863  L 214.455752 210.893021  L 216.133106 209.491195  L 217.810461 207.746699  L 219.487816 205.604293  L 221.16517 203.008265  L 222.842525 199.905124  L 224.51988 196.246884  L 226.197234 191.994833  L 227.874589 187.123638  L 229.551944 181.625552  L 231.56477 174.221584  L 233.913066 164.569022  L 236.596834 152.472404  L 244.983607 113.662956  L 246.996433 105.932732  L 248.673788 100.481791  L 250.015671 96.894518  L 251.022084 94.705022  L 252.028497 92.974166  L 253.03491 91.722671  L 253.705852 91.162354  L 254.376794 90.824947  L 255.047735 90.712274  L 255.718677 90.824947  L 256.389619 91.162354  L 257.060561 91.722671  L 258.066974 92.974166  L 259.073387 94.705022  L 260.0798 96.894518  L 261.421683 100.481791  L 262.763567 104.763638  L 264.440922 110.960135  L 266.453747 119.382998  L 269.137515 131.712935  L 275.846934 163.111489  L 278.19523 172.906134  L 280.208056 180.451504  L 282.220882 187.123638  L 283.898236 191.994833  L 285.575591 196.246884  L 287.252946 199.905124  L 288.930301 203.008265  L 290.607655 205.604293  L 292.28501 207.746699  L 293.962365 209.491195  L 295.639719 210.893021  L 297.317074 212.004863  L 298.994429 212.875383  L 301.007255 213.662628  L 303.355551 214.307452  L 306.039319 214.784946  L 309.394028 215.127893  L 314.090621 215.345967  L 322.141924 215.445151  L 338.58 215.459897  L 338.58 215.459897  "
           style="fill:none;stroke:#9467bd;stroke-linecap:square;stroke-width:1.5;"
           id="path454" />
      </g>
      <g
         id="patch_3">
        <path
           d="M 54 224.28  L 54 30.24  "
           style="fill:none;stroke:#000000;stroke-linecap:square;stroke-linejoin:miter;stroke-width:0.8;"
           id="path457" />
      </g>
      <g
         id="patch_4">
        <path
           d="M 388.8 224.28  L 388.8 30.24  "
           style="fill:none;stroke:#000000;stroke-linecap:square;stroke-linejoin:miter;stroke-width:0.8;"
           id="path460" />
      </g>
      <g
         id="patch_5">
        <path
           d="M 54 224.28  L 388.8 224.28  "
           style="fill:none;stroke:#000000;stroke-linecap:square;stroke-linejoin:miter;stroke-width:0.8;"
           id="path463" />
      </g>
      <g
         id="patch_6">
        <path
           d="M 54 30.24  L 388.8 30.24  "
           style="fill:none;stroke:#000000;stroke-linecap:square;stroke-linejoin:miter;stroke-width:0.8;"
           id="path466" />
      </g>
      <g
         id="text_21">
        <!-- Gaussian Distribution -->
        <defs
           id="defs469">
          <path
             d="M 59.515625 10.40625  L 59.515625 29.984375  L 43.40625 29.984375  L 43.40625 38.09375  L 69.28125 38.09375  L 69.28125 6.78125  Q 63.578125 2.734375 56.6875 0.65625  Q 49.8125 -1.421875 42 -1.421875  Q 24.90625 -1.421875 15.25 8.5625  Q 5.609375 18.5625 5.609375 36.375  Q 5.609375 54.25 15.25 64.234375  Q 24.90625 74.21875 42 74.21875  Q 49.125 74.21875 55.546875 72.453125  Q 61.96875 70.703125 67.390625 67.28125  L 67.390625 56.78125  Q 61.921875 61.421875 55.765625 63.765625  Q 49.609375 66.109375 42.828125 66.109375  Q 29.4375 66.109375 22.71875 58.640625  Q 16.015625 51.171875 16.015625 36.375  Q 16.015625 21.625 22.71875 14.15625  Q 29.4375 6.6875 42.828125 6.6875  Q 48.046875 6.6875 52.140625 7.59375  Q 56.25 8.5 59.515625 10.40625  "
             id="DejaVuSans-47" />
          <path
             d="M 8.5 21.578125  L 8.5 54.6875  L 17.484375 54.6875  L 17.484375 21.921875  Q 17.484375 14.15625 20.5 10.265625  Q 23.53125 6.390625 29.59375 6.390625  Q 36.859375 6.390625 41.078125 11.03125  Q 45.3125 15.671875 45.3125 23.6875  L 45.3125 54.6875  L 54.296875 54.6875  L 54.296875 0  L 45.3125 0  L 45.3125 8.40625  Q 42.046875 3.421875 37.71875 1  Q 33.40625 -1.421875 27.6875 -1.421875  Q 18.265625 -1.421875 13.375 4.4375  Q 8.5 10.296875 8.5 21.578125  M 31.109375 56  z "
             id="DejaVuSans-75" />
          <path
             d="M 44.28125 53.078125  L 44.28125 44.578125  Q 40.484375 46.53125 36.375 47.5  Q 32.28125 48.484375 27.875 48.484375  Q 21.1875 48.484375 17.84375 46.4375  Q 14.5 44.390625 14.5 40.28125  Q 14.5 37.15625 16.890625 35.375  Q 19.28125 33.59375 26.515625 31.984375  L 29.59375 31.296875  Q 39.15625 29.25 43.1875 25.515625  Q 47.21875 21.78125 47.21875 15.09375  Q 47.21875 7.46875 41.1875 3.015625  Q 35.15625 -1.421875 24.609375 -1.421875  Q 20.21875 -1.421875 15.453125 -0.5625  Q 10.6875 0.296875 5.421875 2  L 5.421875 11.28125  Q 10.40625 8.6875 15.234375 7.390625  Q 20.0625 6.109375 24.8125 6.109375  Q 31.15625 6.109375 34.5625 8.28125  Q 37.984375 10.453125 37.984375 14.40625  Q 37.984375 18.0625 35.515625 20.015625  Q 33.0625 21.96875 24.703125 23.78125  L 21.578125 24.515625  Q 13.234375 26.265625 9.515625 29.90625  Q 5.8125 33.546875 5.8125 39.890625  Q 5.8125 47.609375 11.28125 51.796875  Q 16.75 56 26.8125 56  Q 31.78125 56 36.171875 55.265625  Q 40.578125 54.546875 44.28125 53.078125  "
             id="DejaVuSans-73" />
        </defs>
        <g
           transform="translate(156.964688 26.24)scale(0.12 -0.12)"
           id="g474">
          <use
             xlink:href="#DejaVuSans-47"
             id="use476" />
          <use
             x="77.490234"
             xlink:href="#DejaVuSans-61"
             id="use478" />
          <use
             x="138.769531"
             xlink:href="#DejaVuSans-75"
             id="use480" />
          <use
             x="202.148438"
             xlink:href="#DejaVuSans-73"
             id="use482" />
          <use
             x="254.248047"
             xlink:href="#DejaVuSans-73"
             id="use484" />
          <use
             x="306.347656"
             xlink:href="#DejaVuSans-69"
             id="use486" />
          <use
             x="334.130859"
             xlink:href="#DejaVuSans-61"
             id="use488" />
          <use
             x="395.410156"
             xlink:href="#DejaVuSans-6e"
             id="use490" />
          <use
             x="458.789062"
             xlink:href="#DejaVuSans-20"
             id="use492" />
          <use
             x="490.576172"
             xlink:href="#DejaVuSans-44"
             id="use494" />
          <use
             x="567.578125"
             xlink:href="#DejaVuSans-69"
             id="use496" />
          <use
             x="595.361328"
             xlink:href="#DejaVuSans-73"
             id="use498" />
          <use
             x="647.460938"
             xlink:href="#DejaVuSans-74"
             id="use500" />
          <use
             x="686.669922"
             xlink:href="#DejaVuSans-72"
             id="use502" />
          <use
             x="727.783203"
             xlink:href="#DejaVuSans-69"
             id="use504" />
          <use
             x="755.566406"
             xlink:href="#DejaVuSans-62"
             id="use506" />
          <use
             x="819.042969"
             xlink:href="#DejaVuSans-75"
             id="use508" />
          <use
             x="882.421875"
             xlink:href="#DejaVuSans-74"
             id="use510" />
          <use
             x="921.630859"
             xlink:href="#DejaVuSans-69"
             id="use512" />
          <use
             x="949.414062"
             xlink:href="#DejaVuSans-6f"
             id="use514" />
          <use
             x="1010.595703"
             xlink:href="#DejaVuSans-6e"
             id="use516" />
        </g>
      </g>
      <g
         id="legend_1">
        <g
           id="patch_7">
          <path
             d="M 61 111.718125  L 242.3 111.718125  Q 244.3 111.718125 244.3 109.718125  L 244.3 37.24  Q 244.3 35.24 242.3 35.24  L 61 35.24  Q 59 35.24 59 37.24  L 59 109.718125  Q 59 111.718125 61 111.718125  z "
             style="fill:#ffffff;opacity:0.8;stroke:#cccccc;stroke-linejoin:miter;"
             id="path520" />
        </g>
        <g
           id="line2d_24">
          <path
             d="M 63 43.34  L 83 43.34  "
             style="fill:none;stroke:#1f77b4;stroke-linecap:square;stroke-width:1.5;"
             id="path523" />
        </g>
        <g
           id="line2d_25" />
        <g
           id="text_22">
          <!-- A: $\sigma$ = 2, $\mu$ = -2, Intensity = 2 -->
          <defs
             id="defs527">
            <path
               d="M 34.1875 63.1875  L 20.796875 26.90625  L 47.609375 26.90625  z M 28.609375 72.90625  L 39.796875 72.90625  L 67.578125 0  L 57.328125 0  L 50.6875 18.703125  L 17.828125 18.703125  L 11.1875 0  L 0.78125 0  z "
               id="DejaVuSans-41" />
            <path
               d="M 11.71875 12.40625  L 22.015625 12.40625  L 22.015625 0  L 11.71875 0  z M 11.71875 51.703125  L 22.015625 51.703125  L 22.015625 39.3125  L 11.71875 39.3125  z "
               id="DejaVuSans-3a" />
            <path
               d="M 34.671875 47.5625  Q 27.25 47.5625 22.21875 42.1875  Q 16.890625 36.578125 15.140625 27.296875  Q 13.1875 17.484375 16.3125 11.8125  Q 19.390625 6.203125 26.65625 6.203125  Q 33.84375 6.203125 39.109375 11.859375  Q 44.4375 17.53125 46.34375 27.296875  Q 48.046875 36.234375 45.015625 42.1875  Q 42.1875 47.5625 34.671875 47.5625  M 36.078125 54.734375  L 65.921875 54.6875  L 64.15625 45.703125  L 54.109375 45.703125  Q 57.90625 38.09375 55.859375 27.296875  Q 53.21875 13.875 45.0625 6.25  Q 36.859375 -1.421875 25.140625 -1.421875  Q 13.375 -1.421875 8.203125 6.25  Q 3.03125 13.875 5.671875 27.296875  Q 8.25 40.765625 16.40625 48.390625  Q 23.1875 54.734375 36.078125 54.734375  "
               id="DejaVuSans-Oblique-3c3" />
            <path
               d="M 10.59375 45.40625  L 73.1875 45.40625  L 73.1875 37.203125  L 10.59375 37.203125  z M 10.59375 25.484375  L 73.1875 25.484375  L 73.1875 17.1875  L 10.59375 17.1875  z "
               id="DejaVuSans-3d" />
            <path
               d="M 11.71875 12.40625  L 22.015625 12.40625  L 22.015625 4  L 14.015625 -11.625  L 7.71875 -11.625  L 11.71875 4  z "
               id="DejaVuSans-2c" />
            <path
               d="M -1.3125 -20.796875  L 13.375 54.6875  L 22.40625 54.6875  L 15.765625 20.65625  Q 15.578125 19.625 15.421875 18.359375  Q 15.28125 17.09375 15.28125 15.828125  Q 15.28125 11.28125 18.140625 8.828125  Q 21 6.390625 26.3125 6.390625  Q 33.546875 6.390625 37.984375 10.484375  Q 42.4375 14.59375 44 22.796875  L 50.203125 54.6875  L 59.1875 54.6875  L 51.03125 12.640625  Q 50.828125 11.71875 50.75 11.03125  Q 50.6875 10.359375 50.6875 9.8125  Q 50.6875 8.296875 51.296875 7.59375  Q 51.90625 6.890625 53.21875 6.890625  Q 53.71875 6.890625 54.5625 7.125  Q 55.421875 7.375 56.984375 8.015625  L 55.609375 0.78125  Q 53.46875 -0.296875 51.515625 -0.859375  Q 49.5625 -1.421875 47.703125 -1.421875  Q 44.484375 -1.421875 42.65625 0.625  Q 40.828125 2.6875 40.828125 6.296875  Q 38.09375 2.390625 34.296875 0.484375  Q 30.515625 -1.421875 25.390625 -1.421875  Q 20.84375 -1.421875 17.453125 0.671875  Q 14.0625 2.78125 12.984375 6.203125  L 7.71875 -20.796875  z "
               id="DejaVuSans-Oblique-3bc" />
            <path
               d="M 4.890625 31.390625  L 31.203125 31.390625  L 31.203125 23.390625  L 4.890625 23.390625  z "
               id="DejaVuSans-2d" />
            <path
               d="M 9.8125 72.90625  L 19.671875 72.90625  L 19.671875 0  L 9.8125 0  z "
               id="DejaVuSans-49" />
            <path
               d="M 32.171875 -5.078125  Q 28.375 -14.84375 24.75 -17.8125  Q 21.140625 -20.796875 15.09375 -20.796875  L 7.90625 -20.796875  L 7.90625 -13.28125  L 13.1875 -13.28125  Q 16.890625 -13.28125 18.9375 -11.515625  Q 21 -9.765625 23.484375 -3.21875  L 25.09375 0.875  L 2.984375 54.6875  L 12.5 54.6875  L 29.59375 11.921875  L 46.6875 54.6875  L 56.203125 54.6875  z "
               id="DejaVuSans-79" />
          </defs>
          <g
             transform="translate(91 46.84)scale(0.1 -0.1)"
             id="g538">
            <use
               transform="translate(0 0.015625)"
               xlink:href="#DejaVuSans-41"
               id="use540" />
            <use
               transform="translate(68.408203 0.015625)"
               xlink:href="#DejaVuSans-3a"
               id="use542" />
            <use
               transform="translate(102.099609 0.015625)"
               xlink:href="#DejaVuSans-20"
               id="use544" />
            <use
               transform="translate(133.886719 0.015625)"
               xlink:href="#DejaVuSans-Oblique-3c3"
               id="use546" />
            <use
               transform="translate(197.265625 0.015625)"
               xlink:href="#DejaVuSans-20"
               id="use548" />
            <use
               transform="translate(229.052734 0.015625)"
               xlink:href="#DejaVuSans-3d"
               id="use550" />
            <use
               transform="translate(312.841797 0.015625)"
               xlink:href="#DejaVuSans-20"
               id="use552" />
            <use
               transform="translate(344.628906 0.015625)"
               xlink:href="#DejaVuSans-32"
               id="use554" />
            <use
               transform="translate(408.251953 0.015625)"
               xlink:href="#DejaVuSans-2c"
               id="use556" />
            <use
               transform="translate(440.039062 0.015625)"
               xlink:href="#DejaVuSans-20"
               id="use558" />
            <use
               transform="translate(471.826172 0.015625)"
               xlink:href="#DejaVuSans-Oblique-3bc"
               id="use560" />
            <use
               transform="translate(535.449219 0.015625)"
               xlink:href="#DejaVuSans-20"
               id="use562" />
            <use
               transform="translate(567.236328 0.015625)"
               xlink:href="#DejaVuSans-3d"
               id="use564" />
            <use
               transform="translate(651.025391 0.015625)"
               xlink:href="#DejaVuSans-20"
               id="use566" />
            <use
               transform="translate(682.8125 0.015625)"
               xlink:href="#DejaVuSans-2d"
               id="use568" />
            <use
               transform="translate(718.896484 0.015625)"
               xlink:href="#DejaVuSans-32"
               id="use570" />
            <use
               transform="translate(782.519531 0.015625)"
               xlink:href="#DejaVuSans-2c"
               id="use572" />
            <use
               transform="translate(814.306641 0.015625)"
               xlink:href="#DejaVuSans-20"
               id="use574" />
            <use
               transform="translate(846.09375 0.015625)"
               xlink:href="#DejaVuSans-49"
               id="use576" />
            <use
               transform="translate(875.585938 0.015625)"
               xlink:href="#DejaVuSans-6e"
               id="use578" />
            <use
               transform="translate(938.964844 0.015625)"
               xlink:href="#DejaVuSans-74"
               id="use580" />
            <use
               transform="translate(978.173828 0.015625)"
               xlink:href="#DejaVuSans-65"
               id="use582" />
            <use
               transform="translate(1039.697266 0.015625)"
               xlink:href="#DejaVuSans-6e"
               id="use584" />
            <use
               transform="translate(1103.076172 0.015625)"
               xlink:href="#DejaVuSans-73"
               id="use586" />
            <use
               transform="translate(1155.175781 0.015625)"
               xlink:href="#DejaVuSans-69"
               id="use588" />
            <use
               transform="translate(1182.958984 0.015625)"
               xlink:href="#DejaVuSans-74"
               id="use590" />
            <use
               transform="translate(1222.167969 0.015625)"
               xlink:href="#DejaVuSans-79"
               id="use592" />
            <use
               transform="translate(1281.347656 0.015625)"
               xlink:href="#DejaVuSans-20"
               id="use594" />
            <use
               transform="translate(1313.134766 0.015625)"
               xlink:href="#DejaVuSans-3d"
               id="use596" />
            <use
               transform="translate(1396.923828 0.015625)"
               xlink:href="#DejaVuSans-20"
               id="use598" />
            <use
               transform="translate(1428.710938 0.015625)"
               xlink:href="#DejaVuSans-32"
               id="use600" />
          </g>
        </g>
        <g
           id="line2d_26">
          <path
             d="M 63 58.04  L 83 58.04  "
             style="fill:none;stroke:#ff7f0e;stroke-linecap:square;stroke-width:1.5;"
             id="path603" />
        </g>
        <g
           id="line2d_27" />
        <g
           id="text_23">
          <!-- B: $\sigma$ = 2, $\mu$ = 4, Intensity = 1 -->
          <defs
             id="defs607">
            <path
               d="M 19.671875 34.8125  L 19.671875 8.109375  L 35.5 8.109375  Q 43.453125 8.109375 47.28125 11.40625  Q 51.125 14.703125 51.125 21.484375  Q 51.125 28.328125 47.28125 31.5625  Q 43.453125 34.8125 35.5 34.8125  z M 19.671875 64.796875  L 19.671875 42.828125  L 34.28125 42.828125  Q 41.5 42.828125 45.03125 45.53125  Q 48.578125 48.25 48.578125 53.8125  Q 48.578125 59.328125 45.03125 62.0625  Q 41.5 64.796875 34.28125 64.796875  z M 9.8125 72.90625  L 35.015625 72.90625  Q 46.296875 72.90625 52.390625 68.21875  Q 58.5 63.53125 58.5 54.890625  Q 58.5 48.1875 55.375 44.234375  Q 52.25 40.28125 46.1875 39.3125  Q 53.46875 37.75 57.5 32.78125  Q 61.53125 27.828125 61.53125 20.40625  Q 61.53125 10.640625 54.890625 5.3125  Q 48.25 0 35.984375 0  L 9.8125 0  z "
               id="DejaVuSans-42" />
          </defs>
          <g
             transform="translate(91 61.54)scale(0.1 -0.1)"
             id="g610">
            <use
               transform="translate(0 0.015625)"
               xlink:href="#DejaVuSans-42"
               id="use612" />
            <use
               transform="translate(68.603516 0.015625)"
               xlink:href="#DejaVuSans-3a"
               id="use614" />
            <use
               transform="translate(102.294922 0.015625)"
               xlink:href="#DejaVuSans-20"
               id="use616" />
            <use
               transform="translate(134.082031 0.015625)"
               xlink:href="#DejaVuSans-Oblique-3c3"
               id="use618" />
            <use
               transform="translate(197.460938 0.015625)"
               xlink:href="#DejaVuSans-20"
               id="use620" />
            <use
               transform="translate(229.248047 0.015625)"
               xlink:href="#DejaVuSans-3d"
               id="use622" />
            <use
               transform="translate(313.037109 0.015625)"
               xlink:href="#DejaVuSans-20"
               id="use624" />
            <use
               transform="translate(344.824219 0.015625)"
               xlink:href="#DejaVuSans-32"
               id="use626" />
            <use
               transform="translate(408.447266 0.015625)"
               xlink:href="#DejaVuSans-2c"
               id="use628" />
            <use
               transform="translate(440.234375 0.015625)"
               xlink:href="#DejaVuSans-20"
               id="use630" />
            <use
               transform="translate(472.021484 0.015625)"
               xlink:href="#DejaVuSans-Oblique-3bc"
               id="use632" />
            <use
               transform="translate(535.644531 0.015625)"
               xlink:href="#DejaVuSans-20"
               id="use634" />
            <use
               transform="translate(567.431641 0.015625)"
               xlink:href="#DejaVuSans-3d"
               id="use636" />
            <use
               transform="translate(651.220703 0.015625)"
               xlink:href="#DejaVuSans-20"
               id="use638" />
            <use
               transform="translate(683.007812 0.015625)"
               xlink:href="#DejaVuSans-34"
               id="use640" />
            <use
               transform="translate(746.630859 0.015625)"
               xlink:href="#DejaVuSans-2c"
               id="use642" />
            <use
               transform="translate(778.417969 0.015625)"
               xlink:href="#DejaVuSans-20"
               id="use644" />
            <use
               transform="translate(810.205078 0.015625)"
               xlink:href="#DejaVuSans-49"
               id="use646" />
            <use
               transform="translate(839.697266 0.015625)"
               xlink:href="#DejaVuSans-6e"
               id="use648" />
            <use
               transform="translate(903.076172 0.015625)"
               xlink:href="#DejaVuSans-74"
               id="use650" />
            <use
               transform="translate(942.285156 0.015625)"
               xlink:href="#DejaVuSans-65"
               id="use652" />
            <use
               transform="translate(1003.808594 0.015625)"
               xlink:href="#DejaVuSans-6e"
               id="use654" />
            <use
               transform="translate(1067.1875 0.015625)"
               xlink:href="#DejaVuSans-73"
               id="use656" />
            <use
               transform="translate(1119.287109 0.015625)"
               xlink:href="#DejaVuSans-69"
               id="use658" />
            <use
               transform="translate(1147.070312 0.015625)"
               xlink:href="#DejaVuSans-74"
               id="use660" />
            <use
               transform="translate(1186.279297 0.015625)"
               xlink:href="#DejaVuSans-79"
               id="use662" />
            <use
               transform="translate(1245.458984 0.015625)"
               xlink:href="#DejaVuSans-20"
               id="use664" />
            <use
               transform="translate(1277.246094 0.015625)"
               xlink:href="#DejaVuSans-3d"
               id="use666" />
            <use
               transform="translate(1361.035156 0.015625)"
               xlink:href="#DejaVuSans-20"
               id="use668" />
            <use
               transform="translate(1392.822266 0.015625)"
               xlink:href="#DejaVuSans-31"
               id="use670" />
          </g>
        </g>
        <g
           id="line2d_28">
          <path
             d="M 63 72.74  L 83 72.74  "
             style="fill:none;stroke:#2ca02c;stroke-linecap:square;stroke-width:1.5;"
             id="path673" />
        </g>
        <g
           id="line2d_29" />
        <g
           id="text_24">
          <!-- X: $\sigma$ = 2, $\mu$ = -3, Intensity = 1 -->
          <defs
             id="defs677">
            <path
               d="M 6.296875 72.90625  L 16.890625 72.90625  L 35.015625 45.796875  L 53.21875 72.90625  L 63.8125 72.90625  L 40.375 37.890625  L 65.375 0  L 54.78125 0  L 34.28125 31  L 13.625 0  L 2.984375 0  L 29 38.921875  z "
               id="DejaVuSans-58" />
          </defs>
          <g
             transform="translate(91 76.24)scale(0.1 -0.1)"
             id="g680">
            <use
               transform="translate(0 0.015625)"
               xlink:href="#DejaVuSans-58"
               id="use682" />
            <use
               transform="translate(68.505859 0.015625)"
               xlink:href="#DejaVuSans-3a"
               id="use684" />
            <use
               transform="translate(102.197266 0.015625)"
               xlink:href="#DejaVuSans-20"
               id="use686" />
            <use
               transform="translate(133.984375 0.015625)"
               xlink:href="#DejaVuSans-Oblique-3c3"
               id="use688" />
            <use
               transform="translate(197.363281 0.015625)"
               xlink:href="#DejaVuSans-20"
               id="use690" />
            <use
               transform="translate(229.150391 0.015625)"
               xlink:href="#DejaVuSans-3d"
               id="use692" />
            <use
               transform="translate(312.939453 0.015625)"
               xlink:href="#DejaVuSans-20"
               id="use694" />
            <use
               transform="translate(344.726562 0.015625)"
               xlink:href="#DejaVuSans-32"
               id="use696" />
            <use
               transform="translate(408.349609 0.015625)"
               xlink:href="#DejaVuSans-2c"
               id="use698" />
            <use
               transform="translate(440.136719 0.015625)"
               xlink:href="#DejaVuSans-20"
               id="use700" />
            <use
               transform="translate(471.923828 0.015625)"
               xlink:href="#DejaVuSans-Oblique-3bc"
               id="use702" />
            <use
               transform="translate(535.546875 0.015625)"
               xlink:href="#DejaVuSans-20"
               id="use704" />
            <use
               transform="translate(567.333984 0.015625)"
               xlink:href="#DejaVuSans-3d"
               id="use706" />
            <use
               transform="translate(651.123047 0.015625)"
               xlink:href="#DejaVuSans-20"
               id="use708" />
            <use
               transform="translate(682.910156 0.015625)"
               xlink:href="#DejaVuSans-2d"
               id="use710" />
            <use
               transform="translate(718.994141 0.015625)"
               xlink:href="#DejaVuSans-33"
               id="use712" />
            <use
               transform="translate(782.617188 0.015625)"
               xlink:href="#DejaVuSans-2c"
               id="use714" />
            <use
               transform="translate(814.404297 0.015625)"
               xlink:href="#DejaVuSans-20"
               id="use716" />
            <use
               transform="translate(846.191406 0.015625)"
               xlink:href="#DejaVuSans-49"
               id="use718" />
            <use
               transform="translate(875.683594 0.015625)"
               xlink:href="#DejaVuSans-6e"
               id="use720" />
            <use
               transform="translate(939.0625 0.015625)"
               xlink:href="#DejaVuSans-74"
               id="use722" />
            <use
               transform="translate(978.271484 0.015625)"
               xlink:href="#DejaVuSans-65"
               id="use724" />
            <use
               transform="translate(1039.794922 0.015625)"
               xlink:href="#DejaVuSans-6e"
               id="use726" />
            <use
               transform="translate(1103.173828 0.015625)"
               xlink:href="#DejaVuSans-73"
               id="use728" />
            <use
               transform="translate(1155.273438 0.015625)"
               xlink:href="#DejaVuSans-69"
               id="use730" />
            <use
               transform="translate(1183.056641 0.015625)"
               xlink:href="#DejaVuSans-74"
               id="use732" />
            <use
               transform="translate(1222.265625 0.015625)"
               xlink:href="#DejaVuSans-79"
               id="use734" />
            <use
               transform="translate(1281.445312 0.015625)"
               xlink:href="#DejaVuSans-20"
               id="use736" />
            <use
               transform="translate(1313.232422 0.015625)"
               xlink:href="#DejaVuSans-3d"
               id="use738" />
            <use
               transform="translate(1397.021484 0.015625)"
               xlink:href="#DejaVuSans-20"
               id="use740" />
            <use
               transform="translate(1428.808594 0.015625)"
               xlink:href="#DejaVuSans-31"
               id="use742" />
          </g>
        </g>
        <g
           id="line2d_30">
          <path
             d="M 63 87.44  L 83 87.44  "
             style="fill:none;stroke:#d62728;stroke-linecap:square;stroke-width:1.5;"
             id="path745" />
        </g>
        <g
           id="line2d_31" />
        <g
           id="text_25">
          <!-- Y: $\sigma$ = 5, $\mu$ = 5, Intensity = 1 -->
          <defs
             id="defs749">
            <path
               d="M -0.203125 72.90625  L 10.40625 72.90625  L 30.609375 42.921875  L 50.6875 72.90625  L 61.28125 72.90625  L 35.5 34.71875  L 35.5 0  L 25.59375 0  L 25.59375 34.71875  z "
               id="DejaVuSans-59" />
          </defs>
          <g
             transform="translate(91 90.94)scale(0.1 -0.1)"
             id="g752">
            <use
               transform="translate(0 0.015625)"
               xlink:href="#DejaVuSans-59"
               id="use754" />
            <use
               transform="translate(61.083984 0.015625)"
               xlink:href="#DejaVuSans-3a"
               id="use756" />
            <use
               transform="translate(94.775391 0.015625)"
               xlink:href="#DejaVuSans-20"
               id="use758" />
            <use
               transform="translate(126.5625 0.015625)"
               xlink:href="#DejaVuSans-Oblique-3c3"
               id="use760" />
            <use
               transform="translate(189.941406 0.015625)"
               xlink:href="#DejaVuSans-20"
               id="use762" />
            <use
               transform="translate(221.728516 0.015625)"
               xlink:href="#DejaVuSans-3d"
               id="use764" />
            <use
               transform="translate(305.517578 0.015625)"
               xlink:href="#DejaVuSans-20"
               id="use766" />
            <use
               transform="translate(337.304688 0.015625)"
               xlink:href="#DejaVuSans-35"
               id="use768" />
            <use
               transform="translate(400.927734 0.015625)"
               xlink:href="#DejaVuSans-2c"
               id="use770" />
            <use
               transform="translate(432.714844 0.015625)"
               xlink:href="#DejaVuSans-20"
               id="use772" />
            <use
               transform="translate(464.501953 0.015625)"
               xlink:href="#DejaVuSans-Oblique-3bc"
               id="use774" />
            <use
               transform="translate(528.125 0.015625)"
               xlink:href="#DejaVuSans-20"
               id="use776" />
            <use
               transform="translate(559.912109 0.015625)"
               xlink:href="#DejaVuSans-3d"
               id="use778" />
            <use
               transform="translate(643.701172 0.015625)"
               xlink:href="#DejaVuSans-20"
               id="use780" />
            <use
               transform="translate(675.488281 0.015625)"
               xlink:href="#DejaVuSans-35"
               id="use782" />
            <use
               transform="translate(739.111328 0.015625)"
               xlink:href="#DejaVuSans-2c"
               id="use784" />
            <use
               transform="translate(770.898438 0.015625)"
               xlink:href="#DejaVuSans-20"
               id="use786" />
            <use
               transform="translate(802.685547 0.015625)"
               xlink:href="#DejaVuSans-49"
               id="use788" />
            <use
               transform="translate(832.177734 0.015625)"
               xlink:href="#DejaVuSans-6e"
               id="use790" />
            <use
               transform="translate(895.556641 0.015625)"
               xlink:href="#DejaVuSans-74"
               id="use792" />
            <use
               transform="translate(934.765625 0.015625)"
               xlink:href="#DejaVuSans-65"
               id="use794" />
            <use
               transform="translate(996.289062 0.015625)"
               xlink:href="#DejaVuSans-6e"
               id="use796" />
            <use
               transform="translate(1059.667969 0.015625)"
               xlink:href="#DejaVuSans-73"
               id="use798" />
            <use
               transform="translate(1111.767578 0.015625)"
               xlink:href="#DejaVuSans-69"
               id="use800" />
            <use
               transform="translate(1139.550781 0.015625)"
               xlink:href="#DejaVuSans-74"
               id="use802" />
            <use
               transform="translate(1178.759766 0.015625)"
               xlink:href="#DejaVuSans-79"
               id="use804" />
            <use
               transform="translate(1237.939453 0.015625)"
               xlink:href="#DejaVuSans-20"
               id="use806" />
            <use
               transform="translate(1269.726562 0.015625)"
               xlink:href="#DejaVuSans-3d"
               id="use808" />
            <use
               transform="translate(1353.515625 0.015625)"
               xlink:href="#DejaVuSans-20"
               id="use810" />
            <use
               transform="translate(1385.302734 0.015625)"
               xlink:href="#DejaVuSans-31"
               id="use812" />
          </g>
        </g>
        <g
           id="line2d_32">
          <path
             d="M 63 102.138438  L 83 102.138438  "
             style="fill:none;stroke:#9467bd;stroke-linecap:square;stroke-width:1.5;"
             id="path815" />
        </g>
        <g
           id="line2d_33" />
        <g
           id="text_26">
          <!-- Convolution of A and B -->
          <defs
             id="defs819">
            <path
               d="M 64.40625 67.28125  L 64.40625 56.890625  Q 59.421875 61.53125 53.78125 63.8125  Q 48.140625 66.109375 41.796875 66.109375  Q 29.296875 66.109375 22.65625 58.46875  Q 16.015625 50.828125 16.015625 36.375  Q 16.015625 21.96875 22.65625 14.328125  Q 29.296875 6.6875 41.796875 6.6875  Q 48.140625 6.6875 53.78125 8.984375  Q 59.421875 11.28125 64.40625 15.921875  L 64.40625 5.609375  Q 59.234375 2.09375 53.4375 0.328125  Q 47.65625 -1.421875 41.21875 -1.421875  Q 24.65625 -1.421875 15.125 8.703125  Q 5.609375 18.84375 5.609375 36.375  Q 5.609375 53.953125 15.125 64.078125  Q 24.65625 74.21875 41.21875 74.21875  Q 47.75 74.21875 53.53125 72.484375  Q 59.328125 70.75 64.40625 67.28125  "
               id="DejaVuSans-43" />
            <path
               d="M 2.984375 54.6875  L 12.5 54.6875  L 29.59375 8.796875  L 46.6875 54.6875  L 56.203125 54.6875  L 35.6875 0  L 23.484375 0  z "
               id="DejaVuSans-76" />
            <path
               d="M 37.109375 75.984375  L 37.109375 68.5  L 28.515625 68.5  Q 23.6875 68.5 21.796875 66.546875  Q 19.921875 64.59375 19.921875 59.515625  L 19.921875 54.6875  L 34.71875 54.6875  L 34.71875 47.703125  L 19.921875 47.703125  L 19.921875 0  L 10.890625 0  L 10.890625 47.703125  L 2.296875 47.703125  L 2.296875 54.6875  L 10.890625 54.6875  L 10.890625 58.5  Q 10.890625 67.625 15.140625 71.796875  Q 19.390625 75.984375 28.609375 75.984375  z "
               id="DejaVuSans-66" />
          </defs>
          <g
             transform="translate(91 105.638438)scale(0.1 -0.1)"
             id="g824">
            <use
               xlink:href="#DejaVuSans-43"
               id="use826" />
            <use
               x="69.824219"
               xlink:href="#DejaVuSans-6f"
               id="use828" />
            <use
               x="131.005859"
               xlink:href="#DejaVuSans-6e"
               id="use830" />
            <use
               x="194.384766"
               xlink:href="#DejaVuSans-76"
               id="use832" />
            <use
               x="253.564453"
               xlink:href="#DejaVuSans-6f"
               id="use834" />
            <use
               x="314.746094"
               xlink:href="#DejaVuSans-6c"
               id="use836" />
            <use
               x="342.529297"
               xlink:href="#DejaVuSans-75"
               id="use838" />
            <use
               x="405.908203"
               xlink:href="#DejaVuSans-74"
               id="use840" />
            <use
               x="445.117188"
               xlink:href="#DejaVuSans-69"
               id="use842" />
            <use
               x="472.900391"
               xlink:href="#DejaVuSans-6f"
               id="use844" />
            <use
               x="534.082031"
               xlink:href="#DejaVuSans-6e"
               id="use846" />
            <use
               x="597.460938"
               xlink:href="#DejaVuSans-20"
               id="use848" />
            <use
               x="629.248047"
               xlink:href="#DejaVuSans-6f"
               id="use850" />
            <use
               x="690.429688"
               xlink:href="#DejaVuSans-66"
               id="use852" />
            <use
               x="725.634766"
               xlink:href="#DejaVuSans-20"
               id="use854" />
            <use
               x="757.421875"
               xlink:href="#DejaVuSans-41"
               id="use856" />
            <use
               x="825.830078"
               xlink:href="#DejaVuSans-20"
               id="use858" />
            <use
               x="857.617188"
               xlink:href="#DejaVuSans-61"
               id="use860" />
            <use
               x="918.896484"
               xlink:href="#DejaVuSans-6e"
               id="use862" />
            <use
               x="982.275391"
               xlink:href="#DejaVuSans-64"
               id="use864" />
            <use
               x="1045.751953"
               xlink:href="#DejaVuSans-20"
               id="use866" />
            <use
               x="1077.539062"
               xlink:href="#DejaVuSans-42"
               id="use868" />
          </g>
        </g>
      </g>
    </g>
  </g>
  <defs
     id="defs870">
    <clipPath
       id="p0e205a6fac">
      <rect
         height="194.04"
         width="334.8"
         x="54"
         y="30.24"
         id="rect873" />
    </clipPath>
  </defs>
</svg>
