<?xml version="1.0" encoding="UTF-8" standalone="no"?>
<!-- Created with Inkscape (http://www.inkscape.org/) -->

<svg
   xmlns:osb="http://www.openswatchbook.org/uri/2009/osb"
   xmlns:dc="http://purl.org/dc/elements/1.1/"
   xmlns:cc="http://creativecommons.org/ns#"
   xmlns:rdf="http://www.w3.org/1999/02/22-rdf-syntax-ns#"
   xmlns:svg="http://www.w3.org/2000/svg"
   xmlns="http://www.w3.org/2000/svg"
   xmlns:sodipodi="http://sodipodi.sourceforge.net/DTD/sodipodi-0.dtd"
   xmlns:inkscape="http://www.inkscape.org/namespaces/inkscape"
   width="210mm"
   height="297mm"
   viewBox="0 0 744.09448819 1052.3622047"
   id="svg61679"
   version="1.1"
   inkscape:version="0.91 r13725"
   sodipodi:docname="Mirrors.svg">
  <defs
     id="defs61681">
    <marker
       inkscape:stockid="Arrow1Mstart"
       orient="auto"
       refY="0.0"
       refX="0.0"
       id="marker6264"
       style="overflow:visible"
       inkscape:isstock="true">
      <path
         id="path6266"
         d="M 0.0,0.0 L 5.0,-5.0 L -12.5,0.0 L 5.0,5.0 L 0.0,0.0 z "
         style="fill-rule:evenodd;stroke:#000000;stroke-width:1pt;stroke-opacity:1;fill:#000000;fill-opacity:1"
         transform="scale(0.4) translate(10,0)" />
    </marker>
    <marker
       inkscape:stockid="Arrow1Mstart"
       orient="auto"
       refY="0.0"
       refX="0.0"
       id="marker6200"
       style="overflow:visible"
       inkscape:isstock="true">
      <path
         id="path6202"
         d="M 0.0,0.0 L 5.0,-5.0 L -12.5,0.0 L 5.0,5.0 L 0.0,0.0 z "
         style="fill-rule:evenodd;stroke:#000000;stroke-width:1pt;stroke-opacity:1;fill:#000000;fill-opacity:1"
         transform="scale(0.4) translate(10,0)" />
    </marker>
    <marker
       inkscape:isstock="true"
       style="overflow:visible"
       id="marker6004"
       refX="0.0"
       refY="0.0"
       orient="auto"
       inkscape:stockid="Arrow1Mstart"
       inkscape:collect="always">
      <path
         transform="scale(0.4) translate(10,0)"
         style="fill-rule:evenodd;stroke:#000000;stroke-width:1pt;stroke-opacity:1;fill:#000000;fill-opacity:1"
         d="M 0.0,0.0 L 5.0,-5.0 L -12.5,0.0 L 5.0,5.0 L 0.0,0.0 z "
         id="path6006" />
    </marker>
    <marker
       inkscape:isstock="true"
       style="overflow:visible"
       id="marker5244"
       refX="0.0"
       refY="0.0"
       orient="auto"
       inkscape:stockid="Arrow1Mstart">
      <path
         transform="scale(0.4) translate(10,0)"
         style="fill-rule:evenodd;stroke:#000000;stroke-width:1pt;stroke-opacity:1;fill:#000000;fill-opacity:1"
         d="M 0.0,0.0 L 5.0,-5.0 L -12.5,0.0 L 5.0,5.0 L 0.0,0.0 z "
         id="path5246" />
    </marker>
    <marker
       inkscape:stockid="Arrow1Mstart"
       orient="auto"
       refY="0.0"
       refX="0.0"
       id="marker5170"
       style="overflow:visible"
       inkscape:isstock="true"
       inkscape:collect="always">
      <path
         id="path5172"
         d="M 0.0,0.0 L 5.0,-5.0 L -12.5,0.0 L 5.0,5.0 L 0.0,0.0 z "
         style="fill-rule:evenodd;stroke:#000000;stroke-width:1pt;stroke-opacity:1;fill:#000000;fill-opacity:1"
         transform="scale(0.4) translate(10,0)" />
    </marker>
    <marker
       inkscape:stockid="Arrow1Mstart"
       orient="auto"
       refY="0.0"
       refX="0.0"
       id="Arrow1Mstart"
       style="overflow:visible"
       inkscape:isstock="true"
       inkscape:collect="always">
      <path
         id="path4870"
         d="M 0.0,0.0 L 5.0,-5.0 L -12.5,0.0 L 5.0,5.0 L 0.0,0.0 z "
         style="fill-rule:evenodd;stroke:#000000;stroke-width:1pt;stroke-opacity:1;fill:#000000;fill-opacity:1"
         transform="scale(0.4) translate(10,0)" />
    </marker>
    <marker
       inkscape:stockid="Arrow1Mend"
       orient="auto"
       refY="0.0"
       refX="0.0"
       id="marker4526"
       style="overflow:visible;"
       inkscape:isstock="true">
      <path
         id="path4528"
         d="M 0.0,0.0 L 5.0,-5.0 L -12.5,0.0 L 5.0,5.0 L 0.0,0.0 z "
         style="fill-rule:evenodd;stroke:#000000;stroke-width:1pt;stroke-opacity:1;fill:#000000;fill-opacity:1"
         transform="scale(0.4) rotate(180) translate(10,0)" />
    </marker>
    <marker
       inkscape:isstock="true"
       style="overflow:visible;"
       id="marker4312"
       refX="0.0"
       refY="0.0"
       orient="auto"
       inkscape:stockid="Arrow1Mend">
      <path
         transform="scale(0.4) rotate(180) translate(10,0)"
         style="fill-rule:evenodd;stroke:#000000;stroke-width:1pt;stroke-opacity:1;fill:#000000;fill-opacity:1"
         d="M 0.0,0.0 L 5.0,-5.0 L -12.5,0.0 L 5.0,5.0 L 0.0,0.0 z "
         id="path4314" />
    </marker>
    <marker
       inkscape:stockid="Arrow1Mend"
       orient="auto"
       refY="0.0"
       refX="0.0"
       id="marker4232"
       style="overflow:visible;"
       inkscape:isstock="true"
       inkscape:collect="always">
      <path
         id="path4234"
         d="M 0.0,0.0 L 5.0,-5.0 L -12.5,0.0 L 5.0,5.0 L 0.0,0.0 z "
         style="fill-rule:evenodd;stroke:#000000;stroke-width:1pt;stroke-opacity:1;fill:#000000;fill-opacity:1"
         transform="scale(0.4) rotate(180) translate(10,0)" />
    </marker>
    <marker
       inkscape:isstock="true"
       style="overflow:visible;"
       id="marker4198"
       refX="0.0"
       refY="0.0"
       orient="auto"
       inkscape:stockid="Arrow1Mend"
       inkscape:collect="always">
      <path
         transform="scale(0.4) rotate(180) translate(10,0)"
         style="fill-rule:evenodd;stroke:#000000;stroke-width:1pt;stroke-opacity:1;fill:#000000;fill-opacity:1"
         d="M 0.0,0.0 L 5.0,-5.0 L -12.5,0.0 L 5.0,5.0 L 0.0,0.0 z "
         id="path4200" />
    </marker>
    <inkscape:path-effect
       effect="spiro"
       id="path-effect62281"
       is_visible="true" />
    <linearGradient
       id="linearGradient62262"
       osb:paint="solid">
      <stop
         style="stop-color:#000000;stop-opacity:1;"
         offset="0"
         id="stop62264" />
    </linearGradient>
  </defs>
  <sodipodi:namedview
     id="base"
     pagecolor="#ffffff"
     bordercolor="#666666"
     borderopacity="1.0"
     inkscape:pageopacity="0.0"
     inkscape:pageshadow="2"
     inkscape:zoom="0.9899495"
     inkscape:cx="266.51907"
     inkscape:cy="120.26766"
     inkscape:document-units="px"
     inkscape:current-layer="layer1"
     showgrid="false"
     inkscape:window-width="1920"
     inkscape:window-height="1017"
     inkscape:window-x="1912"
     inkscape:window-y="-8"
     inkscape:window-maximized="1"
     showguides="false" />
  <metadata
     id="metadata61684">
    <rdf:RDF>
      <cc:Work
         rdf:about="">
        <dc:format>image/svg+xml</dc:format>
        <dc:type
           rdf:resource="http://purl.org/dc/dcmitype/StillImage" />
        <dc:title></dc:title>
      </cc:Work>
    </rdf:RDF>
  </metadata>
  <g
     inkscape:label="Layer 1"
     inkscape:groupmode="layer"
     id="layer1">
    <path
       style="opacity:1;fill:#ff0064;fill-opacity:0.39215686;stroke:none;stroke-width:2;stroke-linecap:round;stroke-linejoin:miter;stroke-miterlimit:4;stroke-dasharray:4, 4;stroke-dashoffset:0;stroke-opacity:1"
       d="m 85.231344,944.32871 c -4.128363,-0.28237 -7.521751,-0.51733 -7.540863,-0.52214 -0.01911,-0.005 -0.03475,-7.07755 -0.03475,-15.7172 l 0,-15.70846 0.451757,-0.0666 c 0.411477,-0.0606 15.511132,-1.03606 15.915739,-1.0282 0.138053,0.003 0.173752,3.45383 0.173752,16.79706 l 0,16.79367 -0.72976,-0.0175 c -0.401369,-0.009 -4.107512,-0.24844 -8.235874,-0.53081 z"
       id="path6598"
       inkscape:connector-curvature="0" />
    <flowRoot
       xml:space="preserve"
       id="flowRoot64928"
       style="font-style:normal;font-weight:normal;font-size:12.5px;line-height:125%;font-family:sans-serif;letter-spacing:0px;word-spacing:0px;fill:#000000;fill-opacity:1;stroke:none;stroke-width:1px;stroke-linecap:butt;stroke-linejoin:miter;stroke-opacity:1"><flowRegion
         id="flowRegion64930"><rect
           id="rect64932"
           width="111.62186"
           height="23.233532"
           x="85.357887"
           y="839.22003" /></flowRegion><flowPara
         id="flowPara64934">a) $R=\infty$</flowPara></flowRoot>    <flowRoot
       style="font-style:normal;font-weight:normal;font-size:12.5px;line-height:125%;font-family:sans-serif;letter-spacing:0px;word-spacing:0px;fill:#000000;fill-opacity:1;stroke:none;stroke-width:1px;stroke-linecap:butt;stroke-linejoin:miter;stroke-opacity:1"
       id="flowRoot64948"
       xml:space="preserve"
       transform="translate(158.20527,0)"><flowRegion
         id="flowRegion64950"><rect
           y="839.22003"
           x="85.357887"
           height="23.233532"
           width="111.62186"
           id="rect64952" /></flowRegion><flowPara
         id="flowPara64954">b) $R=R_o$</flowPara></flowRoot>    <flowRoot
       xml:space="preserve"
       id="flowRoot64956"
       style="fill:black;stroke:none;stroke-opacity:1;stroke-width:1px;stroke-linejoin:miter;stroke-linecap:butt;fill-opacity:1;font-family:sans-serif;font-style:normal;font-weight:normal;font-size:12.5px;line-height:125%;letter-spacing:0px;word-spacing:0px"><flowRegion
         id="flowRegion64958"><rect
           id="rect64960"
           width="134.85536"
           height="62.124382"
           x="243.95184"
           y="819.01697" /></flowRegion><flowPara
         id="flowPara64962" /></flowRoot>    <flowRoot
       transform="translate(338.94463,0)"
       xml:space="preserve"
       id="flowRoot64964"
       style="font-style:normal;font-weight:normal;font-size:12.5px;line-height:125%;font-family:sans-serif;letter-spacing:0px;word-spacing:0px;fill:#000000;fill-opacity:1;stroke:none;stroke-width:1px;stroke-linecap:butt;stroke-linejoin:miter;stroke-opacity:1"><flowRegion
         id="flowRegion64966"><rect
           id="rect64968"
           width="111.62186"
           height="23.233532"
           x="85.357887"
           y="839.22003" /></flowRegion><flowPara
         id="flowPara64970">c) $R=2f$</flowPara></flowRoot>    <path
       style="fill:none;fill-rule:evenodd;stroke:#000000;stroke-width:2;stroke-linecap:butt;stroke-linejoin:miter;stroke-opacity:1;stroke-miterlimit:4;stroke-dasharray:none"
       d="m 76.267347,912.55696 c 27.583903,-1.925 54.653833,-3.02572 78.798183,-9.52688"
       id="path4172"
       inkscape:connector-curvature="0" />
    <path
       inkscape:connector-curvature="0"
       id="path4174"
       d="m 77.338776,944.05622 c 27.583904,1.925 54.653834,3.02572 78.798184,9.52688"
       style="fill:none;fill-rule:evenodd;stroke:#000000;stroke-width:2;stroke-linecap:butt;stroke-linejoin:miter;stroke-miterlimit:4;stroke-dasharray:none;stroke-opacity:1" />
    <path
       style="fill:none;fill-rule:evenodd;stroke:#000000;stroke-width:2;stroke-linecap:butt;stroke-linejoin:miter;stroke-miterlimit:4;stroke-dasharray:none;stroke-opacity:1;marker-end:url(#marker4232)"
       d="M 152.27548,903.403 C 132.22602,899.9534 111.7152,898.36504 92.275471,891.88514"
       id="path4188"
       inkscape:connector-curvature="0" />
    <path
       inkscape:connector-curvature="0"
       id="path4190"
       d="m 153.66072,953.36277 c -20.04946,3.4496 -40.56028,5.03796 -60.000006,11.51786"
       style="fill:none;fill-rule:evenodd;stroke:#000000;stroke-width:2;stroke-linecap:butt;stroke-linejoin:miter;stroke-miterlimit:4;stroke-dasharray:none;stroke-opacity:1;marker-end:url(#marker4198)" />
    <path
       style="fill:none;fill-rule:evenodd;stroke:#000000;stroke-width:2;stroke-linecap:butt;stroke-linejoin:miter;stroke-miterlimit:4;stroke-dasharray:4,4;stroke-opacity:1;marker-end:url(#marker4526);stroke-dashoffset:0"
       d="m 155.4693,953.82007 c 19.99871,3.7326 40.48503,5.61067 59.83123,12.36467"
       id="path4310"
       inkscape:connector-curvature="0" />
    <path
       inkscape:connector-curvature="0"
       id="path4308"
       d="m 158.55913,902.99718 c 19.96633,-3.90205 40.436,-5.95374 59.72423,-12.87152"
       style="fill:none;fill-rule:evenodd;stroke:#000000;stroke-width:2;stroke-linecap:butt;stroke-linejoin:miter;stroke-opacity:1;marker-end:url(#marker4312);stroke-miterlimit:4;stroke-dasharray:4,4;stroke-dashoffset:0" />
    <path
       style="fill:none;fill-rule:evenodd;stroke:#000000;stroke-width:2;stroke-linecap:butt;stroke-linejoin:miter;stroke-miterlimit:4;stroke-dasharray:none;stroke-opacity:1"
       d="m 248.46091,992.12248 c 23.83251,-13.45338 51.61223,-20.57836 78.24201,-24.71018"
       id="path4282"
       inkscape:connector-curvature="0" />
    <path
       inkscape:connector-curvature="0"
       id="path4284"
       d="m 249.21092,867.17506 c 23.83251,13.45338 51.61223,20.57836 78.24201,24.71018"
       style="fill:none;fill-rule:evenodd;stroke:#000000;stroke-width:2;stroke-linecap:butt;stroke-linejoin:miter;stroke-miterlimit:4;stroke-dasharray:none;stroke-opacity:1" />
    <path
       style="fill:none;fill-rule:evenodd;stroke:#000000;stroke-width:2;stroke-linecap:butt;stroke-linejoin:miter;stroke-miterlimit:4;stroke-dasharray:none;stroke-opacity:1;marker-start:url(#marker5170)"
       d="m 264.32143,916.64793 c 23.94087,1.12487 45.06972,-11.58453 63.21428,-24.28572"
       id="path4288"
       inkscape:connector-curvature="0" />
    <path
       inkscape:connector-curvature="0"
       id="path4290"
       d="m 263.57142,943.05795 c 23.94087,-1.12487 45.06972,11.58453 63.21428,24.28572"
       style="fill:none;fill-rule:evenodd;stroke:#000000;stroke-width:2;stroke-linecap:butt;stroke-linejoin:miter;stroke-miterlimit:4;stroke-dasharray:none;stroke-opacity:1;marker-start:url(#marker6004)" />
    <path
       inkscape:connector-curvature="0"
       id="path5240"
       d="M 395.11234,916.64793 C 371.17147,917.7728 350.04262,905.0634 331.89806,892.36221"
       style="fill:none;fill-rule:evenodd;stroke:#000000;stroke-width:2;stroke-linecap:butt;stroke-linejoin:miter;stroke-miterlimit:4;stroke-dasharray:4,4;stroke-opacity:1;marker-start:url(#marker5244);stroke-dashoffset:0" />
    <path
       style="fill:none;fill-rule:evenodd;stroke:#000000;stroke-width:2;stroke-linecap:butt;stroke-linejoin:miter;stroke-miterlimit:4;stroke-dasharray:4,4;stroke-opacity:1;marker-start:url(#Arrow1Mstart);stroke-dashoffset:0"
       d="m 394.57662,943.05795 c -23.94087,-1.12487 -45.06972,11.58453 -63.21428,24.28572"
       id="path5242"
       inkscape:connector-curvature="0" />
    <path
       sodipodi:open="true"
       d="m 322.80264,874.87956 a 780.10608,306.32742 0 0 1 0,106.38639"
       sodipodi:end="0.17453293"
       sodipodi:start="6.1086524"
       sodipodi:ry="306.32742"
       sodipodi:rx="780.10608"
       sodipodi:cy="928.07275"
       sodipodi:cx="-445.45187"
       sodipodi:type="arc"
       id="path5406"
       style="opacity:1;fill:none;fill-opacity:1;stroke:#f59907;stroke-width:4;stroke-linecap:round;stroke-linejoin:miter;stroke-miterlimit:4;stroke-dasharray:none;stroke-dashoffset:0;stroke-opacity:1" />
    <path
       style="opacity:1;fill:none;fill-opacity:1;stroke:#00c5b7;stroke-width:4;stroke-linecap:round;stroke-linejoin:miter;stroke-miterlimit:4;stroke-dasharray:none;stroke-dashoffset:0;stroke-opacity:1"
       id="path5404"
       sodipodi:type="arc"
       sodipodi:cx="-443.43155"
       sodipodi:cy="928.07275"
       sodipodi:rx="780.10608"
       sodipodi:ry="306.32742"
       sodipodi:start="6.1086524"
       sodipodi:end="0.17453293"
       d="m 324.82297,874.87956 a 780.10608,306.32742 0 0 1 0,106.38639"
       sodipodi:open="true" />
    <path
       inkscape:connector-curvature="0"
       id="path5424"
       d="m 426.78571,943.10717 c 38.96946,2.6569 76.54795,11.38405 112.85714,25"
       style="fill:none;fill-rule:evenodd;stroke:#000000;stroke-width:2;stroke-linecap:butt;stroke-linejoin:miter;stroke-miterlimit:4;stroke-dasharray:none;stroke-opacity:1" />
    <path
       style="fill:none;fill-rule:evenodd;stroke:#000000;stroke-width:2;stroke-linecap:butt;stroke-linejoin:miter;stroke-miterlimit:4;stroke-dasharray:none;stroke-opacity:1"
       d="m 427.32143,913.07649 c 38.96946,-2.6569 76.54795,-11.38405 112.85714,-25"
       id="path5422"
       inkscape:connector-curvature="0" />
    <path
       style="opacity:1;fill:none;fill-opacity:1;stroke:#f59907;stroke-width:4;stroke-linecap:round;stroke-linejoin:miter;stroke-miterlimit:4;stroke-dasharray:none;stroke-dashoffset:0;stroke-opacity:1"
       id="path5412"
       sodipodi:type="arc"
       sodipodi:cx="-232.95186"
       sodipodi:cy="928.07275"
       sodipodi:rx="780.10608"
       sodipodi:ry="306.32742"
       sodipodi:start="6.1086524"
       sodipodi:end="0.17453293"
       d="m 535.30266,874.87956 a 780.10608,306.32742 0 0 1 0,106.38639"
       sodipodi:open="true" />
    <path
       inkscape:connector-curvature="0"
       id="path5426"
       d="m 656.43381,914.14792 c -38.96946,-2.6569 -76.54795,-11.38405 -112.85714,-25"
       style="fill:none;fill-rule:evenodd;stroke:#000000;stroke-width:2;stroke-linecap:butt;stroke-linejoin:miter;stroke-miterlimit:4;stroke-dasharray:4,4;stroke-opacity:1;marker-start:url(#marker6264);stroke-dashoffset:0" />
    <path
       style="fill:none;fill-rule:evenodd;stroke:#000000;stroke-width:2;stroke-linecap:butt;stroke-linejoin:miter;stroke-miterlimit:4;stroke-dasharray:4,4;stroke-opacity:1;marker-start:url(#marker6200);stroke-dashoffset:0"
       d="m 656.96953,943.10717 c -38.96946,2.6569 -76.54795,11.38405 -112.85714,25"
       id="path5428"
       inkscape:connector-curvature="0" />
    <path
       sodipodi:open="true"
       d="m 537.32298,874.87956 a 780.10608,306.32742 0 0 1 0,106.38639"
       sodipodi:end="0.17453293"
       sodipodi:start="6.1086524"
       sodipodi:ry="306.32742"
       sodipodi:rx="780.10608"
       sodipodi:cy="928.07275"
       sodipodi:cx="-230.93153"
       sodipodi:type="arc"
       id="path5414"
       style="opacity:1;fill:none;fill-opacity:1;stroke:#00c5b7;stroke-width:4;stroke-linecap:round;stroke-linejoin:miter;stroke-miterlimit:4;stroke-dasharray:none;stroke-dashoffset:0;stroke-opacity:1" />
    <rect
       transform="matrix(0.9270803,-0.3748628,-0.4173892,-0.90872782,0,0)"
       y="-1012.7715"
       x="123.22683"
       height="0.0088332165"
       width="0.01021611"
       id="rect5416"
       style="opacity:1;fill:none;fill-opacity:1;stroke:#00c5b7;stroke-width:4.00214624;stroke-linecap:round;stroke-linejoin:miter;stroke-miterlimit:4;stroke-dasharray:none;stroke-dashoffset:0;stroke-opacity:1" />
    <rect
       style="opacity:1;fill:none;fill-opacity:1;stroke:#00c5b7;stroke-width:4.00214624;stroke-linecap:round;stroke-linejoin:miter;stroke-miterlimit:4;stroke-dasharray:none;stroke-dashoffset:0;stroke-opacity:1"
       id="rect5418"
       width="0.01021611"
       height="0.0088332165"
       x="898.77594"
       y="709.83264"
       transform="matrix(0.9270803,0.3748628,-0.4173892,0.90872782,0,0)" />
    <path
       sodipodi:type="star"
       style="opacity:1;fill:#000000;fill-opacity:1;stroke:none;stroke-width:2;stroke-linecap:round;stroke-linejoin:miter;stroke-miterlimit:4;stroke-dasharray:4, 4;stroke-dashoffset:0;stroke-opacity:1"
       id="path6560"
       sodipodi:sides="3"
       sodipodi:cx="456.41818"
       sodipodi:cy="975.66577"
       sodipodi:r1="6.4795547"
       sodipodi:r2="3.2342048"
       sodipodi:arg1="0"
       sodipodi:arg2="1.0471976"
       inkscape:flatsided="false"
       inkscape:rounded="-7.97973e-017"
       inkscape:randomized="0"
       d="m 462.89774,975.66577 -4.86246,2.80091 -4.85687,2.81055 0.006,-5.61146 -0.006,-5.61146 4.85687,2.81056 z"
       inkscape:transform-center-x="-1.4529334"
       inkscape:transform-center-y="-0.66611026"
       transform="matrix(1.1284052,0.20559714,-0.13361668,0.73334569,89.413424,139.93437)" />
    <path
       transform="matrix(1.1284052,-0.20559714,-0.13361668,-0.73334569,89.413424,1716.208)"
       inkscape:transform-center-y="0.66610949"
       inkscape:transform-center-x="-1.4529334"
       d="m 462.89774,975.66577 -4.86246,2.80091 -4.85687,2.81055 0.006,-5.61146 -0.006,-5.61146 4.85687,2.81056 z"
       inkscape:randomized="0"
       inkscape:rounded="-7.97973e-017"
       inkscape:flatsided="false"
       sodipodi:arg2="1.0471976"
       sodipodi:arg1="0"
       sodipodi:r2="3.2342048"
       sodipodi:r1="6.4795547"
       sodipodi:cy="975.66577"
       sodipodi:cx="456.41818"
       sodipodi:sides="3"
       id="path6564"
       style="opacity:1;fill:#000000;fill-opacity:1;stroke:none;stroke-width:2;stroke-linecap:round;stroke-linejoin:miter;stroke-miterlimit:4;stroke-dasharray:4, 4;stroke-dashoffset:0;stroke-opacity:1"
       sodipodi:type="star" />
    <path
       transform="matrix(-1.1015959,-0.31946027,0.20761586,-0.71592246,794.88216,1798.428)"
       inkscape:transform-center-y="1.0351331"
       inkscape:transform-center-x="1.2018539"
       d="m 462.89774,975.66577 -4.86246,2.80091 -4.85687,2.81055 0.006,-5.61146 -0.006,-5.61146 4.85687,2.81056 z"
       inkscape:randomized="0"
       inkscape:rounded="-7.97973e-017"
       inkscape:flatsided="false"
       sodipodi:arg2="1.0471976"
       sodipodi:arg1="0"
       sodipodi:r2="3.2342048"
       sodipodi:r1="6.4795547"
       sodipodi:cy="975.66577"
       sodipodi:cx="456.41818"
       sodipodi:sides="3"
       id="path6566"
       style="opacity:1;fill:#000000;fill-opacity:1;stroke:none;stroke-width:2;stroke-linecap:round;stroke-linejoin:miter;stroke-miterlimit:4;stroke-dasharray:4, 4;stroke-dashoffset:0;stroke-opacity:1"
       sodipodi:type="star" />
    <path
       sodipodi:type="star"
       style="opacity:1;fill:#000000;fill-opacity:1;stroke:none;stroke-width:2;stroke-linecap:round;stroke-linejoin:miter;stroke-miterlimit:4;stroke-dasharray:4, 4;stroke-dashoffset:0;stroke-opacity:1"
       id="path6568"
       sodipodi:sides="3"
       sodipodi:cx="456.41818"
       sodipodi:cy="975.66577"
       sodipodi:r1="6.4795547"
       sodipodi:r2="3.2342048"
       sodipodi:arg1="0"
       sodipodi:arg2="1.0471976"
       inkscape:flatsided="false"
       inkscape:rounded="-7.97973e-017"
       inkscape:randomized="0"
       d="m 462.89774,975.66577 -4.86246,2.80091 -4.85687,2.81055 0.006,-5.61146 -0.006,-5.61146 4.85687,2.81056 z"
       inkscape:transform-center-x="1.2650923"
       inkscape:transform-center-y="-0.94480734"
       transform="matrix(-1.1092915,0.2916173,0.1895208,0.72092383,815.87073,65.828606)" />
    <path
       sodipodi:type="star"
       style="opacity:1;fill:#000000;fill-opacity:1;stroke:none;stroke-width:2;stroke-linecap:round;stroke-linejoin:miter;stroke-miterlimit:4;stroke-dasharray:4, 4;stroke-dashoffset:0;stroke-opacity:1"
       id="path6572"
       sodipodi:sides="3"
       sodipodi:cx="456.41818"
       sodipodi:cy="975.66577"
       sodipodi:r1="6.4795547"
       sodipodi:r2="3.2342048"
       sodipodi:arg1="0"
       sodipodi:arg2="1.0471976"
       inkscape:flatsided="false"
       inkscape:rounded="-7.97973e-017"
       inkscape:randomized="0"
       d="m 462.89774,975.66577 -4.86246,2.80091 -4.85687,2.81055 0.006,-5.61146 -0.006,-5.61146 4.85687,2.81056 z"
       inkscape:transform-center-x="-1.6743689"
       inkscape:transform-center-y="0.31417265"
       transform="matrix(1.1428741,-0.09699011,-0.06303343,-0.74274901,-355.2669,1679.3834)" />
    <path
       transform="matrix(1.1428741,0.09699011,-0.06303343,0.74274901,-355.2669,176.87615)"
       inkscape:transform-center-y="-0.31417422"
       inkscape:transform-center-x="-1.6743689"
       d="m 462.89774,975.66577 -4.86246,2.80091 -4.85687,2.81055 0.006,-5.61146 -0.006,-5.61146 4.85687,2.81056 z"
       inkscape:randomized="0"
       inkscape:rounded="-7.97973e-017"
       inkscape:flatsided="false"
       sodipodi:arg2="1.0471976"
       sodipodi:arg1="0"
       sodipodi:r2="3.2342048"
       sodipodi:r1="6.4795547"
       sodipodi:cy="975.66577"
       sodipodi:cx="456.41818"
       sodipodi:sides="3"
       id="path6574"
       style="opacity:1;fill:#000000;fill-opacity:1;stroke:none;stroke-width:2;stroke-linecap:round;stroke-linejoin:miter;stroke-miterlimit:4;stroke-dasharray:4, 4;stroke-dashoffset:0;stroke-opacity:1"
       sodipodi:type="star" />
    <path
       sodipodi:type="star"
       style="opacity:1;fill:#000000;fill-opacity:1;stroke:none;stroke-width:2;stroke-linecap:round;stroke-linejoin:miter;stroke-miterlimit:4;stroke-dasharray:4, 4;stroke-dashoffset:0;stroke-opacity:1"
       id="path6578"
       sodipodi:sides="3"
       sodipodi:cx="456.41818"
       sodipodi:cy="975.66577"
       sodipodi:r1="6.4795547"
       sodipodi:r2="3.2342048"
       sodipodi:arg1="0"
       sodipodi:arg2="1.0471976"
       inkscape:flatsided="false"
       inkscape:rounded="-7.97973e-017"
       inkscape:randomized="0"
       d="m 462.89774,975.66577 -4.86246,2.80091 -4.85687,2.81055 0.006,-5.61146 -0.006,-5.61146 4.85687,2.81056 z"
       inkscape:transform-center-x="-1.2463667"
       inkscape:transform-center-y="0.97183968"
       transform="matrix(1.107069,-0.29994466,0.19493281,0.71947932,-408.82785,411.14835)" />
    <path
       transform="matrix(1.1007179,0.3224729,0.20957382,-0.71535174,-420.2138,1433.532)"
       inkscape:transform-center-y="-1.0448057"
       inkscape:transform-center-x="-1.1950247"
       d="m 462.89774,975.66577 -4.86246,2.80091 -4.85687,2.81055 0.006,-5.61146 -0.006,-5.61146 4.85687,2.81056 z"
       inkscape:randomized="0"
       inkscape:rounded="-7.97973e-017"
       inkscape:flatsided="false"
       sodipodi:arg2="1.0471976"
       sodipodi:arg1="0"
       sodipodi:r2="3.2342048"
       sodipodi:r1="6.4795547"
       sodipodi:cy="975.66577"
       sodipodi:cx="456.41818"
       sodipodi:sides="3"
       id="path6580"
       style="opacity:1;fill:#000000;fill-opacity:1;stroke:none;stroke-width:2;stroke-linecap:round;stroke-linejoin:miter;stroke-miterlimit:4;stroke-dasharray:4, 4;stroke-dashoffset:0;stroke-opacity:1"
       sodipodi:type="star" />
    <rect
       y="874.32281"
       x="152.35446"
       height="109.85409"
       width="6.8185296"
       id="rect6586"
       style="opacity:1;fill:#f59607;fill-opacity:1;stroke:none;stroke-width:4;stroke-linecap:round;stroke-linejoin:miter;stroke-miterlimit:4;stroke-dasharray:none;stroke-dashoffset:0;stroke-opacity:1" />
    <rect
       style="opacity:1;fill:#00c8c8;fill-opacity:1;stroke:none;stroke-width:4;stroke-linecap:round;stroke-linejoin:miter;stroke-miterlimit:4;stroke-dasharray:none;stroke-dashoffset:0;stroke-opacity:1"
       id="rect4266"
       width="6.8185296"
       height="109.85409"
       x="154.85446"
       y="874.32281" />
    <path
       style="opacity:1;fill:#f59607;fill-opacity:1;stroke:none;stroke-width:2;stroke-linecap:round;stroke-linejoin:miter;stroke-miterlimit:4;stroke-dasharray:4, 4;stroke-dashoffset:0;stroke-opacity:1"
       d=""
       id="path6590"
       inkscape:connector-curvature="0" />
    <path
       style="opacity:1;fill:#ff0064;fill-opacity:0.39215687;stroke:none;stroke-width:2;stroke-linecap:round;stroke-linejoin:miter;stroke-miterlimit:4;stroke-dasharray:4, 4;stroke-dashoffset:0;stroke-opacity:1"
       d="m 93.772067,902.37921 c 0,-4.37975 0.03292,-7.96319 0.07315,-7.96319 0.04023,0 2.255713,1.49434 4.923292,3.32076 2.667582,1.82641 4.889492,3.28141 4.937582,3.23332 0.0481,-0.0481 -0.48472,-1.22957 -1.18402,-2.6255 -0.6993,-1.39594 -1.24613,-2.5634 -1.21516,-2.59437 0.031,-0.031 1.18087,0.22104 2.55537,0.56 6.95071,1.71411 15.89062,3.29349 32.23122,5.69417 5.74553,0.84411 10.63655,1.59452 10.86893,1.66759 0.30632,0.0963 -0.47935,0.31403 -2.85714,0.79172 -8.85088,1.7781 -18.87646,3.18417 -30.21933,4.23821 l -3.90396,0.36278 -4.43887,-1.25291 c -2.44138,-0.6891 -4.52453,-1.25291 -4.62924,-1.25291 -0.12946,0 -0.15212,0.50671 -0.0708,1.58359 l 0.11954,1.58359 -0.96134,0.1064 c -0.528742,0.0585 -1.764917,0.15267 -2.74706,0.20923 -0.982143,0.0566 -2.167411,0.14734 -2.633929,0.20176 l -0.848214,0.0989 0,-7.96319 z"
       id="path6592"
       inkscape:connector-curvature="0" />
    <path
       style="opacity:1;fill:#ff0064;fill-opacity:0.39215687;stroke:none;stroke-width:2;stroke-linecap:round;stroke-linejoin:miter;stroke-miterlimit:4;stroke-dasharray:4, 4;stroke-dashoffset:0;stroke-opacity:1"
       d="m 93.772067,954.79212 0,-8.57355 0.848214,0.0813 c 1.004111,0.0962 5.765189,0.43762 6.102649,0.43762 0.18502,0 0.20736,0.32261 0.10633,1.53545 -0.11999,1.44055 -0.1075,1.52945 0.2021,1.43851 0.18149,-0.0533 2.09785,-0.59509 4.25856,-1.20395 l 3.92858,-1.10702 3.48214,0.30267 c 8.12705,0.7064 17.86042,1.89131 24.375,2.96735 4.94942,0.81752 11.72743,2.18007 11.56985,2.32583 -0.0777,0.0719 -2.95378,0.54667 -6.39128,1.0551 -14.65523,2.16759 -17.17611,2.55195 -21.16071,3.22641 -5.34584,0.90486 -10.60424,1.94861 -14.89385,2.95629 -1.85679,0.43618 -3.40849,0.76055 -3.44823,0.72082 -0.0397,-0.0397 0.49992,-1.21438 1.19922,-2.61031 0.6993,-1.39594 1.23926,-2.57027 1.19991,-2.60961 -0.0393,-0.0394 -2.51515,1.59959 -5.501796,3.64209 -2.986642,2.0425 -5.530705,3.7755 -5.653473,3.85111 -0.177381,0.10925 -0.223214,-1.62295 -0.223214,-8.43607 z"
       id="path6596"
       inkscape:connector-curvature="0" />
    <path
       style="opacity:1;fill:#ff0064;fill-opacity:0.78431374;stroke:none;stroke-width:2;stroke-linecap:round;stroke-linejoin:miter;stroke-miterlimit:4;stroke-dasharray:4, 4;stroke-dashoffset:0;stroke-opacity:1"
       d="m 150.63925,951.11522 c -1.97812,-0.49483 -9.07128,-1.89865 -12.31123,-2.43654 -7.25953,-1.20522 -15.83402,-2.26848 -24.4962,-3.03762 -1.59731,-0.14182 -3.11602,-0.28097 -3.37491,-0.30921 -0.26019,-0.0284 -2.32154,-0.93259 -4.60883,-2.02167 -2.27595,-1.08369 -4.20022,-1.96999 -4.27616,-1.96956 -0.0859,5e-4 -0.18407,0.59556 -0.25991,1.57599 -0.067,0.86636 -0.14718,1.60054 -0.17815,1.63151 -0.031,0.031 -1.533406,-0.0512 -3.338756,-0.18249 -1.80535,-0.13135 -3.438712,-0.2405 -3.629694,-0.24256 l -0.34724,-0.004 0,-15.84677 c 0,-15.00753 0.0117,-15.84683 0.220971,-15.84796 0.121534,-6.6e-4 1.750358,-0.11183 3.619608,-0.24705 1.869251,-0.13522 3.439171,-0.22081 3.488701,-0.19019 0.0495,0.0306 0.13095,0.70999 0.18092,1.50974 0.05,0.79974 0.13992,1.45407 0.19988,1.45407 0.06,0 1.84221,-0.82331 3.96055,-1.82957 l 3.85153,-1.82958 4.13978,-0.38515 c 12.13639,-1.12914 21.73826,-2.45634 30.53001,-4.21995 3.01293,-0.60439 7.3801,-1.57165 8.03628,-1.77991 0.22771,-0.0723 0.23435,0.58598 0.23435,23.23077 0,22.11647 -0.0113,23.30445 -0.22097,23.29133 -0.12154,-0.008 -0.76077,-0.14884 -1.42053,-0.31388 z"
       id="path6600"
       inkscape:connector-curvature="0" />
    <path
       style="opacity:1;fill:#ff0064;fill-opacity:0.78431373;stroke:none;stroke-width:2;stroke-linecap:round;stroke-linejoin:miter;stroke-miterlimit:4;stroke-dasharray:4, 4;stroke-dashoffset:0;stroke-opacity:1"
       d="m 536.09443,965.58735 c -5.79313,-2.2934 -22.57997,-7.66356 -32.32489,-10.34082 -2.70847,-0.74411 -4.94757,-1.36327 -4.97578,-1.3759 -0.0282,-0.0126 0.12475,-0.62348 0.33991,-1.35745 0.21515,-0.73397 0.35187,-1.3734 0.30382,-1.42096 -0.0481,-0.0476 -2.1256,0.0776 -4.61678,0.27819 l -4.52941,0.36467 -3.80435,-0.87156 c -2.09239,-0.47936 -4.48619,-1.01253 -5.31957,-1.18482 -1.13088,-0.2338 -2.51573,-0.91029 -5.45954,-2.66697 -2.16937,-1.29454 -4.12045,-2.4213 -4.33572,-2.50391 -0.31402,-0.1205 -0.42669,0.13219 -0.56984,1.27795 -0.0981,0.78548 -0.31682,1.48124 -0.48595,1.54614 -0.16913,0.0649 -1.88795,-0.16706 -3.8196,-0.51548 -10.40852,-1.8774 -26.16796,-3.86687 -36.27892,-4.57983 l -2.46224,-0.17363 0,-13.9558 0,-13.9558 2.46224,-0.17024 c 10.2713,-0.71015 26.47694,-2.74863 37.19698,-4.67895 1.55345,-0.27972 2.91193,-0.45452 3.01884,-0.38845 0.10692,0.0661 0.27267,0.74667 0.36834,1.51244 0.0957,0.76576 0.23393,1.39229 0.30724,1.39229 0.0733,0 1.91181,-1.06601 4.08557,-2.36891 l 3.9523,-2.36892 4.79822,-1.08697 c 2.63902,-0.59783 5.33431,-1.13353 5.98952,-1.19043 0.65522,-0.0569 2.96588,0.0872 5.13481,0.32034 2.16893,0.23309 3.99765,0.36966 4.06383,0.30348 0.0662,-0.0662 -0.0438,-0.74865 -0.24431,-1.51661 l -0.36462,-1.39629 2.0543,-0.54283 c 10.95658,-2.89523 24.24311,-7.08059 35.61764,-11.21985 1.37564,-0.5006 2.52886,-0.88034 2.56272,-0.84387 0.20725,0.22323 2.00479,6.45575 2.75046,9.53649 2.39099,9.87849 3.41652,18.39903 3.421,28.4232 0.006,13.24479 -1.5491,23.13155 -5.98584,38.05747 -0.17718,0.59605 -0.62696,0.54281 -2.85038,-0.33741 z"
       id="path6604"
       inkscape:connector-curvature="0" />
    <path
       style="opacity:1;fill:#ff0064;fill-opacity:0.78431374;stroke:none;stroke-width:2;stroke-linecap:round;stroke-linejoin:miter;stroke-miterlimit:4;stroke-dasharray:4, 4;stroke-dashoffset:0;stroke-opacity:1"
       d="m 321.41138,962.32498 c -16.89631,-11.40932 -31.74564,-17.86968 -45.47055,-19.78248 -1.48188,-0.20652 -2.73301,-0.41418 -2.78029,-0.46146 -0.0473,-0.0473 0.83109,-1.08189 1.95192,-2.29914 1.12084,-1.21724 1.97602,-2.27503 1.90041,-2.35064 -0.0756,-0.0756 -3.3374,0.95212 -7.24842,2.28386 -3.91102,1.33173 -7.21558,2.42133 -7.34347,2.42133 -0.13854,0 -0.23253,-5.04922 -0.23253,-12.49213 l 0,-12.49213 7.74165,2.646 c 4.2579,1.4553 7.79817,2.58947 7.86727,2.52037 0.0691,-0.0691 -0.80087,-1.13935 -1.93326,-2.37835 -1.1324,-1.23899 -2.0589,-2.32017 -2.0589,-2.40261 0,-0.0824 0.38645,-0.14989 0.85878,-0.14989 0.47234,0 2.20538,-0.22996 3.85121,-0.51103 13.84571,-2.36451 27.62111,-8.59701 45.01008,-20.36422 2.13642,-1.44572 3.93169,-2.58129 3.9895,-2.52349 0.24641,0.24642 1.66603,5.92274 2.47292,9.88795 1.81806,8.93428 2.4391,15.19908 2.42834,24.4962 -0.0119,10.27018 -1.09309,19.03171 -3.58387,29.04189 -0.95421,3.83482 -2.28085,8.21658 -2.47597,8.17782 -0.0821,-0.0163 -2.3073,-1.48685 -4.94482,-3.26785 z"
       id="path7184"
       inkscape:connector-curvature="0" />
    <path
       style="opacity:1;fill:#ff0064;fill-opacity:0.39215686;stroke:none;stroke-width:2;stroke-linecap:round;stroke-linejoin:miter;stroke-miterlimit:4;stroke-dasharray:4, 4;stroke-dashoffset:0;stroke-opacity:1"
       d="m 249.05647,929.4221 0,-60.99123 2.33598,1.26327 c 8.73675,4.72475 18.1704,8.68097 30.92094,12.96741 0.22532,0.0757 0.2003,0.45398 -0.0999,1.50909 -0.22029,0.77441 -0.34119,1.46736 -0.26865,1.5399 0.0725,0.0725 2.10622,9.9e-4 4.51928,-0.15899 l 4.38737,-0.29088 5.42957,1.40941 c 8.10318,2.10343 20.9158,4.79737 26.64277,5.60183 0.69448,0.0975 1.42391,0.2637 1.62096,0.36922 0.24873,0.13321 -1.10236,1.15345 -4.41942,3.33723 -11.23453,7.39621 -20.83833,12.4059 -29.65269,15.46792 -4.49739,1.56236 -12.25737,3.43545 -14.1069,3.40512 -0.62644,-0.0103 -0.58336,-0.0855 0.71531,-1.24872 0.76004,-0.68078 1.32825,-1.29009 1.26269,-1.35402 -0.0656,-0.0639 -3.6421,0.72279 -7.94788,1.74827 -4.30577,1.02547 -8.14931,1.86698 -8.5412,1.87003 -0.39188,0.003 -0.88298,0.17599 -1.09132,0.38433 -0.20835,0.20834 -0.25705,0.37881 -0.10823,0.37881 0.1889,0 0.27057,3.92737 0.27057,13.01196 l 0,13.01197 -0.69448,0.26589 -0.69448,0.2659 0.84975,0.3592 c 0.46735,0.19756 1.03556,0.3598 1.26269,0.36053 0.22712,7.6e-4 3.76248,0.79623 7.85636,1.76777 4.09388,0.97154 7.61679,1.76121 7.82868,1.75483 0.21638,-0.007 -0.27897,-0.61885 -1.12996,-1.39683 l -1.51523,-1.38523 1.13642,0.16049 c 10.8694,1.53504 22.89374,6.26127 36.11296,14.1944 3.85641,2.31432 11.61675,7.4006 11.61675,7.61385 0,0.0853 -1.56258,0.41982 -3.4724,0.74336 -7.60299,1.28802 -17.97308,3.51168 -25.69576,5.50993 l -3.78807,0.98017 -4.29315,-0.411 c -2.36123,-0.22605 -4.33808,-0.37464 -4.393,-0.3302 -0.0549,0.0444 0.0856,0.73256 0.31217,1.52915 0.22661,0.79659 0.32836,1.52355 0.22612,1.61545 -0.10224,0.0919 -1.32232,0.53669 -2.71128,0.98841 -8.11693,2.63977 -17.44434,6.49427 -25.16638,10.39986 -2.82601,1.42931 -5.22342,2.63804 -5.3276,2.68606 -0.10417,0.048 -0.1894,-27.35875 -0.1894,-60.90392 z"
       id="path7186"
       inkscape:connector-curvature="0" />
    <path
       style="opacity:1;fill:#ff0064;fill-opacity:0.78431373;stroke:none;stroke-width:2;stroke-linecap:round;stroke-linejoin:miter;stroke-miterlimit:4;stroke-dasharray:4, 4;stroke-dashoffset:0;stroke-opacity:1"
       d="m 260.97299,930.74476 c -0.0274,-6.5456 -0.0854,-12.3974 -0.12886,-13.00402 l -0.0788,-1.10289 0.73269,0.23326 0.73266,0.23326 0.0255,12.46189 c 0.0202,9.82593 0.0618,12.48276 0.1969,12.56067 0.10934,0.063 -0.093,0.17493 -0.55863,0.30911 -0.40149,0.11567 -0.76182,0.21021 -0.80071,0.21006 -0.0389,-1.3e-4 -0.0933,-5.35574 -0.12069,-11.90134 z"
       id="path7188"
       inkscape:connector-curvature="0" />
  </g>
</svg>
