<?xml version="1.0" encoding="utf-8" standalone="no"?>
<!DOCTYPE svg PUBLIC "-//W3C//DTD SVG 1.1//EN"
  "http://www.w3.org/Graphics/SVG/1.1/DTD/svg11.dtd">
<!-- Created with matplotlib (http://matplotlib.org/) -->
<svg height="288pt" version="1.1" viewBox="0 0 360 288" width="360pt" xmlns="http://www.w3.org/2000/svg" xmlns:xlink="http://www.w3.org/1999/xlink">
 <defs>
  <style type="text/css">
*{stroke-linecap:butt;stroke-linejoin:round;}
  </style>
 </defs>
 <g id="figure_1">
  <g id="patch_1">
   <path d="M 0 288 
L 360 288 
L 360 0 
L 0 0 
z
" style="fill:none;opacity:0;"/>
  </g>
  <g id="patch_2">
   <path d="M 13.32 274.68 
L 346.68 274.68 
L 346.68 13.32 
L 13.32 13.32 
z
" style="fill:#ffffff;"/>
  </g>
  <g id="pane3d_1">
   <g id="patch_3">
    <path d="M 57.512019 216.928651 
L 152.921395 152.849101 
L 151.33293 30.403598 
L 50.603856 87.977756 
" style="fill:#f2f2f2;opacity:0.5;stroke:#f2f2f2;stroke-linejoin:miter;"/>
   </g>
  </g>
  <g id="pane3d_2">
   <g id="patch_4">
    <path d="M 152.921395 152.849101 
L 307.475615 188.673704 
L 313.941978 62.535907 
L 151.33293 30.403598 
" style="fill:#e6e6e6;opacity:0.5;stroke:#e6e6e6;stroke-linejoin:miter;"/>
   </g>
  </g>
  <g id="pane3d_3">
   <g id="patch_5">
    <path d="M 57.512019 216.928651 
L 220.123942 258.652239 
L 307.475615 188.673704 
L 152.921395 152.849101 
" style="fill:#ececec;opacity:0.5;stroke:#ececec;stroke-linejoin:miter;"/>
   </g>
  </g>
  <g id="axis3d_1">
   <g id="line2d_1">
    <path d="M 57.512019 216.928651 
L 220.123942 258.652239 
" style="fill:none;stroke:#000000;stroke-linecap:square;stroke-width:0.8;"/>
   </g>
   <g id="text_1">
    <!-- time (t) -->
    <defs>
     <path d="M 18.3125 70.21875 
L 18.3125 54.6875 
L 36.8125 54.6875 
L 36.8125 47.703125 
L 18.3125 47.703125 
L 18.3125 18.015625 
Q 18.3125 11.328125 20.140625 9.421875 
Q 21.96875 7.515625 27.59375 7.515625 
L 36.8125 7.515625 
L 36.8125 0 
L 27.59375 0 
Q 17.1875 0 13.234375 3.875 
Q 9.28125 7.765625 9.28125 18.015625 
L 9.28125 47.703125 
L 2.6875 47.703125 
L 2.6875 54.6875 
L 9.28125 54.6875 
L 9.28125 70.21875 
z
" id="DejaVuSans-74"/>
     <path d="M 9.421875 54.6875 
L 18.40625 54.6875 
L 18.40625 0 
L 9.421875 0 
z
M 9.421875 75.984375 
L 18.40625 75.984375 
L 18.40625 64.59375 
L 9.421875 64.59375 
z
" id="DejaVuSans-69"/>
     <path d="M 52 44.1875 
Q 55.375 50.25 60.0625 53.125 
Q 64.75 56 71.09375 56 
Q 79.640625 56 84.28125 50.015625 
Q 88.921875 44.046875 88.921875 33.015625 
L 88.921875 0 
L 79.890625 0 
L 79.890625 32.71875 
Q 79.890625 40.578125 77.09375 44.375 
Q 74.3125 48.1875 68.609375 48.1875 
Q 61.625 48.1875 57.5625 43.546875 
Q 53.515625 38.921875 53.515625 30.90625 
L 53.515625 0 
L 44.484375 0 
L 44.484375 32.71875 
Q 44.484375 40.625 41.703125 44.40625 
Q 38.921875 48.1875 33.109375 48.1875 
Q 26.21875 48.1875 22.15625 43.53125 
Q 18.109375 38.875 18.109375 30.90625 
L 18.109375 0 
L 9.078125 0 
L 9.078125 54.6875 
L 18.109375 54.6875 
L 18.109375 46.1875 
Q 21.1875 51.21875 25.484375 53.609375 
Q 29.78125 56 35.6875 56 
Q 41.65625 56 45.828125 52.96875 
Q 50 49.953125 52 44.1875 
" id="DejaVuSans-6d"/>
     <path d="M 56.203125 29.59375 
L 56.203125 25.203125 
L 14.890625 25.203125 
Q 15.484375 15.921875 20.484375 11.0625 
Q 25.484375 6.203125 34.421875 6.203125 
Q 39.59375 6.203125 44.453125 7.46875 
Q 49.3125 8.734375 54.109375 11.28125 
L 54.109375 2.78125 
Q 49.265625 0.734375 44.1875 -0.34375 
Q 39.109375 -1.421875 33.890625 -1.421875 
Q 20.796875 -1.421875 13.15625 6.1875 
Q 5.515625 13.8125 5.515625 26.8125 
Q 5.515625 40.234375 12.765625 48.109375 
Q 20.015625 56 32.328125 56 
Q 43.359375 56 49.78125 48.890625 
Q 56.203125 41.796875 56.203125 29.59375 
M 47.21875 32.234375 
Q 47.125 39.59375 43.09375 43.984375 
Q 39.0625 48.390625 32.421875 48.390625 
Q 24.90625 48.390625 20.390625 44.140625 
Q 15.875 39.890625 15.1875 32.171875 
z
" id="DejaVuSans-65"/>
     <path id="DejaVuSans-20"/>
     <path d="M 31 75.875 
Q 24.46875 64.65625 21.28125 53.65625 
Q 18.109375 42.671875 18.109375 31.390625 
Q 18.109375 20.125 21.3125 9.0625 
Q 24.515625 -2 31 -13.1875 
L 23.1875 -13.1875 
Q 15.875 -1.703125 12.234375 9.375 
Q 8.59375 20.453125 8.59375 31.390625 
Q 8.59375 42.28125 12.203125 53.3125 
Q 15.828125 64.359375 23.1875 75.875 
z
" id="DejaVuSans-28"/>
     <path d="M 8.015625 75.875 
L 15.828125 75.875 
Q 23.140625 64.359375 26.78125 53.3125 
Q 30.421875 42.28125 30.421875 31.390625 
Q 30.421875 20.453125 26.78125 9.375 
Q 23.140625 -1.703125 15.828125 -13.1875 
L 8.015625 -13.1875 
Q 14.5 -2 17.703125 9.0625 
Q 20.90625 20.125 20.90625 31.390625 
Q 20.90625 42.671875 17.703125 53.65625 
Q 14.5 64.65625 8.015625 75.875 
" id="DejaVuSans-29"/>
    </defs>
    <g transform="translate(102.497246 267.141042)rotate(-345.609275)scale(0.1 -0.1)">
     <use xlink:href="#DejaVuSans-74"/>
     <use x="39.208984" xlink:href="#DejaVuSans-69"/>
     <use x="66.992188" xlink:href="#DejaVuSans-6d"/>
     <use x="164.404297" xlink:href="#DejaVuSans-65"/>
     <use x="225.927734" xlink:href="#DejaVuSans-20"/>
     <use x="257.714844" xlink:href="#DejaVuSans-28"/>
     <use x="296.728516" xlink:href="#DejaVuSans-74"/>
     <use x="335.9375" xlink:href="#DejaVuSans-29"/>
    </g>
   </g>
   <g id="Line3DCollection_1">
    <path d="M 60.621728 217.726552 
L 155.886751 153.53645 
L 154.446171 31.018789 
" style="fill:none;stroke:#b0b0b0;stroke-width:0.8;"/>
    <path d="M 84.562981 223.86949 
L 178.703898 158.825307 
L 178.40993 35.75414 
" style="fill:none;stroke:#b0b0b0;stroke-width:0.8;"/>
    <path d="M 108.83593 230.097536 
L 201.81415 164.182105 
L 202.697229 40.553424 
" style="fill:none;stroke:#b0b0b0;stroke-width:0.8;"/>
    <path d="M 133.447519 236.412471 
L 225.223192 169.608159 
L 227.314664 45.417944 
" style="fill:none;stroke:#b0b0b0;stroke-width:0.8;"/>
    <path d="M 158.404882 242.816127 
L 248.936855 175.104823 
L 252.269013 50.349041 
" style="fill:none;stroke:#b0b0b0;stroke-width:0.8;"/>
    <path d="M 183.715358 249.310385 
L 272.961126 180.673484 
L 277.56724 55.348089 
" style="fill:none;stroke:#b0b0b0;stroke-width:0.8;"/>
    <path d="M 209.386495 255.897184 
L 297.302147 186.315565 
L 303.216502 60.416503 
" style="fill:none;stroke:#b0b0b0;stroke-width:0.8;"/>
    <path d="M 235.426056 262.578514 
L 321.966223 192.032528 
L 329.224157 65.555738 
" style="fill:none;stroke:#b0b0b0;stroke-width:0.8;"/>
   </g>
   <g id="xtick_1">
    <g id="line2d_2">
     <path d="M 61.442371 217.173598 
L 58.977387 218.834518 
" style="fill:none;stroke:#000000;stroke-linecap:square;stroke-width:0.8;"/>
    </g>
    <g id="text_2">
     <!-- 0 -->
     <defs>
      <path d="M 31.78125 66.40625 
Q 24.171875 66.40625 20.328125 58.90625 
Q 16.5 51.421875 16.5 36.375 
Q 16.5 21.390625 20.328125 13.890625 
Q 24.171875 6.390625 31.78125 6.390625 
Q 39.453125 6.390625 43.28125 13.890625 
Q 47.125 21.390625 47.125 36.375 
Q 47.125 51.421875 43.28125 58.90625 
Q 39.453125 66.40625 31.78125 66.40625 
M 31.78125 74.21875 
Q 44.046875 74.21875 50.515625 64.515625 
Q 56.984375 54.828125 56.984375 36.375 
Q 56.984375 17.96875 50.515625 8.265625 
Q 44.046875 -1.421875 31.78125 -1.421875 
Q 19.53125 -1.421875 13.0625 8.265625 
Q 6.59375 17.96875 6.59375 36.375 
Q 6.59375 54.828125 13.0625 64.515625 
Q 19.53125 74.21875 31.78125 74.21875 
" id="DejaVuSans-30"/>
     </defs>
     <g transform="translate(50.280089 239.573943)scale(0.1 -0.1)">
      <use xlink:href="#DejaVuSans-30"/>
     </g>
    </g>
   </g>
   <g id="xtick_2">
    <g id="line2d_3">
     <path d="M 85.374338 223.308904 
L 82.937225 224.992763 
" style="fill:none;stroke:#000000;stroke-linecap:square;stroke-width:0.8;"/>
    </g>
    <g id="text_3">
     <!-- 2 -->
     <defs>
      <path d="M 19.1875 8.296875 
L 53.609375 8.296875 
L 53.609375 0 
L 7.328125 0 
L 7.328125 8.296875 
Q 12.9375 14.109375 22.625 23.890625 
Q 32.328125 33.6875 34.8125 36.53125 
Q 39.546875 41.84375 41.421875 45.53125 
Q 43.3125 49.21875 43.3125 52.78125 
Q 43.3125 58.59375 39.234375 62.25 
Q 35.15625 65.921875 28.609375 65.921875 
Q 23.96875 65.921875 18.8125 64.3125 
Q 13.671875 62.703125 7.8125 59.421875 
L 7.8125 69.390625 
Q 13.765625 71.78125 18.9375 73 
Q 24.125 74.21875 28.421875 74.21875 
Q 39.75 74.21875 46.484375 68.546875 
Q 53.21875 62.890625 53.21875 53.421875 
Q 53.21875 48.921875 51.53125 44.890625 
Q 49.859375 40.875 45.40625 35.40625 
Q 44.1875 33.984375 37.640625 27.21875 
Q 31.109375 20.453125 19.1875 8.296875 
" id="DejaVuSans-32"/>
     </defs>
     <g transform="translate(74.21829 245.826979)scale(0.1 -0.1)">
      <use xlink:href="#DejaVuSans-32"/>
     </g>
    </g>
   </g>
   <g id="xtick_3">
    <g id="line2d_4">
     <path d="M 109.637665 229.529159 
L 107.229436 231.236435 
" style="fill:none;stroke:#000000;stroke-linecap:square;stroke-width:0.8;"/>
    </g>
    <g id="text_4">
     <!-- 4 -->
     <defs>
      <path d="M 37.796875 64.3125 
L 12.890625 25.390625 
L 37.796875 25.390625 
z
M 35.203125 72.90625 
L 47.609375 72.90625 
L 47.609375 25.390625 
L 58.015625 25.390625 
L 58.015625 17.1875 
L 47.609375 17.1875 
L 47.609375 0 
L 37.796875 0 
L 37.796875 17.1875 
L 4.890625 17.1875 
L 4.890625 26.703125 
z
" id="DejaVuSans-34"/>
     </defs>
     <g transform="translate(98.488791 252.166818)scale(0.1 -0.1)">
      <use xlink:href="#DejaVuSans-34"/>
     </g>
    </g>
   </g>
   <g id="xtick_4">
    <g id="line2d_5">
     <path d="M 134.239282 235.83614 
L 131.860982 237.567325 
" style="fill:none;stroke:#000000;stroke-linecap:square;stroke-width:0.8;"/>
    </g>
    <g id="text_5">
     <!-- 6 -->
     <defs>
      <path d="M 33.015625 40.375 
Q 26.375 40.375 22.484375 35.828125 
Q 18.609375 31.296875 18.609375 23.390625 
Q 18.609375 15.53125 22.484375 10.953125 
Q 26.375 6.390625 33.015625 6.390625 
Q 39.65625 6.390625 43.53125 10.953125 
Q 47.40625 15.53125 47.40625 23.390625 
Q 47.40625 31.296875 43.53125 35.828125 
Q 39.65625 40.375 33.015625 40.375 
M 52.59375 71.296875 
L 52.59375 62.3125 
Q 48.875 64.0625 45.09375 64.984375 
Q 41.3125 65.921875 37.59375 65.921875 
Q 27.828125 65.921875 22.671875 59.328125 
Q 17.53125 52.734375 16.796875 39.40625 
Q 19.671875 43.65625 24.015625 45.921875 
Q 28.375 48.1875 33.59375 48.1875 
Q 44.578125 48.1875 50.953125 41.515625 
Q 57.328125 34.859375 57.328125 23.390625 
Q 57.328125 12.15625 50.6875 5.359375 
Q 44.046875 -1.421875 33.015625 -1.421875 
Q 20.359375 -1.421875 13.671875 8.265625 
Q 6.984375 17.96875 6.984375 36.375 
Q 6.984375 53.65625 15.1875 63.9375 
Q 23.390625 74.21875 37.203125 74.21875 
Q 40.921875 74.21875 44.703125 73.484375 
Q 48.484375 72.75 52.59375 71.296875 
" id="DejaVuSans-36"/>
     </defs>
     <g transform="translate(123.09856 258.595279)scale(0.1 -0.1)">
      <use xlink:href="#DejaVuSans-36"/>
     </g>
    </g>
   </g>
   <g id="xtick_5">
    <g id="line2d_6">
     <path d="M 159.186314 242.231672 
L 156.839026 243.987273 
" style="fill:none;stroke:#000000;stroke-linecap:square;stroke-width:0.8;"/>
    </g>
    <g id="text_6">
     <!-- 8 -->
     <defs>
      <path d="M 31.78125 34.625 
Q 24.75 34.625 20.71875 30.859375 
Q 16.703125 27.09375 16.703125 20.515625 
Q 16.703125 13.921875 20.71875 10.15625 
Q 24.75 6.390625 31.78125 6.390625 
Q 38.8125 6.390625 42.859375 10.171875 
Q 46.921875 13.96875 46.921875 20.515625 
Q 46.921875 27.09375 42.890625 30.859375 
Q 38.875 34.625 31.78125 34.625 
M 21.921875 38.8125 
Q 15.578125 40.375 12.03125 44.71875 
Q 8.5 49.078125 8.5 55.328125 
Q 8.5 64.0625 14.71875 69.140625 
Q 20.953125 74.21875 31.78125 74.21875 
Q 42.671875 74.21875 48.875 69.140625 
Q 55.078125 64.0625 55.078125 55.328125 
Q 55.078125 49.078125 51.53125 44.71875 
Q 48 40.375 41.703125 38.8125 
Q 48.828125 37.15625 52.796875 32.3125 
Q 56.78125 27.484375 56.78125 20.515625 
Q 56.78125 9.90625 50.3125 4.234375 
Q 43.84375 -1.421875 31.78125 -1.421875 
Q 19.734375 -1.421875 13.25 4.234375 
Q 6.78125 9.90625 6.78125 20.515625 
Q 6.78125 27.484375 10.78125 32.3125 
Q 14.796875 37.15625 21.921875 38.8125 
M 18.3125 54.390625 
Q 18.3125 48.734375 21.84375 45.5625 
Q 25.390625 42.390625 31.78125 42.390625 
Q 38.140625 42.390625 41.71875 45.5625 
Q 45.3125 48.734375 45.3125 54.390625 
Q 45.3125 60.0625 41.71875 63.234375 
Q 38.140625 66.40625 31.78125 66.40625 
Q 25.390625 66.40625 21.84375 63.234375 
Q 18.3125 60.0625 18.3125 54.390625 
" id="DejaVuSans-38"/>
     </defs>
     <g transform="translate(148.054761 265.114233)scale(0.1 -0.1)">
      <use xlink:href="#DejaVuSans-38"/>
     </g>
    </g>
   </g>
   <g id="xtick_6">
    <g id="line2d_7">
     <path d="M 184.486087 248.717635 
L 182.170929 250.498171 
" style="fill:none;stroke:#000000;stroke-linecap:square;stroke-width:0.8;"/>
    </g>
    <g id="text_7">
     <!-- 10 -->
     <defs>
      <path d="M 12.40625 8.296875 
L 28.515625 8.296875 
L 28.515625 63.921875 
L 10.984375 60.40625 
L 10.984375 69.390625 
L 28.421875 72.90625 
L 38.28125 72.90625 
L 38.28125 8.296875 
L 54.390625 8.296875 
L 54.390625 0 
L 12.40625 0 
z
" id="DejaVuSans-31"/>
     </defs>
     <g transform="translate(170.183511 271.725605)scale(0.1 -0.1)">
      <use xlink:href="#DejaVuSans-31"/>
      <use x="63.623047" xlink:href="#DejaVuSans-30"/>
     </g>
    </g>
   </g>
   <g id="xtick_7">
    <g id="line2d_8">
     <path d="M 210.146135 255.29596 
L 207.864265 257.101966 
" style="fill:none;stroke:#000000;stroke-linecap:square;stroke-width:0.8;"/>
    </g>
    <g id="text_8">
     <!-- 12 -->
     <g transform="translate(195.854888 278.431374)scale(0.1 -0.1)">
      <use xlink:href="#DejaVuSans-31"/>
      <use x="63.623047" xlink:href="#DejaVuSans-32"/>
     </g>
    </g>
   </g>
   <g id="xtick_8">
    <g id="line2d_9">
     <path d="M 236.174209 261.968633 
L 233.926825 263.80066 
" style="fill:none;stroke:#000000;stroke-linecap:square;stroke-width:0.8;"/>
    </g>
    <g id="text_9">
     <!-- 14 -->
     <g transform="translate(221.895436 285.233577)scale(0.1 -0.1)">
      <use xlink:href="#DejaVuSans-31"/>
      <use x="63.623047" xlink:href="#DejaVuSans-34"/>
     </g>
    </g>
   </g>
  </g>
  <g id="axis3d_2">
   <g id="line2d_10">
    <path d="M 307.475615 188.673704 
L 220.123942 258.652239 
" style="fill:none;stroke:#000000;stroke-linecap:square;stroke-width:0.8;"/>
   </g>
   <g id="text_10">
    <!-- n -->
    <defs>
     <path d="M 54.890625 33.015625 
L 54.890625 0 
L 45.90625 0 
L 45.90625 32.71875 
Q 45.90625 40.484375 42.875 44.328125 
Q 39.84375 48.1875 33.796875 48.1875 
Q 26.515625 48.1875 22.3125 43.546875 
Q 18.109375 38.921875 18.109375 30.90625 
L 18.109375 0 
L 9.078125 0 
L 9.078125 54.6875 
L 18.109375 54.6875 
L 18.109375 46.1875 
Q 21.34375 51.125 25.703125 53.5625 
Q 30.078125 56 35.796875 56 
Q 45.21875 56 50.046875 50.171875 
Q 54.890625 44.34375 54.890625 33.015625 
" id="DejaVuSans-6e"/>
    </defs>
    <g transform="translate(288.359584 251.357958)scale(0.1 -0.1)">
     <use xlink:href="#DejaVuSans-6e"/>
    </g>
   </g>
   <g id="Line3DCollection_2">
    <path d="M 52.779272 86.734344 
L 59.564699 215.550015 
L 222.009442 257.141741 
" style="fill:none;stroke:#b0b0b0;stroke-width:0.8;"/>
    <path d="M 52.779272 86.734344 
L 59.564699 215.550015 
L 222.009442 257.141741 
" style="fill:none;stroke:#b0b0b0;stroke-width:0.8;"/>
    <path d="M 52.779272 86.734344 
L 59.564699 215.550015 
L 222.009442 257.141741 
" style="fill:none;stroke:#b0b0b0;stroke-width:0.8;"/>
    <path d="M 52.779272 86.734344 
L 59.564699 215.550015 
L 222.009442 257.141741 
" style="fill:none;stroke:#b0b0b0;stroke-width:0.8;"/>
    <path d="M 102.942646 58.062245 
L 106.993814 183.695322 
L 265.499934 222.300955 
" style="fill:none;stroke:#b0b0b0;stroke-width:0.8;"/>
    <path d="M 102.942646 58.062245 
L 106.993814 183.695322 
L 265.499934 222.300955 
" style="fill:none;stroke:#b0b0b0;stroke-width:0.8;"/>
    <path d="M 102.942646 58.062245 
L 106.993814 183.695322 
L 265.499934 222.300955 
" style="fill:none;stroke:#b0b0b0;stroke-width:0.8;"/>
    <path d="M 102.942646 58.062245 
L 106.993814 183.695322 
L 265.499934 222.300955 
" style="fill:none;stroke:#b0b0b0;stroke-width:0.8;"/>
    <path d="M 149.467517 31.469821 
L 151.147723 154.040348 
L 305.857072 189.97034 
" style="fill:none;stroke:#b0b0b0;stroke-width:0.8;"/>
   </g>
   <g id="xtick_9">
    <g id="line2d_11">
     <path d="M 220.649711 256.793601 
L 224.731954 257.838802 
" style="fill:none;stroke:#000000;stroke-linecap:square;stroke-width:0.8;"/>
    </g>
    <g id="text_11">
     <!-- 0 -->
     <g transform="translate(231.296654 277.295376)scale(0.1 -0.1)">
      <use xlink:href="#DejaVuSans-30"/>
     </g>
    </g>
   </g>
   <g id="xtick_10">
    <g id="line2d_12">
     <path d="M 220.649711 256.793601 
L 224.731954 257.838802 
" style="fill:none;stroke:#000000;stroke-linecap:square;stroke-width:0.8;"/>
    </g>
    <g id="text_12">
     <!-- 0 -->
     <g transform="translate(231.296654 277.295376)scale(0.1 -0.1)">
      <use xlink:href="#DejaVuSans-30"/>
     </g>
    </g>
   </g>
   <g id="xtick_11">
    <g id="line2d_13">
     <path d="M 220.649711 256.793601 
L 224.731954 257.838802 
" style="fill:none;stroke:#000000;stroke-linecap:square;stroke-width:0.8;"/>
    </g>
    <g id="text_13">
     <!-- 0 -->
     <g transform="translate(231.296654 277.295376)scale(0.1 -0.1)">
      <use xlink:href="#DejaVuSans-30"/>
     </g>
    </g>
   </g>
   <g id="xtick_12">
    <g id="line2d_14">
     <path d="M 220.649711 256.793601 
L 224.731954 257.838802 
" style="fill:none;stroke:#000000;stroke-linecap:square;stroke-width:0.8;"/>
    </g>
    <g id="text_14">
     <!-- 0 -->
     <g transform="translate(231.296654 277.295376)scale(0.1 -0.1)">
      <use xlink:href="#DejaVuSans-30"/>
     </g>
    </g>
   </g>
   <g id="xtick_13">
    <g id="line2d_15">
     <path d="M 264.175364 221.978344 
L 268.151933 222.946874 
" style="fill:none;stroke:#000000;stroke-linecap:square;stroke-width:0.8;"/>
    </g>
    <g id="text_15">
     <!-- 1 -->
     <g transform="translate(274.299002 242.00363)scale(0.1 -0.1)">
      <use xlink:href="#DejaVuSans-31"/>
     </g>
    </g>
   </g>
   <g id="xtick_14">
    <g id="line2d_16">
     <path d="M 264.175364 221.978344 
L 268.151933 222.946874 
" style="fill:none;stroke:#000000;stroke-linecap:square;stroke-width:0.8;"/>
    </g>
    <g id="text_16">
     <!-- 1 -->
     <g transform="translate(274.299002 242.00363)scale(0.1 -0.1)">
      <use xlink:href="#DejaVuSans-31"/>
     </g>
    </g>
   </g>
   <g id="xtick_15">
    <g id="line2d_17">
     <path d="M 264.175364 221.978344 
L 268.151933 222.946874 
" style="fill:none;stroke:#000000;stroke-linecap:square;stroke-width:0.8;"/>
    </g>
    <g id="text_17">
     <!-- 1 -->
     <g transform="translate(274.299002 242.00363)scale(0.1 -0.1)">
      <use xlink:href="#DejaVuSans-31"/>
     </g>
    </g>
   </g>
   <g id="xtick_16">
    <g id="line2d_18">
     <path d="M 264.175364 221.978344 
L 268.151933 222.946874 
" style="fill:none;stroke:#000000;stroke-linecap:square;stroke-width:0.8;"/>
    </g>
    <g id="text_18">
     <!-- 1 -->
     <g transform="translate(274.299002 242.00363)scale(0.1 -0.1)">
      <use xlink:href="#DejaVuSans-31"/>
     </g>
    </g>
   </g>
   <g id="xtick_17">
    <g id="line2d_19">
     <path d="M 304.566217 189.670549 
L 308.441469 190.570545 
" style="fill:none;stroke:#000000;stroke-linecap:square;stroke-width:0.8;"/>
    </g>
    <g id="text_19">
     <!-- 2 -->
     <g transform="translate(314.204705 209.253279)scale(0.1 -0.1)">
      <use xlink:href="#DejaVuSans-32"/>
     </g>
    </g>
   </g>
  </g>
  <g id="axis3d_3">
   <g id="line2d_20">
    <path d="M 307.475615 188.673704 
L 313.941978 62.535907 
" style="fill:none;stroke:#000000;stroke-linecap:square;stroke-width:0.8;"/>
   </g>
   <g id="text_20">
    <!-- Intensity -->
    <defs>
     <path d="M 9.8125 72.90625 
L 19.671875 72.90625 
L 19.671875 0 
L 9.8125 0 
z
" id="DejaVuSans-49"/>
     <path d="M 44.28125 53.078125 
L 44.28125 44.578125 
Q 40.484375 46.53125 36.375 47.5 
Q 32.28125 48.484375 27.875 48.484375 
Q 21.1875 48.484375 17.84375 46.4375 
Q 14.5 44.390625 14.5 40.28125 
Q 14.5 37.15625 16.890625 35.375 
Q 19.28125 33.59375 26.515625 31.984375 
L 29.59375 31.296875 
Q 39.15625 29.25 43.1875 25.515625 
Q 47.21875 21.78125 47.21875 15.09375 
Q 47.21875 7.46875 41.1875 3.015625 
Q 35.15625 -1.421875 24.609375 -1.421875 
Q 20.21875 -1.421875 15.453125 -0.5625 
Q 10.6875 0.296875 5.421875 2 
L 5.421875 11.28125 
Q 10.40625 8.6875 15.234375 7.390625 
Q 20.0625 6.109375 24.8125 6.109375 
Q 31.15625 6.109375 34.5625 8.28125 
Q 37.984375 10.453125 37.984375 14.40625 
Q 37.984375 18.0625 35.515625 20.015625 
Q 33.0625 21.96875 24.703125 23.78125 
L 21.578125 24.515625 
Q 13.234375 26.265625 9.515625 29.90625 
Q 5.8125 33.546875 5.8125 39.890625 
Q 5.8125 47.609375 11.28125 51.796875 
Q 16.75 56 26.8125 56 
Q 31.78125 56 36.171875 55.265625 
Q 40.578125 54.546875 44.28125 53.078125 
" id="DejaVuSans-73"/>
     <path d="M 32.171875 -5.078125 
Q 28.375 -14.84375 24.75 -17.8125 
Q 21.140625 -20.796875 15.09375 -20.796875 
L 7.90625 -20.796875 
L 7.90625 -13.28125 
L 13.1875 -13.28125 
Q 16.890625 -13.28125 18.9375 -11.515625 
Q 21 -9.765625 23.484375 -3.21875 
L 25.09375 0.875 
L 2.984375 54.6875 
L 12.5 54.6875 
L 29.59375 11.921875 
L 46.6875 54.6875 
L 56.203125 54.6875 
z
" id="DejaVuSans-79"/>
    </defs>
    <g transform="translate(352.114364 144.910336)rotate(-87.065342)scale(0.1 -0.1)">
     <use xlink:href="#DejaVuSans-49"/>
     <use x="29.492188" xlink:href="#DejaVuSans-6e"/>
     <use x="92.871094" xlink:href="#DejaVuSans-74"/>
     <use x="132.080078" xlink:href="#DejaVuSans-65"/>
     <use x="193.603516" xlink:href="#DejaVuSans-6e"/>
     <use x="256.982422" xlink:href="#DejaVuSans-73"/>
     <use x="309.082031" xlink:href="#DejaVuSans-69"/>
     <use x="336.865234" xlink:href="#DejaVuSans-74"/>
     <use x="376.074219" xlink:href="#DejaVuSans-79"/>
    </g>
   </g>
   <g id="Line3DCollection_3">
    <path d="M 308.23597 173.841629 
L 152.734254 138.423491 
L 56.700947 201.788811 
" style="fill:none;stroke:#b0b0b0;stroke-width:0.8;"/>
    <path d="M 309.419544 150.75395 
L 152.443141 115.983227 
L 55.437775 178.209873 
" style="fill:none;stroke:#b0b0b0;stroke-width:0.8;"/>
    <path d="M 310.625979 127.220306 
L 152.146643 93.127921 
L 54.149385 154.160188 
" style="fill:none;stroke:#b0b0b0;stroke-width:0.8;"/>
    <path d="M 311.855945 103.227649 
L 151.84461 69.84595 
L 52.835012 129.625519 
" style="fill:none;stroke:#b0b0b0;stroke-width:0.8;"/>
    <path d="M 313.110138 78.762417 
L 151.536885 46.125253 
L 51.493864 104.591044 
" style="fill:none;stroke:#b0b0b0;stroke-width:0.8;"/>
   </g>
   <g id="xtick_18">
    <g id="line2d_21">
     <path d="M 306.938254 173.546053 
L 310.834116 174.433401 
" style="fill:none;stroke:#000000;stroke-linecap:square;stroke-width:0.8;"/>
    </g>
    <g id="text_21">
     <!-- −1.0 -->
     <defs>
      <path d="M 10.59375 35.5 
L 73.1875 35.5 
L 73.1875 27.203125 
L 10.59375 27.203125 
z
" id="DejaVuSans-2212"/>
      <path d="M 10.6875 12.40625 
L 21 12.40625 
L 21 0 
L 10.6875 0 
z
" id="DejaVuSans-2e"/>
     </defs>
     <g transform="translate(314.134013 179.435767)scale(0.1 -0.1)">
      <use xlink:href="#DejaVuSans-2212"/>
      <use x="83.789062" xlink:href="#DejaVuSans-31"/>
      <use x="147.412109" xlink:href="#DejaVuSans-2e"/>
      <use x="179.199219" xlink:href="#DejaVuSans-30"/>
     </g>
    </g>
   </g>
   <g id="xtick_19">
    <g id="line2d_22">
     <path d="M 308.109002 150.463661 
L 312.043393 151.33514 
" style="fill:none;stroke:#000000;stroke-linecap:square;stroke-width:0.8;"/>
    </g>
    <g id="text_22">
     <!-- −0.5 -->
     <defs>
      <path d="M 10.796875 72.90625 
L 49.515625 72.90625 
L 49.515625 64.59375 
L 19.828125 64.59375 
L 19.828125 46.734375 
Q 21.96875 47.46875 24.109375 47.828125 
Q 26.265625 48.1875 28.421875 48.1875 
Q 40.625 48.1875 47.75 41.5 
Q 54.890625 34.8125 54.890625 23.390625 
Q 54.890625 11.625 47.5625 5.09375 
Q 40.234375 -1.421875 26.90625 -1.421875 
Q 22.3125 -1.421875 17.546875 -0.640625 
Q 12.796875 0.140625 7.71875 1.703125 
L 7.71875 11.625 
Q 12.109375 9.234375 16.796875 8.0625 
Q 21.484375 6.890625 26.703125 6.890625 
Q 35.15625 6.890625 40.078125 11.328125 
Q 45.015625 15.765625 45.015625 23.390625 
Q 45.015625 31 40.078125 35.4375 
Q 35.15625 39.890625 26.703125 39.890625 
Q 22.75 39.890625 18.8125 39.015625 
Q 14.890625 38.140625 10.796875 36.28125 
z
" id="DejaVuSans-35"/>
     </defs>
     <g transform="translate(315.486914 156.383984)scale(0.1 -0.1)">
      <use xlink:href="#DejaVuSans-2212"/>
      <use x="83.789062" xlink:href="#DejaVuSans-30"/>
      <use x="147.412109" xlink:href="#DejaVuSans-2e"/>
      <use x="179.199219" xlink:href="#DejaVuSans-35"/>
     </g>
    </g>
   </g>
   <g id="xtick_20">
    <g id="line2d_23">
     <path d="M 309.302357 126.935565 
L 313.276045 127.790393 
" style="fill:none;stroke:#000000;stroke-linecap:square;stroke-width:0.8;"/>
    </g>
    <g id="text_23">
     <!-- 0.0 -->
     <g transform="translate(321.055729 132.888)scale(0.1 -0.1)">
      <use xlink:href="#DejaVuSans-30"/>
      <use x="63.623047" xlink:href="#DejaVuSans-2e"/>
      <use x="95.410156" xlink:href="#DejaVuSans-30"/>
     </g>
    </g>
   </g>
   <g id="xtick_21">
    <g id="line2d_24">
     <path d="M 310.518979 102.948729 
L 314.532756 103.786087 
" style="fill:none;stroke:#000000;stroke-linecap:square;stroke-width:0.8;"/>
    </g>
    <g id="text_24">
     <!-- 0.5 -->
     <g transform="translate(322.46153 108.934852)scale(0.1 -0.1)">
      <use xlink:href="#DejaVuSans-30"/>
      <use x="63.623047" xlink:href="#DejaVuSans-2e"/>
      <use x="95.410156" xlink:href="#DejaVuSans-35"/>
     </g>
    </g>
   </g>
   <g id="xtick_22">
    <g id="line2d_25">
     <path d="M 311.759555 78.489605 
L 315.814238 79.308635 
" style="fill:none;stroke:#000000;stroke-linecap:square;stroke-width:0.8;"/>
    </g>
    <g id="text_25">
     <!-- 1.0 -->
     <g transform="translate(323.894954 84.511066)scale(0.1 -0.1)">
      <use xlink:href="#DejaVuSans-31"/>
      <use x="63.623047" xlink:href="#DejaVuSans-2e"/>
      <use x="95.410156" xlink:href="#DejaVuSans-30"/>
     </g>
    </g>
   </g>
  </g>
  <g id="axes_1">
   <g id="Line3DCollection_4">
    <path clip-path="url(#pbe0202fbaa)" d="M 108.131834 123.182642 
L 109.261473 91.516972 
L 109.829928 80.192241 
L 110.477888 71.269514 
L 110.96117 66.944291 
L 111.488822 64.070526 
L 111.769782 63.20655 
L 112.062263 62.734406 
L 112.366236 62.658024 
L 112.681587 62.97849 
L 113.008122 63.694036 
L 113.693571 66.289141 
L 114.419501 70.373411 
L 115.181741 75.835128 
L 116.381847 86.274872 
L 118.056064 103.370721 
L 123.873582 166.41502 
L 124.989688 175.701783 
L 125.693671 180.393315 
L 126.363687 183.764439 
L 126.999023 185.744862 
L 127.303677 186.19988 
L 127.59975 186.294645 
L 127.887367 186.028975 
L 128.166704 185.404622 
L 128.701447 183.096498 
L 129.206225 179.422639 
L 129.683917 174.465537 
L 130.357369 164.875803 
L 131.196825 148.868765 
L 134.147248 86.87493 
L 134.887052 77.53626 
L 135.41549 72.900849 
L 135.974159 69.700527 
L 136.265102 68.670023 
L 136.563815 68.030781 
L 136.870251 67.787941 
L 137.184305 67.943795 
L 137.50582 68.497765 
L 137.834584 69.446406 
L 138.512765 72.49983 
L 139.2162 77.021161 
L 140.311355 86.27449 
L 141.442665 97.978475 
L 143.368613 120.983962 
L 146.774817 162.84439 
L 148.197906 177.297747 
L 149.213701 185.224008 
L 149.864655 188.895065 
L 150.494404 191.181698 
L 150.801429 191.790131 
L 151.103334 192.037428 
L 151.400242 191.922597 
L 151.6923 191.446583 
L 151.979683 190.612268 
L 152.541242 187.8899 
L 153.086778 183.816886 
L 153.879895 175.382796 
L 154.650411 164.5513 
L 155.910216 142.7519 
L 158.229488 101.473816 
L 159.049462 90.158524 
L 159.902743 81.302604 
L 160.491486 77.052784 
L 161.096386 74.277234 
L 161.404803 73.470166 
L 161.71709 73.05964 
L 162.033128 73.049161 
L 162.352771 73.43936 
L 162.67585 74.227973 
L 163.331514 76.977123 
L 163.998324 81.222296 
L 164.674229 86.847205 
L 165.700242 97.526101 
L 167.078859 114.908201 
L 171.788521 178.357755 
L 172.74892 187.589252 
L 173.378554 192.218443 
L 174.000241 195.508795 
L 174.614716 197.392029 
L 174.919532 197.792995 
L 175.222904 197.830469 
L 175.524971 197.504587 
L 175.825879 196.817428 
L 176.42483 194.377277 
L 177.021017 190.565217 
L 177.615734 185.466719 
L 178.507847 175.665722 
L 179.703629 159.395488 
L 183.710539 100.636499 
L 184.664434 90.490299 
L 185.30457 85.244036 
L 185.946883 81.394236 
L 186.590206 79.054809 
L 186.911863 78.475566 
L 187.233306 78.297228 
L 187.554379 78.521641 
L 187.87493 79.147744 
L 188.194809 80.171584 
L 188.831994 83.38243 
L 189.464906 88.066783 
L 190.404467 97.565063 
L 191.330666 109.501077 
L 192.843695 132.828664 
L 195.495526 174.95224 
L 196.666457 189.374019 
L 197.551858 197.220322 
L 198.148467 200.814075 
L 198.75188 203.00646 
L 199.056569 203.562099 
L 199.363458 203.753217 
L 199.672693 203.579133 
L 199.984407 203.041117 
L 200.298721 202.142387 
L 200.935552 199.285343 
L 201.58383 195.072281 
L 202.578403 186.424705 
L 203.599285 175.385165 
L 205.353032 153.281029 
L 208.241612 115.930312 
L 209.684793 100.419176 
L 210.748627 91.63344 
L 211.443884 87.461566 
L 212.125095 84.786917 
L 212.459766 84.038133 
L 212.790175 83.690604 
L 213.116131 83.747405 
L 213.437473 84.208693 
L 213.754076 85.071707 
L 214.372737 87.977442 
L 214.971838 92.385825 
L 215.551706 98.175933 
L 216.387648 109.096304 
L 217.448336 126.766315 
L 220.993841 190.615329 
L 221.795374 199.788861 
L 222.350706 204.353811 
L 222.925843 207.561462 
L 223.522942 209.345585 
L 223.830282 209.691552 
L 224.143717 209.670805 
L 224.463386 209.283797 
L 224.789391 208.532941 
L 225.460656 205.959065 
L 226.157633 202.007241 
L 226.879846 196.76595 
L 228.007908 186.751965 
L 229.584734 170.217092 
L 234.949483 111.035054 
L 236.144481 100.931645 
L 236.913398 95.746104 
L 237.655116 91.981502 
L 238.366092 89.749721 
L 238.709166 89.231869 
L 239.043606 89.119425 
L 239.36922 89.413776 
L 239.685879 90.113371 
L 239.993522 91.213731 
L 240.581845 94.584502 
L 241.135027 99.434126 
L 241.9033 109.180104 
L 242.607376 121.350009 
L 243.679166 145.000673 
L 245.538457 187.383336 
L 246.212865 198.571142 
L 246.944365 207.266134 
L 247.470887 211.464391 
L 248.032555 214.276939 
L 248.327433 215.144395 
L 248.632037 215.646284 
L 248.946578 215.780281 
L 249.271214 215.546019 
L 249.60605 214.945099 
L 250.306463 212.659458 
L 251.047537 208.975138 
L 251.828073 203.974587 
L 253.067935 194.259214 
L 254.831416 177.979921 
L 261.353769 114.49607 
L 262.65991 104.854487 
L 263.484003 100.045916 
L 264.26411 96.702187 
L 264.636236 95.612676 
L 264.995806 94.923577 
L 265.342478 94.640451 
L 265.676001 94.76593 
L 265.996221 95.29969 
L 266.303077 96.238454 
L 266.303077 96.238454 
" style="fill:none;stroke:#1f77b4;stroke-width:1.5;"/>
    <path clip-path="url(#pbe0202fbaa)" d="M 153.368687 94.915766 
L 154.090659 82.223264 
L 154.614733 76.910151 
L 154.895266 75.735243 
L 155.189029 75.664923 
L 155.495727 76.707146 
L 155.814313 78.804655 
L 156.479739 85.63697 
L 158.511358 111.190846 
L 158.828382 113.687234 
L 159.134777 115.198888 
L 159.430099 115.648012 
L 159.714517 115.013839 
L 159.988781 113.333588 
L 160.512444 107.260805 
L 162.312035 79.480498 
L 162.593113 77.802448 
L 162.883951 77.204157 
L 163.184498 77.72456 
L 163.494133 79.336977 
L 164.135705 85.417782 
L 165.126356 98.802851 
L 166.102252 111.402507 
L 166.723141 116.319719 
L 167.022195 117.278898 
L 167.313554 117.155782 
L 167.597668 115.960236 
L 167.875372 113.759628 
L 168.41645 106.878954 
L 170.037921 82.280446 
L 170.322764 80.12064 
L 170.613946 79.001513 
L 170.911474 78.992494 
L 171.214976 80.097979 
L 171.523738 82.25703 
L 172.152864 89.193419 
L 174.042136 114.760468 
L 174.346257 117.213729 
L 174.645892 118.673671 
L 174.941103 119.065329 
L 175.232207 118.371045 
L 175.519737 116.63128 
L 176.087064 110.454015 
L 178.082125 82.681829 
L 178.3769 81.055877 
L 178.674655 80.516797 
L 178.97508 81.100093 
L 179.277709 82.775425 
L 179.887214 88.967783 
L 181.105955 107.066171 
L 181.707965 115.003885 
L 182.303663 119.834805 
L 182.599574 120.738789 
L 182.894624 120.556327 
L 183.189209 119.30049 
L 183.483744 117.041901 
L 184.074202 110.064623 
L 185.567853 88.509077 
L 186.170691 83.362842 
L 186.471948 82.300053 
L 186.772515 82.352731 
L 187.07199 83.521685 
L 187.370046 85.742287 
L 187.961152 92.782184 
L 189.706343 118.358193 
L 189.997974 120.767679 
L 190.291442 122.175378 
L 190.587285 122.509181 
L 190.885929 121.754559 
L 191.187648 119.955228 
L 191.800493 113.673908 
L 193.993242 85.914756 
L 194.301216 84.341529 
L 194.605223 83.862137 
L 194.904733 84.508625 
L 195.199484 86.246975 
L 195.775154 92.550499 
L 197.731235 121.480529 
L 198.019203 123.377241 
L 198.312652 124.225569 
L 198.612207 123.983457 
L 198.918166 122.667191 
L 199.54873 117.161971 
L 200.529699 104.312852 
L 201.519008 91.697791 
L 202.160332 86.637183 
L 202.471067 85.631286 
L 202.773928 85.746049 
L 203.068529 86.97867 
L 203.354978 89.260819 
L 203.906328 96.403639 
L 205.505757 121.984369 
L 205.78533 124.349437 
L 206.073243 125.704367 
L 206.370481 125.979934 
L 206.677538 125.164755 
L 206.994387 123.305814 
L 207.65463 116.920883 
L 209.716829 91.707313 
L 210.047228 89.179713 
L 210.367884 87.659832 
L 210.677456 87.240598 
L 210.975239 87.950569 
L 211.261223 89.752031 
L 211.801267 96.166312 
L 213.592227 125.099897 
L 213.871581 126.947386 
L 214.163273 127.739605 
L 214.468165 127.437543 
L 214.78642 126.060722 
L 215.460046 120.445559 
L 216.534532 107.502101 
L 217.614374 94.917627 
L 218.293535 89.944101 
L 218.613131 88.995643 
L 218.917522 89.17287 
L 219.206382 90.469347 
L 219.480309 92.813031 
L 219.990146 100.058168 
L 221.442184 125.639352 
L 221.710152 127.959363 
L 221.993146 129.261003 
L 222.292562 129.477958 
L 222.608927 128.602013 
L 222.94186 126.683427 
L 223.651407 120.195349 
L 225.896691 94.960528 
L 226.245958 92.477141 
L 226.578758 91.011222 
L 226.893189 90.652611 
L 227.188412 91.426347 
L 227.464722 93.291004 
L 227.967325 99.815612 
L 229.591357 128.747922 
L 229.862655 130.545604 
L 230.153313 131.281267 
L 230.464398 130.918966 
L 230.795889 129.481469 
L 231.51452 123.756661 
L 232.684842 110.720513 
L 233.85587 98.169033 
L 234.57218 93.284037 
L 234.9 92.393559 
L 235.205134 92.633623 
L 235.487368 93.994135 
L 235.747842 96.39933 
L 236.214393 103.746156 
L 237.517468 129.323505 
L 237.774304 131.597821 
L 238.053034 132.845657 
L 238.355432 133.003633 
L 238.682018 132.066719 
L 239.032011 130.088464 
L 239.79279 123.497723 
L 242.22356 98.245933 
L 242.591338 95.807488 
L 242.935723 94.396144 
L 243.254284 94.098612 
L 243.546097 94.936386 
L 243.81181 96.864311 
L 244.275134 103.498795 
L 245.730494 132.42497 
L 245.994315 134.172268 
L 246.284685 134.850934 
L 246.602837 134.42811 
L 246.948524 132.929828 
L 247.71413 127.095694 
L 248.982616 113.968527 
L 250.245449 101.452461 
L 250.998181 96.657442 
L 251.333565 95.82548 
L 251.638636 96.128743 
L 251.91334 97.553459 
L 252.159415 100.020132 
L 252.580887 107.468 
L 253.733484 133.0372 
L 253.979681 135.265187 
L 254.254825 136.458709 
L 254.561033 136.557346 
L 254.898771 135.559268 
L 255.266816 133.521328 
L 256.080782 126.828429 
L 258.699396 101.563985 
L 259.08531 99.17121 
L 259.440698 97.815048 
L 259.762641 97.579044 
L 260.05017 98.48112 
L 260.304345 100.472376 
L 260.726531 107.216263 
L 262.011541 136.131417 
L 262.268485 137.827759 
L 262.559335 138.448992 
L 262.88545 137.965371 
L 263.24631 136.406203 
L 264.060892 130.46308 
L 265.429876 117.246594 
L 266.785097 104.768374 
L 267.573482 100.064771 
L 267.915749 99.291856 
L 268.21993 99.658674 
L 268.486181 101.147754 
L 268.716895 103.67586 
L 269.091478 111.2241 
L 269.887897 133.671081 
L 270.328216 138.961842 
L 270.600473 140.100545 
L 270.911338 140.139489 
L 271.261183 139.080064 
L 271.648289 136.982432 
L 272.517418 130.187898 
L 275.326195 104.91515 
L 275.729847 102.568769 
L 276.095635 101.268392 
L 276.420188 101.094359 
L 276.702542 102.060992 
L 276.944221 104.115632 
L 277.323386 110.968428 
L 278.223524 137.22599 
L 278.436437 139.867645 
L 278.687126 141.512464 
L 278.979245 142.075837 
L 279.31424 141.531151 
L 279.691272 139.911005 
L 280.556858 133.859249 
L 282.527864 115.96543 
L 283.476837 108.117241 
L 283.907901 105.317902 
L 284.300065 103.506491 
L 284.648511 102.793144 
L 284.950953 103.223864 
L 285.207809 104.777459 
L 285.599683 110.845267 
L 285.996119 124.462039 
L 286.407479 137.482206 
L 286.821876 142.688174 
L 287.091967 143.771561 
L 287.408359 143.750465 
L 287.771284 142.629516 
L 288.17848 140.472195 
L 289.104776 133.57657 
L 292.105987 108.299901 
L 292.526957 106.000637 
L 292.902519 104.756641 
L 293.228889 104.645014 
L 293.505157 105.676449 
L 293.733363 107.794515 
L 294.067601 114.755706 
L 294.807086 141.035427 
L 295.007155 143.634046 
L 295.252234 145.226777 
L 295.546434 145.731869 
L 295.891249 145.125859 
L 296.285469 143.444652 
L 297.204116 137.284642 
L 300.774424 108.742031 
L 301.179945 106.983072 
L 301.533843 106.329812 
L 301.833675 106.824773 
L 302.080175 108.443021 
L 302.431586 114.626589 
L 302.739902 128.338222 
L 303.073286 141.324747 
L 303.462663 146.444579 
L 303.731333 147.472158 
L 304.054145 147.390684 
L 304.431146 146.208043 
L 304.859476 143.991046 
L 304.859476 143.991046 
" style="fill:none;stroke:#1f77b4;stroke-width:1.5;"/>
   </g>
   <g id="line2d_26">
    <path clip-path="url(#pbe0202fbaa)" d="M 59.447577 153.603675 
L 58.815364 117.350503 
L 58.774667 104.386788 
L 59.009531 96.757937 
L 59.233156 95.025752 
L 59.521869 94.581686 
L 59.867375 95.269537 
L 60.258859 96.880981 
L 61.128466 101.869215 
L 62.450126 109.785371 
L 62.84907 111.601152 
L 63.213875 112.72817 
L 63.540667 113.081878 
L 63.828635 112.639716 
L 64.080052 111.442247 
L 64.496749 107.244006 
L 65.2713 97.468513 
L 65.524693 96.239866 
L 65.825612 96.000903 
L 66.182957 96.946806 
L 66.602888 99.216973 
L 67.08837 102.884689 
L 68.250656 114.344155 
L 69.626251 130.482506 
L 75.320321 200.93488 
L 76.337194 210.08164 
L 76.755206 212.697827 
L 77.1161 214.064655 
L 77.425331 214.292569 
L 77.690459 213.539985 
L 78.126578 209.913444 
L 78.923244 200.808683 
L 79.163656 199.430902 
L 79.433982 198.723626 
L 79.736827 198.7521 
L 80.072093 199.520398 
L 80.436996 200.971146 
L 81.232543 205.409368 
L 82.458345 212.907926 
L 82.834762 214.682506 
L 83.178522 215.70154 
L 83.481283 215.762427 
L 83.736423 214.700692 
L 83.939394 212.398845 
L 84.182402 203.877349 
L 84.222309 190.391047 
L 84.020112 163.517747 
L 83.727905 126.332338 
L 83.782263 112.306747 
L 84.053953 103.471705 
L 84.276424 101.158439 
L 84.553478 100.186949 
L 84.879338 100.425793 
L 85.245994 101.685906 
L 86.061972 106.308145 
L 87.331395 114.496213 
L 88.098583 118.008337 
L 88.440042 118.695918 
L 88.75045 118.585502 
L 89.030665 117.691379 
L 89.515789 113.918438 
L 90.395919 103.817869 
L 90.653395 102.236554 
L 90.945192 101.554361 
L 91.279054 101.986981 
L 91.660722 103.699431 
L 92.093522 106.794119 
L 93.112374 117.1838 
L 94.308712 132.540603 
L 96.959259 170.998111 
L 98.837052 197.468901 
L 99.904262 210.235019 
L 100.784948 217.898968 
L 101.155486 219.786834 
L 101.483644 220.478187 
L 101.774772 220.112908 
L 102.035659 218.874293 
L 102.498799 214.666615 
L 103.174283 207.657749 
L 103.42479 206.026284 
L 103.697114 205.023511 
L 103.994061 204.739626 
L 104.316366 205.204697 
L 104.662664 206.38668 
L 105.412082 210.479095 
L 106.955235 220.182874 
L 107.305129 221.551062 
L 107.626101 222.038012 
L 107.912589 221.461325 
L 108.160532 219.682307 
L 108.36759 216.61359 
L 108.659032 206.543732 
L 108.805775 191.720473 
L 109.109768 120.562325 
L 109.444488 110.525496 
L 109.677492 107.614097 
L 109.95291 106.086701 
L 110.267073 105.838643 
L 110.614503 106.702693 
L 110.988311 108.461139 
L 111.783342 113.629632 
L 112.97497 121.504026 
L 113.345122 123.23373 
L 113.694388 124.24981 
L 114.020889 124.476928 
L 114.324581 123.902724 
L 114.607228 122.578449 
L 115.12474 118.184222 
L 115.87199 110.369903 
L 116.142212 108.476868 
L 116.435 107.385147 
L 116.756424 107.32852 
L 117.111216 108.495792 
L 117.502424 111.017403 
L 117.931198 114.955643 
L 118.896065 126.963618 
L 119.976599 143.577635 
L 123.847959 207.822319 
L 124.757361 219.209653 
L 125.530841 225.379448 
L 125.869258 226.562928 
L 126.179627 226.62065 
L 126.466494 225.719542 
L 126.991824 221.888118 
L 128.01603 212.822107 
L 128.296977 211.537189 
L 128.5946 210.943515 
L 128.909934 211.097032 
L 129.242544 211.99163 
L 129.950873 215.675733 
L 131.769116 227.327993 
L 132.099035 228.212522 
L 132.406794 228.100633 
L 132.689303 226.833607 
L 132.944614 224.301321 
L 133.372151 215.278992 
L 133.699303 201.304587 
L 134.183445 164.053047 
L 134.583807 136.637735 
L 134.95371 122.86447 
L 135.436622 114.40438 
L 135.72171 112.297046 
L 136.033628 111.52766 
L 136.369064 111.95321 
L 136.723696 113.37442 
L 137.47007 118.211634 
L 138.60299 126.408973 
L 139.315918 129.745523 
L 139.651714 130.311322 
L 139.972798 130.069249 
L 140.279941 129.044188 
L 140.860898 125.05426 
L 141.993538 114.946934 
L 142.296707 113.482915 
L 142.616369 112.965511 
L 142.955683 113.605201 
L 143.316804 115.559031 
L 143.700732 118.919132 
L 144.534845 129.86316 
L 145.442075 145.721315 
L 149.120459 217.907139 
L 149.897903 227.847095 
L 150.255928 230.833756 
L 150.594721 232.534767 
L 150.9162 233.048607 
L 151.222945 232.524126 
L 151.518046 231.152457 
L 152.087212 226.780446 
L 152.940448 219.812028 
L 153.236465 218.262702 
L 153.541505 217.366404 
L 153.85636 217.204547 
L 154.180991 217.79726 
L 154.514559 219.102063 
L 155.201627 223.385464 
L 156.5828 233.047496 
L 156.913008 234.297992 
L 157.232276 234.626939 
L 157.538943 233.85695 
L 157.831956 231.856087 
L 158.110925 228.545161 
L 158.628561 217.967503 
L 159.101942 202.672749 
L 160.982434 131.218157 
L 161.553567 121.538957 
L 161.860776 118.832453 
L 162.181317 117.511242 
L 162.513591 117.458672 
L 162.855523 118.496585 
L 163.558603 122.903145 
L 164.973197 133.548803 
L 165.317249 135.187052 
L 165.655269 136.087969 
L 165.987061 136.185707 
L 166.312934 135.478319 
L 166.633667 134.027872 
L 167.264752 129.444368 
L 168.210449 121.63169 
L 168.532486 119.835711 
L 168.860481 118.890108 
L 169.195513 119.024673 
L 169.538248 120.421316 
L 169.888891 123.201045 
L 170.247174 127.41476 
L 170.983392 139.974974 
L 172.115982 166.713143 
L 173.969599 214.143252 
L 174.670984 227.695413 
L 175.345432 236.142562 
L 175.673596 238.382972 
L 175.996736 239.383145 
L 176.315808 239.272289 
L 176.631853 238.225726 
L 177.259081 234.199102 
L 178.201504 226.988007 
L 178.837843 224.00905 
L 179.159032 223.532599 
L 179.482039 223.813264 
L 179.806523 224.834576 
L 180.458072 228.729521 
L 181.758324 238.72594 
L 182.080932 240.307942 
L 182.402435 241.050263 
L 182.723028 240.75837 
L 183.043042 239.279631 
L 183.362914 236.511572 
L 184.004323 226.98189 
L 184.651575 212.51932 
L 185.976271 174.655183 
L 186.996849 147.287238 
L 187.684023 133.781023 
L 188.370419 125.705588 
L 188.711754 123.806404 
L 189.051237 123.239416 
L 189.388625 123.850081 
L 189.723877 125.429082 
L 190.38882 130.470716 
L 191.37991 138.657749 
L 191.711313 140.580425 
L 192.044413 141.80816 
L 192.379794 142.248735 
L 192.717879 141.873136 
L 193.058879 140.717016 
L 193.749214 136.515332 
L 195.145118 126.43013 
L 195.490763 125.092644 
L 195.832289 124.749148 
L 196.168316 125.604383 
L 196.497622 127.806926 
L 196.81924 131.438193 
L 197.437281 142.942114 
L 198.022283 159.298559 
L 200.228509 231.70154 
L 200.814916 241.300319 
L 201.120437 244.098221 
L 201.434548 245.611739 
L 201.756986 245.949035 
L 202.087058 245.267842 
L 202.423667 243.766971 
L 203.110452 239.241429 
L 204.146965 232.33219 
L 204.48678 230.870317 
L 204.821255 230.084698 
L 205.149476 230.047652 
L 205.47104 230.769154 
L 205.78611 232.196169 
L 206.400272 236.664188 
L 207.307588 244.380769 
L 207.615624 246.257282 
L 207.930743 247.38225 
L 208.255388 247.545693 
L 208.591734 246.575577 
L 208.941557 244.347024 
L 209.306132 240.789279 
L 210.081624 229.699077 
L 210.915651 213.934742 
L 214.02564 148.941509 
L 214.85788 136.869012 
L 215.25043 132.927159 
L 215.625889 130.428585 
L 215.984401 129.31468 
L 216.327052 129.456792 
L 216.655784 130.665949 
L 217.282722 135.311348 
L 218.511266 145.933703 
L 218.832427 147.475228 
L 219.164038 148.256925 
L 219.507223 148.222714 
L 219.862202 147.381265 
L 220.228245 145.805584 
L 220.228245 145.805584 
" style="fill:none;stroke:#ff0000;stroke-linecap:square;stroke-width:1.5;"/>
   </g>
   <g id="text_26">
    <!-- n = 2 -->
    <defs>
     <path d="M 10.59375 45.40625 
L 73.1875 45.40625 
L 73.1875 37.203125 
L 10.59375 37.203125 
z
M 10.59375 25.484375 
L 73.1875 25.484375 
L 73.1875 17.1875 
L 10.59375 17.1875 
z
" id="DejaVuSans-3d"/>
    </defs>
    <g transform="translate(163.538437 30.2288)scale(0.12 -0.12)">
     <use xlink:href="#DejaVuSans-6e"/>
     <use x="63.378906" xlink:href="#DejaVuSans-20"/>
     <use x="95.166016" xlink:href="#DejaVuSans-3d"/>
     <use x="178.955078" xlink:href="#DejaVuSans-20"/>
     <use x="210.742188" xlink:href="#DejaVuSans-32"/>
    </g>
   </g>
   <g id="legend_1">
    <g id="patch_6">
     <path d="M 231.800313 35.998125 
L 339.68 35.998125 
Q 341.68 35.998125 341.68 33.998125 
L 341.68 20.32 
Q 341.68 18.32 339.68 18.32 
L 231.800313 18.32 
Q 229.800313 18.32 229.800313 20.32 
L 229.800313 33.998125 
Q 229.800313 35.998125 231.800313 35.998125 
z
" style="fill:#ffffff;opacity:0.8;stroke:#cccccc;stroke-linejoin:miter;"/>
    </g>
    <g id="line2d_27">
     <path d="M 233.800313 26.418437 
L 253.800313 26.418437 
" style="fill:none;stroke:#ff0000;stroke-linecap:square;stroke-width:1.5;"/>
    </g>
    <g id="line2d_28"/>
    <g id="text_27">
     <!-- "Square Wave" -->
     <defs>
      <path d="M 17.921875 72.90625 
L 17.921875 45.796875 
L 9.625 45.796875 
L 9.625 72.90625 
z
M 36.375 72.90625 
L 36.375 45.796875 
L 28.078125 45.796875 
L 28.078125 72.90625 
z
" id="DejaVuSans-22"/>
      <path d="M 53.515625 70.515625 
L 53.515625 60.890625 
Q 47.90625 63.578125 42.921875 64.890625 
Q 37.9375 66.21875 33.296875 66.21875 
Q 25.25 66.21875 20.875 63.09375 
Q 16.5 59.96875 16.5 54.203125 
Q 16.5 49.359375 19.40625 46.890625 
Q 22.3125 44.4375 30.421875 42.921875 
L 36.375 41.703125 
Q 47.40625 39.59375 52.65625 34.296875 
Q 57.90625 29 57.90625 20.125 
Q 57.90625 9.515625 50.796875 4.046875 
Q 43.703125 -1.421875 29.984375 -1.421875 
Q 24.8125 -1.421875 18.96875 -0.25 
Q 13.140625 0.921875 6.890625 3.21875 
L 6.890625 13.375 
Q 12.890625 10.015625 18.65625 8.296875 
Q 24.421875 6.59375 29.984375 6.59375 
Q 38.421875 6.59375 43.015625 9.90625 
Q 47.609375 13.234375 47.609375 19.390625 
Q 47.609375 24.75 44.3125 27.78125 
Q 41.015625 30.8125 33.5 32.328125 
L 27.484375 33.5 
Q 16.453125 35.6875 11.515625 40.375 
Q 6.59375 45.0625 6.59375 53.421875 
Q 6.59375 63.09375 13.40625 68.65625 
Q 20.21875 74.21875 32.171875 74.21875 
Q 37.3125 74.21875 42.625 73.28125 
Q 47.953125 72.359375 53.515625 70.515625 
" id="DejaVuSans-53"/>
      <path d="M 14.796875 27.296875 
Q 14.796875 17.390625 18.875 11.75 
Q 22.953125 6.109375 30.078125 6.109375 
Q 37.203125 6.109375 41.296875 11.75 
Q 45.40625 17.390625 45.40625 27.296875 
Q 45.40625 37.203125 41.296875 42.84375 
Q 37.203125 48.484375 30.078125 48.484375 
Q 22.953125 48.484375 18.875 42.84375 
Q 14.796875 37.203125 14.796875 27.296875 
M 45.40625 8.203125 
Q 42.578125 3.328125 38.25 0.953125 
Q 33.9375 -1.421875 27.875 -1.421875 
Q 17.96875 -1.421875 11.734375 6.484375 
Q 5.515625 14.40625 5.515625 27.296875 
Q 5.515625 40.1875 11.734375 48.09375 
Q 17.96875 56 27.875 56 
Q 33.9375 56 38.25 53.625 
Q 42.578125 51.265625 45.40625 46.390625 
L 45.40625 54.6875 
L 54.390625 54.6875 
L 54.390625 -20.796875 
L 45.40625 -20.796875 
z
" id="DejaVuSans-71"/>
      <path d="M 8.5 21.578125 
L 8.5 54.6875 
L 17.484375 54.6875 
L 17.484375 21.921875 
Q 17.484375 14.15625 20.5 10.265625 
Q 23.53125 6.390625 29.59375 6.390625 
Q 36.859375 6.390625 41.078125 11.03125 
Q 45.3125 15.671875 45.3125 23.6875 
L 45.3125 54.6875 
L 54.296875 54.6875 
L 54.296875 0 
L 45.3125 0 
L 45.3125 8.40625 
Q 42.046875 3.421875 37.71875 1 
Q 33.40625 -1.421875 27.6875 -1.421875 
Q 18.265625 -1.421875 13.375 4.4375 
Q 8.5 10.296875 8.5 21.578125 
M 31.109375 56 
z
" id="DejaVuSans-75"/>
      <path d="M 34.28125 27.484375 
Q 23.390625 27.484375 19.1875 25 
Q 14.984375 22.515625 14.984375 16.5 
Q 14.984375 11.71875 18.140625 8.90625 
Q 21.296875 6.109375 26.703125 6.109375 
Q 34.1875 6.109375 38.703125 11.40625 
Q 43.21875 16.703125 43.21875 25.484375 
L 43.21875 27.484375 
z
M 52.203125 31.203125 
L 52.203125 0 
L 43.21875 0 
L 43.21875 8.296875 
Q 40.140625 3.328125 35.546875 0.953125 
Q 30.953125 -1.421875 24.3125 -1.421875 
Q 15.921875 -1.421875 10.953125 3.296875 
Q 6 8.015625 6 15.921875 
Q 6 25.140625 12.171875 29.828125 
Q 18.359375 34.515625 30.609375 34.515625 
L 43.21875 34.515625 
L 43.21875 35.40625 
Q 43.21875 41.609375 39.140625 45 
Q 35.0625 48.390625 27.6875 48.390625 
Q 23 48.390625 18.546875 47.265625 
Q 14.109375 46.140625 10.015625 43.890625 
L 10.015625 52.203125 
Q 14.9375 54.109375 19.578125 55.046875 
Q 24.21875 56 28.609375 56 
Q 40.484375 56 46.34375 49.84375 
Q 52.203125 43.703125 52.203125 31.203125 
" id="DejaVuSans-61"/>
      <path d="M 41.109375 46.296875 
Q 39.59375 47.171875 37.8125 47.578125 
Q 36.03125 48 33.890625 48 
Q 26.265625 48 22.1875 43.046875 
Q 18.109375 38.09375 18.109375 28.8125 
L 18.109375 0 
L 9.078125 0 
L 9.078125 54.6875 
L 18.109375 54.6875 
L 18.109375 46.1875 
Q 20.953125 51.171875 25.484375 53.578125 
Q 30.03125 56 36.53125 56 
Q 37.453125 56 38.578125 55.875 
Q 39.703125 55.765625 41.0625 55.515625 
z
" id="DejaVuSans-72"/>
      <path d="M 3.328125 72.90625 
L 13.28125 72.90625 
L 28.609375 11.28125 
L 43.890625 72.90625 
L 54.984375 72.90625 
L 70.3125 11.28125 
L 85.59375 72.90625 
L 95.609375 72.90625 
L 77.296875 0 
L 64.890625 0 
L 49.515625 63.28125 
L 33.984375 0 
L 21.578125 0 
z
" id="DejaVuSans-57"/>
      <path d="M 2.984375 54.6875 
L 12.5 54.6875 
L 29.59375 8.796875 
L 46.6875 54.6875 
L 56.203125 54.6875 
L 35.6875 0 
L 23.484375 0 
z
" id="DejaVuSans-76"/>
     </defs>
     <g transform="translate(261.800313 29.918437)scale(0.1 -0.1)">
      <use xlink:href="#DejaVuSans-22"/>
      <use x="45.996094" xlink:href="#DejaVuSans-53"/>
      <use x="109.472656" xlink:href="#DejaVuSans-71"/>
      <use x="172.949219" xlink:href="#DejaVuSans-75"/>
      <use x="236.328125" xlink:href="#DejaVuSans-61"/>
      <use x="297.607422" xlink:href="#DejaVuSans-72"/>
      <use x="338.689453" xlink:href="#DejaVuSans-65"/>
      <use x="400.212891" xlink:href="#DejaVuSans-20"/>
      <use x="432" xlink:href="#DejaVuSans-57"/>
      <use x="530.783203" xlink:href="#DejaVuSans-61"/>
      <use x="592.0625" xlink:href="#DejaVuSans-76"/>
      <use x="651.242188" xlink:href="#DejaVuSans-65"/>
      <use x="712.765625" xlink:href="#DejaVuSans-22"/>
     </g>
    </g>
   </g>
  </g>
 </g>
 <defs>
  <clipPath id="pbe0202fbaa">
   <rect height="261.36" width="333.36" x="13.32" y="13.32"/>
  </clipPath>
 </defs>
</svg>
