<?xml version="1.0" encoding="utf-8" standalone="no"?>
<!DOCTYPE svg PUBLIC "-//W3C//DTD SVG 1.1//EN"
  "http://www.w3.org/Graphics/SVG/1.1/DTD/svg11.dtd">
<!-- Created with matplotlib (http://matplotlib.org/) -->
<svg height="252pt" version="1.1" viewBox="0 0 432 252" width="432pt" xmlns="http://www.w3.org/2000/svg" xmlns:xlink="http://www.w3.org/1999/xlink">
 <defs>
  <style type="text/css">
*{stroke-linecap:butt;stroke-linejoin:round;}
  </style>
 </defs>
 <g id="figure_1">
  <g id="patch_1">
   <path d="M 0 252 
L 432 252 
L 432 0 
L 0 0 
z
" style="fill:none;opacity:0;"/>
  </g>
  <g id="axes_1">
   <g id="patch_2">
    <path d="M 54 224.28 
L 388.8 224.28 
L 388.8 30.24 
L 54 30.24 
z
" style="fill:#ffffff;"/>
   </g>
   <g id="matplotlib.axis_1">
    <g id="xtick_1">
     <g id="line2d_1">
      <defs>
       <path d="M 0 0 
L 0 3.5 
" id="mf765b3b98a" style="stroke:#000000;stroke-width:0.8;"/>
      </defs>
      <g>
       <use style="stroke:#000000;stroke-width:0.8;" x="54" xlink:href="#mf765b3b98a" y="224.28"/>
      </g>
     </g>
     <g id="text_1">
      <!-- −10.0 -->
      <defs>
       <path d="M 10.59375 35.5 
L 73.1875 35.5 
L 73.1875 27.203125 
L 10.59375 27.203125 
z
" id="DejaVuSans-2212"/>
       <path d="M 12.40625 8.296875 
L 28.515625 8.296875 
L 28.515625 63.921875 
L 10.984375 60.40625 
L 10.984375 69.390625 
L 28.421875 72.90625 
L 38.28125 72.90625 
L 38.28125 8.296875 
L 54.390625 8.296875 
L 54.390625 0 
L 12.40625 0 
z
" id="DejaVuSans-31"/>
       <path d="M 31.78125 66.40625 
Q 24.171875 66.40625 20.328125 58.90625 
Q 16.5 51.421875 16.5 36.375 
Q 16.5 21.390625 20.328125 13.890625 
Q 24.171875 6.390625 31.78125 6.390625 
Q 39.453125 6.390625 43.28125 13.890625 
Q 47.125 21.390625 47.125 36.375 
Q 47.125 51.421875 43.28125 58.90625 
Q 39.453125 66.40625 31.78125 66.40625 
M 31.78125 74.21875 
Q 44.046875 74.21875 50.515625 64.515625 
Q 56.984375 54.828125 56.984375 36.375 
Q 56.984375 17.96875 50.515625 8.265625 
Q 44.046875 -1.421875 31.78125 -1.421875 
Q 19.53125 -1.421875 13.0625 8.265625 
Q 6.59375 17.96875 6.59375 36.375 
Q 6.59375 54.828125 13.0625 64.515625 
Q 19.53125 74.21875 31.78125 74.21875 
" id="DejaVuSans-30"/>
       <path d="M 10.6875 12.40625 
L 21 12.40625 
L 21 0 
L 10.6875 0 
z
" id="DejaVuSans-2e"/>
      </defs>
      <g transform="translate(38.677344 238.878438)scale(0.1 -0.1)">
       <use xlink:href="#DejaVuSans-2212"/>
       <use x="83.789062" xlink:href="#DejaVuSans-31"/>
       <use x="147.412109" xlink:href="#DejaVuSans-30"/>
       <use x="211.035156" xlink:href="#DejaVuSans-2e"/>
       <use x="242.822266" xlink:href="#DejaVuSans-30"/>
      </g>
     </g>
    </g>
    <g id="xtick_2">
     <g id="line2d_2">
      <g>
       <use style="stroke:#000000;stroke-width:0.8;" x="95.85" xlink:href="#mf765b3b98a" y="224.28"/>
      </g>
     </g>
     <g id="text_2">
      <!-- −7.5 -->
      <defs>
       <path d="M 8.203125 72.90625 
L 55.078125 72.90625 
L 55.078125 68.703125 
L 28.609375 0 
L 18.3125 0 
L 43.21875 64.59375 
L 8.203125 64.59375 
z
" id="DejaVuSans-37"/>
       <path d="M 10.796875 72.90625 
L 49.515625 72.90625 
L 49.515625 64.59375 
L 19.828125 64.59375 
L 19.828125 46.734375 
Q 21.96875 47.46875 24.109375 47.828125 
Q 26.265625 48.1875 28.421875 48.1875 
Q 40.625 48.1875 47.75 41.5 
Q 54.890625 34.8125 54.890625 23.390625 
Q 54.890625 11.625 47.5625 5.09375 
Q 40.234375 -1.421875 26.90625 -1.421875 
Q 22.3125 -1.421875 17.546875 -0.640625 
Q 12.796875 0.140625 7.71875 1.703125 
L 7.71875 11.625 
Q 12.109375 9.234375 16.796875 8.0625 
Q 21.484375 6.890625 26.703125 6.890625 
Q 35.15625 6.890625 40.078125 11.328125 
Q 45.015625 15.765625 45.015625 23.390625 
Q 45.015625 31 40.078125 35.4375 
Q 35.15625 39.890625 26.703125 39.890625 
Q 22.75 39.890625 18.8125 39.015625 
Q 14.890625 38.140625 10.796875 36.28125 
z
" id="DejaVuSans-35"/>
      </defs>
      <g transform="translate(83.708594 238.878438)scale(0.1 -0.1)">
       <use xlink:href="#DejaVuSans-2212"/>
       <use x="83.789062" xlink:href="#DejaVuSans-37"/>
       <use x="147.412109" xlink:href="#DejaVuSans-2e"/>
       <use x="179.199219" xlink:href="#DejaVuSans-35"/>
      </g>
     </g>
    </g>
    <g id="xtick_3">
     <g id="line2d_3">
      <g>
       <use style="stroke:#000000;stroke-width:0.8;" x="137.7" xlink:href="#mf765b3b98a" y="224.28"/>
      </g>
     </g>
     <g id="text_3">
      <!-- −5.0 -->
      <g transform="translate(125.558594 238.878438)scale(0.1 -0.1)">
       <use xlink:href="#DejaVuSans-2212"/>
       <use x="83.789062" xlink:href="#DejaVuSans-35"/>
       <use x="147.412109" xlink:href="#DejaVuSans-2e"/>
       <use x="179.199219" xlink:href="#DejaVuSans-30"/>
      </g>
     </g>
    </g>
    <g id="xtick_4">
     <g id="line2d_4">
      <g>
       <use style="stroke:#000000;stroke-width:0.8;" x="179.55" xlink:href="#mf765b3b98a" y="224.28"/>
      </g>
     </g>
     <g id="text_4">
      <!-- −2.5 -->
      <defs>
       <path d="M 19.1875 8.296875 
L 53.609375 8.296875 
L 53.609375 0 
L 7.328125 0 
L 7.328125 8.296875 
Q 12.9375 14.109375 22.625 23.890625 
Q 32.328125 33.6875 34.8125 36.53125 
Q 39.546875 41.84375 41.421875 45.53125 
Q 43.3125 49.21875 43.3125 52.78125 
Q 43.3125 58.59375 39.234375 62.25 
Q 35.15625 65.921875 28.609375 65.921875 
Q 23.96875 65.921875 18.8125 64.3125 
Q 13.671875 62.703125 7.8125 59.421875 
L 7.8125 69.390625 
Q 13.765625 71.78125 18.9375 73 
Q 24.125 74.21875 28.421875 74.21875 
Q 39.75 74.21875 46.484375 68.546875 
Q 53.21875 62.890625 53.21875 53.421875 
Q 53.21875 48.921875 51.53125 44.890625 
Q 49.859375 40.875 45.40625 35.40625 
Q 44.1875 33.984375 37.640625 27.21875 
Q 31.109375 20.453125 19.1875 8.296875 
" id="DejaVuSans-32"/>
      </defs>
      <g transform="translate(167.408594 238.878438)scale(0.1 -0.1)">
       <use xlink:href="#DejaVuSans-2212"/>
       <use x="83.789062" xlink:href="#DejaVuSans-32"/>
       <use x="147.412109" xlink:href="#DejaVuSans-2e"/>
       <use x="179.199219" xlink:href="#DejaVuSans-35"/>
      </g>
     </g>
    </g>
    <g id="xtick_5">
     <g id="line2d_5">
      <g>
       <use style="stroke:#000000;stroke-width:0.8;" x="221.4" xlink:href="#mf765b3b98a" y="224.28"/>
      </g>
     </g>
     <g id="text_5">
      <!-- 0.0 -->
      <g transform="translate(213.448438 238.878438)scale(0.1 -0.1)">
       <use xlink:href="#DejaVuSans-30"/>
       <use x="63.623047" xlink:href="#DejaVuSans-2e"/>
       <use x="95.410156" xlink:href="#DejaVuSans-30"/>
      </g>
     </g>
    </g>
    <g id="xtick_6">
     <g id="line2d_6">
      <g>
       <use style="stroke:#000000;stroke-width:0.8;" x="263.25" xlink:href="#mf765b3b98a" y="224.28"/>
      </g>
     </g>
     <g id="text_6">
      <!-- 2.5 -->
      <g transform="translate(255.298438 238.878438)scale(0.1 -0.1)">
       <use xlink:href="#DejaVuSans-32"/>
       <use x="63.623047" xlink:href="#DejaVuSans-2e"/>
       <use x="95.410156" xlink:href="#DejaVuSans-35"/>
      </g>
     </g>
    </g>
    <g id="xtick_7">
     <g id="line2d_7">
      <g>
       <use style="stroke:#000000;stroke-width:0.8;" x="305.1" xlink:href="#mf765b3b98a" y="224.28"/>
      </g>
     </g>
     <g id="text_7">
      <!-- 5.0 -->
      <g transform="translate(297.148438 238.878438)scale(0.1 -0.1)">
       <use xlink:href="#DejaVuSans-35"/>
       <use x="63.623047" xlink:href="#DejaVuSans-2e"/>
       <use x="95.410156" xlink:href="#DejaVuSans-30"/>
      </g>
     </g>
    </g>
    <g id="xtick_8">
     <g id="line2d_8">
      <g>
       <use style="stroke:#000000;stroke-width:0.8;" x="346.95" xlink:href="#mf765b3b98a" y="224.28"/>
      </g>
     </g>
     <g id="text_8">
      <!-- 7.5 -->
      <g transform="translate(338.998438 238.878438)scale(0.1 -0.1)">
       <use xlink:href="#DejaVuSans-37"/>
       <use x="63.623047" xlink:href="#DejaVuSans-2e"/>
       <use x="95.410156" xlink:href="#DejaVuSans-35"/>
      </g>
     </g>
    </g>
    <g id="xtick_9">
     <g id="line2d_9">
      <g>
       <use style="stroke:#000000;stroke-width:0.8;" x="388.8" xlink:href="#mf765b3b98a" y="224.28"/>
      </g>
     </g>
     <g id="text_9">
      <!-- 10.0 -->
      <g transform="translate(377.667188 238.878438)scale(0.1 -0.1)">
       <use xlink:href="#DejaVuSans-31"/>
       <use x="63.623047" xlink:href="#DejaVuSans-30"/>
       <use x="127.246094" xlink:href="#DejaVuSans-2e"/>
       <use x="159.033203" xlink:href="#DejaVuSans-30"/>
      </g>
     </g>
    </g>
    <g id="text_10">
     <!-- Some Variable -->
     <defs>
      <path d="M 53.515625 70.515625 
L 53.515625 60.890625 
Q 47.90625 63.578125 42.921875 64.890625 
Q 37.9375 66.21875 33.296875 66.21875 
Q 25.25 66.21875 20.875 63.09375 
Q 16.5 59.96875 16.5 54.203125 
Q 16.5 49.359375 19.40625 46.890625 
Q 22.3125 44.4375 30.421875 42.921875 
L 36.375 41.703125 
Q 47.40625 39.59375 52.65625 34.296875 
Q 57.90625 29 57.90625 20.125 
Q 57.90625 9.515625 50.796875 4.046875 
Q 43.703125 -1.421875 29.984375 -1.421875 
Q 24.8125 -1.421875 18.96875 -0.25 
Q 13.140625 0.921875 6.890625 3.21875 
L 6.890625 13.375 
Q 12.890625 10.015625 18.65625 8.296875 
Q 24.421875 6.59375 29.984375 6.59375 
Q 38.421875 6.59375 43.015625 9.90625 
Q 47.609375 13.234375 47.609375 19.390625 
Q 47.609375 24.75 44.3125 27.78125 
Q 41.015625 30.8125 33.5 32.328125 
L 27.484375 33.5 
Q 16.453125 35.6875 11.515625 40.375 
Q 6.59375 45.0625 6.59375 53.421875 
Q 6.59375 63.09375 13.40625 68.65625 
Q 20.21875 74.21875 32.171875 74.21875 
Q 37.3125 74.21875 42.625 73.28125 
Q 47.953125 72.359375 53.515625 70.515625 
" id="DejaVuSans-53"/>
      <path d="M 30.609375 48.390625 
Q 23.390625 48.390625 19.1875 42.75 
Q 14.984375 37.109375 14.984375 27.296875 
Q 14.984375 17.484375 19.15625 11.84375 
Q 23.34375 6.203125 30.609375 6.203125 
Q 37.796875 6.203125 41.984375 11.859375 
Q 46.1875 17.53125 46.1875 27.296875 
Q 46.1875 37.015625 41.984375 42.703125 
Q 37.796875 48.390625 30.609375 48.390625 
M 30.609375 56 
Q 42.328125 56 49.015625 48.375 
Q 55.71875 40.765625 55.71875 27.296875 
Q 55.71875 13.875 49.015625 6.21875 
Q 42.328125 -1.421875 30.609375 -1.421875 
Q 18.84375 -1.421875 12.171875 6.21875 
Q 5.515625 13.875 5.515625 27.296875 
Q 5.515625 40.765625 12.171875 48.375 
Q 18.84375 56 30.609375 56 
" id="DejaVuSans-6f"/>
      <path d="M 52 44.1875 
Q 55.375 50.25 60.0625 53.125 
Q 64.75 56 71.09375 56 
Q 79.640625 56 84.28125 50.015625 
Q 88.921875 44.046875 88.921875 33.015625 
L 88.921875 0 
L 79.890625 0 
L 79.890625 32.71875 
Q 79.890625 40.578125 77.09375 44.375 
Q 74.3125 48.1875 68.609375 48.1875 
Q 61.625 48.1875 57.5625 43.546875 
Q 53.515625 38.921875 53.515625 30.90625 
L 53.515625 0 
L 44.484375 0 
L 44.484375 32.71875 
Q 44.484375 40.625 41.703125 44.40625 
Q 38.921875 48.1875 33.109375 48.1875 
Q 26.21875 48.1875 22.15625 43.53125 
Q 18.109375 38.875 18.109375 30.90625 
L 18.109375 0 
L 9.078125 0 
L 9.078125 54.6875 
L 18.109375 54.6875 
L 18.109375 46.1875 
Q 21.1875 51.21875 25.484375 53.609375 
Q 29.78125 56 35.6875 56 
Q 41.65625 56 45.828125 52.96875 
Q 50 49.953125 52 44.1875 
" id="DejaVuSans-6d"/>
      <path d="M 56.203125 29.59375 
L 56.203125 25.203125 
L 14.890625 25.203125 
Q 15.484375 15.921875 20.484375 11.0625 
Q 25.484375 6.203125 34.421875 6.203125 
Q 39.59375 6.203125 44.453125 7.46875 
Q 49.3125 8.734375 54.109375 11.28125 
L 54.109375 2.78125 
Q 49.265625 0.734375 44.1875 -0.34375 
Q 39.109375 -1.421875 33.890625 -1.421875 
Q 20.796875 -1.421875 13.15625 6.1875 
Q 5.515625 13.8125 5.515625 26.8125 
Q 5.515625 40.234375 12.765625 48.109375 
Q 20.015625 56 32.328125 56 
Q 43.359375 56 49.78125 48.890625 
Q 56.203125 41.796875 56.203125 29.59375 
M 47.21875 32.234375 
Q 47.125 39.59375 43.09375 43.984375 
Q 39.0625 48.390625 32.421875 48.390625 
Q 24.90625 48.390625 20.390625 44.140625 
Q 15.875 39.890625 15.1875 32.171875 
z
" id="DejaVuSans-65"/>
      <path id="DejaVuSans-20"/>
      <path d="M 28.609375 0 
L 0.78125 72.90625 
L 11.078125 72.90625 
L 34.1875 11.53125 
L 57.328125 72.90625 
L 67.578125 72.90625 
L 39.796875 0 
z
" id="DejaVuSans-56"/>
      <path d="M 34.28125 27.484375 
Q 23.390625 27.484375 19.1875 25 
Q 14.984375 22.515625 14.984375 16.5 
Q 14.984375 11.71875 18.140625 8.90625 
Q 21.296875 6.109375 26.703125 6.109375 
Q 34.1875 6.109375 38.703125 11.40625 
Q 43.21875 16.703125 43.21875 25.484375 
L 43.21875 27.484375 
z
M 52.203125 31.203125 
L 52.203125 0 
L 43.21875 0 
L 43.21875 8.296875 
Q 40.140625 3.328125 35.546875 0.953125 
Q 30.953125 -1.421875 24.3125 -1.421875 
Q 15.921875 -1.421875 10.953125 3.296875 
Q 6 8.015625 6 15.921875 
Q 6 25.140625 12.171875 29.828125 
Q 18.359375 34.515625 30.609375 34.515625 
L 43.21875 34.515625 
L 43.21875 35.40625 
Q 43.21875 41.609375 39.140625 45 
Q 35.0625 48.390625 27.6875 48.390625 
Q 23 48.390625 18.546875 47.265625 
Q 14.109375 46.140625 10.015625 43.890625 
L 10.015625 52.203125 
Q 14.9375 54.109375 19.578125 55.046875 
Q 24.21875 56 28.609375 56 
Q 40.484375 56 46.34375 49.84375 
Q 52.203125 43.703125 52.203125 31.203125 
" id="DejaVuSans-61"/>
      <path d="M 41.109375 46.296875 
Q 39.59375 47.171875 37.8125 47.578125 
Q 36.03125 48 33.890625 48 
Q 26.265625 48 22.1875 43.046875 
Q 18.109375 38.09375 18.109375 28.8125 
L 18.109375 0 
L 9.078125 0 
L 9.078125 54.6875 
L 18.109375 54.6875 
L 18.109375 46.1875 
Q 20.953125 51.171875 25.484375 53.578125 
Q 30.03125 56 36.53125 56 
Q 37.453125 56 38.578125 55.875 
Q 39.703125 55.765625 41.0625 55.515625 
z
" id="DejaVuSans-72"/>
      <path d="M 9.421875 54.6875 
L 18.40625 54.6875 
L 18.40625 0 
L 9.421875 0 
z
M 9.421875 75.984375 
L 18.40625 75.984375 
L 18.40625 64.59375 
L 9.421875 64.59375 
z
" id="DejaVuSans-69"/>
      <path d="M 48.6875 27.296875 
Q 48.6875 37.203125 44.609375 42.84375 
Q 40.53125 48.484375 33.40625 48.484375 
Q 26.265625 48.484375 22.1875 42.84375 
Q 18.109375 37.203125 18.109375 27.296875 
Q 18.109375 17.390625 22.1875 11.75 
Q 26.265625 6.109375 33.40625 6.109375 
Q 40.53125 6.109375 44.609375 11.75 
Q 48.6875 17.390625 48.6875 27.296875 
M 18.109375 46.390625 
Q 20.953125 51.265625 25.265625 53.625 
Q 29.59375 56 35.59375 56 
Q 45.5625 56 51.78125 48.09375 
Q 58.015625 40.1875 58.015625 27.296875 
Q 58.015625 14.40625 51.78125 6.484375 
Q 45.5625 -1.421875 35.59375 -1.421875 
Q 29.59375 -1.421875 25.265625 0.953125 
Q 20.953125 3.328125 18.109375 8.203125 
L 18.109375 0 
L 9.078125 0 
L 9.078125 75.984375 
L 18.109375 75.984375 
z
" id="DejaVuSans-62"/>
      <path d="M 9.421875 75.984375 
L 18.40625 75.984375 
L 18.40625 0 
L 9.421875 0 
z
" id="DejaVuSans-6c"/>
     </defs>
     <g transform="translate(185.003125 252.556563)scale(0.1 -0.1)">
      <use xlink:href="#DejaVuSans-53"/>
      <use x="63.476562" xlink:href="#DejaVuSans-6f"/>
      <use x="124.658203" xlink:href="#DejaVuSans-6d"/>
      <use x="222.070312" xlink:href="#DejaVuSans-65"/>
      <use x="283.59375" xlink:href="#DejaVuSans-20"/>
      <use x="315.380859" xlink:href="#DejaVuSans-56"/>
      <use x="383.679688" xlink:href="#DejaVuSans-61"/>
      <use x="444.958984" xlink:href="#DejaVuSans-72"/>
      <use x="486.072266" xlink:href="#DejaVuSans-69"/>
      <use x="513.855469" xlink:href="#DejaVuSans-61"/>
      <use x="575.134766" xlink:href="#DejaVuSans-62"/>
      <use x="638.611328" xlink:href="#DejaVuSans-6c"/>
      <use x="666.394531" xlink:href="#DejaVuSans-65"/>
     </g>
    </g>
   </g>
   <g id="matplotlib.axis_2">
    <g id="ytick_1">
     <g id="line2d_10">
      <defs>
       <path d="M 0 0 
L -3.5 0 
" id="me0e97871c3" style="stroke:#000000;stroke-width:0.8;"/>
      </defs>
      <g>
       <use style="stroke:#000000;stroke-width:0.8;" x="54" xlink:href="#me0e97871c3" y="215.495287"/>
      </g>
     </g>
     <g id="text_11">
      <!-- 0.0 -->
      <g transform="translate(31.096875 219.294506)scale(0.1 -0.1)">
       <use xlink:href="#DejaVuSans-30"/>
       <use x="63.623047" xlink:href="#DejaVuSans-2e"/>
       <use x="95.410156" xlink:href="#DejaVuSans-30"/>
      </g>
     </g>
    </g>
    <g id="ytick_2">
     <g id="line2d_11">
      <g>
       <use style="stroke:#000000;stroke-width:0.8;" x="54" xlink:href="#me0e97871c3" y="193.314871"/>
      </g>
     </g>
     <g id="text_12">
      <!-- 0.2 -->
      <g transform="translate(31.096875 197.11409)scale(0.1 -0.1)">
       <use xlink:href="#DejaVuSans-30"/>
       <use x="63.623047" xlink:href="#DejaVuSans-2e"/>
       <use x="95.410156" xlink:href="#DejaVuSans-32"/>
      </g>
     </g>
    </g>
    <g id="ytick_3">
     <g id="line2d_12">
      <g>
       <use style="stroke:#000000;stroke-width:0.8;" x="54" xlink:href="#me0e97871c3" y="171.134455"/>
      </g>
     </g>
     <g id="text_13">
      <!-- 0.4 -->
      <defs>
       <path d="M 37.796875 64.3125 
L 12.890625 25.390625 
L 37.796875 25.390625 
z
M 35.203125 72.90625 
L 47.609375 72.90625 
L 47.609375 25.390625 
L 58.015625 25.390625 
L 58.015625 17.1875 
L 47.609375 17.1875 
L 47.609375 0 
L 37.796875 0 
L 37.796875 17.1875 
L 4.890625 17.1875 
L 4.890625 26.703125 
z
" id="DejaVuSans-34"/>
      </defs>
      <g transform="translate(31.096875 174.933673)scale(0.1 -0.1)">
       <use xlink:href="#DejaVuSans-30"/>
       <use x="63.623047" xlink:href="#DejaVuSans-2e"/>
       <use x="95.410156" xlink:href="#DejaVuSans-34"/>
      </g>
     </g>
    </g>
    <g id="ytick_4">
     <g id="line2d_13">
      <g>
       <use style="stroke:#000000;stroke-width:0.8;" x="54" xlink:href="#me0e97871c3" y="148.954038"/>
      </g>
     </g>
     <g id="text_14">
      <!-- 0.6 -->
      <defs>
       <path d="M 33.015625 40.375 
Q 26.375 40.375 22.484375 35.828125 
Q 18.609375 31.296875 18.609375 23.390625 
Q 18.609375 15.53125 22.484375 10.953125 
Q 26.375 6.390625 33.015625 6.390625 
Q 39.65625 6.390625 43.53125 10.953125 
Q 47.40625 15.53125 47.40625 23.390625 
Q 47.40625 31.296875 43.53125 35.828125 
Q 39.65625 40.375 33.015625 40.375 
M 52.59375 71.296875 
L 52.59375 62.3125 
Q 48.875 64.0625 45.09375 64.984375 
Q 41.3125 65.921875 37.59375 65.921875 
Q 27.828125 65.921875 22.671875 59.328125 
Q 17.53125 52.734375 16.796875 39.40625 
Q 19.671875 43.65625 24.015625 45.921875 
Q 28.375 48.1875 33.59375 48.1875 
Q 44.578125 48.1875 50.953125 41.515625 
Q 57.328125 34.859375 57.328125 23.390625 
Q 57.328125 12.15625 50.6875 5.359375 
Q 44.046875 -1.421875 33.015625 -1.421875 
Q 20.359375 -1.421875 13.671875 8.265625 
Q 6.984375 17.96875 6.984375 36.375 
Q 6.984375 53.65625 15.1875 63.9375 
Q 23.390625 74.21875 37.203125 74.21875 
Q 40.921875 74.21875 44.703125 73.484375 
Q 48.484375 72.75 52.59375 71.296875 
" id="DejaVuSans-36"/>
      </defs>
      <g transform="translate(31.096875 152.753257)scale(0.1 -0.1)">
       <use xlink:href="#DejaVuSans-30"/>
       <use x="63.623047" xlink:href="#DejaVuSans-2e"/>
       <use x="95.410156" xlink:href="#DejaVuSans-36"/>
      </g>
     </g>
    </g>
    <g id="ytick_5">
     <g id="line2d_14">
      <g>
       <use style="stroke:#000000;stroke-width:0.8;" x="54" xlink:href="#me0e97871c3" y="126.773622"/>
      </g>
     </g>
     <g id="text_15">
      <!-- 0.8 -->
      <defs>
       <path d="M 31.78125 34.625 
Q 24.75 34.625 20.71875 30.859375 
Q 16.703125 27.09375 16.703125 20.515625 
Q 16.703125 13.921875 20.71875 10.15625 
Q 24.75 6.390625 31.78125 6.390625 
Q 38.8125 6.390625 42.859375 10.171875 
Q 46.921875 13.96875 46.921875 20.515625 
Q 46.921875 27.09375 42.890625 30.859375 
Q 38.875 34.625 31.78125 34.625 
M 21.921875 38.8125 
Q 15.578125 40.375 12.03125 44.71875 
Q 8.5 49.078125 8.5 55.328125 
Q 8.5 64.0625 14.71875 69.140625 
Q 20.953125 74.21875 31.78125 74.21875 
Q 42.671875 74.21875 48.875 69.140625 
Q 55.078125 64.0625 55.078125 55.328125 
Q 55.078125 49.078125 51.53125 44.71875 
Q 48 40.375 41.703125 38.8125 
Q 48.828125 37.15625 52.796875 32.3125 
Q 56.78125 27.484375 56.78125 20.515625 
Q 56.78125 9.90625 50.3125 4.234375 
Q 43.84375 -1.421875 31.78125 -1.421875 
Q 19.734375 -1.421875 13.25 4.234375 
Q 6.78125 9.90625 6.78125 20.515625 
Q 6.78125 27.484375 10.78125 32.3125 
Q 14.796875 37.15625 21.921875 38.8125 
M 18.3125 54.390625 
Q 18.3125 48.734375 21.84375 45.5625 
Q 25.390625 42.390625 31.78125 42.390625 
Q 38.140625 42.390625 41.71875 45.5625 
Q 45.3125 48.734375 45.3125 54.390625 
Q 45.3125 60.0625 41.71875 63.234375 
Q 38.140625 66.40625 31.78125 66.40625 
Q 25.390625 66.40625 21.84375 63.234375 
Q 18.3125 60.0625 18.3125 54.390625 
" id="DejaVuSans-38"/>
      </defs>
      <g transform="translate(31.096875 130.572841)scale(0.1 -0.1)">
       <use xlink:href="#DejaVuSans-30"/>
       <use x="63.623047" xlink:href="#DejaVuSans-2e"/>
       <use x="95.410156" xlink:href="#DejaVuSans-38"/>
      </g>
     </g>
    </g>
    <g id="ytick_6">
     <g id="line2d_15">
      <g>
       <use style="stroke:#000000;stroke-width:0.8;" x="54" xlink:href="#me0e97871c3" y="104.593206"/>
      </g>
     </g>
     <g id="text_16">
      <!-- 1.0 -->
      <g transform="translate(31.096875 108.392425)scale(0.1 -0.1)">
       <use xlink:href="#DejaVuSans-31"/>
       <use x="63.623047" xlink:href="#DejaVuSans-2e"/>
       <use x="95.410156" xlink:href="#DejaVuSans-30"/>
      </g>
     </g>
    </g>
    <g id="ytick_7">
     <g id="line2d_16">
      <g>
       <use style="stroke:#000000;stroke-width:0.8;" x="54" xlink:href="#me0e97871c3" y="82.41279"/>
      </g>
     </g>
     <g id="text_17">
      <!-- 1.2 -->
      <g transform="translate(31.096875 86.212008)scale(0.1 -0.1)">
       <use xlink:href="#DejaVuSans-31"/>
       <use x="63.623047" xlink:href="#DejaVuSans-2e"/>
       <use x="95.410156" xlink:href="#DejaVuSans-32"/>
      </g>
     </g>
    </g>
    <g id="ytick_8">
     <g id="line2d_17">
      <g>
       <use style="stroke:#000000;stroke-width:0.8;" x="54" xlink:href="#me0e97871c3" y="60.232373"/>
      </g>
     </g>
     <g id="text_18">
      <!-- 1.4 -->
      <g transform="translate(31.096875 64.031592)scale(0.1 -0.1)">
       <use xlink:href="#DejaVuSans-31"/>
       <use x="63.623047" xlink:href="#DejaVuSans-2e"/>
       <use x="95.410156" xlink:href="#DejaVuSans-34"/>
      </g>
     </g>
    </g>
    <g id="ytick_9">
     <g id="line2d_18">
      <g>
       <use style="stroke:#000000;stroke-width:0.8;" x="54" xlink:href="#me0e97871c3" y="38.051957"/>
      </g>
     </g>
     <g id="text_19">
      <!-- 1.6 -->
      <g transform="translate(31.096875 41.851176)scale(0.1 -0.1)">
       <use xlink:href="#DejaVuSans-31"/>
       <use x="63.623047" xlink:href="#DejaVuSans-2e"/>
       <use x="95.410156" xlink:href="#DejaVuSans-36"/>
      </g>
     </g>
    </g>
    <g id="text_20">
     <!-- Some Dependent Variable -->
     <defs>
      <path d="M 19.671875 64.796875 
L 19.671875 8.109375 
L 31.59375 8.109375 
Q 46.6875 8.109375 53.6875 14.9375 
Q 60.6875 21.78125 60.6875 36.53125 
Q 60.6875 51.171875 53.6875 57.984375 
Q 46.6875 64.796875 31.59375 64.796875 
z
M 9.8125 72.90625 
L 30.078125 72.90625 
Q 51.265625 72.90625 61.171875 64.09375 
Q 71.09375 55.28125 71.09375 36.53125 
Q 71.09375 17.671875 61.125 8.828125 
Q 51.171875 0 30.078125 0 
L 9.8125 0 
z
" id="DejaVuSans-44"/>
      <path d="M 18.109375 8.203125 
L 18.109375 -20.796875 
L 9.078125 -20.796875 
L 9.078125 54.6875 
L 18.109375 54.6875 
L 18.109375 46.390625 
Q 20.953125 51.265625 25.265625 53.625 
Q 29.59375 56 35.59375 56 
Q 45.5625 56 51.78125 48.09375 
Q 58.015625 40.1875 58.015625 27.296875 
Q 58.015625 14.40625 51.78125 6.484375 
Q 45.5625 -1.421875 35.59375 -1.421875 
Q 29.59375 -1.421875 25.265625 0.953125 
Q 20.953125 3.328125 18.109375 8.203125 
M 48.6875 27.296875 
Q 48.6875 37.203125 44.609375 42.84375 
Q 40.53125 48.484375 33.40625 48.484375 
Q 26.265625 48.484375 22.1875 42.84375 
Q 18.109375 37.203125 18.109375 27.296875 
Q 18.109375 17.390625 22.1875 11.75 
Q 26.265625 6.109375 33.40625 6.109375 
Q 40.53125 6.109375 44.609375 11.75 
Q 48.6875 17.390625 48.6875 27.296875 
" id="DejaVuSans-70"/>
      <path d="M 54.890625 33.015625 
L 54.890625 0 
L 45.90625 0 
L 45.90625 32.71875 
Q 45.90625 40.484375 42.875 44.328125 
Q 39.84375 48.1875 33.796875 48.1875 
Q 26.515625 48.1875 22.3125 43.546875 
Q 18.109375 38.921875 18.109375 30.90625 
L 18.109375 0 
L 9.078125 0 
L 9.078125 54.6875 
L 18.109375 54.6875 
L 18.109375 46.1875 
Q 21.34375 51.125 25.703125 53.5625 
Q 30.078125 56 35.796875 56 
Q 45.21875 56 50.046875 50.171875 
Q 54.890625 44.34375 54.890625 33.015625 
" id="DejaVuSans-6e"/>
      <path d="M 45.40625 46.390625 
L 45.40625 75.984375 
L 54.390625 75.984375 
L 54.390625 0 
L 45.40625 0 
L 45.40625 8.203125 
Q 42.578125 3.328125 38.25 0.953125 
Q 33.9375 -1.421875 27.875 -1.421875 
Q 17.96875 -1.421875 11.734375 6.484375 
Q 5.515625 14.40625 5.515625 27.296875 
Q 5.515625 40.1875 11.734375 48.09375 
Q 17.96875 56 27.875 56 
Q 33.9375 56 38.25 53.625 
Q 42.578125 51.265625 45.40625 46.390625 
M 14.796875 27.296875 
Q 14.796875 17.390625 18.875 11.75 
Q 22.953125 6.109375 30.078125 6.109375 
Q 37.203125 6.109375 41.296875 11.75 
Q 45.40625 17.390625 45.40625 27.296875 
Q 45.40625 37.203125 41.296875 42.84375 
Q 37.203125 48.484375 30.078125 48.484375 
Q 22.953125 48.484375 18.875 42.84375 
Q 14.796875 37.203125 14.796875 27.296875 
" id="DejaVuSans-64"/>
      <path d="M 18.3125 70.21875 
L 18.3125 54.6875 
L 36.8125 54.6875 
L 36.8125 47.703125 
L 18.3125 47.703125 
L 18.3125 18.015625 
Q 18.3125 11.328125 20.140625 9.421875 
Q 21.96875 7.515625 27.59375 7.515625 
L 36.8125 7.515625 
L 36.8125 0 
L 27.59375 0 
Q 17.1875 0 13.234375 3.875 
Q 9.28125 7.765625 9.28125 18.015625 
L 9.28125 47.703125 
L 2.6875 47.703125 
L 2.6875 54.6875 
L 9.28125 54.6875 
L 9.28125 70.21875 
z
" id="DejaVuSans-74"/>
     </defs>
     <g transform="translate(25.017187 192.971719)rotate(-90)scale(0.1 -0.1)">
      <use xlink:href="#DejaVuSans-53"/>
      <use x="63.476562" xlink:href="#DejaVuSans-6f"/>
      <use x="124.658203" xlink:href="#DejaVuSans-6d"/>
      <use x="222.070312" xlink:href="#DejaVuSans-65"/>
      <use x="283.59375" xlink:href="#DejaVuSans-20"/>
      <use x="315.380859" xlink:href="#DejaVuSans-44"/>
      <use x="392.382812" xlink:href="#DejaVuSans-65"/>
      <use x="453.90625" xlink:href="#DejaVuSans-70"/>
      <use x="517.382812" xlink:href="#DejaVuSans-65"/>
      <use x="578.90625" xlink:href="#DejaVuSans-6e"/>
      <use x="642.285156" xlink:href="#DejaVuSans-64"/>
      <use x="705.761719" xlink:href="#DejaVuSans-65"/>
      <use x="767.285156" xlink:href="#DejaVuSans-6e"/>
      <use x="830.664062" xlink:href="#DejaVuSans-74"/>
      <use x="869.873047" xlink:href="#DejaVuSans-20"/>
      <use x="901.660156" xlink:href="#DejaVuSans-56"/>
      <use x="969.958984" xlink:href="#DejaVuSans-61"/>
      <use x="1031.238281" xlink:href="#DejaVuSans-72"/>
      <use x="1072.351562" xlink:href="#DejaVuSans-69"/>
      <use x="1100.134766" xlink:href="#DejaVuSans-61"/>
      <use x="1161.414062" xlink:href="#DejaVuSans-62"/>
      <use x="1224.890625" xlink:href="#DejaVuSans-6c"/>
      <use x="1252.673828" xlink:href="#DejaVuSans-65"/>
     </g>
    </g>
   </g>
   <g id="line2d_19">
    <path clip-path="url(#pe53eed0bb3)" d="M 54 212.100938 
L 70.773547 211.340438 
L 84.863327 210.489827 
L 96.940281 209.540017 
L 107.004409 208.532384 
L 115.726653 207.444696 
L 123.107014 206.320744 
L 129.816433 205.091522 
L 135.85491 203.772894 
L 141.222445 202.391672 
L 146.58998 200.768896 
L 151.286573 199.108503 
L 155.312224 197.471473 
L 159.337876 195.601583 
L 163.363527 193.459055 
L 166.718236 191.432127 
L 170.072946 189.153381 
L 173.427655 186.589273 
L 176.782365 183.703799 
L 180.137074 180.459904 
L 182.820842 177.582731 
L 185.504609 174.437672 
L 188.859319 170.113372 
L 192.214028 165.349693 
L 195.568737 160.173875 
L 199.594389 153.528304 
L 208.316633 138.933919 
L 211.000401 135.008069 
L 213.013226 132.45317 
L 215.026052 130.329051 
L 216.367936 129.191833 
L 217.70982 128.301493 
L 219.051703 127.674264 
L 220.393587 127.321889 
L 221.735471 127.251075 
L 223.077355 127.463178 
L 224.419238 127.954143 
L 225.761122 128.714691 
L 227.103006 129.730754 
L 228.44489 130.98411 
L 230.457715 133.261136 
L 232.470541 135.940491 
L 235.154309 139.986215 
L 238.509018 145.516676 
L 247.231263 160.173875 
L 250.585972 165.349693 
L 253.940681 170.113372 
L 257.295391 174.437672 
L 260.6501 178.326585 
L 264.00481 181.80282 
L 267.359519 184.898924 
L 270.714228 187.651421 
L 274.068938 190.097179 
L 277.423647 192.271339 
L 280.778357 194.206245 
L 284.804008 196.253078 
L 288.829659 198.041237 
L 293.526253 199.85048 
L 298.222846 201.408917 
L 303.590381 202.935401 
L 308.957916 204.2377 
L 314.996393 205.483969 
L 321.705812 206.64872 
L 329.757114 207.804225 
L 338.479359 208.824088 
L 348.543487 209.772643 
L 360.620441 210.670499 
L 374.71022 211.478067 
L 388.8 212.100938 
L 388.8 212.100938 
" style="fill:none;stroke:#1f77b4;stroke-linecap:square;stroke-width:1.5;"/>
   </g>
   <g id="line2d_20">
    <path clip-path="url(#pe53eed0bb3)" d="M -1 212.961078 
L 14.582164 212.291429 
L 27.33006 211.526191 
L 37.394188 210.712425 
L 46.116433 209.788877 
L 53.496794 208.784411 
L 59.535271 207.754714 
L 64.902806 206.630607 
L 69.599399 205.437804 
L 73.62505 204.21762 
L 77.650701 202.767537 
L 81.005411 201.341092 
L 84.36012 199.669357 
L 87.043888 198.117489 
L 89.727655 196.335695 
L 92.411423 194.278688 
L 95.09519 191.890269 
L 97.108016 189.839937 
L 99.120842 187.528263 
L 101.133667 184.912742 
L 103.146493 181.942976 
L 105.159319 178.559268 
L 107.172144 174.691123 
L 109.18497 170.255801 
L 111.197796 165.157232 
L 113.210621 159.285861 
L 115.223447 152.520443 
L 117.236273 144.733517 
L 119.249098 135.803307 
L 121.261924 125.636124 
L 123.274749 114.204425 
L 125.287575 101.605439 
L 129.313226 74.403585 
L 131.326052 61.338667 
L 132.667936 53.61667 
L 134.00982 47.168829 
L 134.680762 44.549991 
L 135.351703 42.39551 
L 136.022645 40.74367 
L 136.693587 39.624817 
L 137.364529 39.06 
L 138.035471 39.06 
L 138.706413 39.624817 
L 139.377355 40.74367 
L 140.048297 42.39551 
L 140.719238 44.549991 
L 142.061122 50.20743 
L 143.403006 57.344699 
L 145.415832 69.91708 
L 152.125251 114.204425 
L 154.138076 125.636124 
L 156.150902 135.803307 
L 158.163727 144.733517 
L 160.176553 152.520443 
L 162.189379 159.285861 
L 164.202204 165.157232 
L 166.21503 170.255801 
L 168.227856 174.691123 
L 170.240681 178.559268 
L 172.253507 181.942976 
L 174.266333 184.912742 
L 176.279158 187.528263 
L 178.291984 189.839937 
L 180.975752 192.522006 
L 183.659519 194.821603 
L 186.343287 196.80501 
L 189.027054 198.525447 
L 192.381764 200.370819 
L 195.736473 201.938363 
L 199.091182 203.279774 
L 203.116834 204.647405 
L 207.813427 205.976282 
L 212.51002 207.078772 
L 217.877555 208.122453 
L 223.916032 209.08285 
L 231.296393 210.024149 
L 240.018637 210.893894 
L 250.082766 211.664036 
L 262.159719 212.358922 
L 276.920441 212.97975 
L 295.706814 213.536119 
L 305.1 213.747702 
L 305.1 213.747702 
" style="fill:none;stroke:#ff7f0e;stroke-linecap:square;stroke-width:1.5;"/>
   </g>
   <g id="line2d_21">
    <path clip-path="url(#pe53eed0bb3)" d="M 54 215.46 
L 148.602806 215.309012 
L 172.756713 215.079183 
L 184.833667 214.761598 
L 192.214028 214.349049 
L 196.910621 213.876078 
L 200.265331 213.334829 
L 202.949098 212.682114 
L 204.961924 211.980115 
L 206.974749 210.984336 
L 208.316633 210.071346 
L 209.658517 208.859292 
L 211.000401 207.20749 
L 212.342285 204.886988 
L 213.013226 203.364406 
L 213.684168 201.511775 
L 214.35511 199.235511 
L 215.026052 196.41141 
L 215.696994 192.875544 
L 216.367936 188.415711 
L 217.038878 182.76994 
L 217.70982 175.649297 
L 218.380762 166.82407 
L 220.393587 134.555979 
L 221.064529 128.119479 
L 221.735471 128.119479 
L 222.406413 134.555979 
L 225.09018 175.649297 
L 225.761122 182.76994 
L 226.432064 188.415711 
L 227.103006 192.875544 
L 227.773948 196.41141 
L 228.44489 199.235511 
L 229.115832 201.511775 
L 229.786774 203.364406 
L 231.128657 206.150148 
L 232.470541 208.1 
L 233.812425 209.509969 
L 235.154309 210.558727 
L 236.496192 211.358019 
L 238.509018 212.24044 
L 240.521844 212.870297 
L 243.205611 213.46272 
L 246.560321 213.959802 
L 251.256914 214.399354 
L 257.966333 214.761598 
L 268.030461 215.042673 
L 284.804008 215.249896 
L 317.68016 215.388701 
L 388.8 215.46 
L 388.8 215.46 
" style="fill:none;stroke:#2ca02c;stroke-linecap:square;stroke-width:1.5;"/>
   </g>
   <g id="line2d_22">
    <path clip-path="url(#pe53eed0bb3)" d="M 154.44 215.319221 
L 212.141002 215.086644 
L 239.649619 214.770604 
L 255.752224 214.380691 
L 266.487295 213.917041 
L 274.538597 213.351741 
L 280.577074 212.705064 
L 285.273667 211.980256 
L 289.299319 211.114068 
L 292.654028 210.129946 
L 295.337796 209.091821 
L 297.350621 208.110563 
L 299.363447 206.896992 
L 301.376273 205.376677 
L 302.718156 204.143052 
L 304.06004 202.687426 
L 305.401924 200.959097 
L 306.743808 198.894658 
L 308.085691 196.415557 
L 309.427575 193.426419 
L 310.769459 189.815975 
L 312.111343 185.464449 
L 313.453226 180.264731 
L 314.79511 174.169379 
L 316.807936 163.636789 
L 318.820762 153.021868 
L 319.491703 150.044739 
L 320.162645 147.618782 
L 320.833587 145.899036 
L 321.504529 145.006065 
L 322.175471 145.006065 
L 322.846413 145.899036 
L 323.517355 147.618782 
L 324.188297 150.044739 
L 325.53018 156.382902 
L 329.555832 177.327583 
L 330.897715 182.975772 
L 332.239599 187.740227 
L 333.581483 191.706304 
L 334.923367 194.991366 
L 336.265251 197.712499 
L 337.607134 199.97342 
L 338.949018 201.860985 
L 340.290902 203.44589 
L 341.632786 204.784874 
L 343.645611 206.42872 
L 345.658437 207.735035 
L 347.671263 208.786871 
L 350.35503 209.894753 
L 353.038798 210.754933 
L 356.393507 211.582168 
L 360.419158 212.321415 
L 365.115752 212.949442 
L 371.154228 213.518353 
L 379.205531 214.023584 
L 389.940601 214.444639 
L 404.701323 214.782174 
L 426.842405 215.049506 
L 433 215.097249 
L 433 215.097249 
" style="fill:none;stroke:#d62728;stroke-linecap:square;stroke-width:1.5;"/>
   </g>
   <g id="patch_3">
    <path d="M 54 224.28 
L 54 30.24 
" style="fill:none;stroke:#000000;stroke-linecap:square;stroke-linejoin:miter;stroke-width:0.8;"/>
   </g>
   <g id="patch_4">
    <path d="M 388.8 224.28 
L 388.8 30.24 
" style="fill:none;stroke:#000000;stroke-linecap:square;stroke-linejoin:miter;stroke-width:0.8;"/>
   </g>
   <g id="patch_5">
    <path d="M 54 224.28 
L 388.8 224.28 
" style="fill:none;stroke:#000000;stroke-linecap:square;stroke-linejoin:miter;stroke-width:0.8;"/>
   </g>
   <g id="patch_6">
    <path d="M 54 30.24 
L 388.8 30.24 
" style="fill:none;stroke:#000000;stroke-linecap:square;stroke-linejoin:miter;stroke-width:0.8;"/>
   </g>
   <g id="text_21">
    <!-- Lorentian Distribution -->
    <defs>
     <path d="M 9.8125 72.90625 
L 19.671875 72.90625 
L 19.671875 8.296875 
L 55.171875 8.296875 
L 55.171875 0 
L 9.8125 0 
z
" id="DejaVuSans-4c"/>
     <path d="M 44.28125 53.078125 
L 44.28125 44.578125 
Q 40.484375 46.53125 36.375 47.5 
Q 32.28125 48.484375 27.875 48.484375 
Q 21.1875 48.484375 17.84375 46.4375 
Q 14.5 44.390625 14.5 40.28125 
Q 14.5 37.15625 16.890625 35.375 
Q 19.28125 33.59375 26.515625 31.984375 
L 29.59375 31.296875 
Q 39.15625 29.25 43.1875 25.515625 
Q 47.21875 21.78125 47.21875 15.09375 
Q 47.21875 7.46875 41.1875 3.015625 
Q 35.15625 -1.421875 24.609375 -1.421875 
Q 20.21875 -1.421875 15.453125 -0.5625 
Q 10.6875 0.296875 5.421875 2 
L 5.421875 11.28125 
Q 10.40625 8.6875 15.234375 7.390625 
Q 20.0625 6.109375 24.8125 6.109375 
Q 31.15625 6.109375 34.5625 8.28125 
Q 37.984375 10.453125 37.984375 14.40625 
Q 37.984375 18.0625 35.515625 20.015625 
Q 33.0625 21.96875 24.703125 23.78125 
L 21.578125 24.515625 
Q 13.234375 26.265625 9.515625 29.90625 
Q 5.8125 33.546875 5.8125 39.890625 
Q 5.8125 47.609375 11.28125 51.796875 
Q 16.75 56 26.8125 56 
Q 31.78125 56 36.171875 55.265625 
Q 40.578125 54.546875 44.28125 53.078125 
" id="DejaVuSans-73"/>
     <path d="M 8.5 21.578125 
L 8.5 54.6875 
L 17.484375 54.6875 
L 17.484375 21.921875 
Q 17.484375 14.15625 20.5 10.265625 
Q 23.53125 6.390625 29.59375 6.390625 
Q 36.859375 6.390625 41.078125 11.03125 
Q 45.3125 15.671875 45.3125 23.6875 
L 45.3125 54.6875 
L 54.296875 54.6875 
L 54.296875 0 
L 45.3125 0 
L 45.3125 8.40625 
Q 42.046875 3.421875 37.71875 1 
Q 33.40625 -1.421875 27.6875 -1.421875 
Q 18.265625 -1.421875 13.375 4.4375 
Q 8.5 10.296875 8.5 21.578125 
M 31.109375 56 
z
" id="DejaVuSans-75"/>
    </defs>
    <g transform="translate(156.019688 26.24)scale(0.12 -0.12)">
     <use xlink:href="#DejaVuSans-4c"/>
     <use x="55.697266" xlink:href="#DejaVuSans-6f"/>
     <use x="116.878906" xlink:href="#DejaVuSans-72"/>
     <use x="157.960938" xlink:href="#DejaVuSans-65"/>
     <use x="219.484375" xlink:href="#DejaVuSans-6e"/>
     <use x="282.863281" xlink:href="#DejaVuSans-74"/>
     <use x="322.072266" xlink:href="#DejaVuSans-69"/>
     <use x="349.855469" xlink:href="#DejaVuSans-61"/>
     <use x="411.134766" xlink:href="#DejaVuSans-6e"/>
     <use x="474.513672" xlink:href="#DejaVuSans-20"/>
     <use x="506.300781" xlink:href="#DejaVuSans-44"/>
     <use x="583.302734" xlink:href="#DejaVuSans-69"/>
     <use x="611.085938" xlink:href="#DejaVuSans-73"/>
     <use x="663.185547" xlink:href="#DejaVuSans-74"/>
     <use x="702.394531" xlink:href="#DejaVuSans-72"/>
     <use x="743.507812" xlink:href="#DejaVuSans-69"/>
     <use x="771.291016" xlink:href="#DejaVuSans-62"/>
     <use x="834.767578" xlink:href="#DejaVuSans-75"/>
     <use x="898.146484" xlink:href="#DejaVuSans-74"/>
     <use x="937.355469" xlink:href="#DejaVuSans-69"/>
     <use x="965.138672" xlink:href="#DejaVuSans-6f"/>
     <use x="1026.320312" xlink:href="#DejaVuSans-6e"/>
    </g>
   </g>
   <g id="legend_1">
    <g id="patch_7">
     <path d="M 173.4 97.04 
L 381.8 97.04 
Q 383.8 97.04 383.8 95.04 
L 383.8 37.24 
Q 383.8 35.24 381.8 35.24 
L 173.4 35.24 
Q 171.4 35.24 171.4 37.24 
L 171.4 95.04 
Q 171.4 97.04 173.4 97.04 
z
" style="fill:#ffffff;opacity:0.8;stroke:#cccccc;stroke-linejoin:miter;"/>
    </g>
    <g id="line2d_23">
     <path d="M 175.4 43.34 
L 195.4 43.34 
" style="fill:none;stroke:#1f77b4;stroke-linecap:square;stroke-width:1.5;"/>
    </g>
    <g id="line2d_24"/>
    <g id="text_22">
     <!-- b: $\Gamma$ = 2.0, $\mu$ = 0.0, Intensity = 5.0 -->
     <defs>
      <path d="M 11.71875 12.40625 
L 22.015625 12.40625 
L 22.015625 0 
L 11.71875 0 
z
M 11.71875 51.703125 
L 22.015625 51.703125 
L 22.015625 39.3125 
L 11.71875 39.3125 
z
" id="DejaVuSans-3a"/>
      <path d="M 9.8125 0 
L 9.8125 72.90625 
L 55.171875 72.90625 
L 55.171875 64.59375 
L 19.671875 64.59375 
L 19.671875 0 
z
" id="DejaVuSans-393"/>
      <path d="M 10.59375 45.40625 
L 73.1875 45.40625 
L 73.1875 37.203125 
L 10.59375 37.203125 
z
M 10.59375 25.484375 
L 73.1875 25.484375 
L 73.1875 17.1875 
L 10.59375 17.1875 
z
" id="DejaVuSans-3d"/>
      <path d="M 11.71875 12.40625 
L 22.015625 12.40625 
L 22.015625 4 
L 14.015625 -11.625 
L 7.71875 -11.625 
L 11.71875 4 
z
" id="DejaVuSans-2c"/>
      <path d="M -1.3125 -20.796875 
L 13.375 54.6875 
L 22.40625 54.6875 
L 15.765625 20.65625 
Q 15.578125 19.625 15.421875 18.359375 
Q 15.28125 17.09375 15.28125 15.828125 
Q 15.28125 11.28125 18.140625 8.828125 
Q 21 6.390625 26.3125 6.390625 
Q 33.546875 6.390625 37.984375 10.484375 
Q 42.4375 14.59375 44 22.796875 
L 50.203125 54.6875 
L 59.1875 54.6875 
L 51.03125 12.640625 
Q 50.828125 11.71875 50.75 11.03125 
Q 50.6875 10.359375 50.6875 9.8125 
Q 50.6875 8.296875 51.296875 7.59375 
Q 51.90625 6.890625 53.21875 6.890625 
Q 53.71875 6.890625 54.5625 7.125 
Q 55.421875 7.375 56.984375 8.015625 
L 55.609375 0.78125 
Q 53.46875 -0.296875 51.515625 -0.859375 
Q 49.5625 -1.421875 47.703125 -1.421875 
Q 44.484375 -1.421875 42.65625 0.625 
Q 40.828125 2.6875 40.828125 6.296875 
Q 38.09375 2.390625 34.296875 0.484375 
Q 30.515625 -1.421875 25.390625 -1.421875 
Q 20.84375 -1.421875 17.453125 0.671875 
Q 14.0625 2.78125 12.984375 6.203125 
L 7.71875 -20.796875 
z
" id="DejaVuSans-Oblique-3bc"/>
      <path d="M 9.8125 72.90625 
L 19.671875 72.90625 
L 19.671875 0 
L 9.8125 0 
z
" id="DejaVuSans-49"/>
      <path d="M 32.171875 -5.078125 
Q 28.375 -14.84375 24.75 -17.8125 
Q 21.140625 -20.796875 15.09375 -20.796875 
L 7.90625 -20.796875 
L 7.90625 -13.28125 
L 13.1875 -13.28125 
Q 16.890625 -13.28125 18.9375 -11.515625 
Q 21 -9.765625 23.484375 -3.21875 
L 25.09375 0.875 
L 2.984375 54.6875 
L 12.5 54.6875 
L 29.59375 11.921875 
L 46.6875 54.6875 
L 56.203125 54.6875 
z
" id="DejaVuSans-79"/>
     </defs>
     <g transform="translate(203.4 46.84)scale(0.1 -0.1)">
      <use transform="translate(0 0.015625)" xlink:href="#DejaVuSans-62"/>
      <use transform="translate(63.476562 0.015625)" xlink:href="#DejaVuSans-3a"/>
      <use transform="translate(97.167969 0.015625)" xlink:href="#DejaVuSans-20"/>
      <use transform="translate(128.955078 0.015625)" xlink:href="#DejaVuSans-393"/>
      <use transform="translate(184.667969 0.015625)" xlink:href="#DejaVuSans-20"/>
      <use transform="translate(216.455078 0.015625)" xlink:href="#DejaVuSans-3d"/>
      <use transform="translate(300.244141 0.015625)" xlink:href="#DejaVuSans-20"/>
      <use transform="translate(332.03125 0.015625)" xlink:href="#DejaVuSans-32"/>
      <use transform="translate(395.654297 0.015625)" xlink:href="#DejaVuSans-2e"/>
      <use transform="translate(427.441406 0.015625)" xlink:href="#DejaVuSans-30"/>
      <use transform="translate(491.064453 0.015625)" xlink:href="#DejaVuSans-2c"/>
      <use transform="translate(522.851562 0.015625)" xlink:href="#DejaVuSans-20"/>
      <use transform="translate(554.638672 0.015625)" xlink:href="#DejaVuSans-Oblique-3bc"/>
      <use transform="translate(618.261719 0.015625)" xlink:href="#DejaVuSans-20"/>
      <use transform="translate(650.048828 0.015625)" xlink:href="#DejaVuSans-3d"/>
      <use transform="translate(733.837891 0.015625)" xlink:href="#DejaVuSans-20"/>
      <use transform="translate(765.625 0.015625)" xlink:href="#DejaVuSans-30"/>
      <use transform="translate(829.248047 0.015625)" xlink:href="#DejaVuSans-2e"/>
      <use transform="translate(861.035156 0.015625)" xlink:href="#DejaVuSans-30"/>
      <use transform="translate(924.658203 0.015625)" xlink:href="#DejaVuSans-2c"/>
      <use transform="translate(956.445312 0.015625)" xlink:href="#DejaVuSans-20"/>
      <use transform="translate(988.232422 0.015625)" xlink:href="#DejaVuSans-49"/>
      <use transform="translate(1017.724609 0.015625)" xlink:href="#DejaVuSans-6e"/>
      <use transform="translate(1081.103516 0.015625)" xlink:href="#DejaVuSans-74"/>
      <use transform="translate(1120.3125 0.015625)" xlink:href="#DejaVuSans-65"/>
      <use transform="translate(1181.835938 0.015625)" xlink:href="#DejaVuSans-6e"/>
      <use transform="translate(1245.214844 0.015625)" xlink:href="#DejaVuSans-73"/>
      <use transform="translate(1297.314453 0.015625)" xlink:href="#DejaVuSans-69"/>
      <use transform="translate(1325.097656 0.015625)" xlink:href="#DejaVuSans-74"/>
      <use transform="translate(1364.306641 0.015625)" xlink:href="#DejaVuSans-79"/>
      <use transform="translate(1423.486328 0.015625)" xlink:href="#DejaVuSans-20"/>
      <use transform="translate(1455.273438 0.015625)" xlink:href="#DejaVuSans-3d"/>
      <use transform="translate(1539.0625 0.015625)" xlink:href="#DejaVuSans-20"/>
      <use transform="translate(1570.849609 0.015625)" xlink:href="#DejaVuSans-35"/>
      <use transform="translate(1634.472656 0.015625)" xlink:href="#DejaVuSans-2e"/>
      <use transform="translate(1666.259766 0.015625)" xlink:href="#DejaVuSans-30"/>
     </g>
    </g>
    <g id="line2d_25">
     <path d="M 175.4 58.04 
L 195.4 58.04 
" style="fill:none;stroke:#ff7f0e;stroke-linecap:square;stroke-width:1.5;"/>
    </g>
    <g id="line2d_26"/>
    <g id="text_23">
     <!-- a: $\Gamma$ = 1.0, $\mu$ = -5.0, Intensity = 5.0 -->
     <defs>
      <path d="M 4.890625 31.390625 
L 31.203125 31.390625 
L 31.203125 23.390625 
L 4.890625 23.390625 
z
" id="DejaVuSans-2d"/>
     </defs>
     <g transform="translate(203.4 61.54)scale(0.1 -0.1)">
      <use transform="translate(0 0.015625)" xlink:href="#DejaVuSans-61"/>
      <use transform="translate(61.279297 0.015625)" xlink:href="#DejaVuSans-3a"/>
      <use transform="translate(94.970703 0.015625)" xlink:href="#DejaVuSans-20"/>
      <use transform="translate(126.757812 0.015625)" xlink:href="#DejaVuSans-393"/>
      <use transform="translate(182.470703 0.015625)" xlink:href="#DejaVuSans-20"/>
      <use transform="translate(214.257812 0.015625)" xlink:href="#DejaVuSans-3d"/>
      <use transform="translate(298.046875 0.015625)" xlink:href="#DejaVuSans-20"/>
      <use transform="translate(329.833984 0.015625)" xlink:href="#DejaVuSans-31"/>
      <use transform="translate(393.457031 0.015625)" xlink:href="#DejaVuSans-2e"/>
      <use transform="translate(425.244141 0.015625)" xlink:href="#DejaVuSans-30"/>
      <use transform="translate(488.867188 0.015625)" xlink:href="#DejaVuSans-2c"/>
      <use transform="translate(520.654297 0.015625)" xlink:href="#DejaVuSans-20"/>
      <use transform="translate(552.441406 0.015625)" xlink:href="#DejaVuSans-Oblique-3bc"/>
      <use transform="translate(616.064453 0.015625)" xlink:href="#DejaVuSans-20"/>
      <use transform="translate(647.851562 0.015625)" xlink:href="#DejaVuSans-3d"/>
      <use transform="translate(731.640625 0.015625)" xlink:href="#DejaVuSans-20"/>
      <use transform="translate(763.427734 0.015625)" xlink:href="#DejaVuSans-2d"/>
      <use transform="translate(799.511719 0.015625)" xlink:href="#DejaVuSans-35"/>
      <use transform="translate(863.134766 0.015625)" xlink:href="#DejaVuSans-2e"/>
      <use transform="translate(894.921875 0.015625)" xlink:href="#DejaVuSans-30"/>
      <use transform="translate(958.544922 0.015625)" xlink:href="#DejaVuSans-2c"/>
      <use transform="translate(990.332031 0.015625)" xlink:href="#DejaVuSans-20"/>
      <use transform="translate(1022.119141 0.015625)" xlink:href="#DejaVuSans-49"/>
      <use transform="translate(1051.611328 0.015625)" xlink:href="#DejaVuSans-6e"/>
      <use transform="translate(1114.990234 0.015625)" xlink:href="#DejaVuSans-74"/>
      <use transform="translate(1154.199219 0.015625)" xlink:href="#DejaVuSans-65"/>
      <use transform="translate(1215.722656 0.015625)" xlink:href="#DejaVuSans-6e"/>
      <use transform="translate(1279.101562 0.015625)" xlink:href="#DejaVuSans-73"/>
      <use transform="translate(1331.201172 0.015625)" xlink:href="#DejaVuSans-69"/>
      <use transform="translate(1358.984375 0.015625)" xlink:href="#DejaVuSans-74"/>
      <use transform="translate(1398.193359 0.015625)" xlink:href="#DejaVuSans-79"/>
      <use transform="translate(1457.373047 0.015625)" xlink:href="#DejaVuSans-20"/>
      <use transform="translate(1489.160156 0.015625)" xlink:href="#DejaVuSans-3d"/>
      <use transform="translate(1572.949219 0.015625)" xlink:href="#DejaVuSans-20"/>
      <use transform="translate(1604.736328 0.015625)" xlink:href="#DejaVuSans-35"/>
      <use transform="translate(1668.359375 0.015625)" xlink:href="#DejaVuSans-2e"/>
      <use transform="translate(1700.146484 0.015625)" xlink:href="#DejaVuSans-30"/>
     </g>
    </g>
    <g id="line2d_27">
     <path d="M 175.4 72.74 
L 195.4 72.74 
" style="fill:none;stroke:#2ca02c;stroke-linecap:square;stroke-width:1.5;"/>
    </g>
    <g id="line2d_28"/>
    <g id="text_24">
     <!-- c: $\Gamma$ = 0.2, $\mu$ = 0.0, Intensity = 0.5 -->
     <defs>
      <path d="M 48.78125 52.59375 
L 48.78125 44.1875 
Q 44.96875 46.296875 41.140625 47.34375 
Q 37.3125 48.390625 33.40625 48.390625 
Q 24.65625 48.390625 19.8125 42.84375 
Q 14.984375 37.3125 14.984375 27.296875 
Q 14.984375 17.28125 19.8125 11.734375 
Q 24.65625 6.203125 33.40625 6.203125 
Q 37.3125 6.203125 41.140625 7.25 
Q 44.96875 8.296875 48.78125 10.40625 
L 48.78125 2.09375 
Q 45.015625 0.34375 40.984375 -0.53125 
Q 36.96875 -1.421875 32.421875 -1.421875 
Q 20.0625 -1.421875 12.78125 6.34375 
Q 5.515625 14.109375 5.515625 27.296875 
Q 5.515625 40.671875 12.859375 48.328125 
Q 20.21875 56 33.015625 56 
Q 37.15625 56 41.109375 55.140625 
Q 45.0625 54.296875 48.78125 52.59375 
" id="DejaVuSans-63"/>
     </defs>
     <g transform="translate(203.4 76.24)scale(0.1 -0.1)">
      <use transform="translate(0 0.015625)" xlink:href="#DejaVuSans-63"/>
      <use transform="translate(54.980469 0.015625)" xlink:href="#DejaVuSans-3a"/>
      <use transform="translate(88.671875 0.015625)" xlink:href="#DejaVuSans-20"/>
      <use transform="translate(120.458984 0.015625)" xlink:href="#DejaVuSans-393"/>
      <use transform="translate(176.171875 0.015625)" xlink:href="#DejaVuSans-20"/>
      <use transform="translate(207.958984 0.015625)" xlink:href="#DejaVuSans-3d"/>
      <use transform="translate(291.748047 0.015625)" xlink:href="#DejaVuSans-20"/>
      <use transform="translate(323.535156 0.015625)" xlink:href="#DejaVuSans-30"/>
      <use transform="translate(387.158203 0.015625)" xlink:href="#DejaVuSans-2e"/>
      <use transform="translate(418.867188 0.015625)" xlink:href="#DejaVuSans-32"/>
      <use transform="translate(482.490234 0.015625)" xlink:href="#DejaVuSans-2c"/>
      <use transform="translate(514.277344 0.015625)" xlink:href="#DejaVuSans-20"/>
      <use transform="translate(546.064453 0.015625)" xlink:href="#DejaVuSans-Oblique-3bc"/>
      <use transform="translate(609.6875 0.015625)" xlink:href="#DejaVuSans-20"/>
      <use transform="translate(641.474609 0.015625)" xlink:href="#DejaVuSans-3d"/>
      <use transform="translate(725.263672 0.015625)" xlink:href="#DejaVuSans-20"/>
      <use transform="translate(757.050781 0.015625)" xlink:href="#DejaVuSans-30"/>
      <use transform="translate(820.673828 0.015625)" xlink:href="#DejaVuSans-2e"/>
      <use transform="translate(852.460938 0.015625)" xlink:href="#DejaVuSans-30"/>
      <use transform="translate(916.083984 0.015625)" xlink:href="#DejaVuSans-2c"/>
      <use transform="translate(947.871094 0.015625)" xlink:href="#DejaVuSans-20"/>
      <use transform="translate(979.658203 0.015625)" xlink:href="#DejaVuSans-49"/>
      <use transform="translate(1009.150391 0.015625)" xlink:href="#DejaVuSans-6e"/>
      <use transform="translate(1072.529297 0.015625)" xlink:href="#DejaVuSans-74"/>
      <use transform="translate(1111.738281 0.015625)" xlink:href="#DejaVuSans-65"/>
      <use transform="translate(1173.261719 0.015625)" xlink:href="#DejaVuSans-6e"/>
      <use transform="translate(1236.640625 0.015625)" xlink:href="#DejaVuSans-73"/>
      <use transform="translate(1288.740234 0.015625)" xlink:href="#DejaVuSans-69"/>
      <use transform="translate(1316.523438 0.015625)" xlink:href="#DejaVuSans-74"/>
      <use transform="translate(1355.732422 0.015625)" xlink:href="#DejaVuSans-79"/>
      <use transform="translate(1414.912109 0.015625)" xlink:href="#DejaVuSans-20"/>
      <use transform="translate(1446.699219 0.015625)" xlink:href="#DejaVuSans-3d"/>
      <use transform="translate(1530.488281 0.015625)" xlink:href="#DejaVuSans-20"/>
      <use transform="translate(1562.275391 0.015625)" xlink:href="#DejaVuSans-30"/>
      <use transform="translate(1625.898438 0.015625)" xlink:href="#DejaVuSans-2e"/>
      <use transform="translate(1657.685547 0.015625)" xlink:href="#DejaVuSans-35"/>
     </g>
    </g>
    <g id="line2d_29">
     <path d="M 175.4 87.44 
L 195.4 87.44 
" style="fill:none;stroke:#d62728;stroke-linecap:square;stroke-width:1.5;"/>
    </g>
    <g id="line2d_30"/>
    <g id="text_25">
     <!-- d: $\Gamma$ = 0.5, $\mu$ = 6.0, Intensity = 1.0 -->
     <g transform="translate(203.4 90.94)scale(0.1 -0.1)">
      <use transform="translate(0 0.015625)" xlink:href="#DejaVuSans-64"/>
      <use transform="translate(63.476562 0.015625)" xlink:href="#DejaVuSans-3a"/>
      <use transform="translate(97.167969 0.015625)" xlink:href="#DejaVuSans-20"/>
      <use transform="translate(128.955078 0.015625)" xlink:href="#DejaVuSans-393"/>
      <use transform="translate(184.667969 0.015625)" xlink:href="#DejaVuSans-20"/>
      <use transform="translate(216.455078 0.015625)" xlink:href="#DejaVuSans-3d"/>
      <use transform="translate(300.244141 0.015625)" xlink:href="#DejaVuSans-20"/>
      <use transform="translate(332.03125 0.015625)" xlink:href="#DejaVuSans-30"/>
      <use transform="translate(395.654297 0.015625)" xlink:href="#DejaVuSans-2e"/>
      <use transform="translate(427.441406 0.015625)" xlink:href="#DejaVuSans-35"/>
      <use transform="translate(491.064453 0.015625)" xlink:href="#DejaVuSans-2c"/>
      <use transform="translate(522.851562 0.015625)" xlink:href="#DejaVuSans-20"/>
      <use transform="translate(554.638672 0.015625)" xlink:href="#DejaVuSans-Oblique-3bc"/>
      <use transform="translate(618.261719 0.015625)" xlink:href="#DejaVuSans-20"/>
      <use transform="translate(650.048828 0.015625)" xlink:href="#DejaVuSans-3d"/>
      <use transform="translate(733.837891 0.015625)" xlink:href="#DejaVuSans-20"/>
      <use transform="translate(765.625 0.015625)" xlink:href="#DejaVuSans-36"/>
      <use transform="translate(829.248047 0.015625)" xlink:href="#DejaVuSans-2e"/>
      <use transform="translate(861.035156 0.015625)" xlink:href="#DejaVuSans-30"/>
      <use transform="translate(924.658203 0.015625)" xlink:href="#DejaVuSans-2c"/>
      <use transform="translate(956.445312 0.015625)" xlink:href="#DejaVuSans-20"/>
      <use transform="translate(988.232422 0.015625)" xlink:href="#DejaVuSans-49"/>
      <use transform="translate(1017.724609 0.015625)" xlink:href="#DejaVuSans-6e"/>
      <use transform="translate(1081.103516 0.015625)" xlink:href="#DejaVuSans-74"/>
      <use transform="translate(1120.3125 0.015625)" xlink:href="#DejaVuSans-65"/>
      <use transform="translate(1181.835938 0.015625)" xlink:href="#DejaVuSans-6e"/>
      <use transform="translate(1245.214844 0.015625)" xlink:href="#DejaVuSans-73"/>
      <use transform="translate(1297.314453 0.015625)" xlink:href="#DejaVuSans-69"/>
      <use transform="translate(1325.097656 0.015625)" xlink:href="#DejaVuSans-74"/>
      <use transform="translate(1364.306641 0.015625)" xlink:href="#DejaVuSans-79"/>
      <use transform="translate(1423.486328 0.015625)" xlink:href="#DejaVuSans-20"/>
      <use transform="translate(1455.273438 0.015625)" xlink:href="#DejaVuSans-3d"/>
      <use transform="translate(1539.0625 0.015625)" xlink:href="#DejaVuSans-20"/>
      <use transform="translate(1570.849609 0.015625)" xlink:href="#DejaVuSans-31"/>
      <use transform="translate(1634.472656 0.015625)" xlink:href="#DejaVuSans-2e"/>
      <use transform="translate(1666.259766 0.015625)" xlink:href="#DejaVuSans-30"/>
     </g>
    </g>
   </g>
  </g>
 </g>
 <defs>
  <clipPath id="pe53eed0bb3">
   <rect height="194.04" width="334.8" x="54" y="30.24"/>
  </clipPath>
 </defs>
</svg>
